<?xml version="1.0" encoding="UTF-8" standalone="no"?>
<!DOCTYPE svg PUBLIC "-//W3C//DTD SVG 1.1//EN"
 "http://www.w3.org/Graphics/SVG/1.1/DTD/svg11.dtd">
<!-- Generated by graphviz version 5.0.1 (20220820.1526)
 -->
<!-- Title: TOLLuK Pages: 1 -->
<svg width="3554pt" height="980pt"
 viewBox="0.00 0.00 3554.00 980.00" xmlns="http://www.w3.org/2000/svg" xmlns:xlink="http://www.w3.org/1999/xlink">
<g id="graph0" class="graph" transform="scale(1 1) rotate(0) translate(4 976)">
<title>TOLLuK</title>
<polygon fill="white" stroke="none" points="-4,4 -4,-976 3550,-976 3550,4 -4,4"/>
<g id="clust1" class="cluster">
<title>cluster_Legend</title>
<g id="a_clust1"><a xlink:href="https://opas.peppi.oulu.fi/fi/ohjelma/12350" xlink:title="Selite">
<polygon fill="none" stroke="black" stroke-dasharray="1,5" points="112,-8 112,-95 379,-95 379,-8 112,-8"/>
<text text-anchor="middle" x="245.5" y="-79.8" font-family="Times,serif" font-size="14.00">Selite</text>
</a>
</g>
</g>
<g id="clust2" class="cluster">
<title>cluster_year_1</title>
<polygon fill="none" stroke="black" stroke-dasharray="1,5" points="8,-103 8,-964 1225,-964 1225,-103 8,-103"/>
<text text-anchor="middle" x="616.5" y="-948.8" font-family="Times,serif" font-size="14.00">1. vuosi</text>
</g>
<g id="clust3" class="cluster">
<title>cluster_lang</title>
</g>
<g id="clust4" class="cluster">
<title>cluster_general</title>
</g>
<g id="clust5" class="cluster">
<title>cluster_intro</title>
</g>
<g id="clust6" class="cluster">
<title>cluster_programming</title>
</g>
<g id="clust7" class="cluster">
<title>cluster_sweng</title>
</g>
<g id="clust8" class="cluster">
<title>cluster_humanorg</title>
</g>
<g id="clust9" class="cluster">
<title>cluster_year_2</title>
<polygon fill="none" stroke="black" stroke-dasharray="1,5" points="1233,-293 1233,-834 2764.5,-834 2764.5,-293 1233,-293"/>
<text text-anchor="middle" x="1998.75" y="-818.8" font-family="Times,serif" font-size="14.00">2. vuosi</text>
</g>
<g id="clust10" class="cluster">
<title>cluster_programming</title>
</g>
<g id="clust11" class="cluster">
<title>cluster_sweng</title>
</g>
<g id="clust12" class="cluster">
<title>cluster_humanorg</title>
</g>
<g id="clust13" class="cluster">
<title>cluster_capstone</title>
</g>
<g id="clust14" class="cluster">
<title>cluster_year_3</title>
<polygon fill="none" stroke="black" stroke-dasharray="1,5" points="2452,-64 2452,-285 3538,-285 3538,-64 2452,-64"/>
<text text-anchor="middle" x="2995" y="-269.8" font-family="Times,serif" font-size="14.00">3.. vuosi</text>
</g>
<g id="clust15" class="cluster">
<title>cluster_general</title>
</g>
<g id="clust16" class="cluster">
<title>cluster_humanorg</title>
</g>
<g id="clust17" class="cluster">
<title>cluster_capstone</title>
</g>
<!-- legend -->
<g id="node1" class="node">
<title>legend</title>
<path fill="pink" stroke="black" d="M132,-17C132,-17 359,-17 359,-17 365,-17 371,-23 371,-29 371,-29 371,-51 371,-51 371,-57 365,-63 359,-63 359,-63 132,-63 132,-63 126,-63 120,-57 120,-51 120,-51 120,-29 120,-29 120,-23 126,-17 132,-17"/>
<text text-anchor="middle" x="161.5" y="-36.3" font-family="Times,serif" font-size="14.00">Kurssikoodi</text>
<polyline fill="none" stroke="black" points="203,-17 203,-63"/>
<text text-anchor="middle" x="247" y="-36.3" font-family="Times,serif" font-size="14.00">Kurssin nimi</text>
<polyline fill="none" stroke="black" points="291,-17 291,-63"/>
<text text-anchor="middle" x="331" y="-47.8" font-family="Times,serif" font-size="14.00">opintovuosi</text>
<polyline fill="none" stroke="black" points="291,-40 371,-40"/>
<text text-anchor="middle" x="331" y="-24.8" font-family="Times,serif" font-size="14.00">periodi</text>
</g>
<!-- c902164Y -->
<g id="node2" class="node">
<title>c902164Y</title>
<path fill="lightgrey" stroke="black" d="M36,-855C36,-855 455,-855 455,-855 461,-855 467,-861 467,-867 467,-867 467,-889 467,-889 467,-895 461,-901 455,-901 455,-901 36,-901 36,-901 30,-901 24,-895 24,-889 24,-889 24,-867 24,-867 24,-861 30,-855 36,-855"/>
<text text-anchor="middle" x="57.5" y="-874.3" font-family="Times,serif" font-size="14.00">902164Y</text>
<polyline fill="none" stroke="black" points="91,-855 91,-901"/>
<text text-anchor="middle" x="267.5" y="-874.3" font-family="Times,serif" font-size="14.00">English Communication for Information Processing, Reading</text>
<polyline fill="none" stroke="black" points="444,-855 444,-901"/>
<text text-anchor="middle" x="455.5" y="-885.8" font-family="Times,serif" font-size="14.00">1</text>
<polyline fill="none" stroke="black" points="444,-878 467,-878"/>
<text text-anchor="middle" x="455.5" y="-862.8" font-family="Times,serif" font-size="14.00">3</text>
</g>
<!-- c902165Y -->
<g id="node3" class="node">
<title>c902165Y</title>
<path fill="lightgrey" stroke="black" d="M515,-855C515,-855 948,-855 948,-855 954,-855 960,-861 960,-867 960,-867 960,-889 960,-889 960,-895 954,-901 948,-901 948,-901 515,-901 515,-901 509,-901 503,-895 503,-889 503,-889 503,-867 503,-867 503,-861 509,-855 515,-855"/>
<text text-anchor="middle" x="536.5" y="-874.3" font-family="Times,serif" font-size="14.00">902165Y</text>
<polyline fill="none" stroke="black" points="570,-855 570,-901"/>
<text text-anchor="middle" x="753.5" y="-874.3" font-family="Times,serif" font-size="14.00">English Communication for Information Processing, Oral Skills</text>
<polyline fill="none" stroke="black" points="937,-855 937,-901"/>
<text text-anchor="middle" x="948.5" y="-885.8" font-family="Times,serif" font-size="14.00">1</text>
<polyline fill="none" stroke="black" points="937,-878 960,-878"/>
<text text-anchor="middle" x="948.5" y="-862.8" font-family="Times,serif" font-size="14.00">4</text>
</g>
<!-- c902164Y&#45;&gt;c902165Y -->
<g id="edge1" class="edge">
<title>c902164Y&#45;&gt;c902165Y</title>
<path fill="none" stroke="black" d="M467.17,-878C467.17,-878 492.93,-878 492.93,-878"/>
<polygon fill="black" stroke="black" points="492.93,-881.5 502.93,-878 492.93,-874.5 492.93,-881.5"/>
</g>
<!-- c901048Y -->
<g id="node4" class="node">
<title>c901048Y</title>
<path fill="lightgrey" stroke="black" d="M59.5,-790C59.5,-790 431.5,-790 431.5,-790 437.5,-790 443.5,-796 443.5,-802 443.5,-802 443.5,-824 443.5,-824 443.5,-830 437.5,-836 431.5,-836 431.5,-836 59.5,-836 59.5,-836 53.5,-836 47.5,-830 47.5,-824 47.5,-824 47.5,-802 47.5,-802 47.5,-796 53.5,-790 59.5,-790"/>
<text text-anchor="middle" x="81" y="-809.3" font-family="Times,serif" font-size="14.00">901048Y</text>
<polyline fill="none" stroke="black" points="114.5,-790 114.5,-836"/>
<text text-anchor="middle" x="267.5" y="-809.3" font-family="Times,serif" font-size="14.00">Toinen kotimainen kieli (ruotsi), kirjallinen kielitaito</text>
<polyline fill="none" stroke="black" points="420.5,-790 420.5,-836"/>
<text text-anchor="middle" x="432" y="-820.8" font-family="Times,serif" font-size="14.00">1</text>
<polyline fill="none" stroke="black" points="420.5,-813 443.5,-813"/>
<text text-anchor="middle" x="432" y="-797.8" font-family="Times,serif" font-size="14.00">1</text>
</g>
<!-- c901049Y -->
<g id="node5" class="node">
<title>c901049Y</title>
<path fill="lightgrey" stroke="black" d="M62.5,-725C62.5,-725 428.5,-725 428.5,-725 434.5,-725 440.5,-731 440.5,-737 440.5,-737 440.5,-759 440.5,-759 440.5,-765 434.5,-771 428.5,-771 428.5,-771 62.5,-771 62.5,-771 56.5,-771 50.5,-765 50.5,-759 50.5,-759 50.5,-737 50.5,-737 50.5,-731 56.5,-725 62.5,-725"/>
<text text-anchor="middle" x="84" y="-744.3" font-family="Times,serif" font-size="14.00">901049Y</text>
<polyline fill="none" stroke="black" points="117.5,-725 117.5,-771"/>
<text text-anchor="middle" x="267.5" y="-744.3" font-family="Times,serif" font-size="14.00">Toinen kotimainen kieli (ruotsi), suullinen kielitaito</text>
<polyline fill="none" stroke="black" points="417.5,-725 417.5,-771"/>
<text text-anchor="middle" x="429" y="-755.8" font-family="Times,serif" font-size="14.00">1</text>
<polyline fill="none" stroke="black" points="417.5,-748 440.5,-748"/>
<text text-anchor="middle" x="429" y="-732.8" font-family="Times,serif" font-size="14.00">2</text>
</g>
<!-- c810020Y -->
<g id="node6" class="node">
<title>c810020Y</title>
<path fill="gainsboro" stroke="black" d="M145,-535C145,-535 346,-535 346,-535 352,-535 358,-541 358,-547 358,-547 358,-569 358,-569 358,-575 352,-581 346,-581 346,-581 145,-581 145,-581 139,-581 133,-575 133,-569 133,-569 133,-547 133,-547 133,-541 139,-535 145,-535"/>
<text text-anchor="middle" x="166.5" y="-554.3" font-family="Times,serif" font-size="14.00">810020Y</text>
<polyline fill="none" stroke="black" points="200,-535 200,-581"/>
<text text-anchor="middle" x="261.5" y="-554.3" font-family="Times,serif" font-size="14.00">Orientoivat opinnot</text>
<polyline fill="none" stroke="black" points="323,-535 323,-581"/>
<text text-anchor="middle" x="340.5" y="-565.8" font-family="Times,serif" font-size="14.00">1</text>
<polyline fill="none" stroke="black" points="323,-558 358,-558"/>
<text text-anchor="middle" x="340.5" y="-542.8" font-family="Times,serif" font-size="14.00">1&#45;2</text>
</g>
<!-- c030005P -->
<g id="node7" class="node">
<title>c030005P</title>
<path fill="gainsboro" stroke="black" d="M140.5,-470C140.5,-470 350.5,-470 350.5,-470 356.5,-470 362.5,-476 362.5,-482 362.5,-482 362.5,-504 362.5,-504 362.5,-510 356.5,-516 350.5,-516 350.5,-516 140.5,-516 140.5,-516 134.5,-516 128.5,-510 128.5,-504 128.5,-504 128.5,-482 128.5,-482 128.5,-476 134.5,-470 140.5,-470"/>
<text text-anchor="middle" x="161" y="-489.3" font-family="Times,serif" font-size="14.00">030005P</text>
<polyline fill="none" stroke="black" points="193.5,-470 193.5,-516"/>
<text text-anchor="middle" x="260.5" y="-489.3" font-family="Times,serif" font-size="14.00">Tiedonhankintakurssi</text>
<polyline fill="none" stroke="black" points="327.5,-470 327.5,-516"/>
<text text-anchor="middle" x="345" y="-500.8" font-family="Times,serif" font-size="14.00">1</text>
<polyline fill="none" stroke="black" points="327.5,-493 362.5,-493"/>
<text text-anchor="middle" x="345" y="-477.8" font-family="Times,serif" font-size="14.00">1&#45;2</text>
</g>
<!-- c811393A -->
<g id="node33" class="node">
<title>c811393A</title>
<path fill="azure" stroke="black" d="M2836,-176C2836,-176 3055,-176 3055,-176 3061,-176 3067,-182 3067,-188 3067,-188 3067,-210 3067,-210 3067,-216 3061,-222 3055,-222 3055,-222 2836,-222 2836,-222 2830,-222 2824,-216 2824,-210 2824,-210 2824,-188 2824,-188 2824,-182 2830,-176 2836,-176"/>
<text text-anchor="middle" x="2857.5" y="-195.3" font-family="Times,serif" font-size="14.00">811393A</text>
<polyline fill="none" stroke="black" points="2891,-176 2891,-222"/>
<text text-anchor="middle" x="2967.5" y="-195.3" font-family="Times,serif" font-size="14.00">Johdatus tutkimustyöhön</text>
<polyline fill="none" stroke="black" points="3044,-176 3044,-222"/>
<text text-anchor="middle" x="3055.5" y="-206.8" font-family="Times,serif" font-size="14.00">3</text>
<polyline fill="none" stroke="black" points="3044,-199 3067,-199"/>
<text text-anchor="middle" x="3055.5" y="-183.8" font-family="Times,serif" font-size="14.00">3</text>
</g>
<!-- c030005P&#45;&gt;c811393A -->
<g id="edge23" class="edge">
<title>c030005P&#45;&gt;c811393A</title>
<path fill="none" stroke="black" d="M362.84,-496.5C881.89,-496.5 2946,-496.5 2946,-496.5 2946,-496.5 2946,-232.34 2946,-232.34"/>
<polygon fill="black" stroke="black" points="2949.5,-232.34 2946,-222.34 2942.5,-232.34 2949.5,-232.34"/>
</g>
<!-- c811383A -->
<g id="node34" class="node">
<title>c811383A</title>
<path fill="azure" stroke="black" d="M3115,-111C3115,-111 3291,-111 3291,-111 3297,-111 3303,-117 3303,-123 3303,-123 3303,-145 3303,-145 3303,-151 3297,-157 3291,-157 3291,-157 3115,-157 3115,-157 3109,-157 3103,-151 3103,-145 3103,-145 3103,-123 3103,-123 3103,-117 3109,-111 3115,-111"/>
<text text-anchor="middle" x="3136.5" y="-130.3" font-family="Times,serif" font-size="14.00">811383A</text>
<polyline fill="none" stroke="black" points="3170,-111 3170,-157"/>
<text text-anchor="middle" x="3219" y="-130.3" font-family="Times,serif" font-size="14.00">LuK&#45;tutkielma</text>
<polyline fill="none" stroke="black" points="3268,-111 3268,-157"/>
<text text-anchor="middle" x="3285.5" y="-141.8" font-family="Times,serif" font-size="14.00">3</text>
<polyline fill="none" stroke="black" points="3268,-134 3303,-134"/>
<text text-anchor="middle" x="3285.5" y="-118.8" font-family="Times,serif" font-size="14.00">3&#45;4</text>
</g>
<!-- c030005P&#45;&gt;c811383A -->
<g id="edge24" class="edge">
<title>c030005P&#45;&gt;c811383A</title>
<path fill="none" stroke="black" d="M362.77,-506.5C915.86,-506.5 3237,-506.5 3237,-506.5 3237,-506.5 3237,-167.02 3237,-167.02"/>
<polygon fill="black" stroke="black" points="3240.5,-167.02 3237,-157.02 3233.5,-167.02 3240.5,-167.02"/>
</g>
<!-- c810136P -->
<g id="node8" class="node">
<title>c810136P</title>
<path fill="yellow" stroke="black" d="M113.5,-310C113.5,-310 377.5,-310 377.5,-310 383.5,-310 389.5,-316 389.5,-322 389.5,-322 389.5,-344 389.5,-344 389.5,-350 383.5,-356 377.5,-356 377.5,-356 113.5,-356 113.5,-356 107.5,-356 101.5,-350 101.5,-344 101.5,-344 101.5,-322 101.5,-322 101.5,-316 107.5,-310 113.5,-310"/>
<text text-anchor="middle" x="134" y="-329.3" font-family="Times,serif" font-size="14.00">810136P</text>
<polyline fill="none" stroke="black" points="166.5,-310 166.5,-356"/>
<text text-anchor="middle" x="266.5" y="-329.3" font-family="Times,serif" font-size="14.00">Johdatus tietojenkäsittelytieteisiin</text>
<polyline fill="none" stroke="black" points="366.5,-310 366.5,-356"/>
<text text-anchor="middle" x="378" y="-340.8" font-family="Times,serif" font-size="14.00">1</text>
<polyline fill="none" stroke="black" points="366.5,-333 389.5,-333"/>
<text text-anchor="middle" x="378" y="-317.8" font-family="Times,serif" font-size="14.00">1</text>
</g>
<!-- c811168P -->
<g id="node9" class="node">
<title>c811168P</title>
<path fill="yellow" stroke="black" d="M663,-375C663,-375 800,-375 800,-375 806,-375 812,-381 812,-387 812,-387 812,-409 812,-409 812,-415 806,-421 800,-421 800,-421 663,-421 663,-421 657,-421 651,-415 651,-409 651,-409 651,-387 651,-387 651,-381 657,-375 663,-375"/>
<text text-anchor="middle" x="683.5" y="-394.3" font-family="Times,serif" font-size="14.00">811168P</text>
<polyline fill="none" stroke="black" points="716,-375 716,-421"/>
<text text-anchor="middle" x="752.5" y="-394.3" font-family="Times,serif" font-size="14.00">Tietoturva</text>
<polyline fill="none" stroke="black" points="789,-375 789,-421"/>
<text text-anchor="middle" x="800.5" y="-405.8" font-family="Times,serif" font-size="14.00">1</text>
<polyline fill="none" stroke="black" points="789,-398 812,-398"/>
<text text-anchor="middle" x="800.5" y="-382.8" font-family="Times,serif" font-size="14.00">3</text>
</g>
<!-- c810136P&#45;&gt;c811168P -->
<g id="edge3" class="edge">
<title>c810136P&#45;&gt;c811168P</title>
<path fill="none" stroke="black" d="M382,-356.25C382,-372.08 382,-390.17 382,-390.17 382,-390.17 640.88,-390.17 640.88,-390.17"/>
<polygon fill="black" stroke="black" points="640.88,-393.67 650.88,-390.17 640.88,-386.67 640.88,-393.67"/>
</g>
<!-- c811174P -->
<g id="node10" class="node">
<title>c811174P</title>
<path fill="yellow" stroke="black" d="M595,-310C595,-310 868,-310 868,-310 874,-310 880,-316 880,-322 880,-322 880,-344 880,-344 880,-350 874,-356 868,-356 868,-356 595,-356 595,-356 589,-356 583,-350 583,-344 583,-344 583,-322 583,-322 583,-316 589,-310 595,-310"/>
<text text-anchor="middle" x="615.5" y="-329.3" font-family="Times,serif" font-size="14.00">811174P</text>
<polyline fill="none" stroke="black" points="648,-310 648,-356"/>
<text text-anchor="middle" x="752.5" y="-329.3" font-family="Times,serif" font-size="14.00">Ohjelmistoliiketoiminnan perusteet</text>
<polyline fill="none" stroke="black" points="857,-310 857,-356"/>
<text text-anchor="middle" x="868.5" y="-340.8" font-family="Times,serif" font-size="14.00">1</text>
<polyline fill="none" stroke="black" points="857,-333 880,-333"/>
<text text-anchor="middle" x="868.5" y="-317.8" font-family="Times,serif" font-size="14.00">3</text>
</g>
<!-- c810136P&#45;&gt;c811174P -->
<g id="edge5" class="edge">
<title>c810136P&#45;&gt;c811174P</title>
<path fill="none" stroke="black" d="M389.67,-333C389.67,-333 572.74,-333 572.74,-333"/>
<polygon fill="black" stroke="black" points="572.74,-336.5 582.74,-333 572.74,-329.5 572.74,-336.5"/>
</g>
<!-- c811103P -->
<g id="node14" class="node">
<title>c811103P</title>
<path fill="#caff70" stroke="black" d="M608,-215C608,-215 855,-215 855,-215 861,-215 867,-221 867,-227 867,-227 867,-249 867,-249 867,-255 861,-261 855,-261 855,-261 608,-261 608,-261 602,-261 596,-255 596,-249 596,-249 596,-227 596,-227 596,-221 602,-215 608,-215"/>
<text text-anchor="middle" x="628.5" y="-234.3" font-family="Times,serif" font-size="14.00">811103P</text>
<polyline fill="none" stroke="black" points="661,-215 661,-261"/>
<text text-anchor="middle" x="752.5" y="-234.3" font-family="Times,serif" font-size="14.00">Johdatus ohjelmistotuotantoon</text>
<polyline fill="none" stroke="black" points="844,-215 844,-261"/>
<text text-anchor="middle" x="855.5" y="-245.8" font-family="Times,serif" font-size="14.00">1</text>
<polyline fill="none" stroke="black" points="844,-238 867,-238"/>
<text text-anchor="middle" x="855.5" y="-222.8" font-family="Times,serif" font-size="14.00">2</text>
</g>
<!-- c810136P&#45;&gt;c811103P -->
<g id="edge2" class="edge">
<title>c810136P&#45;&gt;c811103P</title>
<path fill="none" stroke="black" d="M384,-309.52C384,-281.38 384,-238 384,-238 384,-238 585.65,-238 585.65,-238"/>
<polygon fill="black" stroke="black" points="585.65,-241.5 595.65,-238 585.65,-234.5 585.65,-241.5"/>
</g>
<!-- c810136P&#45;&gt;c811383A -->
<g id="edge26" class="edge">
<title>c810136P&#45;&gt;c811383A</title>
<path fill="none" stroke="black" d="M378,-309.79C378,-264.99 378,-171 378,-171 378,-171 3170,-171 3170,-171 3170,-171 3170,-167.22 3170,-167.22"/>
<polygon fill="black" stroke="black" points="3173.5,-167.22 3170,-157.22 3166.5,-167.22 3173.5,-167.22"/>
</g>
<!-- c811102P -->
<g id="node11" class="node">
<title>c811102P</title>
<path fill="yellow" stroke="black" d="M146.5,-375C146.5,-375 344.5,-375 344.5,-375 350.5,-375 356.5,-381 356.5,-387 356.5,-387 356.5,-409 356.5,-409 356.5,-415 350.5,-421 344.5,-421 344.5,-421 146.5,-421 146.5,-421 140.5,-421 134.5,-415 134.5,-409 134.5,-409 134.5,-387 134.5,-387 134.5,-381 140.5,-375 146.5,-375"/>
<text text-anchor="middle" x="167" y="-394.3" font-family="Times,serif" font-size="14.00">811102P</text>
<polyline fill="none" stroke="black" points="199.5,-375 199.5,-421"/>
<text text-anchor="middle" x="266.5" y="-394.3" font-family="Times,serif" font-size="14.00">Laitteet ja tietoverkot</text>
<polyline fill="none" stroke="black" points="333.5,-375 333.5,-421"/>
<text text-anchor="middle" x="345" y="-405.8" font-family="Times,serif" font-size="14.00">1</text>
<polyline fill="none" stroke="black" points="333.5,-398 356.5,-398"/>
<text text-anchor="middle" x="345" y="-382.8" font-family="Times,serif" font-size="14.00">1</text>
</g>
<!-- c811102P&#45;&gt;c811168P -->
<g id="edge4" class="edge">
<title>c811102P&#45;&gt;c811168P</title>
<path fill="none" stroke="black" d="M356.69,-405.83C356.69,-405.83 640.74,-405.83 640.74,-405.83"/>
<polygon fill="black" stroke="black" points="640.74,-409.33 650.74,-405.83 640.74,-402.33 640.74,-409.33"/>
</g>
<!-- c811104P -->
<g id="node12" class="node">
<title>c811104P</title>
<path fill="#ffd700" stroke="black" d="M161,-120C161,-120 330,-120 330,-120 336,-120 342,-126 342,-132 342,-132 342,-154 342,-154 342,-160 336,-166 330,-166 330,-166 161,-166 161,-166 155,-166 149,-160 149,-154 149,-154 149,-132 149,-132 149,-126 155,-120 161,-120"/>
<text text-anchor="middle" x="181.5" y="-139.3" font-family="Times,serif" font-size="14.00">811104P</text>
<polyline fill="none" stroke="black" points="214,-120 214,-166"/>
<text text-anchor="middle" x="260.5" y="-139.3" font-family="Times,serif" font-size="14.00">Ohjelmointi 1</text>
<polyline fill="none" stroke="black" points="307,-120 307,-166"/>
<text text-anchor="middle" x="324.5" y="-150.8" font-family="Times,serif" font-size="14.00">1</text>
<polyline fill="none" stroke="black" points="307,-143 342,-143"/>
<text text-anchor="middle" x="324.5" y="-127.8" font-family="Times,serif" font-size="14.00">1&#45;2</text>
</g>
<!-- c811322A -->
<g id="node13" class="node">
<title>c811322A</title>
<path fill="#ffd700" stroke="black" d="M646,-120C646,-120 817,-120 817,-120 823,-120 829,-126 829,-132 829,-132 829,-154 829,-154 829,-160 823,-166 817,-166 817,-166 646,-166 646,-166 640,-166 634,-160 634,-154 634,-154 634,-132 634,-132 634,-126 640,-120 646,-120"/>
<text text-anchor="middle" x="667.5" y="-139.3" font-family="Times,serif" font-size="14.00">811322A</text>
<polyline fill="none" stroke="black" points="701,-120 701,-166"/>
<text text-anchor="middle" x="747.5" y="-139.3" font-family="Times,serif" font-size="14.00">Ohjelmointi 2</text>
<polyline fill="none" stroke="black" points="794,-120 794,-166"/>
<text text-anchor="middle" x="811.5" y="-150.8" font-family="Times,serif" font-size="14.00">1</text>
<polyline fill="none" stroke="black" points="794,-143 829,-143"/>
<text text-anchor="middle" x="811.5" y="-127.8" font-family="Times,serif" font-size="14.00">3&#45;4</text>
</g>
<!-- c811104P&#45;&gt;c811322A -->
<g id="edge8" class="edge">
<title>c811104P&#45;&gt;c811322A</title>
<path fill="none" stroke="black" d="M342.1,-143C342.1,-143 623.84,-143 623.84,-143"/>
<polygon fill="black" stroke="black" points="623.84,-146.5 633.84,-143 623.84,-139.5 623.84,-146.5"/>
</g>
<!-- c811325A -->
<g id="node18" class="node">
<title>c811325A</title>
<path fill="#ffd700" stroke="black" d="M1729,-310C1729,-310 1876,-310 1876,-310 1882,-310 1888,-316 1888,-322 1888,-322 1888,-344 1888,-344 1888,-350 1882,-356 1876,-356 1876,-356 1729,-356 1729,-356 1723,-356 1717,-350 1717,-344 1717,-344 1717,-322 1717,-322 1717,-316 1723,-310 1729,-310"/>
<text text-anchor="middle" x="1750.5" y="-329.3" font-family="Times,serif" font-size="14.00">811325A</text>
<polyline fill="none" stroke="black" points="1784,-310 1784,-356"/>
<text text-anchor="middle" x="1824.5" y="-329.3" font-family="Times,serif" font-size="14.00">Tietokannat</text>
<polyline fill="none" stroke="black" points="1865,-310 1865,-356"/>
<text text-anchor="middle" x="1876.5" y="-340.8" font-family="Times,serif" font-size="14.00">2</text>
<polyline fill="none" stroke="black" points="1865,-333 1888,-333"/>
<text text-anchor="middle" x="1876.5" y="-317.8" font-family="Times,serif" font-size="14.00">1</text>
</g>
<!-- c811104P&#45;&gt;c811325A -->
<g id="edge12" class="edge">
<title>c811104P&#45;&gt;c811325A</title>
<path fill="none" stroke="black" d="M246,-166.21C246,-206.59 246,-285.5 246,-285.5 246,-285.5 1803,-285.5 1803,-285.5 1803,-285.5 1803,-299.81 1803,-299.81"/>
<polygon fill="black" stroke="black" points="1799.5,-299.81 1803,-309.81 1806.5,-299.81 1799.5,-299.81"/>
</g>
<!-- c811312A -->
<g id="node19" class="node">
<title>c811312A</title>
<path fill="#ffd700" stroke="black" d="M1686.5,-440C1686.5,-440 1918.5,-440 1918.5,-440 1924.5,-440 1930.5,-446 1930.5,-452 1930.5,-452 1930.5,-474 1930.5,-474 1930.5,-480 1924.5,-486 1918.5,-486 1918.5,-486 1686.5,-486 1686.5,-486 1680.5,-486 1674.5,-480 1674.5,-474 1674.5,-474 1674.5,-452 1674.5,-452 1674.5,-446 1680.5,-440 1686.5,-440"/>
<text text-anchor="middle" x="1708" y="-459.3" font-family="Times,serif" font-size="14.00">811312A</text>
<polyline fill="none" stroke="black" points="1741.5,-440 1741.5,-486"/>
<text text-anchor="middle" x="1824.5" y="-459.3" font-family="Times,serif" font-size="14.00">Tietorakenteet ja algoritmit</text>
<polyline fill="none" stroke="black" points="1907.5,-440 1907.5,-486"/>
<text text-anchor="middle" x="1919" y="-470.8" font-family="Times,serif" font-size="14.00">2</text>
<polyline fill="none" stroke="black" points="1907.5,-463 1930.5,-463"/>
<text text-anchor="middle" x="1919" y="-447.8" font-family="Times,serif" font-size="14.00">2</text>
</g>
<!-- c811322A&#45;&gt;c811312A -->
<g id="edge11" class="edge">
<title>c811322A&#45;&gt;c811312A</title>
<path fill="none" stroke="black" d="M829.43,-159.75C1074.18,-159.75 1693,-159.75 1693,-159.75 1693,-159.75 1693,-429.71 1693,-429.71"/>
<polygon fill="black" stroke="black" points="1689.5,-429.71 1693,-439.71 1696.5,-429.71 1689.5,-429.71"/>
</g>
<!-- c811367A -->
<g id="node20" class="node">
<title>c811367A</title>
<path fill="#ffd700" stroke="black" d="M1723,-375C1723,-375 1882,-375 1882,-375 1888,-375 1894,-381 1894,-387 1894,-387 1894,-409 1894,-409 1894,-415 1888,-421 1882,-421 1882,-421 1723,-421 1723,-421 1717,-421 1711,-415 1711,-409 1711,-409 1711,-387 1711,-387 1711,-381 1717,-375 1723,-375"/>
<text text-anchor="middle" x="1744.5" y="-394.3" font-family="Times,serif" font-size="14.00">811367A</text>
<polyline fill="none" stroke="black" points="1778,-375 1778,-421"/>
<text text-anchor="middle" x="1824.5" y="-394.3" font-family="Times,serif" font-size="14.00">Ohjelmointi 3</text>
<polyline fill="none" stroke="black" points="1871,-375 1871,-421"/>
<text text-anchor="middle" x="1882.5" y="-405.8" font-family="Times,serif" font-size="14.00">2</text>
<polyline fill="none" stroke="black" points="1871,-398 1894,-398"/>
<text text-anchor="middle" x="1882.5" y="-382.8" font-family="Times,serif" font-size="14.00">3</text>
</g>
<!-- c811322A&#45;&gt;c811367A -->
<g id="edge9" class="edge">
<title>c811322A&#45;&gt;c811367A</title>
<path fill="none" stroke="black" d="M829.08,-164.25C870.32,-164.25 909,-164.25 909,-164.25 909,-164.25 909,-398 909,-398 909,-398 1700.66,-398 1700.66,-398"/>
<polygon fill="black" stroke="black" points="1700.66,-401.5 1710.66,-398 1700.66,-394.5 1700.66,-401.5"/>
</g>
<!-- c811301A -->
<g id="node22" class="node">
<title>c811301A</title>
<path fill="#caff70" stroke="black" d="M1261,-535C1261,-535 1560,-535 1560,-535 1566,-535 1572,-541 1572,-547 1572,-547 1572,-569 1572,-569 1572,-575 1566,-581 1560,-581 1560,-581 1261,-581 1261,-581 1255,-581 1249,-575 1249,-569 1249,-569 1249,-547 1249,-547 1249,-541 1255,-535 1261,-535"/>
<text text-anchor="middle" x="1282.5" y="-554.3" font-family="Times,serif" font-size="14.00">811301A</text>
<polyline fill="none" stroke="black" points="1316,-535 1316,-581"/>
<text text-anchor="middle" x="1432.5" y="-554.3" font-family="Times,serif" font-size="14.00"> Ohjelmistojen mallinnus ja suunnittelu</text>
<polyline fill="none" stroke="black" points="1549,-535 1549,-581"/>
<text text-anchor="middle" x="1560.5" y="-565.8" font-family="Times,serif" font-size="14.00">2</text>
<polyline fill="none" stroke="black" points="1549,-558 1572,-558"/>
<text text-anchor="middle" x="1560.5" y="-542.8" font-family="Times,serif" font-size="14.00">1</text>
</g>
<!-- c811322A&#45;&gt;c811301A -->
<g id="edge14" class="edge">
<title>c811322A&#45;&gt;c811301A</title>
<path fill="none" stroke="black" d="M829.22,-162C1017.25,-162 1411,-162 1411,-162 1411,-162 1411,-525 1411,-525"/>
<polygon fill="black" stroke="black" points="1407.5,-525 1411,-535 1414.5,-525 1407.5,-525"/>
</g>
<!-- c811391A -->
<g id="node15" class="node">
<title>c811391A</title>
<path fill="#caff70" stroke="black" d="M1008,-215C1008,-215 1197,-215 1197,-215 1203,-215 1209,-221 1209,-227 1209,-227 1209,-249 1209,-249 1209,-255 1203,-261 1197,-261 1197,-261 1008,-261 1008,-261 1002,-261 996,-255 996,-249 996,-249 996,-227 996,-227 996,-221 1002,-215 1008,-215"/>
<text text-anchor="middle" x="1029.5" y="-234.3" font-family="Times,serif" font-size="14.00">811391A</text>
<polyline fill="none" stroke="black" points="1063,-215 1063,-261"/>
<text text-anchor="middle" x="1124.5" y="-234.3" font-family="Times,serif" font-size="14.00">Vaatimusmäärittely</text>
<polyline fill="none" stroke="black" points="1186,-215 1186,-261"/>
<text text-anchor="middle" x="1197.5" y="-245.8" font-family="Times,serif" font-size="14.00">1</text>
<polyline fill="none" stroke="black" points="1186,-238 1209,-238"/>
<text text-anchor="middle" x="1197.5" y="-222.8" font-family="Times,serif" font-size="14.00">4</text>
</g>
<!-- c811103P&#45;&gt;c811391A -->
<g id="edge6" class="edge">
<title>c811103P&#45;&gt;c811391A</title>
<path fill="none" stroke="black" d="M867.01,-238C867.01,-238 985.81,-238 985.81,-238"/>
<polygon fill="black" stroke="black" points="985.81,-241.5 995.81,-238 985.81,-234.5 985.81,-241.5"/>
</g>
<!-- c811391A&#45;&gt;c811301A -->
<g id="edge13" class="edge">
<title>c811391A&#45;&gt;c811301A</title>
<path fill="none" stroke="black" d="M1103,-261.01C1103,-334.39 1103,-558 1103,-558 1103,-558 1238.65,-558 1238.65,-558"/>
<polygon fill="black" stroke="black" points="1238.65,-561.5 1248.65,-558 1238.65,-554.5 1238.65,-561.5"/>
</g>
<!-- c811166P -->
<g id="node16" class="node">
<title>c811166P</title>
<path fill="antiquewhite" stroke="black" d="M129.5,-630C129.5,-630 361.5,-630 361.5,-630 367.5,-630 373.5,-636 373.5,-642 373.5,-642 373.5,-664 373.5,-664 373.5,-670 367.5,-676 361.5,-676 361.5,-676 129.5,-676 129.5,-676 123.5,-676 117.5,-670 117.5,-664 117.5,-664 117.5,-642 117.5,-642 117.5,-636 123.5,-630 129.5,-630"/>
<text text-anchor="middle" x="150" y="-649.3" font-family="Times,serif" font-size="14.00">811166P</text>
<polyline fill="none" stroke="black" points="182.5,-630 182.5,-676"/>
<text text-anchor="middle" x="266.5" y="-649.3" font-family="Times,serif" font-size="14.00">Tietojärjestelmien perusteet</text>
<polyline fill="none" stroke="black" points="350.5,-630 350.5,-676"/>
<text text-anchor="middle" x="362" y="-660.8" font-family="Times,serif" font-size="14.00">1</text>
<polyline fill="none" stroke="black" points="350.5,-653 373.5,-653"/>
<text text-anchor="middle" x="362" y="-637.8" font-family="Times,serif" font-size="14.00">2</text>
</g>
<!-- c812360A -->
<g id="node17" class="node">
<title>c812360A</title>
<path fill="antiquewhite" stroke="black" d="M537,-630C537,-630 926,-630 926,-630 932,-630 938,-636 938,-642 938,-642 938,-664 938,-664 938,-670 932,-676 926,-676 926,-676 537,-676 537,-676 531,-676 525,-670 525,-664 525,-664 525,-642 525,-642 525,-636 531,-630 537,-630"/>
<text text-anchor="middle" x="558.5" y="-649.3" font-family="Times,serif" font-size="14.00">812360A</text>
<polyline fill="none" stroke="black" points="592,-630 592,-676"/>
<text text-anchor="middle" x="753.5" y="-649.3" font-family="Times,serif" font-size="14.00">Tietojärjestelmien mallintaminen, suunnittelu ja kehitys</text>
<polyline fill="none" stroke="black" points="915,-630 915,-676"/>
<text text-anchor="middle" x="926.5" y="-660.8" font-family="Times,serif" font-size="14.00">1</text>
<polyline fill="none" stroke="black" points="915,-653 938,-653"/>
<text text-anchor="middle" x="926.5" y="-637.8" font-family="Times,serif" font-size="14.00">4</text>
</g>
<!-- c811166P&#45;&gt;c812360A -->
<g id="edge7" class="edge">
<title>c811166P&#45;&gt;c812360A</title>
<path fill="none" stroke="black" d="M373.51,-653C373.51,-653 514.56,-653 514.56,-653"/>
<polygon fill="black" stroke="black" points="514.56,-656.5 524.56,-653 514.56,-649.5 514.56,-656.5"/>
</g>
<!-- c812363A -->
<g id="node26" class="node">
<title>c812363A</title>
<path fill="antiquewhite" stroke="black" d="M1296.5,-630C1296.5,-630 1524.5,-630 1524.5,-630 1530.5,-630 1536.5,-636 1536.5,-642 1536.5,-642 1536.5,-664 1536.5,-664 1536.5,-670 1530.5,-676 1524.5,-676 1524.5,-676 1296.5,-676 1296.5,-676 1290.5,-676 1284.5,-670 1284.5,-664 1284.5,-664 1284.5,-642 1284.5,-642 1284.5,-636 1290.5,-630 1296.5,-630"/>
<text text-anchor="middle" x="1318" y="-649.3" font-family="Times,serif" font-size="14.00">812363A</text>
<polyline fill="none" stroke="black" points="1351.5,-630 1351.5,-676"/>
<text text-anchor="middle" x="1432.5" y="-649.3" font-family="Times,serif" font-size="14.00">Ihmislähtöinen suunnittelu</text>
<polyline fill="none" stroke="black" points="1513.5,-630 1513.5,-676"/>
<text text-anchor="middle" x="1525" y="-660.8" font-family="Times,serif" font-size="14.00">2</text>
<polyline fill="none" stroke="black" points="1513.5,-653 1536.5,-653"/>
<text text-anchor="middle" x="1525" y="-637.8" font-family="Times,serif" font-size="14.00">1</text>
</g>
<!-- c812360A&#45;&gt;c812363A -->
<g id="edge19" class="edge">
<title>c812360A&#45;&gt;c812363A</title>
<path fill="none" stroke="black" d="M938.45,-653C938.45,-653 1274.27,-653 1274.27,-653"/>
<polygon fill="black" stroke="black" points="1274.27,-656.5 1284.27,-653 1274.27,-649.5 1274.27,-656.5"/>
</g>
<!-- c811319A -->
<g id="node24" class="node">
<title>c811319A</title>
<path fill="#caff70" stroke="black" d="M2109,-535C2109,-535 2356,-535 2356,-535 2362,-535 2368,-541 2368,-547 2368,-547 2368,-569 2368,-569 2368,-575 2362,-581 2356,-581 2356,-581 2109,-581 2109,-581 2103,-581 2097,-575 2097,-569 2097,-569 2097,-547 2097,-547 2097,-541 2103,-535 2109,-535"/>
<text text-anchor="middle" x="2130.5" y="-554.3" font-family="Times,serif" font-size="14.00">811319A</text>
<polyline fill="none" stroke="black" points="2164,-535 2164,-581"/>
<text text-anchor="middle" x="2254.5" y="-554.3" font-family="Times,serif" font-size="14.00">Tietomallinnus ja &#45;suunnittelu</text>
<polyline fill="none" stroke="black" points="2345,-535 2345,-581"/>
<text text-anchor="middle" x="2356.5" y="-565.8" font-family="Times,serif" font-size="14.00">2</text>
<polyline fill="none" stroke="black" points="2345,-558 2368,-558"/>
<text text-anchor="middle" x="2356.5" y="-542.8" font-family="Times,serif" font-size="14.00">3</text>
</g>
<!-- c811325A&#45;&gt;c811319A -->
<g id="edge17" class="edge">
<title>c811325A&#45;&gt;c811319A</title>
<path fill="none" stroke="black" d="M1888.15,-349C1981.88,-349 2119,-349 2119,-349 2119,-349 2119,-524.83 2119,-524.83"/>
<polygon fill="black" stroke="black" points="2115.5,-524.83 2119,-534.83 2122.5,-524.83 2115.5,-524.83"/>
</g>
<!-- c811368A -->
<g id="node21" class="node">
<title>c811368A</title>
<path fill="#ffd700" stroke="black" d="M2153,-342C2153,-342 2312,-342 2312,-342 2318,-342 2324,-348 2324,-354 2324,-354 2324,-376 2324,-376 2324,-382 2318,-388 2312,-388 2312,-388 2153,-388 2153,-388 2147,-388 2141,-382 2141,-376 2141,-376 2141,-354 2141,-354 2141,-348 2147,-342 2153,-342"/>
<text text-anchor="middle" x="2174.5" y="-361.3" font-family="Times,serif" font-size="14.00">811368A</text>
<polyline fill="none" stroke="black" points="2208,-342 2208,-388"/>
<text text-anchor="middle" x="2254.5" y="-361.3" font-family="Times,serif" font-size="14.00">Ohjelmointi 4</text>
<polyline fill="none" stroke="black" points="2301,-342 2301,-388"/>
<text text-anchor="middle" x="2312.5" y="-372.8" font-family="Times,serif" font-size="14.00">2</text>
<polyline fill="none" stroke="black" points="2301,-365 2324,-365"/>
<text text-anchor="middle" x="2312.5" y="-349.8" font-family="Times,serif" font-size="14.00">4</text>
</g>
<!-- c811367A&#45;&gt;c811368A -->
<g id="edge10" class="edge">
<title>c811367A&#45;&gt;c811368A</title>
<path fill="none" stroke="black" d="M1894.22,-381.5C1894.22,-381.5 2130.92,-381.5 2130.92,-381.5"/>
<polygon fill="black" stroke="black" points="2130.92,-385 2140.92,-381.5 2130.92,-378 2130.92,-385"/>
</g>
<!-- c811398A -->
<g id="node32" class="node">
<title>c811398A</title>
<path fill="azure" stroke="black" d="M2845.5,-111C2845.5,-111 3045.5,-111 3045.5,-111 3051.5,-111 3057.5,-117 3057.5,-123 3057.5,-123 3057.5,-145 3057.5,-145 3057.5,-151 3051.5,-157 3045.5,-157 3045.5,-157 2845.5,-157 2845.5,-157 2839.5,-157 2833.5,-151 2833.5,-145 2833.5,-145 2833.5,-123 2833.5,-123 2833.5,-117 2839.5,-111 2845.5,-111"/>
<text text-anchor="middle" x="2867" y="-130.3" font-family="Times,serif" font-size="14.00">811398A</text>
<polyline fill="none" stroke="black" points="2900.5,-111 2900.5,-157"/>
<text text-anchor="middle" x="2961.5" y="-130.3" font-family="Times,serif" font-size="14.00">Kandidaattiprojekti</text>
<polyline fill="none" stroke="black" points="3022.5,-111 3022.5,-157"/>
<text text-anchor="middle" x="3040" y="-141.8" font-family="Times,serif" font-size="14.00">3</text>
<polyline fill="none" stroke="black" points="3022.5,-134 3057.5,-134"/>
<text text-anchor="middle" x="3040" y="-118.8" font-family="Times,serif" font-size="14.00">3&#45;4</text>
</g>
<!-- c811368A&#45;&gt;c811398A -->
<g id="edge31" class="edge">
<title>c811368A&#45;&gt;c811398A</title>
<path fill="none" stroke="black" d="M2233,-341.72C2233,-284.1 2233,-139.5 2233,-139.5 2233,-139.5 2823.39,-139.5 2823.39,-139.5"/>
<polygon fill="black" stroke="black" points="2823.39,-143 2833.39,-139.5 2823.39,-136 2823.39,-143"/>
</g>
<!-- c811306A -->
<g id="node23" class="node">
<title>c811306A</title>
<path fill="#caff70" stroke="black" d="M1680.5,-535C1680.5,-535 1924.5,-535 1924.5,-535 1930.5,-535 1936.5,-541 1936.5,-547 1936.5,-547 1936.5,-569 1936.5,-569 1936.5,-575 1930.5,-581 1924.5,-581 1924.5,-581 1680.5,-581 1680.5,-581 1674.5,-581 1668.5,-575 1668.5,-569 1668.5,-569 1668.5,-547 1668.5,-547 1668.5,-541 1674.5,-535 1680.5,-535"/>
<text text-anchor="middle" x="1702" y="-554.3" font-family="Times,serif" font-size="14.00">811306A</text>
<polyline fill="none" stroke="black" points="1735.5,-535 1735.5,-581"/>
<text text-anchor="middle" x="1824.5" y="-554.3" font-family="Times,serif" font-size="14.00">Ohjelmistojen laatu ja testaus</text>
<polyline fill="none" stroke="black" points="1913.5,-535 1913.5,-581"/>
<text text-anchor="middle" x="1925" y="-565.8" font-family="Times,serif" font-size="14.00">2</text>
<polyline fill="none" stroke="black" points="1913.5,-558 1936.5,-558"/>
<text text-anchor="middle" x="1925" y="-542.8" font-family="Times,serif" font-size="14.00">2</text>
</g>
<!-- c811301A&#45;&gt;c811306A -->
<g id="edge15" class="edge">
<title>c811301A&#45;&gt;c811306A</title>
<path fill="none" stroke="black" d="M1572.2,-558C1572.2,-558 1658.28,-558 1658.28,-558"/>
<polygon fill="black" stroke="black" points="1658.28,-561.5 1668.28,-558 1658.28,-554.5 1658.28,-561.5"/>
</g>
<!-- c811306A&#45;&gt;c811319A -->
<g id="edge16" class="edge">
<title>c811306A&#45;&gt;c811319A</title>
<path fill="none" stroke="black" d="M1936.79,-558C1936.79,-558 2086.64,-558 2086.64,-558"/>
<polygon fill="black" stroke="black" points="2086.64,-561.5 2096.64,-558 2086.64,-554.5 2086.64,-561.5"/>
</g>
<!-- c815345A -->
<g id="node25" class="node">
<title>c815345A</title>
<path fill="#caff70" stroke="black" d="M2519.5,-535C2519.5,-535 2736.5,-535 2736.5,-535 2742.5,-535 2748.5,-541 2748.5,-547 2748.5,-547 2748.5,-569 2748.5,-569 2748.5,-575 2742.5,-581 2736.5,-581 2736.5,-581 2519.5,-581 2519.5,-581 2513.5,-581 2507.5,-575 2507.5,-569 2507.5,-569 2507.5,-547 2507.5,-547 2507.5,-541 2513.5,-535 2519.5,-535"/>
<text text-anchor="middle" x="2541" y="-554.3" font-family="Times,serif" font-size="14.00">815345A</text>
<polyline fill="none" stroke="black" points="2574.5,-535 2574.5,-581"/>
<text text-anchor="middle" x="2650" y="-554.3" font-family="Times,serif" font-size="14.00">Ohjelmistoarkkitehtuurit</text>
<polyline fill="none" stroke="black" points="2725.5,-535 2725.5,-581"/>
<text text-anchor="middle" x="2737" y="-565.8" font-family="Times,serif" font-size="14.00">2</text>
<polyline fill="none" stroke="black" points="2725.5,-558 2748.5,-558"/>
<text text-anchor="middle" x="2737" y="-542.8" font-family="Times,serif" font-size="14.00">4</text>
</g>
<!-- c811319A&#45;&gt;c815345A -->
<g id="edge18" class="edge">
<title>c811319A&#45;&gt;c815345A</title>
<path fill="none" stroke="black" d="M2368.06,-558C2368.06,-558 2497.19,-558 2497.19,-558"/>
<polygon fill="black" stroke="black" points="2497.19,-561.5 2507.19,-558 2497.19,-554.5 2497.19,-561.5"/>
</g>
<!-- c815345A&#45;&gt;c811398A -->
<g id="edge30" class="edge">
<title>c815345A&#45;&gt;c811398A</title>
<path fill="none" stroke="black" d="M2748.51,-558C2766.95,-558 2780,-558 2780,-558 2780,-558 2780,-151.5 2780,-151.5 2780,-151.5 2823.28,-151.5 2823.28,-151.5"/>
<polygon fill="black" stroke="black" points="2823.28,-155 2833.28,-151.5 2823.28,-148 2823.28,-155"/>
</g>
<!-- c812361A -->
<g id="node27" class="node">
<title>c812361A</title>
<path fill="antiquewhite" stroke="black" d="M1620,-630C1620,-630 1985,-630 1985,-630 1991,-630 1997,-636 1997,-642 1997,-642 1997,-664 1997,-664 1997,-670 1991,-676 1985,-676 1985,-676 1620,-676 1620,-676 1614,-676 1608,-670 1608,-664 1608,-664 1608,-642 1608,-642 1608,-636 1614,-630 1620,-630"/>
<text text-anchor="middle" x="1641.5" y="-649.3" font-family="Times,serif" font-size="14.00">812361A</text>
<polyline fill="none" stroke="black" points="1675,-630 1675,-676"/>
<text text-anchor="middle" x="1824.5" y="-649.3" font-family="Times,serif" font-size="14.00">Tietojärjestelmien hankinta, käyttöönotto ja hallinta</text>
<polyline fill="none" stroke="black" points="1974,-630 1974,-676"/>
<text text-anchor="middle" x="1985.5" y="-660.8" font-family="Times,serif" font-size="14.00">2</text>
<polyline fill="none" stroke="black" points="1974,-653 1997,-653"/>
<text text-anchor="middle" x="1985.5" y="-637.8" font-family="Times,serif" font-size="14.00">2</text>
</g>
<!-- c812363A&#45;&gt;c812361A -->
<g id="edge20" class="edge">
<title>c812363A&#45;&gt;c812361A</title>
<path fill="none" stroke="black" d="M1536.69,-653C1536.69,-653 1597.7,-653 1597.7,-653"/>
<polygon fill="black" stroke="black" points="1597.7,-656.5 1607.7,-653 1597.7,-649.5 1597.7,-656.5"/>
</g>
<!-- c812362A -->
<g id="node28" class="node">
<title>c812362A</title>
<path fill="antiquewhite" stroke="black" d="M2045,-630C2045,-630 2420,-630 2420,-630 2426,-630 2432,-636 2432,-642 2432,-642 2432,-664 2432,-664 2432,-670 2426,-676 2420,-676 2420,-676 2045,-676 2045,-676 2039,-676 2033,-670 2033,-664 2033,-664 2033,-642 2033,-642 2033,-636 2039,-630 2045,-630"/>
<text text-anchor="middle" x="2066.5" y="-649.3" font-family="Times,serif" font-size="14.00">812362A</text>
<polyline fill="none" stroke="black" points="2100,-630 2100,-676"/>
<text text-anchor="middle" x="2254.5" y="-649.3" font-family="Times,serif" font-size="14.00">Liiketoimintaprosessien johtaminen ja mallintaminen</text>
<polyline fill="none" stroke="black" points="2409,-630 2409,-676"/>
<text text-anchor="middle" x="2420.5" y="-660.8" font-family="Times,serif" font-size="14.00">2</text>
<polyline fill="none" stroke="black" points="2409,-653 2432,-653"/>
<text text-anchor="middle" x="2420.5" y="-637.8" font-family="Times,serif" font-size="14.00">3</text>
</g>
<!-- c812361A&#45;&gt;c812362A -->
<g id="edge21" class="edge">
<title>c812361A&#45;&gt;c812362A</title>
<path fill="none" stroke="black" d="M1997.06,-653C1997.06,-653 2022.85,-653 2022.85,-653"/>
<polygon fill="black" stroke="black" points="2022.86,-656.5 2032.85,-653 2022.85,-649.5 2022.86,-656.5"/>
</g>
<!-- c812364A -->
<g id="node31" class="node">
<title>c812364A</title>
<path fill="antiquewhite" stroke="black" d="M2480,-81C2480,-81 2776,-81 2776,-81 2782,-81 2788,-87 2788,-93 2788,-93 2788,-115 2788,-115 2788,-121 2782,-127 2776,-127 2776,-127 2480,-127 2480,-127 2474,-127 2468,-121 2468,-115 2468,-115 2468,-93 2468,-93 2468,-87 2474,-81 2480,-81"/>
<text text-anchor="middle" x="2501.5" y="-100.3" font-family="Times,serif" font-size="14.00">812364A</text>
<polyline fill="none" stroke="black" points="2535,-81 2535,-127"/>
<text text-anchor="middle" x="2650" y="-100.3" font-family="Times,serif" font-size="14.00">Data&#45;analytiikka liiketoiminnan tukena</text>
<polyline fill="none" stroke="black" points="2765,-81 2765,-127"/>
<text text-anchor="middle" x="2776.5" y="-111.8" font-family="Times,serif" font-size="14.00">3</text>
<polyline fill="none" stroke="black" points="2765,-104 2788,-104"/>
<text text-anchor="middle" x="2776.5" y="-88.8" font-family="Times,serif" font-size="14.00">4</text>
</g>
<!-- c812362A&#45;&gt;c812364A -->
<g id="edge22" class="edge">
<title>c812362A&#45;&gt;c812364A</title>
<path fill="none" stroke="black" d="M2432.19,-653C2458.18,-653 2476,-653 2476,-653 2476,-653 2476,-137.24 2476,-137.24"/>
<polygon fill="black" stroke="black" points="2479.5,-137.24 2476,-127.24 2472.5,-137.24 2479.5,-137.24"/>
</g>
<!-- c812362A&#45;&gt;c811398A -->
<g id="edge32" class="edge">
<title>c812362A&#45;&gt;c811398A</title>
<path fill="none" stroke="black" d="M2400,-629.88C2400,-530.59 2400,-145.5 2400,-145.5 2400,-145.5 2823.46,-145.5 2823.46,-145.5"/>
<polygon fill="black" stroke="black" points="2823.46,-149 2833.46,-145.5 2823.46,-142 2823.46,-149"/>
</g>
<!-- c811397A -->
<g id="node29" class="node">
<title>c811397A</title>
<path fill="azure" stroke="black" d="M1294,-725C1294,-725 1527,-725 1527,-725 1533,-725 1539,-731 1539,-737 1539,-737 1539,-759 1539,-759 1539,-765 1533,-771 1527,-771 1527,-771 1294,-771 1294,-771 1288,-771 1282,-765 1282,-759 1282,-759 1282,-737 1282,-737 1282,-731 1288,-725 1294,-725"/>
<text text-anchor="middle" x="1315.5" y="-744.3" font-family="Times,serif" font-size="14.00">811397A</text>
<polyline fill="none" stroke="black" points="1349,-725 1349,-771"/>
<text text-anchor="middle" x="1432.5" y="-744.3" font-family="Times,serif" font-size="14.00">Projektitoiminnan perusteet</text>
<polyline fill="none" stroke="black" points="1516,-725 1516,-771"/>
<text text-anchor="middle" x="1527.5" y="-755.8" font-family="Times,serif" font-size="14.00">2</text>
<polyline fill="none" stroke="black" points="1516,-748 1539,-748"/>
<text text-anchor="middle" x="1527.5" y="-732.8" font-family="Times,serif" font-size="14.00">4</text>
</g>
<!-- c811397A&#45;&gt;c811398A -->
<g id="edge29" class="edge">
<title>c811397A&#45;&gt;c811398A</title>
<path fill="none" stroke="black" d="M1539.04,-748C1567.81,-748 1590,-748 1590,-748 1590,-748 1590,-133.5 1590,-133.5 1590,-133.5 2823.42,-133.5 2823.42,-133.5"/>
<polygon fill="black" stroke="black" points="2823.42,-137 2833.42,-133.5 2823.42,-130 2823.42,-137"/>
</g>
<!-- c900105Y -->
<g id="node30" class="node">
<title>c900105Y</title>
<path fill="gainsboro" stroke="black" d="M2496,-176C2496,-176 2760,-176 2760,-176 2766,-176 2772,-182 2772,-188 2772,-188 2772,-210 2772,-210 2772,-216 2766,-222 2760,-222 2760,-222 2496,-222 2496,-222 2490,-222 2484,-216 2484,-210 2484,-210 2484,-188 2484,-188 2484,-182 2490,-176 2496,-176"/>
<text text-anchor="middle" x="2517.5" y="-195.3" font-family="Times,serif" font-size="14.00">900105Y</text>
<polyline fill="none" stroke="black" points="2551,-176 2551,-222"/>
<text text-anchor="middle" x="2650" y="-195.3" font-family="Times,serif" font-size="14.00">Suuntaa uralle viestinnän keinoin</text>
<polyline fill="none" stroke="black" points="2749,-176 2749,-222"/>
<text text-anchor="middle" x="2760.5" y="-206.8" font-family="Times,serif" font-size="14.00">3</text>
<polyline fill="none" stroke="black" points="2749,-199 2772,-199"/>
<text text-anchor="middle" x="2760.5" y="-183.8" font-family="Times,serif" font-size="14.00">3</text>
</g>
<!-- c900105Y&#45;&gt;c811393A -->
<g id="edge28" class="edge">
<title>c900105Y&#45;&gt;c811393A</title>
<path fill="none" stroke="black" d="M2772.35,-199C2772.35,-199 2813.82,-199 2813.82,-199"/>
<polygon fill="black" stroke="black" points="2813.82,-202.5 2823.82,-199 2813.82,-195.5 2813.82,-202.5"/>
</g>
<!-- c811393A&#45;&gt;c811383A -->
<g id="edge25" class="edge">
<title>c811393A&#45;&gt;c811383A</title>
<path fill="none" stroke="black" d="M3063,-175.9C3063,-157.22 3063,-134 3063,-134 3063,-134 3092.74,-134 3092.74,-134"/>
<polygon fill="black" stroke="black" points="3092.74,-137.5 3102.74,-134 3092.74,-130.5 3092.74,-137.5"/>
</g>
<!-- c813307A -->
<g id="node35" class="node">
<title>c813307A</title>
<path fill="azure" stroke="black" d="M3351,-111C3351,-111 3510,-111 3510,-111 3516,-111 3522,-117 3522,-123 3522,-123 3522,-145 3522,-145 3522,-151 3516,-157 3510,-157 3510,-157 3351,-157 3351,-157 3345,-157 3339,-151 3339,-145 3339,-145 3339,-123 3339,-123 3339,-117 3345,-111 3351,-111"/>
<text text-anchor="middle" x="3372.5" y="-130.3" font-family="Times,serif" font-size="14.00">813307A</text>
<polyline fill="none" stroke="black" points="3406,-111 3406,-157"/>
<text text-anchor="middle" x="3452.5" y="-130.3" font-family="Times,serif" font-size="14.00">Kypsyysnäyte</text>
<polyline fill="none" stroke="black" points="3499,-111 3499,-157"/>
<text text-anchor="middle" x="3510.5" y="-141.8" font-family="Times,serif" font-size="14.00">3</text>
<polyline fill="none" stroke="black" points="3499,-134 3522,-134"/>
<text text-anchor="middle" x="3510.5" y="-118.8" font-family="Times,serif" font-size="14.00">4</text>
</g>
<!-- c811383A&#45;&gt;c813307A -->
<g id="edge27" class="edge">
<title>c811383A&#45;&gt;c813307A</title>
<path fill="none" stroke="black" d="M3303.12,-134C3303.12,-134 3328.95,-134 3328.95,-134"/>
<polygon fill="black" stroke="black" points="3328.95,-137.5 3338.95,-134 3328.95,-130.5 3328.95,-137.5"/>
</g>
</g>
</svg>
