<?xml version="1.0" encoding="UTF-8" standalone="no"?>
<!DOCTYPE svg PUBLIC "-//W3C//DTD SVG 1.1//EN"
 "http://www.w3.org/Graphics/SVG/1.1/DTD/svg11.dtd">
<!-- Generated by graphviz version 2.44.0 (20200408.0750)
 -->
<!-- Title: TOLLuK Pages: 1 -->
<svg width="1750pt" height="911pt"
 viewBox="0.00 0.00 1750.27 911.00" xmlns="http://www.w3.org/2000/svg" xmlns:xlink="http://www.w3.org/1999/xlink">
<g id="graph0" class="graph" transform="scale(1 1) rotate(0) translate(4 907)">
<title>TOLLuK</title>
<polygon fill="white" stroke="transparent" points="-4,4 -4,-907 1746.27,-907 1746.27,4 -4,4"/>
<g id="clust1" class="cluster">
<title>cluster_Legend</title>
<g id="a_clust1"><a xlink:href="https://github.com/anttijuu/tol-courses-graph" xlink:title="Selite">
<polygon fill="none" stroke="black" stroke-dasharray="1,5" points="84.27,-786 84.27,-895 236.27,-895 236.27,-786 84.27,-786"/>
<text text-anchor="middle" x="160.27" y="-879.8" font-family="Times,serif" font-size="14.00">Selite</text>
</a>
</g>
</g>
<g id="clust2" class="cluster">
<title>cluster_Yleiset</title>
<polygon fill="none" stroke="black" stroke-dasharray="1,5" points="1001.27,-231 1001.27,-340 1367.27,-340 1367.27,-231 1001.27,-231"/>
<text text-anchor="middle" x="1184.27" y="-324.8" font-family="Times,serif" font-size="14.00">Yleiset</text>
</g>
<g id="clust3" class="cluster">
<title>cluster_Johdanto</title>
<polygon fill="none" stroke="black" stroke-dasharray="1,5" points="293.27,-669 293.27,-895 803.27,-895 803.27,-669 293.27,-669"/>
<text text-anchor="middle" x="548.27" y="-879.8" font-family="Times,serif" font-size="14.00">Johdanto</text>
</g>
<g id="clust4" class="cluster">
<title>cluster_Ohjelmointi</title>
<polygon fill="none" stroke="black" stroke-dasharray="1,5" points="811.27,-114 811.27,-778 993.27,-778 993.27,-114 811.27,-114"/>
<text text-anchor="middle" x="902.27" y="-762.8" font-family="Times,serif" font-size="14.00">Ohjelmointi</text>
</g>
<g id="clust5" class="cluster">
<title>cluster_Ohjelmistokehitys</title>
<polygon fill="none" stroke="black" stroke-dasharray="1,5" points="35.27,-114 35.27,-778 285.27,-778 285.27,-114 35.27,-114"/>
<text text-anchor="middle" x="160.27" y="-762.8" font-family="Times,serif" font-size="14.00">Ohjelmistokehitys</text>
</g>
<g id="clust6" class="cluster">
<title>cluster_IhminenOrganisaatio</title>
<polygon fill="none" stroke="black" stroke-dasharray="1,5" points="1394.27,-8 1394.27,-661 1734.27,-661 1734.27,-8 1394.27,-8"/>
<text text-anchor="middle" x="1564.27" y="-645.8" font-family="Times,serif" font-size="14.00">Ihminen ja organisaatio</text>
</g>
<g id="clust7" class="cluster">
<title>cluster_Huipennus</title>
<polygon fill="none" stroke="black" stroke-dasharray="1,5" points="1031.27,-8 1031.27,-223 1386.27,-223 1386.27,-8 1031.27,-8"/>
<text text-anchor="middle" x="1208.77" y="-207.8" font-family="Times,serif" font-size="14.00">Huipennus</text>
</g>
<!-- legend -->
<g id="node1" class="node">
<title>legend</title>
<path fill="lightgrey" stroke="black" d="M104.77,-794.5C104.77,-794.5 215.77,-794.5 215.77,-794.5 221.77,-794.5 227.77,-800.5 227.77,-806.5 227.77,-806.5 227.77,-851.5 227.77,-851.5 227.77,-857.5 221.77,-863.5 215.77,-863.5 215.77,-863.5 104.77,-863.5 104.77,-863.5 98.77,-863.5 92.77,-857.5 92.77,-851.5 92.77,-851.5 92.77,-806.5 92.77,-806.5 92.77,-800.5 98.77,-794.5 104.77,-794.5"/>
<text text-anchor="middle" x="160.27" y="-848.3" font-family="Times,serif" font-size="14.00">Kurssikoodi</text>
<polyline fill="none" stroke="black" points="92.77,-840.5 227.77,-840.5 "/>
<text text-anchor="middle" x="160.27" y="-825.3" font-family="Times,serif" font-size="14.00">Kurssin nimi</text>
<polyline fill="none" stroke="black" points="92.77,-817.5 227.77,-817.5 "/>
<text text-anchor="middle" x="132.77" y="-802.3" font-family="Times,serif" font-size="14.00">opintovuosi</text>
<polyline fill="none" stroke="black" points="172.77,-794.5 172.77,-817.5 "/>
<text text-anchor="middle" x="200.27" y="-802.3" font-family="Times,serif" font-size="14.00">periodi</text>
</g>
<!-- c030005P -->
<g id="node2" class="node">
<title>c030005P</title>
<path fill="gainsboro" stroke="black" d="M1021.27,-239.5C1021.27,-239.5 1131.27,-239.5 1131.27,-239.5 1137.27,-239.5 1143.27,-245.5 1143.27,-251.5 1143.27,-251.5 1143.27,-296.5 1143.27,-296.5 1143.27,-302.5 1137.27,-308.5 1131.27,-308.5 1131.27,-308.5 1021.27,-308.5 1021.27,-308.5 1015.27,-308.5 1009.27,-302.5 1009.27,-296.5 1009.27,-296.5 1009.27,-251.5 1009.27,-251.5 1009.27,-245.5 1015.27,-239.5 1021.27,-239.5"/>
<text text-anchor="middle" x="1076.27" y="-293.3" font-family="Times,serif" font-size="14.00">030005P</text>
<polyline fill="none" stroke="black" points="1009.27,-285.5 1143.27,-285.5 "/>
<text text-anchor="middle" x="1076.27" y="-270.3" font-family="Times,serif" font-size="14.00">Tiedonhankintakurssi</text>
<polyline fill="none" stroke="black" points="1009.27,-262.5 1143.27,-262.5 "/>
<text text-anchor="middle" x="1042.77" y="-247.3" font-family="Times,serif" font-size="14.00">?</text>
<polyline fill="none" stroke="black" points="1076.27,-239.5 1076.27,-262.5 "/>
<text text-anchor="middle" x="1109.77" y="-247.3" font-family="Times,serif" font-size="14.00">1</text>
</g>
<!-- c811393A -->
<g id="node29" class="node">
<title>c811393A</title>
<path fill="azure" stroke="black" d="M1051.77,-122.5C1051.77,-122.5 1180.77,-122.5 1180.77,-122.5 1186.77,-122.5 1192.77,-128.5 1192.77,-134.5 1192.77,-134.5 1192.77,-179.5 1192.77,-179.5 1192.77,-185.5 1186.77,-191.5 1180.77,-191.5 1180.77,-191.5 1051.77,-191.5 1051.77,-191.5 1045.77,-191.5 1039.77,-185.5 1039.77,-179.5 1039.77,-179.5 1039.77,-134.5 1039.77,-134.5 1039.77,-128.5 1045.77,-122.5 1051.77,-122.5"/>
<text text-anchor="middle" x="1116.27" y="-176.3" font-family="Times,serif" font-size="14.00">811393A</text>
<polyline fill="none" stroke="black" points="1039.77,-168.5 1192.77,-168.5 "/>
<text text-anchor="middle" x="1116.27" y="-153.3" font-family="Times,serif" font-size="14.00">Johdatus tutkimustyöhön</text>
<polyline fill="none" stroke="black" points="1039.77,-145.5 1192.77,-145.5 "/>
<text text-anchor="middle" x="1077.77" y="-130.3" font-family="Times,serif" font-size="14.00">2</text>
<polyline fill="none" stroke="black" points="1115.77,-122.5 1115.77,-145.5 "/>
<text text-anchor="middle" x="1154.27" y="-130.3" font-family="Times,serif" font-size="14.00">3</text>
</g>
<!-- c030005P&#45;&gt;c811393A -->
<g id="edge22" class="edge">
<title>c030005P&#45;&gt;c811393A</title>
<path fill="none" stroke="black" d="M1087.95,-239.43C1092.06,-227.61 1096.75,-214.14 1101.1,-201.61"/>
<polygon fill="black" stroke="black" points="1104.53,-202.41 1104.51,-191.81 1097.92,-200.11 1104.53,-202.41"/>
</g>
<!-- c811383A -->
<g id="node30" class="node">
<title>c811383A</title>
<path fill="azure" stroke="black" d="M1051.77,-16.5C1051.77,-16.5 1128.77,-16.5 1128.77,-16.5 1134.77,-16.5 1140.77,-22.5 1140.77,-28.5 1140.77,-28.5 1140.77,-73.5 1140.77,-73.5 1140.77,-79.5 1134.77,-85.5 1128.77,-85.5 1128.77,-85.5 1051.77,-85.5 1051.77,-85.5 1045.77,-85.5 1039.77,-79.5 1039.77,-73.5 1039.77,-73.5 1039.77,-28.5 1039.77,-28.5 1039.77,-22.5 1045.77,-16.5 1051.77,-16.5"/>
<text text-anchor="middle" x="1090.27" y="-70.3" font-family="Times,serif" font-size="14.00">811383A</text>
<polyline fill="none" stroke="black" points="1039.77,-62.5 1140.77,-62.5 "/>
<text text-anchor="middle" x="1090.27" y="-47.3" font-family="Times,serif" font-size="14.00"> LuK&#45;tutkielma</text>
<polyline fill="none" stroke="black" points="1039.77,-39.5 1140.77,-39.5 "/>
<text text-anchor="middle" x="1061.77" y="-24.3" font-family="Times,serif" font-size="14.00">3</text>
<polyline fill="none" stroke="black" points="1083.77,-16.5 1083.77,-39.5 "/>
<text text-anchor="middle" x="1112.27" y="-24.3" font-family="Times,serif" font-size="14.00">3&#45;4</text>
</g>
<!-- c030005P&#45;&gt;c811383A -->
<g id="edge25" class="edge">
<title>c030005P&#45;&gt;c811383A</title>
<path fill="none" stroke="black" d="M1040.44,-239.44C1036.72,-234.31 1033.49,-228.78 1031.27,-223 1013.92,-177.77 1013.29,-158.98 1031.27,-114 1034.18,-106.72 1038.4,-99.82 1043.25,-93.43"/>
<polygon fill="black" stroke="black" points="1046.03,-95.57 1049.7,-85.64 1040.63,-91.11 1046.03,-95.57"/>
</g>
<!-- c900105Y -->
<g id="node3" class="node">
<title>c900105Y</title>
<path fill="gainsboro" stroke="black" d="M1173.27,-239.5C1173.27,-239.5 1347.27,-239.5 1347.27,-239.5 1353.27,-239.5 1359.27,-245.5 1359.27,-251.5 1359.27,-251.5 1359.27,-296.5 1359.27,-296.5 1359.27,-302.5 1353.27,-308.5 1347.27,-308.5 1347.27,-308.5 1173.27,-308.5 1173.27,-308.5 1167.27,-308.5 1161.27,-302.5 1161.27,-296.5 1161.27,-296.5 1161.27,-251.5 1161.27,-251.5 1161.27,-245.5 1167.27,-239.5 1173.27,-239.5"/>
<text text-anchor="middle" x="1260.27" y="-293.3" font-family="Times,serif" font-size="14.00">900105Y</text>
<polyline fill="none" stroke="black" points="1161.27,-285.5 1359.27,-285.5 "/>
<text text-anchor="middle" x="1260.27" y="-270.3" font-family="Times,serif" font-size="14.00">Suuntaa uralle viestinnän keinoin</text>
<polyline fill="none" stroke="black" points="1161.27,-262.5 1359.27,-262.5 "/>
<text text-anchor="middle" x="1210.77" y="-247.3" font-family="Times,serif" font-size="14.00">3</text>
<polyline fill="none" stroke="black" points="1260.27,-239.5 1260.27,-262.5 "/>
<text text-anchor="middle" x="1309.77" y="-247.3" font-family="Times,serif" font-size="14.00">?</text>
</g>
<!-- c900105Y&#45;&gt;c811393A -->
<g id="edge23" class="edge">
<title>c900105Y&#45;&gt;c811393A</title>
<path fill="none" stroke="black" d="M1218.24,-239.43C1202.11,-226.55 1183.55,-211.73 1166.72,-198.29"/>
<polygon fill="black" stroke="black" points="1168.61,-195.32 1158.61,-191.81 1164.24,-200.79 1168.61,-195.32"/>
</g>
<!-- c810020Y -->
<g id="node4" class="node">
<title>c810020Y</title>
<path fill="yellow" stroke="black" d="M683.77,-794.5C683.77,-794.5 782.77,-794.5 782.77,-794.5 788.77,-794.5 794.77,-800.5 794.77,-806.5 794.77,-806.5 794.77,-851.5 794.77,-851.5 794.77,-857.5 788.77,-863.5 782.77,-863.5 782.77,-863.5 683.77,-863.5 683.77,-863.5 677.77,-863.5 671.77,-857.5 671.77,-851.5 671.77,-851.5 671.77,-806.5 671.77,-806.5 671.77,-800.5 677.77,-794.5 683.77,-794.5"/>
<text text-anchor="middle" x="733.27" y="-848.3" font-family="Times,serif" font-size="14.00">810020Y</text>
<polyline fill="none" stroke="black" points="671.77,-840.5 794.77,-840.5 "/>
<text text-anchor="middle" x="733.27" y="-825.3" font-family="Times,serif" font-size="14.00">Orientoivat opinnot</text>
<polyline fill="none" stroke="black" points="671.77,-817.5 794.77,-817.5 "/>
<text text-anchor="middle" x="733.27" y="-802.3" font-family="Times,serif" font-size="14.00">1 / 1&#45;2</text>
</g>
<!-- c810136P -->
<g id="node5" class="node">
<title>c810136P</title>
<path fill="yellow" stroke="black" d="M313.27,-794.5C313.27,-794.5 489.27,-794.5 489.27,-794.5 495.27,-794.5 501.27,-800.5 501.27,-806.5 501.27,-806.5 501.27,-851.5 501.27,-851.5 501.27,-857.5 495.27,-863.5 489.27,-863.5 489.27,-863.5 313.27,-863.5 313.27,-863.5 307.27,-863.5 301.27,-857.5 301.27,-851.5 301.27,-851.5 301.27,-806.5 301.27,-806.5 301.27,-800.5 307.27,-794.5 313.27,-794.5"/>
<text text-anchor="middle" x="401.27" y="-848.3" font-family="Times,serif" font-size="14.00">810136P</text>
<polyline fill="none" stroke="black" points="301.27,-840.5 501.27,-840.5 "/>
<text text-anchor="middle" x="401.27" y="-825.3" font-family="Times,serif" font-size="14.00">Johdatus tietojenkäsittelytieteisiin</text>
<polyline fill="none" stroke="black" points="301.27,-817.5 501.27,-817.5 "/>
<text text-anchor="middle" x="351.27" y="-802.3" font-family="Times,serif" font-size="14.00">1</text>
<polyline fill="none" stroke="black" points="401.27,-794.5 401.27,-817.5 "/>
<text text-anchor="middle" x="451.27" y="-802.3" font-family="Times,serif" font-size="14.00">1</text>
</g>
<!-- c811168P -->
<g id="node6" class="node">
<title>c811168P</title>
<path fill="yellow" stroke="black" d="M550.77,-677.5C550.77,-677.5 599.77,-677.5 599.77,-677.5 605.77,-677.5 611.77,-683.5 611.77,-689.5 611.77,-689.5 611.77,-734.5 611.77,-734.5 611.77,-740.5 605.77,-746.5 599.77,-746.5 599.77,-746.5 550.77,-746.5 550.77,-746.5 544.77,-746.5 538.77,-740.5 538.77,-734.5 538.77,-734.5 538.77,-689.5 538.77,-689.5 538.77,-683.5 544.77,-677.5 550.77,-677.5"/>
<text text-anchor="middle" x="575.27" y="-731.3" font-family="Times,serif" font-size="14.00">811168P</text>
<polyline fill="none" stroke="black" points="538.77,-723.5 611.77,-723.5 "/>
<text text-anchor="middle" x="575.27" y="-708.3" font-family="Times,serif" font-size="14.00">Tietoturva</text>
<polyline fill="none" stroke="black" points="538.77,-700.5 611.77,-700.5 "/>
<text text-anchor="middle" x="556.77" y="-685.3" font-family="Times,serif" font-size="14.00">1</text>
<polyline fill="none" stroke="black" points="574.77,-677.5 574.77,-700.5 "/>
<text text-anchor="middle" x="593.27" y="-685.3" font-family="Times,serif" font-size="14.00">3</text>
</g>
<!-- c810136P&#45;&gt;c811168P -->
<g id="edge1" class="edge">
<title>c810136P&#45;&gt;c811168P</title>
<path fill="none" stroke="black" d="M493.66,-794.41C503,-789.5 512.05,-784.03 520.27,-778 529.31,-771.37 537.81,-762.97 545.31,-754.42"/>
<polygon fill="black" stroke="black" points="548.14,-756.49 551.9,-746.59 542.79,-751.99 548.14,-756.49"/>
</g>
<!-- c811174P -->
<g id="node7" class="node">
<title>c811174P</title>
<path fill="yellow" stroke="black" d="M313.77,-677.5C313.77,-677.5 498.77,-677.5 498.77,-677.5 504.77,-677.5 510.77,-683.5 510.77,-689.5 510.77,-689.5 510.77,-734.5 510.77,-734.5 510.77,-740.5 504.77,-746.5 498.77,-746.5 498.77,-746.5 313.77,-746.5 313.77,-746.5 307.77,-746.5 301.77,-740.5 301.77,-734.5 301.77,-734.5 301.77,-689.5 301.77,-689.5 301.77,-683.5 307.77,-677.5 313.77,-677.5"/>
<text text-anchor="middle" x="406.27" y="-731.3" font-family="Times,serif" font-size="14.00">811174P</text>
<polyline fill="none" stroke="black" points="301.77,-723.5 510.77,-723.5 "/>
<text text-anchor="middle" x="406.27" y="-708.3" font-family="Times,serif" font-size="14.00">Ohjelmistoliiketoiminnan perusteet</text>
<polyline fill="none" stroke="black" points="301.77,-700.5 510.77,-700.5 "/>
<text text-anchor="middle" x="353.77" y="-685.3" font-family="Times,serif" font-size="14.00">1</text>
<polyline fill="none" stroke="black" points="405.77,-677.5 405.77,-700.5 "/>
<text text-anchor="middle" x="458.27" y="-685.3" font-family="Times,serif" font-size="14.00">3</text>
</g>
<!-- c810136P&#45;&gt;c811174P -->
<g id="edge3" class="edge">
<title>c810136P&#45;&gt;c811174P</title>
<path fill="none" stroke="black" d="M402.73,-794.43C403.24,-782.72 403.82,-769.41 404.36,-756.98"/>
<polygon fill="black" stroke="black" points="407.87,-756.96 404.8,-746.81 400.87,-756.65 407.87,-756.96"/>
</g>
<!-- c811103P -->
<g id="node15" class="node">
<title>c811103P</title>
<path fill="#caff70" stroke="black" d="M98.77,-677.5C98.77,-677.5 257.77,-677.5 257.77,-677.5 263.77,-677.5 269.77,-683.5 269.77,-689.5 269.77,-689.5 269.77,-734.5 269.77,-734.5 269.77,-740.5 263.77,-746.5 257.77,-746.5 257.77,-746.5 98.77,-746.5 98.77,-746.5 92.77,-746.5 86.77,-740.5 86.77,-734.5 86.77,-734.5 86.77,-689.5 86.77,-689.5 86.77,-683.5 92.77,-677.5 98.77,-677.5"/>
<text text-anchor="middle" x="178.27" y="-731.3" font-family="Times,serif" font-size="14.00">811103P</text>
<polyline fill="none" stroke="black" points="86.77,-723.5 269.77,-723.5 "/>
<text text-anchor="middle" x="178.27" y="-708.3" font-family="Times,serif" font-size="14.00">Johdatus ohjelmistotuotantoon</text>
<polyline fill="none" stroke="black" points="86.77,-700.5 269.77,-700.5 "/>
<text text-anchor="middle" x="132.27" y="-685.3" font-family="Times,serif" font-size="14.00">1</text>
<polyline fill="none" stroke="black" points="177.77,-677.5 177.77,-700.5 "/>
<text text-anchor="middle" x="223.77" y="-685.3" font-family="Times,serif" font-size="14.00">2</text>
</g>
<!-- c810136P&#45;&gt;c811103P -->
<g id="edge9" class="edge">
<title>c810136P&#45;&gt;c811103P</title>
<path fill="none" stroke="black" d="M323.03,-794.39C311.61,-789.11 300.07,-783.55 289.27,-778 273.67,-769.98 257.18,-760.76 241.83,-751.83"/>
<polygon fill="black" stroke="black" points="243.34,-748.65 232.94,-746.62 239.8,-754.69 243.34,-748.65"/>
</g>
<!-- c810136P&#45;&gt;c811383A -->
<g id="edge26" class="edge">
<title>c810136P&#45;&gt;c811383A</title>
<path fill="none" stroke="black" d="M301.05,-798.28C281.08,-793.37 260.13,-788.94 240.27,-786 228.78,-784.3 39.69,-786.01 31.27,-778 -27.55,-722.02 15.27,-677.2 15.27,-596 15.27,-596 15.27,-596 15.27,-273 15.27,-201.98 -19.99,-163.16 31.27,-114 67.5,-79.26 810.24,-58.72 1029.71,-53.39"/>
<polygon fill="black" stroke="black" points="1029.85,-56.89 1039.76,-53.15 1029.68,-49.89 1029.85,-56.89"/>
</g>
<!-- c811102P -->
<g id="node8" class="node">
<title>c811102P</title>
<path fill="yellow" stroke="black" d="M531.27,-794.5C531.27,-794.5 641.27,-794.5 641.27,-794.5 647.27,-794.5 653.27,-800.5 653.27,-806.5 653.27,-806.5 653.27,-851.5 653.27,-851.5 653.27,-857.5 647.27,-863.5 641.27,-863.5 641.27,-863.5 531.27,-863.5 531.27,-863.5 525.27,-863.5 519.27,-857.5 519.27,-851.5 519.27,-851.5 519.27,-806.5 519.27,-806.5 519.27,-800.5 525.27,-794.5 531.27,-794.5"/>
<text text-anchor="middle" x="586.27" y="-848.3" font-family="Times,serif" font-size="14.00">811102P</text>
<polyline fill="none" stroke="black" points="519.27,-840.5 653.27,-840.5 "/>
<text text-anchor="middle" x="586.27" y="-825.3" font-family="Times,serif" font-size="14.00">Laitteet ja tietoverkot</text>
<polyline fill="none" stroke="black" points="519.27,-817.5 653.27,-817.5 "/>
<text text-anchor="middle" x="552.77" y="-802.3" font-family="Times,serif" font-size="14.00">1</text>
<polyline fill="none" stroke="black" points="586.27,-794.5 586.27,-817.5 "/>
<text text-anchor="middle" x="619.77" y="-802.3" font-family="Times,serif" font-size="14.00">1</text>
</g>
<!-- c811102P&#45;&gt;c811168P -->
<g id="edge2" class="edge">
<title>c811102P&#45;&gt;c811168P</title>
<path fill="none" stroke="black" d="M583.06,-794.43C581.94,-782.72 580.67,-769.41 579.48,-756.98"/>
<polygon fill="black" stroke="black" points="582.94,-756.43 578.51,-746.81 575.98,-757.1 582.94,-756.43"/>
</g>
<!-- c811104P -->
<g id="node9" class="node">
<title>c811104P</title>
<path fill="#ffd700" stroke="black" d="M831.77,-677.5C831.77,-677.5 900.77,-677.5 900.77,-677.5 906.77,-677.5 912.77,-683.5 912.77,-689.5 912.77,-689.5 912.77,-734.5 912.77,-734.5 912.77,-740.5 906.77,-746.5 900.77,-746.5 900.77,-746.5 831.77,-746.5 831.77,-746.5 825.77,-746.5 819.77,-740.5 819.77,-734.5 819.77,-734.5 819.77,-689.5 819.77,-689.5 819.77,-683.5 825.77,-677.5 831.77,-677.5"/>
<text text-anchor="middle" x="866.27" y="-731.3" font-family="Times,serif" font-size="14.00">811104P</text>
<polyline fill="none" stroke="black" points="819.77,-723.5 912.77,-723.5 "/>
<text text-anchor="middle" x="866.27" y="-708.3" font-family="Times,serif" font-size="14.00">Ohjelmointi 1</text>
<polyline fill="none" stroke="black" points="819.77,-700.5 912.77,-700.5 "/>
<text text-anchor="middle" x="839.77" y="-685.3" font-family="Times,serif" font-size="14.00">1</text>
<polyline fill="none" stroke="black" points="859.77,-677.5 859.77,-700.5 "/>
<text text-anchor="middle" x="886.27" y="-685.3" font-family="Times,serif" font-size="14.00">1&#45;2</text>
</g>
<!-- c811322A -->
<g id="node10" class="node">
<title>c811322A</title>
<path fill="#ffd700" stroke="black" d="M831.77,-560.5C831.77,-560.5 900.77,-560.5 900.77,-560.5 906.77,-560.5 912.77,-566.5 912.77,-572.5 912.77,-572.5 912.77,-617.5 912.77,-617.5 912.77,-623.5 906.77,-629.5 900.77,-629.5 900.77,-629.5 831.77,-629.5 831.77,-629.5 825.77,-629.5 819.77,-623.5 819.77,-617.5 819.77,-617.5 819.77,-572.5 819.77,-572.5 819.77,-566.5 825.77,-560.5 831.77,-560.5"/>
<text text-anchor="middle" x="866.27" y="-614.3" font-family="Times,serif" font-size="14.00">811322A</text>
<polyline fill="none" stroke="black" points="819.77,-606.5 912.77,-606.5 "/>
<text text-anchor="middle" x="866.27" y="-591.3" font-family="Times,serif" font-size="14.00">Ohjelmointi 2</text>
<polyline fill="none" stroke="black" points="819.77,-583.5 912.77,-583.5 "/>
<text text-anchor="middle" x="839.77" y="-568.3" font-family="Times,serif" font-size="14.00">1</text>
<polyline fill="none" stroke="black" points="859.77,-560.5 859.77,-583.5 "/>
<text text-anchor="middle" x="886.27" y="-568.3" font-family="Times,serif" font-size="14.00">3&#45;4</text>
</g>
<!-- c811104P&#45;&gt;c811322A -->
<g id="edge4" class="edge">
<title>c811104P&#45;&gt;c811322A</title>
<path fill="none" stroke="black" d="M866.27,-677.43C866.27,-665.72 866.27,-652.41 866.27,-639.98"/>
<polygon fill="black" stroke="black" points="869.77,-639.81 866.27,-629.81 862.77,-639.81 869.77,-639.81"/>
</g>
<!-- c811325A -->
<g id="node11" class="node">
<title>c811325A</title>
<path fill="#ffd700" stroke="black" d="M837.77,-454.5C837.77,-454.5 894.77,-454.5 894.77,-454.5 900.77,-454.5 906.77,-460.5 906.77,-466.5 906.77,-466.5 906.77,-511.5 906.77,-511.5 906.77,-517.5 900.77,-523.5 894.77,-523.5 894.77,-523.5 837.77,-523.5 837.77,-523.5 831.77,-523.5 825.77,-517.5 825.77,-511.5 825.77,-511.5 825.77,-466.5 825.77,-466.5 825.77,-460.5 831.77,-454.5 837.77,-454.5"/>
<text text-anchor="middle" x="866.27" y="-508.3" font-family="Times,serif" font-size="14.00">811325A</text>
<polyline fill="none" stroke="black" points="825.77,-500.5 906.77,-500.5 "/>
<text text-anchor="middle" x="866.27" y="-485.3" font-family="Times,serif" font-size="14.00">Tietokannat</text>
<polyline fill="none" stroke="black" points="825.77,-477.5 906.77,-477.5 "/>
<text text-anchor="middle" x="845.77" y="-462.3" font-family="Times,serif" font-size="14.00">2</text>
<polyline fill="none" stroke="black" points="865.77,-454.5 865.77,-477.5 "/>
<text text-anchor="middle" x="886.27" y="-462.3" font-family="Times,serif" font-size="14.00">1</text>
</g>
<!-- c811322A&#45;&gt;c811325A -->
<g id="edge8" class="edge">
<title>c811322A&#45;&gt;c811325A</title>
<path fill="none" stroke="black" d="M866.27,-560.23C866.27,-551.79 866.27,-542.62 866.27,-533.77"/>
<polygon fill="black" stroke="black" points="869.77,-533.6 866.27,-523.6 862.77,-533.6 869.77,-533.6"/>
</g>
<!-- c811301A -->
<g id="node17" class="node">
<title>c811301A</title>
<path fill="#caff70" stroke="black" d="M55.77,-454.5C55.77,-454.5 264.77,-454.5 264.77,-454.5 270.77,-454.5 276.77,-460.5 276.77,-466.5 276.77,-466.5 276.77,-511.5 276.77,-511.5 276.77,-517.5 270.77,-523.5 264.77,-523.5 264.77,-523.5 55.77,-523.5 55.77,-523.5 49.77,-523.5 43.77,-517.5 43.77,-511.5 43.77,-511.5 43.77,-466.5 43.77,-466.5 43.77,-460.5 49.77,-454.5 55.77,-454.5"/>
<text text-anchor="middle" x="160.27" y="-508.3" font-family="Times,serif" font-size="14.00">811301A</text>
<polyline fill="none" stroke="black" points="43.77,-500.5 276.77,-500.5 "/>
<text text-anchor="middle" x="160.27" y="-485.3" font-family="Times,serif" font-size="14.00"> Ohjelmistojen mallinnus ja suunnittelu</text>
<polyline fill="none" stroke="black" points="43.77,-477.5 276.77,-477.5 "/>
<text text-anchor="middle" x="101.77" y="-462.3" font-family="Times,serif" font-size="14.00">2</text>
<polyline fill="none" stroke="black" points="159.77,-454.5 159.77,-477.5 "/>
<text text-anchor="middle" x="218.27" y="-462.3" font-family="Times,serif" font-size="14.00">1</text>
</g>
<!-- c811322A&#45;&gt;c811301A -->
<g id="edge12" class="edge">
<title>c811322A&#45;&gt;c811301A</title>
<path fill="none" stroke="black" d="M819.68,-587.14C712.75,-571.39 446.74,-532.2 287.16,-508.69"/>
<polygon fill="black" stroke="black" points="287.21,-505.16 276.81,-507.17 286.19,-512.09 287.21,-505.16"/>
</g>
<!-- c811312A -->
<g id="node12" class="node">
<title>c811312A</title>
<path fill="#ffd700" stroke="black" d="M831.27,-348.5C831.27,-348.5 973.27,-348.5 973.27,-348.5 979.27,-348.5 985.27,-354.5 985.27,-360.5 985.27,-360.5 985.27,-405.5 985.27,-405.5 985.27,-411.5 979.27,-417.5 973.27,-417.5 973.27,-417.5 831.27,-417.5 831.27,-417.5 825.27,-417.5 819.27,-411.5 819.27,-405.5 819.27,-405.5 819.27,-360.5 819.27,-360.5 819.27,-354.5 825.27,-348.5 831.27,-348.5"/>
<text text-anchor="middle" x="902.27" y="-402.3" font-family="Times,serif" font-size="14.00">811312A</text>
<polyline fill="none" stroke="black" points="819.27,-394.5 985.27,-394.5 "/>
<text text-anchor="middle" x="902.27" y="-379.3" font-family="Times,serif" font-size="14.00">Tietorakenteet ja algoritmit</text>
<polyline fill="none" stroke="black" points="819.27,-371.5 985.27,-371.5 "/>
<text text-anchor="middle" x="860.77" y="-356.3" font-family="Times,serif" font-size="14.00">2</text>
<polyline fill="none" stroke="black" points="902.27,-348.5 902.27,-371.5 "/>
<text text-anchor="middle" x="943.77" y="-356.3" font-family="Times,serif" font-size="14.00">2</text>
</g>
<!-- c811325A&#45;&gt;c811312A -->
<g id="edge7" class="edge">
<title>c811325A&#45;&gt;c811312A</title>
<path fill="none" stroke="black" d="M877.96,-454.23C880.95,-445.61 884.2,-436.22 887.32,-427.19"/>
<polygon fill="black" stroke="black" points="890.68,-428.19 890.64,-417.6 884.07,-425.9 890.68,-428.19"/>
</g>
<!-- c811319A -->
<g id="node19" class="node">
<title>c811319A</title>
<path fill="#caff70" stroke="black" d="M107.77,-239.5C107.77,-239.5 264.77,-239.5 264.77,-239.5 270.77,-239.5 276.77,-245.5 276.77,-251.5 276.77,-251.5 276.77,-296.5 276.77,-296.5 276.77,-302.5 270.77,-308.5 264.77,-308.5 264.77,-308.5 107.77,-308.5 107.77,-308.5 101.77,-308.5 95.77,-302.5 95.77,-296.5 95.77,-296.5 95.77,-251.5 95.77,-251.5 95.77,-245.5 101.77,-239.5 107.77,-239.5"/>
<text text-anchor="middle" x="186.27" y="-293.3" font-family="Times,serif" font-size="14.00">811319A</text>
<polyline fill="none" stroke="black" points="95.77,-285.5 276.77,-285.5 "/>
<text text-anchor="middle" x="186.27" y="-270.3" font-family="Times,serif" font-size="14.00">Tietomallinnus ja &#45;suunnittelu</text>
<polyline fill="none" stroke="black" points="95.77,-262.5 276.77,-262.5 "/>
<text text-anchor="middle" x="140.77" y="-247.3" font-family="Times,serif" font-size="14.00">2</text>
<polyline fill="none" stroke="black" points="185.77,-239.5 185.77,-262.5 "/>
<text text-anchor="middle" x="231.27" y="-247.3" font-family="Times,serif" font-size="14.00">3</text>
</g>
<!-- c811325A&#45;&gt;c811319A -->
<g id="edge15" class="edge">
<title>c811325A&#45;&gt;c811319A</title>
<path fill="none" stroke="black" d="M825.77,-475.31C721.07,-442.52 438.98,-354.16 286.83,-306.5"/>
<polygon fill="black" stroke="black" points="287.59,-303.07 277,-303.42 285.49,-309.75 287.59,-303.07"/>
</g>
<!-- c811367A -->
<g id="node13" class="node">
<title>c811367A</title>
<path fill="#ffd700" stroke="black" d="M875.77,-239.5C875.77,-239.5 944.77,-239.5 944.77,-239.5 950.77,-239.5 956.77,-245.5 956.77,-251.5 956.77,-251.5 956.77,-296.5 956.77,-296.5 956.77,-302.5 950.77,-308.5 944.77,-308.5 944.77,-308.5 875.77,-308.5 875.77,-308.5 869.77,-308.5 863.77,-302.5 863.77,-296.5 863.77,-296.5 863.77,-251.5 863.77,-251.5 863.77,-245.5 869.77,-239.5 875.77,-239.5"/>
<text text-anchor="middle" x="910.27" y="-293.3" font-family="Times,serif" font-size="14.00">811367A</text>
<polyline fill="none" stroke="black" points="863.77,-285.5 956.77,-285.5 "/>
<text text-anchor="middle" x="910.27" y="-270.3" font-family="Times,serif" font-size="14.00">Ohjelmointi 3</text>
<polyline fill="none" stroke="black" points="863.77,-262.5 956.77,-262.5 "/>
<text text-anchor="middle" x="886.77" y="-247.3" font-family="Times,serif" font-size="14.00">2</text>
<polyline fill="none" stroke="black" points="909.77,-239.5 909.77,-262.5 "/>
<text text-anchor="middle" x="933.27" y="-247.3" font-family="Times,serif" font-size="14.00">3</text>
</g>
<!-- c811312A&#45;&gt;c811367A -->
<g id="edge5" class="edge">
<title>c811312A&#45;&gt;c811367A</title>
<path fill="none" stroke="black" d="M904.78,-348.44C905.48,-339.07 906.26,-328.75 906.99,-318.87"/>
<polygon fill="black" stroke="black" points="910.49,-319.04 907.75,-308.81 903.51,-318.52 910.49,-319.04"/>
</g>
<!-- c811368A -->
<g id="node14" class="node">
<title>c811368A</title>
<path fill="#ffd700" stroke="black" d="M892.77,-122.5C892.77,-122.5 961.77,-122.5 961.77,-122.5 967.77,-122.5 973.77,-128.5 973.77,-134.5 973.77,-134.5 973.77,-179.5 973.77,-179.5 973.77,-185.5 967.77,-191.5 961.77,-191.5 961.77,-191.5 892.77,-191.5 892.77,-191.5 886.77,-191.5 880.77,-185.5 880.77,-179.5 880.77,-179.5 880.77,-134.5 880.77,-134.5 880.77,-128.5 886.77,-122.5 892.77,-122.5"/>
<text text-anchor="middle" x="927.27" y="-176.3" font-family="Times,serif" font-size="14.00">811368A</text>
<polyline fill="none" stroke="black" points="880.77,-168.5 973.77,-168.5 "/>
<text text-anchor="middle" x="927.27" y="-153.3" font-family="Times,serif" font-size="14.00">Ohjelmointi 4</text>
<polyline fill="none" stroke="black" points="880.77,-145.5 973.77,-145.5 "/>
<text text-anchor="middle" x="903.77" y="-130.3" font-family="Times,serif" font-size="14.00">2</text>
<polyline fill="none" stroke="black" points="926.77,-122.5 926.77,-145.5 "/>
<text text-anchor="middle" x="950.27" y="-130.3" font-family="Times,serif" font-size="14.00">4</text>
</g>
<!-- c811367A&#45;&gt;c811368A -->
<g id="edge6" class="edge">
<title>c811367A&#45;&gt;c811368A</title>
<path fill="none" stroke="black" d="M915.24,-239.43C916.97,-227.72 918.94,-214.41 920.77,-201.98"/>
<polygon fill="black" stroke="black" points="924.28,-202.22 922.28,-191.81 917.35,-201.19 924.28,-202.22"/>
</g>
<!-- c0005 -->
<g id="node28" class="node">
<title>c0005</title>
<path fill="azure" stroke="black" d="M1208.27,-16.5C1208.27,-16.5 1306.27,-16.5 1306.27,-16.5 1312.27,-16.5 1318.27,-22.5 1318.27,-28.5 1318.27,-28.5 1318.27,-73.5 1318.27,-73.5 1318.27,-79.5 1312.27,-85.5 1306.27,-85.5 1306.27,-85.5 1208.27,-85.5 1208.27,-85.5 1202.27,-85.5 1196.27,-79.5 1196.27,-73.5 1196.27,-73.5 1196.27,-28.5 1196.27,-28.5 1196.27,-22.5 1202.27,-16.5 1208.27,-16.5"/>
<text text-anchor="middle" x="1257.27" y="-70.3" font-family="Times,serif" font-size="14.00">xxxxx</text>
<polyline fill="none" stroke="black" points="1196.27,-62.5 1318.27,-62.5 "/>
<text text-anchor="middle" x="1257.27" y="-47.3" font-family="Times,serif" font-size="14.00">Kandidaattiprojekti</text>
<polyline fill="none" stroke="black" points="1196.27,-39.5 1318.27,-39.5 "/>
<text text-anchor="middle" x="1223.77" y="-24.3" font-family="Times,serif" font-size="14.00">3</text>
<polyline fill="none" stroke="black" points="1251.27,-16.5 1251.27,-39.5 "/>
<text text-anchor="middle" x="1284.77" y="-24.3" font-family="Times,serif" font-size="14.00">3&#45;4</text>
</g>
<!-- c811368A&#45;&gt;c0005 -->
<g id="edge29" class="edge">
<title>c811368A&#45;&gt;c0005</title>
<path fill="none" stroke="black" d="M973.95,-134.42C990.55,-127.27 1009.52,-119.7 1027.27,-114 1080.65,-96.86 1096.18,-100.72 1150.27,-86 1162.07,-82.79 1174.51,-79.11 1186.57,-75.39"/>
<polygon fill="black" stroke="black" points="1187.64,-78.72 1196.14,-72.4 1185.56,-72.04 1187.64,-78.72"/>
</g>
<!-- c811391A -->
<g id="node16" class="node">
<title>c811391A</title>
<path fill="#caff70" stroke="black" d="M116.77,-560.5C116.77,-560.5 215.77,-560.5 215.77,-560.5 221.77,-560.5 227.77,-566.5 227.77,-572.5 227.77,-572.5 227.77,-617.5 227.77,-617.5 227.77,-623.5 221.77,-629.5 215.77,-629.5 215.77,-629.5 116.77,-629.5 116.77,-629.5 110.77,-629.5 104.77,-623.5 104.77,-617.5 104.77,-617.5 104.77,-572.5 104.77,-572.5 104.77,-566.5 110.77,-560.5 116.77,-560.5"/>
<text text-anchor="middle" x="166.27" y="-614.3" font-family="Times,serif" font-size="14.00">811391A</text>
<polyline fill="none" stroke="black" points="104.77,-606.5 227.77,-606.5 "/>
<text text-anchor="middle" x="166.27" y="-591.3" font-family="Times,serif" font-size="14.00">Vaatimusmäärittely</text>
<polyline fill="none" stroke="black" points="104.77,-583.5 227.77,-583.5 "/>
<text text-anchor="middle" x="135.27" y="-568.3" font-family="Times,serif" font-size="14.00">1</text>
<polyline fill="none" stroke="black" points="165.77,-560.5 165.77,-583.5 "/>
<text text-anchor="middle" x="196.77" y="-568.3" font-family="Times,serif" font-size="14.00">4</text>
</g>
<!-- c811103P&#45;&gt;c811391A -->
<g id="edge10" class="edge">
<title>c811103P&#45;&gt;c811391A</title>
<path fill="none" stroke="black" d="M174.77,-677.43C173.55,-665.72 172.16,-652.41 170.86,-639.98"/>
<polygon fill="black" stroke="black" points="174.32,-639.4 169.8,-629.81 167.36,-640.12 174.32,-639.4"/>
</g>
<!-- c811391A&#45;&gt;c811301A -->
<g id="edge11" class="edge">
<title>c811391A&#45;&gt;c811301A</title>
<path fill="none" stroke="black" d="M164.33,-560.23C163.84,-551.79 163.31,-542.62 162.8,-533.77"/>
<polygon fill="black" stroke="black" points="166.28,-533.38 162.21,-523.6 159.29,-533.78 166.28,-533.38"/>
</g>
<!-- c811306A -->
<g id="node18" class="node">
<title>c811306A</title>
<path fill="#caff70" stroke="black" d="M96.27,-348.5C96.27,-348.5 250.27,-348.5 250.27,-348.5 256.27,-348.5 262.27,-354.5 262.27,-360.5 262.27,-360.5 262.27,-405.5 262.27,-405.5 262.27,-411.5 256.27,-417.5 250.27,-417.5 250.27,-417.5 96.27,-417.5 96.27,-417.5 90.27,-417.5 84.27,-411.5 84.27,-405.5 84.27,-405.5 84.27,-360.5 84.27,-360.5 84.27,-354.5 90.27,-348.5 96.27,-348.5"/>
<text text-anchor="middle" x="173.27" y="-402.3" font-family="Times,serif" font-size="14.00">811306A</text>
<polyline fill="none" stroke="black" points="84.27,-394.5 262.27,-394.5 "/>
<text text-anchor="middle" x="173.27" y="-379.3" font-family="Times,serif" font-size="14.00">Ohjelmistojen laatu ja testaus</text>
<polyline fill="none" stroke="black" points="84.27,-371.5 262.27,-371.5 "/>
<text text-anchor="middle" x="128.77" y="-356.3" font-family="Times,serif" font-size="14.00">2</text>
<polyline fill="none" stroke="black" points="173.27,-348.5 173.27,-371.5 "/>
<text text-anchor="middle" x="217.77" y="-356.3" font-family="Times,serif" font-size="14.00">2</text>
</g>
<!-- c811301A&#45;&gt;c811306A -->
<g id="edge13" class="edge">
<title>c811301A&#45;&gt;c811306A</title>
<path fill="none" stroke="black" d="M164.49,-454.23C165.55,-445.79 166.7,-436.62 167.8,-427.77"/>
<polygon fill="black" stroke="black" points="171.31,-427.95 169.07,-417.6 164.36,-427.09 171.31,-427.95"/>
</g>
<!-- c811306A&#45;&gt;c811319A -->
<g id="edge14" class="edge">
<title>c811306A&#45;&gt;c811319A</title>
<path fill="none" stroke="black" d="M177.35,-348.44C178.49,-339.07 179.74,-328.75 180.94,-318.87"/>
<polygon fill="black" stroke="black" points="184.43,-319.16 182.17,-308.81 177.49,-318.32 184.43,-319.16"/>
</g>
<!-- c815345A -->
<g id="node20" class="node">
<title>c815345A</title>
<path fill="#caff70" stroke="black" d="M129.77,-122.5C129.77,-122.5 256.77,-122.5 256.77,-122.5 262.77,-122.5 268.77,-128.5 268.77,-134.5 268.77,-134.5 268.77,-179.5 268.77,-179.5 268.77,-185.5 262.77,-191.5 256.77,-191.5 256.77,-191.5 129.77,-191.5 129.77,-191.5 123.77,-191.5 117.77,-185.5 117.77,-179.5 117.77,-179.5 117.77,-134.5 117.77,-134.5 117.77,-128.5 123.77,-122.5 129.77,-122.5"/>
<text text-anchor="middle" x="193.27" y="-176.3" font-family="Times,serif" font-size="14.00">815345A</text>
<polyline fill="none" stroke="black" points="117.77,-168.5 268.77,-168.5 "/>
<text text-anchor="middle" x="193.27" y="-153.3" font-family="Times,serif" font-size="14.00">Ohjelmistoarkkitehtuurit</text>
<polyline fill="none" stroke="black" points="117.77,-145.5 268.77,-145.5 "/>
<text text-anchor="middle" x="155.27" y="-130.3" font-family="Times,serif" font-size="14.00">2</text>
<polyline fill="none" stroke="black" points="192.77,-122.5 192.77,-145.5 "/>
<text text-anchor="middle" x="230.77" y="-130.3" font-family="Times,serif" font-size="14.00">4</text>
</g>
<!-- c811319A&#45;&gt;c815345A -->
<g id="edge16" class="edge">
<title>c811319A&#45;&gt;c815345A</title>
<path fill="none" stroke="black" d="M188.32,-239.43C189.03,-227.72 189.84,-214.41 190.6,-201.98"/>
<polygon fill="black" stroke="black" points="194.1,-202.01 191.22,-191.81 187.11,-201.58 194.1,-202.01"/>
</g>
<!-- c815345A&#45;&gt;c0005 -->
<g id="edge28" class="edge">
<title>c815345A&#45;&gt;c0005</title>
<path fill="none" stroke="black" d="M269.14,-150.94C487.93,-136.28 1107.23,-94.29 1150.27,-86 1162.09,-83.72 1174.42,-80.57 1186.34,-77.09"/>
<polygon fill="black" stroke="black" points="1187.68,-80.35 1196.24,-74.11 1185.65,-73.64 1187.68,-80.35"/>
</g>
<!-- c811166P -->
<g id="node21" class="node">
<title>c811166P</title>
<path fill="antiquewhite" stroke="black" d="M1492.27,-560.5C1492.27,-560.5 1636.27,-560.5 1636.27,-560.5 1642.27,-560.5 1648.27,-566.5 1648.27,-572.5 1648.27,-572.5 1648.27,-617.5 1648.27,-617.5 1648.27,-623.5 1642.27,-629.5 1636.27,-629.5 1636.27,-629.5 1492.27,-629.5 1492.27,-629.5 1486.27,-629.5 1480.27,-623.5 1480.27,-617.5 1480.27,-617.5 1480.27,-572.5 1480.27,-572.5 1480.27,-566.5 1486.27,-560.5 1492.27,-560.5"/>
<text text-anchor="middle" x="1564.27" y="-614.3" font-family="Times,serif" font-size="14.00">811166P</text>
<polyline fill="none" stroke="black" points="1480.27,-606.5 1648.27,-606.5 "/>
<text text-anchor="middle" x="1564.27" y="-591.3" font-family="Times,serif" font-size="14.00">Tietojärjestelmien perusteet</text>
<polyline fill="none" stroke="black" points="1480.27,-583.5 1648.27,-583.5 "/>
<text text-anchor="middle" x="1522.27" y="-568.3" font-family="Times,serif" font-size="14.00">1</text>
<polyline fill="none" stroke="black" points="1564.27,-560.5 1564.27,-583.5 "/>
<text text-anchor="middle" x="1606.27" y="-568.3" font-family="Times,serif" font-size="14.00">2</text>
</g>
<!-- c812360A -->
<g id="node22" class="node">
<title>c812360A</title>
<path fill="antiquewhite" stroke="black" d="M1414.77,-454.5C1414.77,-454.5 1713.77,-454.5 1713.77,-454.5 1719.77,-454.5 1725.77,-460.5 1725.77,-466.5 1725.77,-466.5 1725.77,-511.5 1725.77,-511.5 1725.77,-517.5 1719.77,-523.5 1713.77,-523.5 1713.77,-523.5 1414.77,-523.5 1414.77,-523.5 1408.77,-523.5 1402.77,-517.5 1402.77,-511.5 1402.77,-511.5 1402.77,-466.5 1402.77,-466.5 1402.77,-460.5 1408.77,-454.5 1414.77,-454.5"/>
<text text-anchor="middle" x="1564.27" y="-508.3" font-family="Times,serif" font-size="14.00">812360A</text>
<polyline fill="none" stroke="black" points="1402.77,-500.5 1725.77,-500.5 "/>
<text text-anchor="middle" x="1564.27" y="-485.3" font-family="Times,serif" font-size="14.00">Tietojärjestelmien mallintaminen, suunnittelu ja kehitys</text>
<polyline fill="none" stroke="black" points="1402.77,-477.5 1725.77,-477.5 "/>
<text text-anchor="middle" x="1483.27" y="-462.3" font-family="Times,serif" font-size="14.00">1</text>
<polyline fill="none" stroke="black" points="1563.77,-454.5 1563.77,-477.5 "/>
<text text-anchor="middle" x="1644.77" y="-462.3" font-family="Times,serif" font-size="14.00">4</text>
</g>
<!-- c811166P&#45;&gt;c812360A -->
<g id="edge17" class="edge">
<title>c811166P&#45;&gt;c812360A</title>
<path fill="none" stroke="black" d="M1564.27,-560.23C1564.27,-551.79 1564.27,-542.62 1564.27,-533.77"/>
<polygon fill="black" stroke="black" points="1567.77,-533.6 1564.27,-523.6 1560.77,-533.6 1567.77,-533.6"/>
</g>
<!-- c0001 -->
<g id="node23" class="node">
<title>c0001</title>
<path fill="antiquewhite" stroke="black" d="M1494.27,-348.5C1494.27,-348.5 1632.27,-348.5 1632.27,-348.5 1638.27,-348.5 1644.27,-354.5 1644.27,-360.5 1644.27,-360.5 1644.27,-405.5 1644.27,-405.5 1644.27,-411.5 1638.27,-417.5 1632.27,-417.5 1632.27,-417.5 1494.27,-417.5 1494.27,-417.5 1488.27,-417.5 1482.27,-411.5 1482.27,-405.5 1482.27,-405.5 1482.27,-360.5 1482.27,-360.5 1482.27,-354.5 1488.27,-348.5 1494.27,-348.5"/>
<text text-anchor="middle" x="1563.27" y="-402.3" font-family="Times,serif" font-size="14.00">xxxxxx</text>
<polyline fill="none" stroke="black" points="1482.27,-394.5 1644.27,-394.5 "/>
<text text-anchor="middle" x="1563.27" y="-379.3" font-family="Times,serif" font-size="14.00">Ihmislähtöinen suunnittelu</text>
<polyline fill="none" stroke="black" points="1482.27,-371.5 1644.27,-371.5 "/>
<text text-anchor="middle" x="1522.77" y="-356.3" font-family="Times,serif" font-size="14.00">2</text>
<polyline fill="none" stroke="black" points="1563.27,-348.5 1563.27,-371.5 "/>
<text text-anchor="middle" x="1603.77" y="-356.3" font-family="Times,serif" font-size="14.00">1</text>
</g>
<!-- c812360A&#45;&gt;c0001 -->
<g id="edge18" class="edge">
<title>c812360A&#45;&gt;c0001</title>
<path fill="none" stroke="black" d="M1563.95,-454.23C1563.87,-445.79 1563.78,-436.62 1563.69,-427.77"/>
<polygon fill="black" stroke="black" points="1567.19,-427.56 1563.6,-417.6 1560.19,-427.63 1567.19,-427.56"/>
</g>
<!-- c0002 -->
<g id="node24" class="node">
<title>c0002</title>
<path fill="antiquewhite" stroke="black" d="M1424.77,-239.5C1424.77,-239.5 1699.77,-239.5 1699.77,-239.5 1705.77,-239.5 1711.77,-245.5 1711.77,-251.5 1711.77,-251.5 1711.77,-296.5 1711.77,-296.5 1711.77,-302.5 1705.77,-308.5 1699.77,-308.5 1699.77,-308.5 1424.77,-308.5 1424.77,-308.5 1418.77,-308.5 1412.77,-302.5 1412.77,-296.5 1412.77,-296.5 1412.77,-251.5 1412.77,-251.5 1412.77,-245.5 1418.77,-239.5 1424.77,-239.5"/>
<text text-anchor="middle" x="1562.27" y="-293.3" font-family="Times,serif" font-size="14.00">xxxxxx</text>
<polyline fill="none" stroke="black" points="1412.77,-285.5 1711.77,-285.5 "/>
<text text-anchor="middle" x="1562.27" y="-270.3" font-family="Times,serif" font-size="14.00">Tietojärjestelmien hankinta, käyttöönotto ja hallinta</text>
<polyline fill="none" stroke="black" points="1412.77,-262.5 1711.77,-262.5 "/>
<text text-anchor="middle" x="1487.27" y="-247.3" font-family="Times,serif" font-size="14.00">2</text>
<polyline fill="none" stroke="black" points="1561.77,-239.5 1561.77,-262.5 "/>
<text text-anchor="middle" x="1636.77" y="-247.3" font-family="Times,serif" font-size="14.00">2</text>
</g>
<!-- c0001&#45;&gt;c0002 -->
<g id="edge19" class="edge">
<title>c0001&#45;&gt;c0002</title>
<path fill="none" stroke="black" d="M1562.96,-348.44C1562.87,-339.07 1562.78,-328.75 1562.68,-318.87"/>
<polygon fill="black" stroke="black" points="1566.18,-318.78 1562.59,-308.81 1559.18,-318.84 1566.18,-318.78"/>
</g>
<!-- c0003 -->
<g id="node25" class="node">
<title>c0003</title>
<path fill="antiquewhite" stroke="black" d="M1417.77,-122.5C1417.77,-122.5 1702.77,-122.5 1702.77,-122.5 1708.77,-122.5 1714.77,-128.5 1714.77,-134.5 1714.77,-134.5 1714.77,-179.5 1714.77,-179.5 1714.77,-185.5 1708.77,-191.5 1702.77,-191.5 1702.77,-191.5 1417.77,-191.5 1417.77,-191.5 1411.77,-191.5 1405.77,-185.5 1405.77,-179.5 1405.77,-179.5 1405.77,-134.5 1405.77,-134.5 1405.77,-128.5 1411.77,-122.5 1417.77,-122.5"/>
<text text-anchor="middle" x="1560.27" y="-176.3" font-family="Times,serif" font-size="14.00">xxxxxx</text>
<polyline fill="none" stroke="black" points="1405.77,-168.5 1714.77,-168.5 "/>
<text text-anchor="middle" x="1560.27" y="-153.3" font-family="Times,serif" font-size="14.00">Liiketoimintaprosessien johtaminen ja mallintaminen</text>
<polyline fill="none" stroke="black" points="1405.77,-145.5 1714.77,-145.5 "/>
<text text-anchor="middle" x="1482.77" y="-130.3" font-family="Times,serif" font-size="14.00">2</text>
<polyline fill="none" stroke="black" points="1559.77,-122.5 1559.77,-145.5 "/>
<text text-anchor="middle" x="1637.27" y="-130.3" font-family="Times,serif" font-size="14.00">3</text>
</g>
<!-- c0002&#45;&gt;c0003 -->
<g id="edge20" class="edge">
<title>c0002&#45;&gt;c0003</title>
<path fill="none" stroke="black" d="M1561.69,-239.43C1561.49,-227.72 1561.25,-214.41 1561.04,-201.98"/>
<polygon fill="black" stroke="black" points="1564.54,-201.75 1560.86,-191.81 1557.54,-201.87 1564.54,-201.75"/>
</g>
<!-- c0004 -->
<g id="node26" class="node">
<title>c0004</title>
<path fill="antiquewhite" stroke="black" d="M1457.27,-16.5C1457.27,-16.5 1663.27,-16.5 1663.27,-16.5 1669.27,-16.5 1675.27,-22.5 1675.27,-28.5 1675.27,-28.5 1675.27,-73.5 1675.27,-73.5 1675.27,-79.5 1669.27,-85.5 1663.27,-85.5 1663.27,-85.5 1457.27,-85.5 1457.27,-85.5 1451.27,-85.5 1445.27,-79.5 1445.27,-73.5 1445.27,-73.5 1445.27,-28.5 1445.27,-28.5 1445.27,-22.5 1451.27,-16.5 1457.27,-16.5"/>
<text text-anchor="middle" x="1560.27" y="-70.3" font-family="Times,serif" font-size="14.00">xxxxxx</text>
<polyline fill="none" stroke="black" points="1445.27,-62.5 1675.27,-62.5 "/>
<text text-anchor="middle" x="1560.27" y="-47.3" font-family="Times,serif" font-size="14.00">Data&#45;analytiikka liiketoiminnan tukena</text>
<polyline fill="none" stroke="black" points="1445.27,-39.5 1675.27,-39.5 "/>
<text text-anchor="middle" x="1502.77" y="-24.3" font-family="Times,serif" font-size="14.00">3</text>
<polyline fill="none" stroke="black" points="1560.27,-16.5 1560.27,-39.5 "/>
<text text-anchor="middle" x="1617.77" y="-24.3" font-family="Times,serif" font-size="14.00">4</text>
</g>
<!-- c0003&#45;&gt;c0004 -->
<g id="edge21" class="edge">
<title>c0003&#45;&gt;c0004</title>
<path fill="none" stroke="black" d="M1560.27,-122.23C1560.27,-113.79 1560.27,-104.62 1560.27,-95.77"/>
<polygon fill="black" stroke="black" points="1563.77,-95.6 1560.27,-85.6 1556.77,-95.6 1563.77,-95.6"/>
</g>
<!-- c0003&#45;&gt;c0005 -->
<g id="edge30" class="edge">
<title>c0003&#45;&gt;c0005</title>
<path fill="none" stroke="black" d="M1462.32,-122.38C1418.55,-107.36 1367.94,-89.99 1327.95,-76.26"/>
<polygon fill="black" stroke="black" points="1328.88,-72.88 1318.29,-72.94 1326.61,-79.5 1328.88,-72.88"/>
</g>
<!-- c811397A -->
<g id="node27" class="node">
<title>c811397A</title>
<path fill="azure" stroke="black" d="M1222.77,-122.5C1222.77,-122.5 1365.77,-122.5 1365.77,-122.5 1371.77,-122.5 1377.77,-128.5 1377.77,-134.5 1377.77,-134.5 1377.77,-179.5 1377.77,-179.5 1377.77,-185.5 1371.77,-191.5 1365.77,-191.5 1365.77,-191.5 1222.77,-191.5 1222.77,-191.5 1216.77,-191.5 1210.77,-185.5 1210.77,-179.5 1210.77,-179.5 1210.77,-134.5 1210.77,-134.5 1210.77,-128.5 1216.77,-122.5 1222.77,-122.5"/>
<text text-anchor="middle" x="1294.27" y="-176.3" font-family="Times,serif" font-size="14.00">811397A</text>
<polyline fill="none" stroke="black" points="1210.77,-168.5 1377.77,-168.5 "/>
<text text-anchor="middle" x="1294.27" y="-153.3" font-family="Times,serif" font-size="14.00">Projektitoiminnan perusteet</text>
<polyline fill="none" stroke="black" points="1210.77,-145.5 1377.77,-145.5 "/>
<text text-anchor="middle" x="1252.27" y="-130.3" font-family="Times,serif" font-size="14.00">2</text>
<polyline fill="none" stroke="black" points="1293.77,-122.5 1293.77,-145.5 "/>
<text text-anchor="middle" x="1335.77" y="-130.3" font-family="Times,serif" font-size="14.00">4</text>
</g>
<!-- c811397A&#45;&gt;c0005 -->
<g id="edge27" class="edge">
<title>c811397A&#45;&gt;c0005</title>
<path fill="none" stroke="black" d="M1282.26,-122.23C1279.19,-113.61 1275.85,-104.22 1272.64,-95.19"/>
<polygon fill="black" stroke="black" points="1275.88,-93.84 1269.23,-85.6 1269.28,-96.19 1275.88,-93.84"/>
</g>
<!-- c811393A&#45;&gt;c811383A -->
<g id="edge24" class="edge">
<title>c811393A&#45;&gt;c811383A</title>
<path fill="none" stroke="black" d="M1107.83,-122.23C1105.7,-113.7 1103.38,-104.42 1101.14,-95.48"/>
<polygon fill="black" stroke="black" points="1104.49,-94.45 1098.67,-85.6 1097.7,-96.15 1104.49,-94.45"/>
</g>
</g>
</svg>
