<?xml version="1.0" encoding="UTF-8" standalone="no"?>
<!DOCTYPE svg PUBLIC "-//W3C//DTD SVG 1.1//EN"
 "http://www.w3.org/Graphics/SVG/1.1/DTD/svg11.dtd">
<!-- Generated by graphviz version 10.0.1 (20240210.2158)
 -->
<!-- Title: TOLLuK Pages: 1 -->
<svg width="3238pt" height="1100pt"
 viewBox="0.00 0.00 3238.00 1100.00" xmlns="http://www.w3.org/2000/svg" xmlns:xlink="http://www.w3.org/1999/xlink">
<g id="graph0" class="graph" transform="scale(1 1) rotate(0) translate(4 1096)">
<title>TOLLuK</title>
<polygon fill="white" stroke="none" points="-4,4 -4,-1096 3234,-1096 3234,4 -4,4"/>
<g id="clust1" class="cluster">
<title>cluster_Legend</title>
<g id="a_clust1"><a xlink:href="https://github.com/anttijuu/tol-courses-graph" xlink:title="Selite">
<polygon fill="none" stroke="black" stroke-dasharray="1,5" points="26.75,-144 26.75,-235 291.75,-235 291.75,-144 26.75,-144"/>
<text text-anchor="middle" x="159.25" y="-217.7" font-family="Times,serif" font-size="14.00">Selite</text>
</a>
</g>
</g>
<g id="clust2" class="cluster">
<title>cluster_Yleiset</title>
<polygon fill="none" stroke="black" stroke-dasharray="1,5" points="1701.5,-721 1701.5,-1084 2650.5,-1084 2650.5,-721 1701.5,-721"/>
<text text-anchor="middle" x="2176" y="-1066.7" font-family="Times,serif" font-size="14.00">Yleiset ja kieliopinnot</text>
</g>
<g id="clust3" class="cluster">
<title>cluster_Johdanto</title>
<polygon fill="none" stroke="black" stroke-dasharray="1,5" points="8,-380 8,-595 642,-595 642,-380 8,-380"/>
<text text-anchor="middle" x="325" y="-577.7" font-family="Times,serif" font-size="14.00">Johdanto</text>
</g>
<g id="clust4" class="cluster">
<title>cluster_Ohjelmointi</title>
<polygon fill="none" stroke="black" stroke-dasharray="1,5" points="383,-107 383,-266 1639.12,-266 1639.12,-107 383,-107"/>
<text text-anchor="middle" x="1011.06" y="-248.7" font-family="Times,serif" font-size="14.00">Ohjelmointi</text>
</g>
<g id="clust5" class="cluster">
<title>cluster_Ohjelmistokehitys</title>
<polygon fill="none" stroke="black" stroke-dasharray="1,5" points="343.62,-281 343.62,-372 2542.5,-372 2542.5,-281 343.62,-281"/>
<text text-anchor="middle" x="1443.06" y="-354.7" font-family="Times,serif" font-size="14.00">Ohjelmistokehitys</text>
</g>
<g id="clust6" class="cluster">
<title>cluster_IhminenOrganisaatio</title>
<polygon fill="none" stroke="black" stroke-dasharray="1,5" points="662,-8 662,-99 3004.5,-99 3004.5,-8 662,-8"/>
<text text-anchor="middle" x="1833.25" y="-81.7" font-family="Times,serif" font-size="14.00">Ihminen ja organisaatio</text>
</g>
<g id="clust7" class="cluster">
<title>cluster_Huipennus</title>
<polygon fill="none" stroke="black" stroke-dasharray="1,5" points="2279,-554 2279,-713 3222,-713 3222,-554 2279,-554"/>
<text text-anchor="middle" x="2750.5" y="-695.7" font-family="Times,serif" font-size="14.00">Huipennus</text>
</g>
<!-- legend -->
<g id="node1" class="node">
<title>legend</title>
<path fill="pink" stroke="black" d="M46.75,-152.5C46.75,-152.5 271.75,-152.5 271.75,-152.5 277.75,-152.5 283.75,-158.5 283.75,-164.5 283.75,-164.5 283.75,-189.5 283.75,-189.5 283.75,-195.5 277.75,-201.5 271.75,-201.5 271.75,-201.5 46.75,-201.5 46.75,-201.5 40.75,-201.5 34.75,-195.5 34.75,-189.5 34.75,-189.5 34.75,-164.5 34.75,-164.5 34.75,-158.5 40.75,-152.5 46.75,-152.5"/>
<text text-anchor="middle" x="75.75" y="-171.95" font-family="Times,serif" font-size="14.00">Kurssikoodi</text>
<polyline fill="none" stroke="black" points="116.75,-152.5 116.75,-201.5"/>
<text text-anchor="middle" x="160.38" y="-171.95" font-family="Times,serif" font-size="14.00">Kurssin nimi</text>
<polyline fill="none" stroke="black" points="204,-152.5 204,-201.5"/>
<text text-anchor="middle" x="243.88" y="-184.2" font-family="Times,serif" font-size="14.00">opintovuosi</text>
<polyline fill="none" stroke="black" points="204,-177 283.75,-177"/>
<text text-anchor="middle" x="243.88" y="-159.7" font-family="Times,serif" font-size="14.00">periodi</text>
</g>
<!-- c902164Y -->
<g id="node2" class="node">
<title>c902164Y</title>
<path fill="gainsboro" stroke="black" d="M1721.5,-1001.5C1721.5,-1001.5 2139.25,-1001.5 2139.25,-1001.5 2145.25,-1001.5 2151.25,-1007.5 2151.25,-1013.5 2151.25,-1013.5 2151.25,-1038.5 2151.25,-1038.5 2151.25,-1044.5 2145.25,-1050.5 2139.25,-1050.5 2139.25,-1050.5 1721.5,-1050.5 1721.5,-1050.5 1715.5,-1050.5 1709.5,-1044.5 1709.5,-1038.5 1709.5,-1038.5 1709.5,-1013.5 1709.5,-1013.5 1709.5,-1007.5 1715.5,-1001.5 1721.5,-1001.5"/>
<text text-anchor="middle" x="1742.62" y="-1020.95" font-family="Times,serif" font-size="14.00">902164Y</text>
<polyline fill="none" stroke="black" points="1775.75,-1001.5 1775.75,-1050.5"/>
<text text-anchor="middle" x="1952.12" y="-1020.95" font-family="Times,serif" font-size="14.00">English Communication for Information Processing, Reading</text>
<polyline fill="none" stroke="black" points="2128.5,-1001.5 2128.5,-1050.5"/>
<text text-anchor="middle" x="2139.88" y="-1033.2" font-family="Times,serif" font-size="14.00">1</text>
<polyline fill="none" stroke="black" points="2128.5,-1026 2151.25,-1026"/>
<text text-anchor="middle" x="2139.88" y="-1008.7" font-family="Times,serif" font-size="14.00">3</text>
</g>
<!-- c902165Y -->
<g id="node3" class="node">
<title>c902165Y</title>
<path fill="gainsboro" stroke="black" d="M2199.25,-880.5C2199.25,-880.5 2630.5,-880.5 2630.5,-880.5 2636.5,-880.5 2642.5,-886.5 2642.5,-892.5 2642.5,-892.5 2642.5,-917.5 2642.5,-917.5 2642.5,-923.5 2636.5,-929.5 2630.5,-929.5 2630.5,-929.5 2199.25,-929.5 2199.25,-929.5 2193.25,-929.5 2187.25,-923.5 2187.25,-917.5 2187.25,-917.5 2187.25,-892.5 2187.25,-892.5 2187.25,-886.5 2193.25,-880.5 2199.25,-880.5"/>
<text text-anchor="middle" x="2220.38" y="-899.95" font-family="Times,serif" font-size="14.00">902165Y</text>
<polyline fill="none" stroke="black" points="2253.5,-880.5 2253.5,-929.5"/>
<text text-anchor="middle" x="2436.62" y="-899.95" font-family="Times,serif" font-size="14.00">English Communication for Information Processing, Oral Skills</text>
<polyline fill="none" stroke="black" points="2619.75,-880.5 2619.75,-929.5"/>
<text text-anchor="middle" x="2631.12" y="-912.2" font-family="Times,serif" font-size="14.00">1</text>
<polyline fill="none" stroke="black" points="2619.75,-905 2642.5,-905"/>
<text text-anchor="middle" x="2631.12" y="-887.7" font-family="Times,serif" font-size="14.00">4</text>
</g>
<!-- c902164Y&#45;&gt;c902165Y -->
<g id="edge1" class="edge">
<title>c902164Y&#45;&gt;c902165Y</title>
<path fill="none" stroke="black" d="M2109.48,-1001.05C2123.67,-998.28 2137.73,-995.26 2151.25,-992 2215.22,-976.57 2285.94,-952.74 2337.86,-933.92"/>
<polygon fill="black" stroke="black" points="2339.03,-937.22 2347.22,-930.5 2336.63,-930.64 2339.03,-937.22"/>
</g>
<!-- c901048Y -->
<g id="node4" class="node">
<title>c901048Y</title>
<path fill="gainsboro" stroke="black" d="M1745.12,-797.5C1745.12,-797.5 2115.62,-797.5 2115.62,-797.5 2121.62,-797.5 2127.62,-803.5 2127.62,-809.5 2127.62,-809.5 2127.62,-834.5 2127.62,-834.5 2127.62,-840.5 2121.62,-846.5 2115.62,-846.5 2115.62,-846.5 1745.12,-846.5 1745.12,-846.5 1739.12,-846.5 1733.12,-840.5 1733.12,-834.5 1733.12,-834.5 1733.12,-809.5 1733.12,-809.5 1733.12,-803.5 1739.12,-797.5 1745.12,-797.5"/>
<text text-anchor="middle" x="1766.25" y="-816.95" font-family="Times,serif" font-size="14.00">901048Y</text>
<polyline fill="none" stroke="black" points="1799.38,-797.5 1799.38,-846.5"/>
<text text-anchor="middle" x="1952.12" y="-816.95" font-family="Times,serif" font-size="14.00">Toinen kotimainen kieli (ruotsi), kirjallinen kielitaito</text>
<polyline fill="none" stroke="black" points="2104.88,-797.5 2104.88,-846.5"/>
<text text-anchor="middle" x="2116.25" y="-829.2" font-family="Times,serif" font-size="14.00">1</text>
<polyline fill="none" stroke="black" points="2104.88,-822 2127.62,-822"/>
<text text-anchor="middle" x="2116.25" y="-804.7" font-family="Times,serif" font-size="14.00">1</text>
</g>
<!-- c901049Y -->
<g id="node5" class="node">
<title>c901049Y</title>
<path fill="gainsboro" stroke="black" d="M1748.12,-865.5C1748.12,-865.5 2112.62,-865.5 2112.62,-865.5 2118.62,-865.5 2124.62,-871.5 2124.62,-877.5 2124.62,-877.5 2124.62,-902.5 2124.62,-902.5 2124.62,-908.5 2118.62,-914.5 2112.62,-914.5 2112.62,-914.5 1748.12,-914.5 1748.12,-914.5 1742.12,-914.5 1736.12,-908.5 1736.12,-902.5 1736.12,-902.5 1736.12,-877.5 1736.12,-877.5 1736.12,-871.5 1742.12,-865.5 1748.12,-865.5"/>
<text text-anchor="middle" x="1769.25" y="-884.95" font-family="Times,serif" font-size="14.00">901049Y</text>
<polyline fill="none" stroke="black" points="1802.38,-865.5 1802.38,-914.5"/>
<text text-anchor="middle" x="1952.12" y="-884.95" font-family="Times,serif" font-size="14.00">Toinen kotimainen kieli (ruotsi), suullinen kielitaito</text>
<polyline fill="none" stroke="black" points="2101.88,-865.5 2101.88,-914.5"/>
<text text-anchor="middle" x="2113.25" y="-897.2" font-family="Times,serif" font-size="14.00">1</text>
<polyline fill="none" stroke="black" points="2101.88,-890 2124.62,-890"/>
<text text-anchor="middle" x="2113.25" y="-872.7" font-family="Times,serif" font-size="14.00">2</text>
</g>
<!-- c030005P -->
<g id="node6" class="node">
<title>c030005P</title>
<path fill="gainsboro" stroke="black" d="M1826.88,-933.5C1826.88,-933.5 2033.88,-933.5 2033.88,-933.5 2039.88,-933.5 2045.88,-939.5 2045.88,-945.5 2045.88,-945.5 2045.88,-970.5 2045.88,-970.5 2045.88,-976.5 2039.88,-982.5 2033.88,-982.5 2033.88,-982.5 1826.88,-982.5 1826.88,-982.5 1820.88,-982.5 1814.88,-976.5 1814.88,-970.5 1814.88,-970.5 1814.88,-945.5 1814.88,-945.5 1814.88,-939.5 1820.88,-933.5 1826.88,-933.5"/>
<text text-anchor="middle" x="1846.88" y="-952.95" font-family="Times,serif" font-size="14.00">030005P</text>
<polyline fill="none" stroke="black" points="1878.88,-933.5 1878.88,-982.5"/>
<text text-anchor="middle" x="1945.38" y="-952.95" font-family="Times,serif" font-size="14.00">Tiedonhankintakurssi</text>
<polyline fill="none" stroke="black" points="2011.88,-933.5 2011.88,-982.5"/>
<text text-anchor="middle" x="2028.88" y="-965.2" font-family="Times,serif" font-size="14.00">1</text>
<polyline fill="none" stroke="black" points="2011.88,-958 2045.88,-958"/>
<text text-anchor="middle" x="2028.88" y="-940.7" font-family="Times,serif" font-size="14.00">1&#45;2</text>
</g>
<!-- c811393A -->
<g id="node33" class="node">
<title>c811393A</title>
<path fill="azure" stroke="black" d="M2306.12,-630.5C2306.12,-630.5 2523.62,-630.5 2523.62,-630.5 2529.62,-630.5 2535.62,-636.5 2535.62,-642.5 2535.62,-642.5 2535.62,-667.5 2535.62,-667.5 2535.62,-673.5 2529.62,-679.5 2523.62,-679.5 2523.62,-679.5 2306.12,-679.5 2306.12,-679.5 2300.12,-679.5 2294.12,-673.5 2294.12,-667.5 2294.12,-667.5 2294.12,-642.5 2294.12,-642.5 2294.12,-636.5 2300.12,-630.5 2306.12,-630.5"/>
<text text-anchor="middle" x="2327.25" y="-649.95" font-family="Times,serif" font-size="14.00">811393A</text>
<polyline fill="none" stroke="black" points="2360.38,-630.5 2360.38,-679.5"/>
<text text-anchor="middle" x="2436.62" y="-649.95" font-family="Times,serif" font-size="14.00">Johdatus tutkimustyöhön</text>
<polyline fill="none" stroke="black" points="2512.88,-630.5 2512.88,-679.5"/>
<text text-anchor="middle" x="2524.25" y="-662.2" font-family="Times,serif" font-size="14.00">3</text>
<polyline fill="none" stroke="black" points="2512.88,-655 2535.62,-655"/>
<text text-anchor="middle" x="2524.25" y="-637.7" font-family="Times,serif" font-size="14.00">3</text>
</g>
<!-- c030005P&#45;&gt;c811393A -->
<g id="edge23" class="edge">
<title>c030005P&#45;&gt;c811393A</title>
<path fill="none" stroke="black" d="M2046.1,-965.65C2084.1,-962.16 2123.68,-951.06 2151.25,-924 2217.9,-858.59 2124.42,-786.09 2187.25,-717 2211.93,-689.86 2247.25,-674.13 2282.68,-665.16"/>
<polygon fill="black" stroke="black" points="2283.25,-668.62 2292.19,-662.93 2281.65,-661.8 2283.25,-668.62"/>
</g>
<!-- c811383A -->
<g id="node34" class="node">
<title>c811383A</title>
<path fill="azure" stroke="black" d="M2750.88,-630.5C2750.88,-630.5 2924.12,-630.5 2924.12,-630.5 2930.12,-630.5 2936.12,-636.5 2936.12,-642.5 2936.12,-642.5 2936.12,-667.5 2936.12,-667.5 2936.12,-673.5 2930.12,-679.5 2924.12,-679.5 2924.12,-679.5 2750.88,-679.5 2750.88,-679.5 2744.88,-679.5 2738.88,-673.5 2738.88,-667.5 2738.88,-667.5 2738.88,-642.5 2738.88,-642.5 2738.88,-636.5 2744.88,-630.5 2750.88,-630.5"/>
<text text-anchor="middle" x="2772" y="-649.95" font-family="Times,serif" font-size="14.00">811383A</text>
<polyline fill="none" stroke="black" points="2805.12,-630.5 2805.12,-679.5"/>
<text text-anchor="middle" x="2853.62" y="-649.95" font-family="Times,serif" font-size="14.00">LuK&#45;tutkielma</text>
<polyline fill="none" stroke="black" points="2902.12,-630.5 2902.12,-679.5"/>
<text text-anchor="middle" x="2919.12" y="-662.2" font-family="Times,serif" font-size="14.00">3</text>
<polyline fill="none" stroke="black" points="2902.12,-655 2936.12,-655"/>
<text text-anchor="middle" x="2919.12" y="-637.7" font-family="Times,serif" font-size="14.00">3&#45;4</text>
</g>
<!-- c030005P&#45;&gt;c811383A -->
<g id="edge26" class="edge">
<title>c030005P&#45;&gt;c811383A</title>
<path fill="none" stroke="black" d="M2046.22,-967.62C2222.55,-980.29 2550.15,-994.96 2650.5,-939 2748.59,-884.3 2803.71,-753.67 2825.48,-690.46"/>
<polygon fill="black" stroke="black" points="2828.7,-691.87 2828.56,-681.27 2822.06,-689.64 2828.7,-691.87"/>
</g>
<!-- c900105Y -->
<g id="node7" class="node">
<title>c900105Y</title>
<path fill="gainsboro" stroke="black" d="M1799.12,-729.5C1799.12,-729.5 2061.62,-729.5 2061.62,-729.5 2067.62,-729.5 2073.62,-735.5 2073.62,-741.5 2073.62,-741.5 2073.62,-766.5 2073.62,-766.5 2073.62,-772.5 2067.62,-778.5 2061.62,-778.5 2061.62,-778.5 1799.12,-778.5 1799.12,-778.5 1793.12,-778.5 1787.12,-772.5 1787.12,-766.5 1787.12,-766.5 1787.12,-741.5 1787.12,-741.5 1787.12,-735.5 1793.12,-729.5 1799.12,-729.5"/>
<text text-anchor="middle" x="1820.25" y="-748.95" font-family="Times,serif" font-size="14.00">900105Y</text>
<polyline fill="none" stroke="black" points="1853.38,-729.5 1853.38,-778.5"/>
<text text-anchor="middle" x="1952.12" y="-748.95" font-family="Times,serif" font-size="14.00">Suuntaa uralle viestinnän keinoin</text>
<polyline fill="none" stroke="black" points="2050.88,-729.5 2050.88,-778.5"/>
<text text-anchor="middle" x="2062.25" y="-761.2" font-family="Times,serif" font-size="14.00">3</text>
<polyline fill="none" stroke="black" points="2050.88,-754 2073.62,-754"/>
<text text-anchor="middle" x="2062.25" y="-736.7" font-family="Times,serif" font-size="14.00">3</text>
</g>
<!-- c900105Y&#45;&gt;c811393A -->
<g id="edge24" class="edge">
<title>c900105Y&#45;&gt;c811393A</title>
<path fill="none" stroke="black" d="M2053.13,-729.02C2123.23,-714.63 2211.35,-696.56 2282.94,-681.87"/>
<polygon fill="black" stroke="black" points="2283.26,-685.37 2292.35,-679.94 2281.85,-678.52 2283.26,-685.37"/>
</g>
<!-- c810020Y -->
<g id="node8" class="node">
<title>c810020Y</title>
<path fill="yellow" stroke="black" d="M50.88,-389C50.88,-389 267.62,-389 267.62,-389 273.62,-389 279.62,-395 279.62,-401 279.62,-401 279.62,-413 279.62,-413 279.62,-419 273.62,-425 267.62,-425 267.62,-425 50.88,-425 50.88,-425 44.88,-425 38.88,-419 38.88,-413 38.88,-413 38.88,-401 38.88,-401 38.88,-395 44.88,-389 50.88,-389"/>
<text text-anchor="middle" x="72" y="-402.2" font-family="Times,serif" font-size="14.00">810020Y</text>
<polyline fill="none" stroke="black" points="105.12,-389.5 105.12,-425"/>
<text text-anchor="middle" x="166.38" y="-402.2" font-family="Times,serif" font-size="14.00">Orientoivat opinnot</text>
<polyline fill="none" stroke="black" points="227.62,-389.5 227.62,-425"/>
<text text-anchor="middle" x="253.62" y="-402.2" font-family="Times,serif" font-size="14.00">1 / 1&#45;2</text>
</g>
<!-- c810136P -->
<g id="node9" class="node">
<title>c810136P</title>
<path fill="yellow" stroke="black" d="M28,-444.5C28,-444.5 290.5,-444.5 290.5,-444.5 296.5,-444.5 302.5,-450.5 302.5,-456.5 302.5,-456.5 302.5,-481.5 302.5,-481.5 302.5,-487.5 296.5,-493.5 290.5,-493.5 290.5,-493.5 28,-493.5 28,-493.5 22,-493.5 16,-487.5 16,-481.5 16,-481.5 16,-456.5 16,-456.5 16,-450.5 22,-444.5 28,-444.5"/>
<text text-anchor="middle" x="48" y="-463.95" font-family="Times,serif" font-size="14.00">810136P</text>
<polyline fill="none" stroke="black" points="80,-444.5 80,-493.5"/>
<text text-anchor="middle" x="179.88" y="-463.95" font-family="Times,serif" font-size="14.00">Johdatus tietojenkäsittelytieteisiin</text>
<polyline fill="none" stroke="black" points="279.75,-444.5 279.75,-493.5"/>
<text text-anchor="middle" x="291.12" y="-476.2" font-family="Times,serif" font-size="14.00">1</text>
<polyline fill="none" stroke="black" points="279.75,-469 302.5,-469"/>
<text text-anchor="middle" x="291.12" y="-451.7" font-family="Times,serif" font-size="14.00">1</text>
</g>
<!-- c811168P -->
<g id="node10" class="node">
<title>c811168P</title>
<path fill="yellow" stroke="black" d="M418.75,-456.5C418.75,-456.5 553.75,-456.5 553.75,-456.5 559.75,-456.5 565.75,-462.5 565.75,-468.5 565.75,-468.5 565.75,-493.5 565.75,-493.5 565.75,-499.5 559.75,-505.5 553.75,-505.5 553.75,-505.5 418.75,-505.5 418.75,-505.5 412.75,-505.5 406.75,-499.5 406.75,-493.5 406.75,-493.5 406.75,-468.5 406.75,-468.5 406.75,-462.5 412.75,-456.5 418.75,-456.5"/>
<text text-anchor="middle" x="438.75" y="-475.95" font-family="Times,serif" font-size="14.00">811168P</text>
<polyline fill="none" stroke="black" points="470.75,-456.5 470.75,-505.5"/>
<text text-anchor="middle" x="506.88" y="-475.95" font-family="Times,serif" font-size="14.00">Tietoturva</text>
<polyline fill="none" stroke="black" points="543,-456.5 543,-505.5"/>
<text text-anchor="middle" x="554.38" y="-488.2" font-family="Times,serif" font-size="14.00">1</text>
<polyline fill="none" stroke="black" points="543,-481 565.75,-481"/>
<text text-anchor="middle" x="554.38" y="-463.7" font-family="Times,serif" font-size="14.00">3</text>
</g>
<!-- c810136P&#45;&gt;c811168P -->
<g id="edge2" class="edge">
<title>c810136P&#45;&gt;c811168P</title>
<path fill="none" stroke="black" d="M302.8,-474.26C334.27,-475.43 366.75,-476.62 395.43,-477.68"/>
<polygon fill="black" stroke="black" points="395,-481.17 405.12,-478.04 395.26,-474.17 395,-481.17"/>
</g>
<!-- c811174P -->
<g id="node11" class="node">
<title>c811174P</title>
<path fill="yellow" stroke="black" d="M350.5,-388.5C350.5,-388.5 622,-388.5 622,-388.5 628,-388.5 634,-394.5 634,-400.5 634,-400.5 634,-425.5 634,-425.5 634,-431.5 628,-437.5 622,-437.5 622,-437.5 350.5,-437.5 350.5,-437.5 344.5,-437.5 338.5,-431.5 338.5,-425.5 338.5,-425.5 338.5,-400.5 338.5,-400.5 338.5,-394.5 344.5,-388.5 350.5,-388.5"/>
<text text-anchor="middle" x="370.5" y="-407.95" font-family="Times,serif" font-size="14.00">811174P</text>
<polyline fill="none" stroke="black" points="402.5,-388.5 402.5,-437.5"/>
<text text-anchor="middle" x="506.88" y="-407.95" font-family="Times,serif" font-size="14.00">Ohjelmistoliiketoiminnan perusteet</text>
<polyline fill="none" stroke="black" points="611.25,-388.5 611.25,-437.5"/>
<text text-anchor="middle" x="622.62" y="-420.2" font-family="Times,serif" font-size="14.00">1</text>
<polyline fill="none" stroke="black" points="611.25,-413 634,-413"/>
<text text-anchor="middle" x="622.62" y="-395.7" font-family="Times,serif" font-size="14.00">3</text>
</g>
<!-- c810136P&#45;&gt;c811174P -->
<g id="edge4" class="edge">
<title>c810136P&#45;&gt;c811174P</title>
<path fill="none" stroke="black" d="M302.8,-444.44C311.55,-442.93 320.39,-441.41 329.19,-439.89"/>
<polygon fill="black" stroke="black" points="329.58,-443.38 338.84,-438.23 328.39,-436.48 329.58,-443.38"/>
</g>
<!-- c811103P -->
<g id="node19" class="node">
<title>c811103P</title>
<path fill="#caff70" stroke="black" d="M363.62,-289.5C363.62,-289.5 608.88,-289.5 608.88,-289.5 614.88,-289.5 620.88,-295.5 620.88,-301.5 620.88,-301.5 620.88,-326.5 620.88,-326.5 620.88,-332.5 614.88,-338.5 608.88,-338.5 608.88,-338.5 363.62,-338.5 363.62,-338.5 357.62,-338.5 351.62,-332.5 351.62,-326.5 351.62,-326.5 351.62,-301.5 351.62,-301.5 351.62,-295.5 357.62,-289.5 363.62,-289.5"/>
<text text-anchor="middle" x="383.62" y="-308.95" font-family="Times,serif" font-size="14.00">811103P</text>
<polyline fill="none" stroke="black" points="415.62,-289.5 415.62,-338.5"/>
<text text-anchor="middle" x="506.88" y="-308.95" font-family="Times,serif" font-size="14.00">Johdatus ohjelmistotuotantoon</text>
<polyline fill="none" stroke="black" points="598.12,-289.5 598.12,-338.5"/>
<text text-anchor="middle" x="609.5" y="-321.2" font-family="Times,serif" font-size="14.00">1</text>
<polyline fill="none" stroke="black" points="598.12,-314 620.88,-314"/>
<text text-anchor="middle" x="609.5" y="-296.7" font-family="Times,serif" font-size="14.00">2</text>
</g>
<!-- c810136P&#45;&gt;c811103P -->
<g id="edge10" class="edge">
<title>c810136P&#45;&gt;c811103P</title>
<path fill="none" stroke="black" d="M287.86,-444.13C292.97,-441.39 297.88,-438.36 302.5,-435 327.34,-416.93 315.23,-396.05 338.5,-376 353.88,-362.75 372.5,-351.99 391.25,-343.4"/>
<polygon fill="black" stroke="black" points="392.51,-346.67 400.27,-339.45 389.71,-340.26 392.51,-346.67"/>
</g>
<!-- c810136P&#45;&gt;c811383A -->
<g id="edge27" class="edge">
<title>c810136P&#45;&gt;c811383A</title>
<path fill="none" stroke="black" d="M268.85,-493.92C280.25,-496.85 291.64,-499.9 302.5,-503 318.72,-507.63 321.91,-511.95 338.5,-515 538.72,-551.77 592.56,-534 796.12,-534 796.12,-534 796.12,-534 1931.38,-534 2251.1,-534 2387.22,-371.6 2650.5,-553 2677.41,-571.54 2653.42,-600.04 2678.5,-621 2692.65,-632.83 2709.95,-640.82 2727.85,-646.17"/>
<polygon fill="black" stroke="black" points="2726.72,-649.49 2737.28,-648.71 2728.54,-642.73 2726.72,-649.49"/>
</g>
<!-- c811102P -->
<g id="node12" class="node">
<title>c811102P</title>
<path fill="yellow" stroke="black" d="M61.38,-512.5C61.38,-512.5 257.12,-512.5 257.12,-512.5 263.12,-512.5 269.12,-518.5 269.12,-524.5 269.12,-524.5 269.12,-549.5 269.12,-549.5 269.12,-555.5 263.12,-561.5 257.12,-561.5 257.12,-561.5 61.38,-561.5 61.38,-561.5 55.38,-561.5 49.38,-555.5 49.38,-549.5 49.38,-549.5 49.38,-524.5 49.38,-524.5 49.38,-518.5 55.38,-512.5 61.38,-512.5"/>
<text text-anchor="middle" x="81.38" y="-531.95" font-family="Times,serif" font-size="14.00">811102P</text>
<polyline fill="none" stroke="black" points="113.38,-512.5 113.38,-561.5"/>
<text text-anchor="middle" x="179.88" y="-531.95" font-family="Times,serif" font-size="14.00">Laitteet ja tietoverkot</text>
<polyline fill="none" stroke="black" points="246.38,-512.5 246.38,-561.5"/>
<text text-anchor="middle" x="257.75" y="-544.2" font-family="Times,serif" font-size="14.00">1</text>
<polyline fill="none" stroke="black" points="246.38,-537 269.12,-537"/>
<text text-anchor="middle" x="257.75" y="-519.7" font-family="Times,serif" font-size="14.00">1</text>
</g>
<!-- c811102P&#45;&gt;c811168P -->
<g id="edge3" class="edge">
<title>c811102P&#45;&gt;c811168P</title>
<path fill="none" stroke="black" d="M269.37,-518.2C310.24,-511.16 356.18,-503.24 395.14,-496.53"/>
<polygon fill="black" stroke="black" points="395.71,-499.98 404.97,-494.83 394.52,-493.08 395.71,-499.98"/>
</g>
<!-- c811104P -->
<g id="node13" class="node">
<title>c811104P</title>
<path fill="#ffd700" stroke="black" d="M403,-149.5C403,-149.5 569.5,-149.5 569.5,-149.5 575.5,-149.5 581.5,-155.5 581.5,-161.5 581.5,-161.5 581.5,-186.5 581.5,-186.5 581.5,-192.5 575.5,-198.5 569.5,-198.5 569.5,-198.5 403,-198.5 403,-198.5 397,-198.5 391,-192.5 391,-186.5 391,-186.5 391,-161.5 391,-161.5 391,-155.5 397,-149.5 403,-149.5"/>
<text text-anchor="middle" x="423" y="-168.95" font-family="Times,serif" font-size="14.00">811104P</text>
<polyline fill="none" stroke="black" points="455,-149.5 455,-198.5"/>
<text text-anchor="middle" x="501.25" y="-168.95" font-family="Times,serif" font-size="14.00">Ohjelmointi 1</text>
<polyline fill="none" stroke="black" points="547.5,-149.5 547.5,-198.5"/>
<text text-anchor="middle" x="564.5" y="-181.2" font-family="Times,serif" font-size="14.00">1</text>
<polyline fill="none" stroke="black" points="547.5,-174 581.5,-174"/>
<text text-anchor="middle" x="564.5" y="-156.7" font-family="Times,serif" font-size="14.00">1&#45;2</text>
</g>
<!-- c811322A -->
<g id="node14" class="node">
<title>c811322A</title>
<path fill="#ffd700" stroke="black" d="M712.75,-115.5C712.75,-115.5 881.5,-115.5 881.5,-115.5 887.5,-115.5 893.5,-121.5 893.5,-127.5 893.5,-127.5 893.5,-152.5 893.5,-152.5 893.5,-158.5 887.5,-164.5 881.5,-164.5 881.5,-164.5 712.75,-164.5 712.75,-164.5 706.75,-164.5 700.75,-158.5 700.75,-152.5 700.75,-152.5 700.75,-127.5 700.75,-127.5 700.75,-121.5 706.75,-115.5 712.75,-115.5"/>
<text text-anchor="middle" x="733.88" y="-134.95" font-family="Times,serif" font-size="14.00">811322A</text>
<polyline fill="none" stroke="black" points="767,-115.5 767,-164.5"/>
<text text-anchor="middle" x="813.25" y="-134.95" font-family="Times,serif" font-size="14.00">Ohjelmointi 2</text>
<polyline fill="none" stroke="black" points="859.5,-115.5 859.5,-164.5"/>
<text text-anchor="middle" x="876.5" y="-147.2" font-family="Times,serif" font-size="14.00">1</text>
<polyline fill="none" stroke="black" points="859.5,-140 893.5,-140"/>
<text text-anchor="middle" x="876.5" y="-122.7" font-family="Times,serif" font-size="14.00">3&#45;4</text>
</g>
<!-- c811104P&#45;&gt;c811322A -->
<g id="edge5" class="edge">
<title>c811104P&#45;&gt;c811322A</title>
<path fill="none" stroke="black" d="M581.6,-163.61C615.62,-159.87 654.25,-155.62 689.26,-151.76"/>
<polygon fill="black" stroke="black" points="689.43,-155.27 698.98,-150.69 688.66,-148.31 689.43,-155.27"/>
</g>
<!-- c811325A -->
<g id="node15" class="node">
<title>c811325A</title>
<path fill="#ffd700" stroke="black" d="M724.38,-183.5C724.38,-183.5 869.88,-183.5 869.88,-183.5 875.88,-183.5 881.88,-189.5 881.88,-195.5 881.88,-195.5 881.88,-220.5 881.88,-220.5 881.88,-226.5 875.88,-232.5 869.88,-232.5 869.88,-232.5 724.38,-232.5 724.38,-232.5 718.38,-232.5 712.38,-226.5 712.38,-220.5 712.38,-220.5 712.38,-195.5 712.38,-195.5 712.38,-189.5 718.38,-183.5 724.38,-183.5"/>
<text text-anchor="middle" x="745.5" y="-202.95" font-family="Times,serif" font-size="14.00">811325A</text>
<polyline fill="none" stroke="black" points="778.62,-183.5 778.62,-232.5"/>
<text text-anchor="middle" x="818.88" y="-202.95" font-family="Times,serif" font-size="14.00">Tietokannat</text>
<polyline fill="none" stroke="black" points="859.12,-183.5 859.12,-232.5"/>
<text text-anchor="middle" x="870.5" y="-215.2" font-family="Times,serif" font-size="14.00">2</text>
<polyline fill="none" stroke="black" points="859.12,-208 881.88,-208"/>
<text text-anchor="middle" x="870.5" y="-190.7" font-family="Times,serif" font-size="14.00">1</text>
</g>
<!-- c811104P&#45;&gt;c811325A -->
<g id="edge9" class="edge">
<title>c811104P&#45;&gt;c811325A</title>
<path fill="none" stroke="black" d="M581.6,-184.39C619.47,-188.55 663.04,-193.35 700.98,-197.53"/>
<polygon fill="black" stroke="black" points="700.22,-200.96 710.54,-198.58 700.98,-194.01 700.22,-200.96"/>
</g>
<!-- c811312A -->
<g id="node16" class="node">
<title>c811312A</title>
<path fill="#ffd700" stroke="black" d="M1045,-115.5C1045,-115.5 1286.5,-115.5 1286.5,-115.5 1292.5,-115.5 1298.5,-121.5 1298.5,-127.5 1298.5,-127.5 1298.5,-152.5 1298.5,-152.5 1298.5,-158.5 1292.5,-164.5 1286.5,-164.5 1286.5,-164.5 1045,-164.5 1045,-164.5 1039,-164.5 1033,-158.5 1033,-152.5 1033,-152.5 1033,-127.5 1033,-127.5 1033,-121.5 1039,-115.5 1045,-115.5"/>
<text text-anchor="middle" x="1066.12" y="-134.95" font-family="Times,serif" font-size="14.00">811312A</text>
<polyline fill="none" stroke="black" points="1099.25,-115.5 1099.25,-164.5"/>
<text text-anchor="middle" x="1181.88" y="-134.95" font-family="Times,serif" font-size="14.00">Tietorakenteet ja algoritmit</text>
<polyline fill="none" stroke="black" points="1264.5,-115.5 1264.5,-164.5"/>
<text text-anchor="middle" x="1281.5" y="-147.2" font-family="Times,serif" font-size="14.00">2</text>
<polyline fill="none" stroke="black" points="1264.5,-140 1298.5,-140"/>
<text text-anchor="middle" x="1281.5" y="-122.7" font-family="Times,serif" font-size="14.00">1&#45;2</text>
</g>
<!-- c811322A&#45;&gt;c811312A -->
<g id="edge8" class="edge">
<title>c811322A&#45;&gt;c811312A</title>
<path fill="none" stroke="black" d="M893.97,-140C932.83,-140 978.53,-140 1021.21,-140"/>
<polygon fill="black" stroke="black" points="1021.06,-143.5 1031.06,-140 1021.06,-136.5 1021.06,-143.5"/>
</g>
<!-- c811367A -->
<g id="node17" class="node">
<title>c811367A</title>
<path fill="#ffd700" stroke="black" d="M1087,-183.5C1087,-183.5 1244.5,-183.5 1244.5,-183.5 1250.5,-183.5 1256.5,-189.5 1256.5,-195.5 1256.5,-195.5 1256.5,-220.5 1256.5,-220.5 1256.5,-226.5 1250.5,-232.5 1244.5,-232.5 1244.5,-232.5 1087,-232.5 1087,-232.5 1081,-232.5 1075,-226.5 1075,-220.5 1075,-220.5 1075,-195.5 1075,-195.5 1075,-189.5 1081,-183.5 1087,-183.5"/>
<text text-anchor="middle" x="1108.12" y="-202.95" font-family="Times,serif" font-size="14.00">811367A</text>
<polyline fill="none" stroke="black" points="1141.25,-183.5 1141.25,-232.5"/>
<text text-anchor="middle" x="1187.5" y="-202.95" font-family="Times,serif" font-size="14.00">Ohjelmointi 3</text>
<polyline fill="none" stroke="black" points="1233.75,-183.5 1233.75,-232.5"/>
<text text-anchor="middle" x="1245.12" y="-215.2" font-family="Times,serif" font-size="14.00">2</text>
<polyline fill="none" stroke="black" points="1233.75,-208 1256.5,-208"/>
<text text-anchor="middle" x="1245.12" y="-190.7" font-family="Times,serif" font-size="14.00">3</text>
</g>
<!-- c811322A&#45;&gt;c811367A -->
<g id="edge6" class="edge">
<title>c811322A&#45;&gt;c811367A</title>
<path fill="none" stroke="black" d="M893.58,-160.71C915.45,-165.27 938.63,-169.94 960.25,-174 993.78,-180.3 1030.51,-186.6 1063.48,-192.03"/>
<polygon fill="black" stroke="black" points="1062.58,-195.43 1073.02,-193.59 1063.71,-188.52 1062.58,-195.43"/>
</g>
<!-- c811301A -->
<g id="node21" class="node">
<title>c811301A</title>
<path fill="#caff70" stroke="black" d="M1019.12,-289.5C1019.12,-289.5 1312.38,-289.5 1312.38,-289.5 1318.38,-289.5 1324.38,-295.5 1324.38,-301.5 1324.38,-301.5 1324.38,-326.5 1324.38,-326.5 1324.38,-332.5 1318.38,-338.5 1312.38,-338.5 1312.38,-338.5 1019.12,-338.5 1019.12,-338.5 1013.12,-338.5 1007.12,-332.5 1007.12,-326.5 1007.12,-326.5 1007.12,-301.5 1007.12,-301.5 1007.12,-295.5 1013.12,-289.5 1019.12,-289.5"/>
<text text-anchor="middle" x="1040.25" y="-308.95" font-family="Times,serif" font-size="14.00">811301A</text>
<polyline fill="none" stroke="black" points="1073.38,-289.5 1073.38,-338.5"/>
<text text-anchor="middle" x="1187.5" y="-308.95" font-family="Times,serif" font-size="14.00">Ohjelmistojen mallinnus ja suunnittelu</text>
<polyline fill="none" stroke="black" points="1301.62,-289.5 1301.62,-338.5"/>
<text text-anchor="middle" x="1313" y="-321.2" font-family="Times,serif" font-size="14.00">2</text>
<polyline fill="none" stroke="black" points="1301.62,-314 1324.38,-314"/>
<text text-anchor="middle" x="1313" y="-296.7" font-family="Times,serif" font-size="14.00">1</text>
</g>
<!-- c811322A&#45;&gt;c811301A -->
<g id="edge13" class="edge">
<title>c811322A&#45;&gt;c811301A</title>
<path fill="none" stroke="black" d="M893.81,-155.12C904.94,-159.84 915.44,-165.99 924.25,-174 957.97,-204.65 925.75,-240.23 960.25,-270 970.99,-279.27 983.21,-286.73 996.21,-292.73"/>
<polygon fill="black" stroke="black" points="994.83,-295.94 1005.4,-296.63 997.57,-289.5 994.83,-295.94"/>
</g>
<!-- c811319A -->
<g id="node23" class="node">
<title>c811319A</title>
<path fill="#caff70" stroke="black" d="M1807.75,-289.5C1807.75,-289.5 2053,-289.5 2053,-289.5 2059,-289.5 2065,-295.5 2065,-301.5 2065,-301.5 2065,-326.5 2065,-326.5 2065,-332.5 2059,-338.5 2053,-338.5 2053,-338.5 1807.75,-338.5 1807.75,-338.5 1801.75,-338.5 1795.75,-332.5 1795.75,-326.5 1795.75,-326.5 1795.75,-301.5 1795.75,-301.5 1795.75,-295.5 1801.75,-289.5 1807.75,-289.5"/>
<text text-anchor="middle" x="1828.88" y="-308.95" font-family="Times,serif" font-size="14.00">811319A</text>
<polyline fill="none" stroke="black" points="1862,-289.5 1862,-338.5"/>
<text text-anchor="middle" x="1952.12" y="-308.95" font-family="Times,serif" font-size="14.00">Tietomallinnus ja &#45;suunnittelu</text>
<polyline fill="none" stroke="black" points="2042.25,-289.5 2042.25,-338.5"/>
<text text-anchor="middle" x="2053.62" y="-321.2" font-family="Times,serif" font-size="14.00">2</text>
<polyline fill="none" stroke="black" points="2042.25,-314 2065,-314"/>
<text text-anchor="middle" x="2053.62" y="-296.7" font-family="Times,serif" font-size="14.00">3</text>
</g>
<!-- c811325A&#45;&gt;c811319A -->
<g id="edge16" class="edge">
<title>c811325A&#45;&gt;c811319A</title>
<path fill="none" stroke="black" d="M882.27,-228.21C907.24,-233.5 934.73,-238.66 960.25,-242 1275.02,-283.14 1357.41,-250.63 1673.5,-280 1709.49,-283.34 1748.2,-287.96 1784.35,-292.71"/>
<polygon fill="black" stroke="black" points="1783.6,-296.14 1793.97,-293.98 1784.52,-289.2 1783.6,-296.14"/>
</g>
<!-- c811368A -->
<g id="node18" class="node">
<title>c811368A</title>
<path fill="#ffd700" stroke="black" d="M1461.62,-183.5C1461.62,-183.5 1619.12,-183.5 1619.12,-183.5 1625.12,-183.5 1631.12,-189.5 1631.12,-195.5 1631.12,-195.5 1631.12,-220.5 1631.12,-220.5 1631.12,-226.5 1625.12,-232.5 1619.12,-232.5 1619.12,-232.5 1461.62,-232.5 1461.62,-232.5 1455.62,-232.5 1449.62,-226.5 1449.62,-220.5 1449.62,-220.5 1449.62,-195.5 1449.62,-195.5 1449.62,-189.5 1455.62,-183.5 1461.62,-183.5"/>
<text text-anchor="middle" x="1482.75" y="-202.95" font-family="Times,serif" font-size="14.00">811368A</text>
<polyline fill="none" stroke="black" points="1515.88,-183.5 1515.88,-232.5"/>
<text text-anchor="middle" x="1562.12" y="-202.95" font-family="Times,serif" font-size="14.00">Ohjelmointi 4</text>
<polyline fill="none" stroke="black" points="1608.38,-183.5 1608.38,-232.5"/>
<text text-anchor="middle" x="1619.75" y="-215.2" font-family="Times,serif" font-size="14.00">2</text>
<polyline fill="none" stroke="black" points="1608.38,-208 1631.12,-208"/>
<text text-anchor="middle" x="1619.75" y="-190.7" font-family="Times,serif" font-size="14.00">4</text>
</g>
<!-- c811367A&#45;&gt;c811368A -->
<g id="edge7" class="edge">
<title>c811367A&#45;&gt;c811368A</title>
<path fill="none" stroke="black" d="M1256.95,-208C1311.56,-208 1381.34,-208 1437.87,-208"/>
<polygon fill="black" stroke="black" points="1437.84,-211.5 1447.84,-208 1437.84,-204.5 1437.84,-211.5"/>
</g>
<!-- c811398A -->
<g id="node32" class="node">
<title>c811398A</title>
<path fill="azure" stroke="black" d="M2738.88,-562.5C2738.88,-562.5 2936.12,-562.5 2936.12,-562.5 2942.12,-562.5 2948.12,-568.5 2948.12,-574.5 2948.12,-574.5 2948.12,-599.5 2948.12,-599.5 2948.12,-605.5 2942.12,-611.5 2936.12,-611.5 2936.12,-611.5 2738.88,-611.5 2738.88,-611.5 2732.88,-611.5 2726.88,-605.5 2726.88,-599.5 2726.88,-599.5 2726.88,-574.5 2726.88,-574.5 2726.88,-568.5 2732.88,-562.5 2738.88,-562.5"/>
<text text-anchor="middle" x="2760" y="-581.95" font-family="Times,serif" font-size="14.00">811398A</text>
<polyline fill="none" stroke="black" points="2793.12,-562.5 2793.12,-611.5"/>
<text text-anchor="middle" x="2853.62" y="-581.95" font-family="Times,serif" font-size="14.00">Kandidaattiprojekti</text>
<polyline fill="none" stroke="black" points="2914.12,-562.5 2914.12,-611.5"/>
<text text-anchor="middle" x="2931.12" y="-594.2" font-family="Times,serif" font-size="14.00">3</text>
<polyline fill="none" stroke="black" points="2914.12,-587 2948.12,-587"/>
<text text-anchor="middle" x="2931.12" y="-569.7" font-family="Times,serif" font-size="14.00">3&#45;4</text>
</g>
<!-- c811368A&#45;&gt;c811398A -->
<g id="edge30" class="edge">
<title>c811368A&#45;&gt;c811398A</title>
<path fill="none" stroke="black" d="M1631.54,-187.38C1831.75,-146.84 2321.62,-77.05 2650.5,-277 2753.92,-339.88 2807.08,-483.93 2827.01,-551.19"/>
<polygon fill="black" stroke="black" points="2823.59,-551.96 2829.72,-560.6 2830.32,-550.03 2823.59,-551.96"/>
</g>
<!-- c811391A -->
<g id="node20" class="node">
<title>c811391A</title>
<path fill="#caff70" stroke="black" d="M703.38,-289.5C703.38,-289.5 890.88,-289.5 890.88,-289.5 896.88,-289.5 902.88,-295.5 902.88,-301.5 902.88,-301.5 902.88,-326.5 902.88,-326.5 902.88,-332.5 896.88,-338.5 890.88,-338.5 890.88,-338.5 703.38,-338.5 703.38,-338.5 697.38,-338.5 691.38,-332.5 691.38,-326.5 691.38,-326.5 691.38,-301.5 691.38,-301.5 691.38,-295.5 697.38,-289.5 703.38,-289.5"/>
<text text-anchor="middle" x="724.5" y="-308.95" font-family="Times,serif" font-size="14.00">811391A</text>
<polyline fill="none" stroke="black" points="757.62,-289.5 757.62,-338.5"/>
<text text-anchor="middle" x="818.88" y="-308.95" font-family="Times,serif" font-size="14.00">Vaatimusmäärittely</text>
<polyline fill="none" stroke="black" points="880.12,-289.5 880.12,-338.5"/>
<text text-anchor="middle" x="891.5" y="-321.2" font-family="Times,serif" font-size="14.00">1</text>
<polyline fill="none" stroke="black" points="880.12,-314 902.88,-314"/>
<text text-anchor="middle" x="891.5" y="-296.7" font-family="Times,serif" font-size="14.00">4</text>
</g>
<!-- c811103P&#45;&gt;c811391A -->
<g id="edge11" class="edge">
<title>c811103P&#45;&gt;c811391A</title>
<path fill="none" stroke="black" d="M620.93,-314C640.47,-314 660.45,-314 679.61,-314"/>
<polygon fill="black" stroke="black" points="679.58,-317.5 689.58,-314 679.58,-310.5 679.58,-317.5"/>
</g>
<!-- c811391A&#45;&gt;c811301A -->
<g id="edge12" class="edge">
<title>c811391A&#45;&gt;c811301A</title>
<path fill="none" stroke="black" d="M903.19,-314C932.05,-314 964.1,-314 995.59,-314"/>
<polygon fill="black" stroke="black" points="995.19,-317.5 1005.19,-314 995.19,-310.5 995.19,-317.5"/>
</g>
<!-- c811306A -->
<g id="node22" class="node">
<title>c811306A</title>
<path fill="#caff70" stroke="black" d="M1419.25,-289.5C1419.25,-289.5 1661.5,-289.5 1661.5,-289.5 1667.5,-289.5 1673.5,-295.5 1673.5,-301.5 1673.5,-301.5 1673.5,-326.5 1673.5,-326.5 1673.5,-332.5 1667.5,-338.5 1661.5,-338.5 1661.5,-338.5 1419.25,-338.5 1419.25,-338.5 1413.25,-338.5 1407.25,-332.5 1407.25,-326.5 1407.25,-326.5 1407.25,-301.5 1407.25,-301.5 1407.25,-295.5 1413.25,-289.5 1419.25,-289.5"/>
<text text-anchor="middle" x="1440.38" y="-308.95" font-family="Times,serif" font-size="14.00">811306A</text>
<polyline fill="none" stroke="black" points="1473.5,-289.5 1473.5,-338.5"/>
<text text-anchor="middle" x="1562.12" y="-308.95" font-family="Times,serif" font-size="14.00">Ohjelmistojen laatu ja testaus</text>
<polyline fill="none" stroke="black" points="1650.75,-289.5 1650.75,-338.5"/>
<text text-anchor="middle" x="1662.12" y="-321.2" font-family="Times,serif" font-size="14.00">2</text>
<polyline fill="none" stroke="black" points="1650.75,-314 1673.5,-314"/>
<text text-anchor="middle" x="1662.12" y="-296.7" font-family="Times,serif" font-size="14.00">2</text>
</g>
<!-- c811301A&#45;&gt;c811306A -->
<g id="edge14" class="edge">
<title>c811301A&#45;&gt;c811306A</title>
<path fill="none" stroke="black" d="M1324.78,-314C1348.3,-314 1372.44,-314 1395.65,-314"/>
<polygon fill="black" stroke="black" points="1395.45,-317.5 1405.45,-314 1395.45,-310.5 1395.45,-317.5"/>
</g>
<!-- c811306A&#45;&gt;c811319A -->
<g id="edge15" class="edge">
<title>c811306A&#45;&gt;c811319A</title>
<path fill="none" stroke="black" d="M1673.82,-314C1709.43,-314 1748.13,-314 1784.39,-314"/>
<polygon fill="black" stroke="black" points="1784.04,-317.5 1794.04,-314 1784.04,-310.5 1784.04,-317.5"/>
</g>
<!-- c815345A -->
<g id="node24" class="node">
<title>c815345A</title>
<path fill="#caff70" stroke="black" d="M2307.25,-289.5C2307.25,-289.5 2522.5,-289.5 2522.5,-289.5 2528.5,-289.5 2534.5,-295.5 2534.5,-301.5 2534.5,-301.5 2534.5,-326.5 2534.5,-326.5 2534.5,-332.5 2528.5,-338.5 2522.5,-338.5 2522.5,-338.5 2307.25,-338.5 2307.25,-338.5 2301.25,-338.5 2295.25,-332.5 2295.25,-326.5 2295.25,-326.5 2295.25,-301.5 2295.25,-301.5 2295.25,-295.5 2301.25,-289.5 2307.25,-289.5"/>
<text text-anchor="middle" x="2328.38" y="-308.95" font-family="Times,serif" font-size="14.00">815345A</text>
<polyline fill="none" stroke="black" points="2361.5,-289.5 2361.5,-338.5"/>
<text text-anchor="middle" x="2436.62" y="-308.95" font-family="Times,serif" font-size="14.00">Ohjelmistoarkkitehtuurit</text>
<polyline fill="none" stroke="black" points="2511.75,-289.5 2511.75,-338.5"/>
<text text-anchor="middle" x="2523.12" y="-321.2" font-family="Times,serif" font-size="14.00">2</text>
<polyline fill="none" stroke="black" points="2511.75,-314 2534.5,-314"/>
<text text-anchor="middle" x="2523.12" y="-296.7" font-family="Times,serif" font-size="14.00">4</text>
</g>
<!-- c811319A&#45;&gt;c815345A -->
<g id="edge17" class="edge">
<title>c811319A&#45;&gt;c815345A</title>
<path fill="none" stroke="black" d="M2065.46,-314C2133.61,-314 2216.09,-314 2283.68,-314"/>
<polygon fill="black" stroke="black" points="2283.32,-317.5 2293.32,-314 2283.32,-310.5 2283.32,-317.5"/>
</g>
<!-- c815345A&#45;&gt;c811398A -->
<g id="edge29" class="edge">
<title>c815345A&#45;&gt;c811398A</title>
<path fill="none" stroke="black" d="M2454.32,-338.95C2531.28,-388.9 2704.1,-501.07 2788.41,-555.79"/>
<polygon fill="black" stroke="black" points="2786.43,-558.68 2796.73,-561.18 2790.24,-552.8 2786.43,-558.68"/>
</g>
<!-- c811166P -->
<g id="node25" class="node">
<title>c811166P</title>
<path fill="antiquewhite" stroke="black" d="M682,-16.5C682,-16.5 912.25,-16.5 912.25,-16.5 918.25,-16.5 924.25,-22.5 924.25,-28.5 924.25,-28.5 924.25,-53.5 924.25,-53.5 924.25,-59.5 918.25,-65.5 912.25,-65.5 912.25,-65.5 682,-65.5 682,-65.5 676,-65.5 670,-59.5 670,-53.5 670,-53.5 670,-28.5 670,-28.5 670,-22.5 676,-16.5 682,-16.5"/>
<text text-anchor="middle" x="702" y="-35.95" font-family="Times,serif" font-size="14.00">811166P</text>
<polyline fill="none" stroke="black" points="734,-16.5 734,-65.5"/>
<text text-anchor="middle" x="817.75" y="-35.95" font-family="Times,serif" font-size="14.00">Tietojärjestelmien perusteet</text>
<polyline fill="none" stroke="black" points="901.5,-16.5 901.5,-65.5"/>
<text text-anchor="middle" x="912.88" y="-48.2" font-family="Times,serif" font-size="14.00">1</text>
<polyline fill="none" stroke="black" points="901.5,-41 924.25,-41"/>
<text text-anchor="middle" x="912.88" y="-23.7" font-family="Times,serif" font-size="14.00">2</text>
</g>
<!-- c812360A -->
<g id="node26" class="node">
<title>c812360A</title>
<path fill="antiquewhite" stroke="black" d="M972.25,-16.5C972.25,-16.5 1359.25,-16.5 1359.25,-16.5 1365.25,-16.5 1371.25,-22.5 1371.25,-28.5 1371.25,-28.5 1371.25,-53.5 1371.25,-53.5 1371.25,-59.5 1365.25,-65.5 1359.25,-65.5 1359.25,-65.5 972.25,-65.5 972.25,-65.5 966.25,-65.5 960.25,-59.5 960.25,-53.5 960.25,-53.5 960.25,-28.5 960.25,-28.5 960.25,-22.5 966.25,-16.5 972.25,-16.5"/>
<text text-anchor="middle" x="993.38" y="-35.95" font-family="Times,serif" font-size="14.00">812360A</text>
<polyline fill="none" stroke="black" points="1026.5,-16.5 1026.5,-65.5"/>
<text text-anchor="middle" x="1187.5" y="-35.95" font-family="Times,serif" font-size="14.00">Tietojärjestelmien mallintaminen, suunnittelu ja kehitys</text>
<polyline fill="none" stroke="black" points="1348.5,-16.5 1348.5,-65.5"/>
<text text-anchor="middle" x="1359.88" y="-48.2" font-family="Times,serif" font-size="14.00">1</text>
<polyline fill="none" stroke="black" points="1348.5,-41 1371.25,-41"/>
<text text-anchor="middle" x="1359.88" y="-23.7" font-family="Times,serif" font-size="14.00">4</text>
</g>
<!-- c811166P&#45;&gt;c812360A -->
<g id="edge18" class="edge">
<title>c811166P&#45;&gt;c812360A</title>
<path fill="none" stroke="black" d="M924.55,-41C932.36,-41 940.33,-41 948.38,-41"/>
<polygon fill="black" stroke="black" points="948.3,-44.5 958.3,-41 948.3,-37.5 948.3,-44.5"/>
</g>
<!-- c812363A -->
<g id="node27" class="node">
<title>c812363A</title>
<path fill="antiquewhite" stroke="black" d="M1427.12,-16.5C1427.12,-16.5 1653.62,-16.5 1653.62,-16.5 1659.62,-16.5 1665.62,-22.5 1665.62,-28.5 1665.62,-28.5 1665.62,-53.5 1665.62,-53.5 1665.62,-59.5 1659.62,-65.5 1653.62,-65.5 1653.62,-65.5 1427.12,-65.5 1427.12,-65.5 1421.12,-65.5 1415.12,-59.5 1415.12,-53.5 1415.12,-53.5 1415.12,-28.5 1415.12,-28.5 1415.12,-22.5 1421.12,-16.5 1427.12,-16.5"/>
<text text-anchor="middle" x="1448.25" y="-35.95" font-family="Times,serif" font-size="14.00">812363A</text>
<polyline fill="none" stroke="black" points="1481.38,-16.5 1481.38,-65.5"/>
<text text-anchor="middle" x="1562.12" y="-35.95" font-family="Times,serif" font-size="14.00">Ihmislähtöinen suunnittelu</text>
<polyline fill="none" stroke="black" points="1642.88,-16.5 1642.88,-65.5"/>
<text text-anchor="middle" x="1654.25" y="-48.2" font-family="Times,serif" font-size="14.00">2</text>
<polyline fill="none" stroke="black" points="1642.88,-41 1665.62,-41"/>
<text text-anchor="middle" x="1654.25" y="-23.7" font-family="Times,serif" font-size="14.00">1</text>
</g>
<!-- c812360A&#45;&gt;c812363A -->
<g id="edge19" class="edge">
<title>c812360A&#45;&gt;c812363A</title>
<path fill="none" stroke="black" d="M1371.59,-41C1382.4,-41 1393.12,-41 1403.61,-41"/>
<polygon fill="black" stroke="black" points="1403.38,-44.5 1413.38,-41 1403.38,-37.5 1403.38,-44.5"/>
</g>
<!-- c812361A -->
<g id="node28" class="node">
<title>c812361A</title>
<path fill="antiquewhite" stroke="black" d="M1748.5,-16.5C1748.5,-16.5 2112.25,-16.5 2112.25,-16.5 2118.25,-16.5 2124.25,-22.5 2124.25,-28.5 2124.25,-28.5 2124.25,-53.5 2124.25,-53.5 2124.25,-59.5 2118.25,-65.5 2112.25,-65.5 2112.25,-65.5 1748.5,-65.5 1748.5,-65.5 1742.5,-65.5 1736.5,-59.5 1736.5,-53.5 1736.5,-53.5 1736.5,-28.5 1736.5,-28.5 1736.5,-22.5 1742.5,-16.5 1748.5,-16.5"/>
<text text-anchor="middle" x="1769.62" y="-35.95" font-family="Times,serif" font-size="14.00">812361A</text>
<polyline fill="none" stroke="black" points="1802.75,-16.5 1802.75,-65.5"/>
<text text-anchor="middle" x="1952.12" y="-35.95" font-family="Times,serif" font-size="14.00">Tietojärjestelmien hankinta, käyttöönotto ja hallinta</text>
<polyline fill="none" stroke="black" points="2101.5,-16.5 2101.5,-65.5"/>
<text text-anchor="middle" x="2112.88" y="-48.2" font-family="Times,serif" font-size="14.00">2</text>
<polyline fill="none" stroke="black" points="2101.5,-41 2124.25,-41"/>
<text text-anchor="middle" x="2112.88" y="-23.7" font-family="Times,serif" font-size="14.00">2</text>
</g>
<!-- c812363A&#45;&gt;c812361A -->
<g id="edge20" class="edge">
<title>c812363A&#45;&gt;c812361A</title>
<path fill="none" stroke="black" d="M1666.01,-41C1684.9,-41 1704.8,-41 1724.85,-41"/>
<polygon fill="black" stroke="black" points="1724.82,-44.5 1734.82,-41 1724.82,-37.5 1724.82,-44.5"/>
</g>
<!-- c812362A -->
<g id="node29" class="node">
<title>c812362A</title>
<path fill="antiquewhite" stroke="black" d="M2228.12,-16.5C2228.12,-16.5 2601.62,-16.5 2601.62,-16.5 2607.62,-16.5 2613.62,-22.5 2613.62,-28.5 2613.62,-28.5 2613.62,-53.5 2613.62,-53.5 2613.62,-59.5 2607.62,-65.5 2601.62,-65.5 2601.62,-65.5 2228.12,-65.5 2228.12,-65.5 2222.12,-65.5 2216.12,-59.5 2216.12,-53.5 2216.12,-53.5 2216.12,-28.5 2216.12,-28.5 2216.12,-22.5 2222.12,-16.5 2228.12,-16.5"/>
<text text-anchor="middle" x="2249.25" y="-35.95" font-family="Times,serif" font-size="14.00">812362A</text>
<polyline fill="none" stroke="black" points="2282.38,-16.5 2282.38,-65.5"/>
<text text-anchor="middle" x="2436.62" y="-35.95" font-family="Times,serif" font-size="14.00">Liiketoimintaprosessien johtaminen ja mallintaminen</text>
<polyline fill="none" stroke="black" points="2590.88,-16.5 2590.88,-65.5"/>
<text text-anchor="middle" x="2602.25" y="-48.2" font-family="Times,serif" font-size="14.00">2</text>
<polyline fill="none" stroke="black" points="2590.88,-41 2613.62,-41"/>
<text text-anchor="middle" x="2602.25" y="-23.7" font-family="Times,serif" font-size="14.00">3</text>
</g>
<!-- c812361A&#45;&gt;c812362A -->
<g id="edge21" class="edge">
<title>c812361A&#45;&gt;c812362A</title>
<path fill="none" stroke="black" d="M2124.5,-41C2150.78,-41 2177.86,-41 2204.41,-41"/>
<polygon fill="black" stroke="black" points="2204.24,-44.5 2214.24,-41 2204.24,-37.5 2204.24,-44.5"/>
</g>
<!-- c812364A -->
<g id="node30" class="node">
<title>c812364A</title>
<path fill="antiquewhite" stroke="black" d="M2690.5,-16.5C2690.5,-16.5 2984.5,-16.5 2984.5,-16.5 2990.5,-16.5 2996.5,-22.5 2996.5,-28.5 2996.5,-28.5 2996.5,-53.5 2996.5,-53.5 2996.5,-59.5 2990.5,-65.5 2984.5,-65.5 2984.5,-65.5 2690.5,-65.5 2690.5,-65.5 2684.5,-65.5 2678.5,-59.5 2678.5,-53.5 2678.5,-53.5 2678.5,-28.5 2678.5,-28.5 2678.5,-22.5 2684.5,-16.5 2690.5,-16.5"/>
<text text-anchor="middle" x="2711.62" y="-35.95" font-family="Times,serif" font-size="14.00">812364A</text>
<polyline fill="none" stroke="black" points="2744.75,-16.5 2744.75,-65.5"/>
<text text-anchor="middle" x="2859.25" y="-35.95" font-family="Times,serif" font-size="14.00">Data&#45;analytiikka liiketoiminnan tukena</text>
<polyline fill="none" stroke="black" points="2973.75,-16.5 2973.75,-65.5"/>
<text text-anchor="middle" x="2985.12" y="-48.2" font-family="Times,serif" font-size="14.00">3</text>
<polyline fill="none" stroke="black" points="2973.75,-41 2996.5,-41"/>
<text text-anchor="middle" x="2985.12" y="-23.7" font-family="Times,serif" font-size="14.00">4</text>
</g>
<!-- c812362A&#45;&gt;c812364A -->
<g id="edge22" class="edge">
<title>c812362A&#45;&gt;c812364A</title>
<path fill="none" stroke="black" d="M2613.87,-41C2631.52,-41 2649.29,-41 2666.68,-41"/>
<polygon fill="black" stroke="black" points="2666.53,-44.5 2676.53,-41 2666.53,-37.5 2666.53,-44.5"/>
</g>
<!-- c812362A&#45;&gt;c811398A -->
<g id="edge31" class="edge">
<title>c812362A&#45;&gt;c811398A</title>
<path fill="none" stroke="black" d="M2459.56,-65.91C2510.6,-96.75 2595.11,-153.45 2650.5,-220 2739.01,-326.36 2800.07,-481.9 2824.55,-551.29"/>
<polygon fill="black" stroke="black" points="2821.2,-552.33 2827.79,-560.62 2827.81,-550.03 2821.2,-552.33"/>
</g>
<!-- c811397A -->
<g id="node31" class="node">
<title>c811397A</title>
<path fill="azure" stroke="black" d="M2299,-562.5C2299,-562.5 2530.75,-562.5 2530.75,-562.5 2536.75,-562.5 2542.75,-568.5 2542.75,-574.5 2542.75,-574.5 2542.75,-599.5 2542.75,-599.5 2542.75,-605.5 2536.75,-611.5 2530.75,-611.5 2530.75,-611.5 2299,-611.5 2299,-611.5 2293,-611.5 2287,-605.5 2287,-599.5 2287,-599.5 2287,-574.5 2287,-574.5 2287,-568.5 2293,-562.5 2299,-562.5"/>
<text text-anchor="middle" x="2320.12" y="-581.95" font-family="Times,serif" font-size="14.00">811397A</text>
<polyline fill="none" stroke="black" points="2353.25,-562.5 2353.25,-611.5"/>
<text text-anchor="middle" x="2436.62" y="-581.95" font-family="Times,serif" font-size="14.00">Projektitoiminnan perusteet</text>
<polyline fill="none" stroke="black" points="2520,-562.5 2520,-611.5"/>
<text text-anchor="middle" x="2531.38" y="-594.2" font-family="Times,serif" font-size="14.00">2</text>
<polyline fill="none" stroke="black" points="2520,-587 2542.75,-587"/>
<text text-anchor="middle" x="2531.38" y="-569.7" font-family="Times,serif" font-size="14.00">4</text>
</g>
<!-- c811397A&#45;&gt;c811398A -->
<g id="edge28" class="edge">
<title>c811397A&#45;&gt;c811398A</title>
<path fill="none" stroke="black" d="M2543.22,-587C2597.85,-587 2661.37,-587 2715.3,-587"/>
<polygon fill="black" stroke="black" points="2715.15,-590.5 2725.15,-587 2715.15,-583.5 2715.15,-590.5"/>
</g>
<!-- c811393A&#45;&gt;c811383A -->
<g id="edge25" class="edge">
<title>c811393A&#45;&gt;c811383A</title>
<path fill="none" stroke="black" d="M2535.85,-655C2596.18,-655 2668.77,-655 2727.51,-655"/>
<polygon fill="black" stroke="black" points="2727.17,-658.5 2737.17,-655 2727.17,-651.5 2727.17,-658.5"/>
</g>
<!-- c813307A -->
<g id="node35" class="node">
<title>c813307A</title>
<path fill="azure" stroke="black" d="M3044.5,-630.5C3044.5,-630.5 3202,-630.5 3202,-630.5 3208,-630.5 3214,-636.5 3214,-642.5 3214,-642.5 3214,-667.5 3214,-667.5 3214,-673.5 3208,-679.5 3202,-679.5 3202,-679.5 3044.5,-679.5 3044.5,-679.5 3038.5,-679.5 3032.5,-673.5 3032.5,-667.5 3032.5,-667.5 3032.5,-642.5 3032.5,-642.5 3032.5,-636.5 3038.5,-630.5 3044.5,-630.5"/>
<text text-anchor="middle" x="3065.62" y="-649.95" font-family="Times,serif" font-size="14.00">813307A</text>
<polyline fill="none" stroke="black" points="3098.75,-630.5 3098.75,-679.5"/>
<text text-anchor="middle" x="3145" y="-649.95" font-family="Times,serif" font-size="14.00">Kypsyysnäyte</text>
<polyline fill="none" stroke="black" points="3191.25,-630.5 3191.25,-679.5"/>
<text text-anchor="middle" x="3202.62" y="-662.2" font-family="Times,serif" font-size="14.00">3</text>
<polyline fill="none" stroke="black" points="3191.25,-655 3214,-655"/>
<text text-anchor="middle" x="3202.62" y="-637.7" font-family="Times,serif" font-size="14.00">4</text>
</g>
<!-- c811383A&#45;&gt;c813307A -->
<g id="edge32" class="edge">
<title>c811383A&#45;&gt;c813307A</title>
<path fill="none" stroke="black" d="M2936.55,-655C2963.86,-655 2993.58,-655 3021.07,-655"/>
<polygon fill="black" stroke="black" points="3020.78,-658.5 3030.78,-655 3020.78,-651.5 3020.78,-658.5"/>
</g>
</g>
</svg>
