<?xml version="1.0" encoding="UTF-8" standalone="no"?>
<!DOCTYPE svg PUBLIC "-//W3C//DTD SVG 1.1//EN"
 "http://www.w3.org/Graphics/SVG/1.1/DTD/svg11.dtd">
<!-- Generated by graphviz version 10.0.1 (20240210.2158)
 -->
<!-- Title: TOLLuK Pages: 1 -->
<svg width="3537pt" height="1022pt"
 viewBox="0.00 0.00 3537.00 1022.00" xmlns="http://www.w3.org/2000/svg" xmlns:xlink="http://www.w3.org/1999/xlink">
<g id="graph0" class="graph" transform="scale(1 1) rotate(0) translate(4 1018)">
<title>TOLLuK</title>
<polygon fill="white" stroke="none" points="-4,4 -4,-1018 3533,-1018 3533,4 -4,4"/>
<g id="clust1" class="cluster">
<title>cluster_Legend</title>
<g id="a_clust1"><a xlink:href="https://opas.peppi.oulu.fi/fi/ohjelma/12350" xlink:title="Selite">
<polygon fill="none" stroke="black" stroke-dasharray="1,5" points="112.38,-8 112.38,-99 377.38,-99 377.38,-8 112.38,-8"/>
<text text-anchor="middle" x="244.88" y="-81.7" font-family="Times,serif" font-size="14.00">Selite</text>
</a>
</g>
</g>
<g id="clust2" class="cluster">
<title>cluster_year_1</title>
<polygon fill="none" stroke="black" stroke-width="2" points="8,-107 8,-1006 1220.5,-1006 1220.5,-107 8,-107"/>
<text text-anchor="middle" x="614.25" y="-988.7" font-family="Times,serif" font-size="14.00">1. vuosi</text>
</g>
<g id="clust3" class="cluster">
<title>cluster_lang</title>
</g>
<g id="clust4" class="cluster">
<title>cluster_general</title>
</g>
<g id="clust5" class="cluster">
<title>cluster_intro</title>
</g>
<g id="clust6" class="cluster">
<title>cluster_programming</title>
</g>
<g id="clust7" class="cluster">
<title>cluster_sweng</title>
</g>
<g id="clust8" class="cluster">
<title>cluster_humanorg</title>
</g>
<g id="clust9" class="cluster">
<title>cluster_year_2</title>
<polygon fill="none" stroke="black" stroke-width="2" points="1228.5,-373 1228.5,-938 2753.38,-938 2753.38,-373 1228.5,-373"/>
<text text-anchor="middle" x="1990.94" y="-920.7" font-family="Times,serif" font-size="14.00">2. vuosi</text>
</g>
<g id="clust10" class="cluster">
<title>cluster_programming</title>
</g>
<g id="clust11" class="cluster">
<title>cluster_sweng</title>
</g>
<g id="clust12" class="cluster">
<title>cluster_humanorg</title>
</g>
<g id="clust13" class="cluster">
<title>cluster_capstone</title>
</g>
<g id="clust14" class="cluster">
<title>cluster_year_3</title>
<polygon fill="none" stroke="black" stroke-width="2" points="2442.75,-134 2442.75,-365 3521,-365 3521,-134 2442.75,-134"/>
<text text-anchor="middle" x="2981.88" y="-347.7" font-family="Times,serif" font-size="14.00">3.. vuosi</text>
</g>
<g id="clust15" class="cluster">
<title>cluster_general</title>
</g>
<g id="clust16" class="cluster">
<title>cluster_humanorg</title>
</g>
<g id="clust17" class="cluster">
<title>cluster_capstone</title>
</g>
<!-- legend -->
<g id="node1" class="node">
<title>legend</title>
<path fill="pink" stroke="black" d="M132.38,-16.5C132.38,-16.5 357.38,-16.5 357.38,-16.5 363.38,-16.5 369.38,-22.5 369.38,-28.5 369.38,-28.5 369.38,-53.5 369.38,-53.5 369.38,-59.5 363.38,-65.5 357.38,-65.5 357.38,-65.5 132.38,-65.5 132.38,-65.5 126.38,-65.5 120.38,-59.5 120.38,-53.5 120.38,-53.5 120.38,-28.5 120.38,-28.5 120.38,-22.5 126.38,-16.5 132.38,-16.5"/>
<text text-anchor="middle" x="161.38" y="-35.95" font-family="Times,serif" font-size="14.00">Kurssikoodi</text>
<polyline fill="none" stroke="black" points="202.38,-16.5 202.38,-65.5"/>
<text text-anchor="middle" x="246" y="-35.95" font-family="Times,serif" font-size="14.00">Kurssin nimi</text>
<polyline fill="none" stroke="black" points="289.62,-16.5 289.62,-65.5"/>
<text text-anchor="middle" x="329.5" y="-48.2" font-family="Times,serif" font-size="14.00">opintovuosi</text>
<polyline fill="none" stroke="black" points="289.62,-41 369.38,-41"/>
<text text-anchor="middle" x="329.5" y="-23.7" font-family="Times,serif" font-size="14.00">periodi</text>
</g>
<!-- c902164Y -->
<g id="node2" class="node">
<title>c902164Y</title>
<path fill="lightgrey" stroke="black" d="M36,-123.5C36,-123.5 453.75,-123.5 453.75,-123.5 459.75,-123.5 465.75,-129.5 465.75,-135.5 465.75,-135.5 465.75,-160.5 465.75,-160.5 465.75,-166.5 459.75,-172.5 453.75,-172.5 453.75,-172.5 36,-172.5 36,-172.5 30,-172.5 24,-166.5 24,-160.5 24,-160.5 24,-135.5 24,-135.5 24,-129.5 30,-123.5 36,-123.5"/>
<text text-anchor="middle" x="57.12" y="-142.95" font-family="Times,serif" font-size="14.00">902164Y</text>
<polyline fill="none" stroke="black" points="90.25,-123.5 90.25,-172.5"/>
<text text-anchor="middle" x="266.62" y="-142.95" font-family="Times,serif" font-size="14.00">English Communication for Information Processing, Reading</text>
<polyline fill="none" stroke="black" points="443,-123.5 443,-172.5"/>
<text text-anchor="middle" x="454.38" y="-155.2" font-family="Times,serif" font-size="14.00">1</text>
<polyline fill="none" stroke="black" points="443,-148 465.75,-148"/>
<text text-anchor="middle" x="454.38" y="-130.7" font-family="Times,serif" font-size="14.00">3</text>
</g>
<!-- c902165Y -->
<g id="node3" class="node">
<title>c902165Y</title>
<path fill="lightgrey" stroke="black" d="M513.75,-125.5C513.75,-125.5 945,-125.5 945,-125.5 951,-125.5 957,-131.5 957,-137.5 957,-137.5 957,-162.5 957,-162.5 957,-168.5 951,-174.5 945,-174.5 945,-174.5 513.75,-174.5 513.75,-174.5 507.75,-174.5 501.75,-168.5 501.75,-162.5 501.75,-162.5 501.75,-137.5 501.75,-137.5 501.75,-131.5 507.75,-125.5 513.75,-125.5"/>
<text text-anchor="middle" x="534.88" y="-144.95" font-family="Times,serif" font-size="14.00">902165Y</text>
<polyline fill="none" stroke="black" points="568,-125.5 568,-174.5"/>
<text text-anchor="middle" x="751.12" y="-144.95" font-family="Times,serif" font-size="14.00">English Communication for Information Processing, Oral Skills</text>
<polyline fill="none" stroke="black" points="934.25,-125.5 934.25,-174.5"/>
<text text-anchor="middle" x="945.62" y="-157.2" font-family="Times,serif" font-size="14.00">1</text>
<polyline fill="none" stroke="black" points="934.25,-150 957,-150"/>
<text text-anchor="middle" x="945.62" y="-132.7" font-family="Times,serif" font-size="14.00">4</text>
</g>
<!-- c902164Y&#45;&gt;c902165Y -->
<g id="edge1" class="edge">
<title>c902164Y&#45;&gt;c902165Y</title>
<path fill="none" stroke="black" d="M466.21,-149C466.21,-149 489.95,-149 489.95,-149"/>
<polygon fill="black" stroke="black" points="489.95,-152.5 499.95,-149 489.95,-145.5 489.95,-152.5"/>
</g>
<!-- c901048Y -->
<g id="node4" class="node">
<title>c901048Y</title>
<path fill="lightgrey" stroke="black" d="M59.62,-191.5C59.62,-191.5 430.12,-191.5 430.12,-191.5 436.12,-191.5 442.12,-197.5 442.12,-203.5 442.12,-203.5 442.12,-228.5 442.12,-228.5 442.12,-234.5 436.12,-240.5 430.12,-240.5 430.12,-240.5 59.62,-240.5 59.62,-240.5 53.62,-240.5 47.62,-234.5 47.62,-228.5 47.62,-228.5 47.62,-203.5 47.62,-203.5 47.62,-197.5 53.62,-191.5 59.62,-191.5"/>
<text text-anchor="middle" x="80.75" y="-210.95" font-family="Times,serif" font-size="14.00">901048Y</text>
<polyline fill="none" stroke="black" points="113.88,-191.5 113.88,-240.5"/>
<text text-anchor="middle" x="266.62" y="-210.95" font-family="Times,serif" font-size="14.00">Toinen kotimainen kieli (ruotsi), kirjallinen kielitaito</text>
<polyline fill="none" stroke="black" points="419.38,-191.5 419.38,-240.5"/>
<text text-anchor="middle" x="430.75" y="-223.2" font-family="Times,serif" font-size="14.00">1</text>
<polyline fill="none" stroke="black" points="419.38,-216 442.12,-216"/>
<text text-anchor="middle" x="430.75" y="-198.7" font-family="Times,serif" font-size="14.00">1</text>
</g>
<!-- c901049Y -->
<g id="node5" class="node">
<title>c901049Y</title>
<path fill="lightgrey" stroke="black" d="M62.62,-259.5C62.62,-259.5 427.12,-259.5 427.12,-259.5 433.12,-259.5 439.12,-265.5 439.12,-271.5 439.12,-271.5 439.12,-296.5 439.12,-296.5 439.12,-302.5 433.12,-308.5 427.12,-308.5 427.12,-308.5 62.62,-308.5 62.62,-308.5 56.62,-308.5 50.62,-302.5 50.62,-296.5 50.62,-296.5 50.62,-271.5 50.62,-271.5 50.62,-265.5 56.62,-259.5 62.62,-259.5"/>
<text text-anchor="middle" x="83.75" y="-278.95" font-family="Times,serif" font-size="14.00">901049Y</text>
<polyline fill="none" stroke="black" points="116.88,-259.5 116.88,-308.5"/>
<text text-anchor="middle" x="266.62" y="-278.95" font-family="Times,serif" font-size="14.00">Toinen kotimainen kieli (ruotsi), suullinen kielitaito</text>
<polyline fill="none" stroke="black" points="416.38,-259.5 416.38,-308.5"/>
<text text-anchor="middle" x="427.75" y="-291.2" font-family="Times,serif" font-size="14.00">1</text>
<polyline fill="none" stroke="black" points="416.38,-284 439.12,-284"/>
<text text-anchor="middle" x="427.75" y="-266.7" font-family="Times,serif" font-size="14.00">2</text>
</g>
<!-- c810020Y -->
<g id="node6" class="node">
<title>c810020Y</title>
<path fill="gainsboro" stroke="black" d="M145.5,-822.5C145.5,-822.5 344.25,-822.5 344.25,-822.5 350.25,-822.5 356.25,-828.5 356.25,-834.5 356.25,-834.5 356.25,-859.5 356.25,-859.5 356.25,-865.5 350.25,-871.5 344.25,-871.5 344.25,-871.5 145.5,-871.5 145.5,-871.5 139.5,-871.5 133.5,-865.5 133.5,-859.5 133.5,-859.5 133.5,-834.5 133.5,-834.5 133.5,-828.5 139.5,-822.5 145.5,-822.5"/>
<text text-anchor="middle" x="166.62" y="-841.95" font-family="Times,serif" font-size="14.00">810020Y</text>
<polyline fill="none" stroke="black" points="199.75,-822.5 199.75,-871.5"/>
<text text-anchor="middle" x="261" y="-841.95" font-family="Times,serif" font-size="14.00">Orientoivat opinnot</text>
<polyline fill="none" stroke="black" points="322.25,-822.5 322.25,-871.5"/>
<text text-anchor="middle" x="339.25" y="-854.2" font-family="Times,serif" font-size="14.00">1</text>
<polyline fill="none" stroke="black" points="322.25,-847 356.25,-847"/>
<text text-anchor="middle" x="339.25" y="-829.7" font-family="Times,serif" font-size="14.00">1&#45;2</text>
</g>
<!-- c030005P -->
<g id="node7" class="node">
<title>c030005P</title>
<path fill="gainsboro" stroke="black" d="M141.38,-890.5C141.38,-890.5 348.38,-890.5 348.38,-890.5 354.38,-890.5 360.38,-896.5 360.38,-902.5 360.38,-902.5 360.38,-927.5 360.38,-927.5 360.38,-933.5 354.38,-939.5 348.38,-939.5 348.38,-939.5 141.38,-939.5 141.38,-939.5 135.38,-939.5 129.38,-933.5 129.38,-927.5 129.38,-927.5 129.38,-902.5 129.38,-902.5 129.38,-896.5 135.38,-890.5 141.38,-890.5"/>
<text text-anchor="middle" x="161.38" y="-909.95" font-family="Times,serif" font-size="14.00">030005P</text>
<polyline fill="none" stroke="black" points="193.38,-890.5 193.38,-939.5"/>
<text text-anchor="middle" x="259.88" y="-909.95" font-family="Times,serif" font-size="14.00">Tiedonhankintakurssi</text>
<polyline fill="none" stroke="black" points="326.38,-890.5 326.38,-939.5"/>
<text text-anchor="middle" x="343.38" y="-922.2" font-family="Times,serif" font-size="14.00">1</text>
<polyline fill="none" stroke="black" points="326.38,-915 360.38,-915"/>
<text text-anchor="middle" x="343.38" y="-897.7" font-family="Times,serif" font-size="14.00">1&#45;2</text>
</g>
<!-- c811393A -->
<g id="node33" class="node">
<title>c811393A</title>
<path fill="azure" stroke="black" d="M2824.75,-233.5C2824.75,-233.5 3042.25,-233.5 3042.25,-233.5 3048.25,-233.5 3054.25,-239.5 3054.25,-245.5 3054.25,-245.5 3054.25,-270.5 3054.25,-270.5 3054.25,-276.5 3048.25,-282.5 3042.25,-282.5 3042.25,-282.5 2824.75,-282.5 2824.75,-282.5 2818.75,-282.5 2812.75,-276.5 2812.75,-270.5 2812.75,-270.5 2812.75,-245.5 2812.75,-245.5 2812.75,-239.5 2818.75,-233.5 2824.75,-233.5"/>
<text text-anchor="middle" x="2845.88" y="-252.95" font-family="Times,serif" font-size="14.00">811393A</text>
<polyline fill="none" stroke="black" points="2879,-233.5 2879,-282.5"/>
<text text-anchor="middle" x="2955.25" y="-252.95" font-family="Times,serif" font-size="14.00">Johdatus tutkimustyöhön</text>
<polyline fill="none" stroke="black" points="3031.5,-233.5 3031.5,-282.5"/>
<text text-anchor="middle" x="3042.88" y="-265.2" font-family="Times,serif" font-size="14.00">3</text>
<polyline fill="none" stroke="black" points="3031.5,-258 3054.25,-258"/>
<text text-anchor="middle" x="3042.88" y="-240.7" font-family="Times,serif" font-size="14.00">3</text>
</g>
<!-- c030005P&#45;&gt;c811393A -->
<g id="edge23" class="edge">
<title>c030005P&#45;&gt;c811393A</title>
<path fill="none" stroke="black" d="M360.85,-906.67C876.29,-906.67 2934,-906.67 2934,-906.67 2934,-906.67 2934,-294.15 2934,-294.15"/>
<polygon fill="black" stroke="black" points="2937.5,-294.15 2934,-284.15 2930.5,-294.15 2937.5,-294.15"/>
</g>
<!-- c811383A -->
<g id="node34" class="node">
<title>c811383A</title>
<path fill="azure" stroke="black" d="M3102.25,-165.5C3102.25,-165.5 3275.5,-165.5 3275.5,-165.5 3281.5,-165.5 3287.5,-171.5 3287.5,-177.5 3287.5,-177.5 3287.5,-202.5 3287.5,-202.5 3287.5,-208.5 3281.5,-214.5 3275.5,-214.5 3275.5,-214.5 3102.25,-214.5 3102.25,-214.5 3096.25,-214.5 3090.25,-208.5 3090.25,-202.5 3090.25,-202.5 3090.25,-177.5 3090.25,-177.5 3090.25,-171.5 3096.25,-165.5 3102.25,-165.5"/>
<text text-anchor="middle" x="3123.38" y="-184.95" font-family="Times,serif" font-size="14.00">811383A</text>
<polyline fill="none" stroke="black" points="3156.5,-165.5 3156.5,-214.5"/>
<text text-anchor="middle" x="3205" y="-184.95" font-family="Times,serif" font-size="14.00">LuK&#45;tutkielma</text>
<polyline fill="none" stroke="black" points="3253.5,-165.5 3253.5,-214.5"/>
<text text-anchor="middle" x="3270.5" y="-197.2" font-family="Times,serif" font-size="14.00">3</text>
<polyline fill="none" stroke="black" points="3253.5,-190 3287.5,-190"/>
<text text-anchor="middle" x="3270.5" y="-172.7" font-family="Times,serif" font-size="14.00">3&#45;4</text>
</g>
<!-- c030005P&#45;&gt;c811383A -->
<g id="edge24" class="edge">
<title>c030005P&#45;&gt;c811383A</title>
<path fill="none" stroke="black" d="M360.67,-923.33C909.45,-923.33 3222,-923.33 3222,-923.33 3222,-923.33 3222,-226.33 3222,-226.33"/>
<polygon fill="black" stroke="black" points="3225.5,-226.33 3222,-216.33 3218.5,-226.33 3225.5,-226.33"/>
</g>
<!-- c810136P -->
<g id="node8" class="node">
<title>c810136P</title>
<path fill="yellow" stroke="black" d="M113.62,-358.5C113.62,-358.5 376.12,-358.5 376.12,-358.5 382.12,-358.5 388.12,-364.5 388.12,-370.5 388.12,-370.5 388.12,-395.5 388.12,-395.5 388.12,-401.5 382.12,-407.5 376.12,-407.5 376.12,-407.5 113.62,-407.5 113.62,-407.5 107.62,-407.5 101.62,-401.5 101.62,-395.5 101.62,-395.5 101.62,-370.5 101.62,-370.5 101.62,-364.5 107.62,-358.5 113.62,-358.5"/>
<text text-anchor="middle" x="133.62" y="-377.95" font-family="Times,serif" font-size="14.00">810136P</text>
<polyline fill="none" stroke="black" points="165.62,-358.5 165.62,-407.5"/>
<text text-anchor="middle" x="265.5" y="-377.95" font-family="Times,serif" font-size="14.00">Johdatus tietojenkäsittelytieteisiin</text>
<polyline fill="none" stroke="black" points="365.38,-358.5 365.38,-407.5"/>
<text text-anchor="middle" x="376.75" y="-390.2" font-family="Times,serif" font-size="14.00">1</text>
<polyline fill="none" stroke="black" points="365.38,-383 388.12,-383"/>
<text text-anchor="middle" x="376.75" y="-365.7" font-family="Times,serif" font-size="14.00">1</text>
</g>
<!-- c811168P -->
<g id="node9" class="node">
<title>c811168P</title>
<path fill="yellow" stroke="black" d="M661.88,-426.5C661.88,-426.5 796.88,-426.5 796.88,-426.5 802.88,-426.5 808.88,-432.5 808.88,-438.5 808.88,-438.5 808.88,-463.5 808.88,-463.5 808.88,-469.5 802.88,-475.5 796.88,-475.5 796.88,-475.5 661.88,-475.5 661.88,-475.5 655.88,-475.5 649.88,-469.5 649.88,-463.5 649.88,-463.5 649.88,-438.5 649.88,-438.5 649.88,-432.5 655.88,-426.5 661.88,-426.5"/>
<text text-anchor="middle" x="681.88" y="-445.95" font-family="Times,serif" font-size="14.00">811168P</text>
<polyline fill="none" stroke="black" points="713.88,-426.5 713.88,-475.5"/>
<text text-anchor="middle" x="750" y="-445.95" font-family="Times,serif" font-size="14.00">Tietoturva</text>
<polyline fill="none" stroke="black" points="786.12,-426.5 786.12,-475.5"/>
<text text-anchor="middle" x="797.5" y="-458.2" font-family="Times,serif" font-size="14.00">1</text>
<polyline fill="none" stroke="black" points="786.12,-451 808.88,-451"/>
<text text-anchor="middle" x="797.5" y="-433.7" font-family="Times,serif" font-size="14.00">3</text>
</g>
<!-- c810136P&#45;&gt;c811168P -->
<g id="edge3" class="edge">
<title>c810136P&#45;&gt;c811168P</title>
<path fill="none" stroke="black" d="M383,-407.96C383,-424.31 383,-442.67 383,-442.67 383,-442.67 637.96,-442.67 637.96,-442.67"/>
<polygon fill="black" stroke="black" points="637.96,-446.17 647.96,-442.67 637.96,-439.17 637.96,-446.17"/>
</g>
<!-- c811174P -->
<g id="node10" class="node">
<title>c811174P</title>
<path fill="yellow" stroke="black" d="M593.62,-358.5C593.62,-358.5 865.12,-358.5 865.12,-358.5 871.12,-358.5 877.12,-364.5 877.12,-370.5 877.12,-370.5 877.12,-395.5 877.12,-395.5 877.12,-401.5 871.12,-407.5 865.12,-407.5 865.12,-407.5 593.62,-407.5 593.62,-407.5 587.62,-407.5 581.62,-401.5 581.62,-395.5 581.62,-395.5 581.62,-370.5 581.62,-370.5 581.62,-364.5 587.62,-358.5 593.62,-358.5"/>
<text text-anchor="middle" x="613.62" y="-377.95" font-family="Times,serif" font-size="14.00">811174P</text>
<polyline fill="none" stroke="black" points="645.62,-358.5 645.62,-407.5"/>
<text text-anchor="middle" x="750" y="-377.95" font-family="Times,serif" font-size="14.00">Ohjelmistoliiketoiminnan perusteet</text>
<polyline fill="none" stroke="black" points="854.38,-358.5 854.38,-407.5"/>
<text text-anchor="middle" x="865.75" y="-390.2" font-family="Times,serif" font-size="14.00">1</text>
<polyline fill="none" stroke="black" points="854.38,-383 877.12,-383"/>
<text text-anchor="middle" x="865.75" y="-365.7" font-family="Times,serif" font-size="14.00">3</text>
</g>
<!-- c810136P&#45;&gt;c811174P -->
<g id="edge5" class="edge">
<title>c810136P&#45;&gt;c811174P</title>
<path fill="none" stroke="black" d="M388.6,-383C388.6,-383 569.98,-383 569.98,-383"/>
<polygon fill="black" stroke="black" points="569.98,-386.5 579.98,-383 569.98,-379.5 569.98,-386.5"/>
</g>
<!-- c811103P -->
<g id="node14" class="node">
<title>c811103P</title>
<path fill="#caff70" stroke="black" d="M606.75,-624.5C606.75,-624.5 852,-624.5 852,-624.5 858,-624.5 864,-630.5 864,-636.5 864,-636.5 864,-661.5 864,-661.5 864,-667.5 858,-673.5 852,-673.5 852,-673.5 606.75,-673.5 606.75,-673.5 600.75,-673.5 594.75,-667.5 594.75,-661.5 594.75,-661.5 594.75,-636.5 594.75,-636.5 594.75,-630.5 600.75,-624.5 606.75,-624.5"/>
<text text-anchor="middle" x="626.75" y="-643.95" font-family="Times,serif" font-size="14.00">811103P</text>
<polyline fill="none" stroke="black" points="658.75,-624.5 658.75,-673.5"/>
<text text-anchor="middle" x="750" y="-643.95" font-family="Times,serif" font-size="14.00">Johdatus ohjelmistotuotantoon</text>
<polyline fill="none" stroke="black" points="841.25,-624.5 841.25,-673.5"/>
<text text-anchor="middle" x="852.62" y="-656.2" font-family="Times,serif" font-size="14.00">1</text>
<polyline fill="none" stroke="black" points="841.25,-649 864,-649"/>
<text text-anchor="middle" x="852.62" y="-631.7" font-family="Times,serif" font-size="14.00">2</text>
</g>
<!-- c810136P&#45;&gt;c811103P -->
<g id="edge2" class="edge">
<title>c810136P&#45;&gt;c811103P</title>
<path fill="none" stroke="black" d="M378,-407.55C378,-473.4 378,-649 378,-649 378,-649 582.76,-649 582.76,-649"/>
<polygon fill="black" stroke="black" points="582.76,-652.5 592.76,-649 582.76,-645.5 582.76,-652.5"/>
</g>
<!-- c810136P&#45;&gt;c811383A -->
<g id="edge26" class="edge">
<title>c810136P&#45;&gt;c811383A</title>
<path fill="none" stroke="black" d="M245,-358.25C245,-345.88 245,-333.5 245,-333.5 245,-333.5 3156,-333.5 3156,-333.5 3156,-333.5 3156,-226.51 3156,-226.51"/>
<polygon fill="black" stroke="black" points="3159.5,-226.51 3156,-216.51 3152.5,-226.51 3159.5,-226.51"/>
</g>
<!-- c811102P -->
<g id="node11" class="node">
<title>c811102P</title>
<path fill="yellow" stroke="black" d="M147,-426.5C147,-426.5 342.75,-426.5 342.75,-426.5 348.75,-426.5 354.75,-432.5 354.75,-438.5 354.75,-438.5 354.75,-463.5 354.75,-463.5 354.75,-469.5 348.75,-475.5 342.75,-475.5 342.75,-475.5 147,-475.5 147,-475.5 141,-475.5 135,-469.5 135,-463.5 135,-463.5 135,-438.5 135,-438.5 135,-432.5 141,-426.5 147,-426.5"/>
<text text-anchor="middle" x="167" y="-445.95" font-family="Times,serif" font-size="14.00">811102P</text>
<polyline fill="none" stroke="black" points="199,-426.5 199,-475.5"/>
<text text-anchor="middle" x="265.5" y="-445.95" font-family="Times,serif" font-size="14.00">Laitteet ja tietoverkot</text>
<polyline fill="none" stroke="black" points="332,-426.5 332,-475.5"/>
<text text-anchor="middle" x="343.38" y="-458.2" font-family="Times,serif" font-size="14.00">1</text>
<polyline fill="none" stroke="black" points="332,-451 354.75,-451"/>
<text text-anchor="middle" x="343.38" y="-433.7" font-family="Times,serif" font-size="14.00">1</text>
</g>
<!-- c811102P&#45;&gt;c811168P -->
<g id="edge4" class="edge">
<title>c811102P&#45;&gt;c811168P</title>
<path fill="none" stroke="black" d="M355.12,-459.33C355.12,-459.33 637.89,-459.33 637.89,-459.33"/>
<polygon fill="black" stroke="black" points="637.89,-462.83 647.89,-459.33 637.89,-455.83 637.89,-462.83"/>
</g>
<!-- c811104P -->
<g id="node12" class="node">
<title>c811104P</title>
<path fill="#ffd700" stroke="black" d="M161.62,-525.5C161.62,-525.5 328.12,-525.5 328.12,-525.5 334.12,-525.5 340.12,-531.5 340.12,-537.5 340.12,-537.5 340.12,-562.5 340.12,-562.5 340.12,-568.5 334.12,-574.5 328.12,-574.5 328.12,-574.5 161.62,-574.5 161.62,-574.5 155.62,-574.5 149.62,-568.5 149.62,-562.5 149.62,-562.5 149.62,-537.5 149.62,-537.5 149.62,-531.5 155.62,-525.5 161.62,-525.5"/>
<text text-anchor="middle" x="181.62" y="-544.95" font-family="Times,serif" font-size="14.00">811104P</text>
<polyline fill="none" stroke="black" points="213.62,-525.5 213.62,-574.5"/>
<text text-anchor="middle" x="259.88" y="-544.95" font-family="Times,serif" font-size="14.00">Ohjelmointi 1</text>
<polyline fill="none" stroke="black" points="306.12,-525.5 306.12,-574.5"/>
<text text-anchor="middle" x="323.12" y="-557.2" font-family="Times,serif" font-size="14.00">1</text>
<polyline fill="none" stroke="black" points="306.12,-550 340.12,-550"/>
<text text-anchor="middle" x="323.12" y="-532.7" font-family="Times,serif" font-size="14.00">1&#45;2</text>
</g>
<!-- c811322A -->
<g id="node13" class="node">
<title>c811322A</title>
<path fill="#ffd700" stroke="black" d="M645,-525.5C645,-525.5 813.75,-525.5 813.75,-525.5 819.75,-525.5 825.75,-531.5 825.75,-537.5 825.75,-537.5 825.75,-562.5 825.75,-562.5 825.75,-568.5 819.75,-574.5 813.75,-574.5 813.75,-574.5 645,-574.5 645,-574.5 639,-574.5 633,-568.5 633,-562.5 633,-562.5 633,-537.5 633,-537.5 633,-531.5 639,-525.5 645,-525.5"/>
<text text-anchor="middle" x="666.12" y="-544.95" font-family="Times,serif" font-size="14.00">811322A</text>
<polyline fill="none" stroke="black" points="699.25,-525.5 699.25,-574.5"/>
<text text-anchor="middle" x="745.5" y="-544.95" font-family="Times,serif" font-size="14.00">Ohjelmointi 2</text>
<polyline fill="none" stroke="black" points="791.75,-525.5 791.75,-574.5"/>
<text text-anchor="middle" x="808.75" y="-557.2" font-family="Times,serif" font-size="14.00">1</text>
<polyline fill="none" stroke="black" points="791.75,-550 825.75,-550"/>
<text text-anchor="middle" x="808.75" y="-532.7" font-family="Times,serif" font-size="14.00">3&#45;4</text>
</g>
<!-- c811104P&#45;&gt;c811322A -->
<g id="edge8" class="edge">
<title>c811104P&#45;&gt;c811322A</title>
<path fill="none" stroke="black" d="M340.6,-558.33C340.6,-558.33 621.1,-558.33 621.1,-558.33"/>
<polygon fill="black" stroke="black" points="621.1,-561.83 631.1,-558.33 621.1,-554.83 621.1,-561.83"/>
</g>
<!-- c811325A -->
<g id="node18" class="node">
<title>c811325A</title>
<path fill="#ffd700" stroke="black" d="M1722.62,-389.5C1722.62,-389.5 1868.12,-389.5 1868.12,-389.5 1874.12,-389.5 1880.12,-395.5 1880.12,-401.5 1880.12,-401.5 1880.12,-426.5 1880.12,-426.5 1880.12,-432.5 1874.12,-438.5 1868.12,-438.5 1868.12,-438.5 1722.62,-438.5 1722.62,-438.5 1716.62,-438.5 1710.62,-432.5 1710.62,-426.5 1710.62,-426.5 1710.62,-401.5 1710.62,-401.5 1710.62,-395.5 1716.62,-389.5 1722.62,-389.5"/>
<text text-anchor="middle" x="1743.75" y="-408.95" font-family="Times,serif" font-size="14.00">811325A</text>
<polyline fill="none" stroke="black" points="1776.88,-389.5 1776.88,-438.5"/>
<text text-anchor="middle" x="1817.12" y="-408.95" font-family="Times,serif" font-size="14.00">Tietokannat</text>
<polyline fill="none" stroke="black" points="1857.38,-389.5 1857.38,-438.5"/>
<text text-anchor="middle" x="1868.75" y="-421.2" font-family="Times,serif" font-size="14.00">2</text>
<polyline fill="none" stroke="black" points="1857.38,-414 1880.12,-414"/>
<text text-anchor="middle" x="1868.75" y="-396.7" font-family="Times,serif" font-size="14.00">1</text>
</g>
<!-- c811104P&#45;&gt;c811325A -->
<g id="edge12" class="edge">
<title>c811104P&#45;&gt;c811325A</title>
<path fill="none" stroke="black" d="M340.46,-541.67C354.31,-541.67 364,-541.67 364,-541.67 364,-541.67 364,-417 364,-417 364,-417 1698.87,-417 1698.87,-417"/>
<polygon fill="black" stroke="black" points="1698.87,-420.5 1708.87,-417 1698.87,-413.5 1698.87,-420.5"/>
</g>
<!-- c811312A -->
<g id="node19" class="node">
<title>c811312A</title>
<path fill="#ffd700" stroke="black" d="M1674.62,-525.5C1674.62,-525.5 1916.12,-525.5 1916.12,-525.5 1922.12,-525.5 1928.12,-531.5 1928.12,-537.5 1928.12,-537.5 1928.12,-562.5 1928.12,-562.5 1928.12,-568.5 1922.12,-574.5 1916.12,-574.5 1916.12,-574.5 1674.62,-574.5 1674.62,-574.5 1668.62,-574.5 1662.62,-568.5 1662.62,-562.5 1662.62,-562.5 1662.62,-537.5 1662.62,-537.5 1662.62,-531.5 1668.62,-525.5 1674.62,-525.5"/>
<text text-anchor="middle" x="1695.75" y="-544.95" font-family="Times,serif" font-size="14.00">811312A</text>
<polyline fill="none" stroke="black" points="1728.88,-525.5 1728.88,-574.5"/>
<text text-anchor="middle" x="1811.5" y="-544.95" font-family="Times,serif" font-size="14.00">Tietorakenteet ja algoritmit</text>
<polyline fill="none" stroke="black" points="1894.12,-525.5 1894.12,-574.5"/>
<text text-anchor="middle" x="1911.12" y="-557.2" font-family="Times,serif" font-size="14.00">2</text>
<polyline fill="none" stroke="black" points="1894.12,-550 1928.12,-550"/>
<text text-anchor="middle" x="1911.12" y="-532.7" font-family="Times,serif" font-size="14.00">1&#45;2</text>
</g>
<!-- c811322A&#45;&gt;c811312A -->
<g id="edge11" class="edge">
<title>c811322A&#45;&gt;c811312A</title>
<path fill="none" stroke="black" d="M825.86,-541.67C825.86,-541.67 1651,-541.67 1651,-541.67"/>
<polygon fill="black" stroke="black" points="1651,-545.17 1661,-541.67 1651,-538.17 1651,-545.17"/>
</g>
<!-- c811367A -->
<g id="node20" class="node">
<title>c811367A</title>
<path fill="#ffd700" stroke="black" d="M1716.62,-457.5C1716.62,-457.5 1874.12,-457.5 1874.12,-457.5 1880.12,-457.5 1886.12,-463.5 1886.12,-469.5 1886.12,-469.5 1886.12,-494.5 1886.12,-494.5 1886.12,-500.5 1880.12,-506.5 1874.12,-506.5 1874.12,-506.5 1716.62,-506.5 1716.62,-506.5 1710.62,-506.5 1704.62,-500.5 1704.62,-494.5 1704.62,-494.5 1704.62,-469.5 1704.62,-469.5 1704.62,-463.5 1710.62,-457.5 1716.62,-457.5"/>
<text text-anchor="middle" x="1737.75" y="-476.95" font-family="Times,serif" font-size="14.00">811367A</text>
<polyline fill="none" stroke="black" points="1770.88,-457.5 1770.88,-506.5"/>
<text text-anchor="middle" x="1817.12" y="-476.95" font-family="Times,serif" font-size="14.00">Ohjelmointi 3</text>
<polyline fill="none" stroke="black" points="1863.38,-457.5 1863.38,-506.5"/>
<text text-anchor="middle" x="1874.75" y="-489.2" font-family="Times,serif" font-size="14.00">2</text>
<polyline fill="none" stroke="black" points="1863.38,-482 1886.12,-482"/>
<text text-anchor="middle" x="1874.75" y="-464.7" font-family="Times,serif" font-size="14.00">3</text>
</g>
<!-- c811322A&#45;&gt;c811367A -->
<g id="edge9" class="edge">
<title>c811322A&#45;&gt;c811367A</title>
<path fill="none" stroke="black" d="M818,-525.19C818,-509.25 818,-491.5 818,-491.5 818,-491.5 1692.79,-491.5 1692.79,-491.5"/>
<polygon fill="black" stroke="black" points="1692.79,-495 1702.79,-491.5 1692.79,-488 1692.79,-495"/>
</g>
<!-- c811301A -->
<g id="node22" class="node">
<title>c811301A</title>
<path fill="#caff70" stroke="black" d="M1256.5,-624.5C1256.5,-624.5 1553.5,-624.5 1553.5,-624.5 1559.5,-624.5 1565.5,-630.5 1565.5,-636.5 1565.5,-636.5 1565.5,-661.5 1565.5,-661.5 1565.5,-667.5 1559.5,-673.5 1553.5,-673.5 1553.5,-673.5 1256.5,-673.5 1256.5,-673.5 1250.5,-673.5 1244.5,-667.5 1244.5,-661.5 1244.5,-661.5 1244.5,-636.5 1244.5,-636.5 1244.5,-630.5 1250.5,-624.5 1256.5,-624.5"/>
<text text-anchor="middle" x="1277.62" y="-643.95" font-family="Times,serif" font-size="14.00">811301A</text>
<polyline fill="none" stroke="black" points="1310.75,-624.5 1310.75,-673.5"/>
<text text-anchor="middle" x="1426.75" y="-643.95" font-family="Times,serif" font-size="14.00"> Ohjelmistojen mallinnus ja suunnittelu</text>
<polyline fill="none" stroke="black" points="1542.75,-624.5 1542.75,-673.5"/>
<text text-anchor="middle" x="1554.12" y="-656.2" font-family="Times,serif" font-size="14.00">2</text>
<polyline fill="none" stroke="black" points="1542.75,-649 1565.5,-649"/>
<text text-anchor="middle" x="1554.12" y="-631.7" font-family="Times,serif" font-size="14.00">1</text>
</g>
<!-- c811322A&#45;&gt;c811301A -->
<g id="edge14" class="edge">
<title>c811322A&#45;&gt;c811301A</title>
<path fill="none" stroke="black" d="M826.18,-558.33C1012.99,-558.33 1405,-558.33 1405,-558.33 1405,-558.33 1405,-612.71 1405,-612.71"/>
<polygon fill="black" stroke="black" points="1401.5,-612.71 1405,-622.71 1408.5,-612.71 1401.5,-612.71"/>
</g>
<!-- c811391A -->
<g id="node15" class="node">
<title>c811391A</title>
<path fill="#caff70" stroke="black" d="M1005,-624.5C1005,-624.5 1192.5,-624.5 1192.5,-624.5 1198.5,-624.5 1204.5,-630.5 1204.5,-636.5 1204.5,-636.5 1204.5,-661.5 1204.5,-661.5 1204.5,-667.5 1198.5,-673.5 1192.5,-673.5 1192.5,-673.5 1005,-673.5 1005,-673.5 999,-673.5 993,-667.5 993,-661.5 993,-661.5 993,-636.5 993,-636.5 993,-630.5 999,-624.5 1005,-624.5"/>
<text text-anchor="middle" x="1026.12" y="-643.95" font-family="Times,serif" font-size="14.00">811391A</text>
<polyline fill="none" stroke="black" points="1059.25,-624.5 1059.25,-673.5"/>
<text text-anchor="middle" x="1120.5" y="-643.95" font-family="Times,serif" font-size="14.00">Vaatimusmäärittely</text>
<polyline fill="none" stroke="black" points="1181.75,-624.5 1181.75,-673.5"/>
<text text-anchor="middle" x="1193.12" y="-656.2" font-family="Times,serif" font-size="14.00">1</text>
<polyline fill="none" stroke="black" points="1181.75,-649 1204.5,-649"/>
<text text-anchor="middle" x="1193.12" y="-631.7" font-family="Times,serif" font-size="14.00">4</text>
</g>
<!-- c811103P&#45;&gt;c811391A -->
<g id="edge6" class="edge">
<title>c811103P&#45;&gt;c811391A</title>
<path fill="none" stroke="black" d="M864.3,-649C864.3,-649 981.01,-649 981.01,-649"/>
<polygon fill="black" stroke="black" points="981.01,-652.5 991.01,-649 981.01,-645.5 981.01,-652.5"/>
</g>
<!-- c811391A&#45;&gt;c811301A -->
<g id="edge13" class="edge">
<title>c811391A&#45;&gt;c811301A</title>
<path fill="none" stroke="black" d="M1204.57,-649C1204.57,-649 1232.5,-649 1232.5,-649"/>
<polygon fill="black" stroke="black" points="1232.5,-652.5 1242.5,-649 1232.5,-645.5 1232.5,-652.5"/>
</g>
<!-- c811166P -->
<g id="node16" class="node">
<title>c811166P</title>
<path fill="antiquewhite" stroke="black" d="M129.75,-723.5C129.75,-723.5 360,-723.5 360,-723.5 366,-723.5 372,-729.5 372,-735.5 372,-735.5 372,-760.5 372,-760.5 372,-766.5 366,-772.5 360,-772.5 360,-772.5 129.75,-772.5 129.75,-772.5 123.75,-772.5 117.75,-766.5 117.75,-760.5 117.75,-760.5 117.75,-735.5 117.75,-735.5 117.75,-729.5 123.75,-723.5 129.75,-723.5"/>
<text text-anchor="middle" x="149.75" y="-742.95" font-family="Times,serif" font-size="14.00">811166P</text>
<polyline fill="none" stroke="black" points="181.75,-723.5 181.75,-772.5"/>
<text text-anchor="middle" x="265.5" y="-742.95" font-family="Times,serif" font-size="14.00">Tietojärjestelmien perusteet</text>
<polyline fill="none" stroke="black" points="349.25,-723.5 349.25,-772.5"/>
<text text-anchor="middle" x="360.62" y="-755.2" font-family="Times,serif" font-size="14.00">1</text>
<polyline fill="none" stroke="black" points="349.25,-748 372,-748"/>
<text text-anchor="middle" x="360.62" y="-730.7" font-family="Times,serif" font-size="14.00">2</text>
</g>
<!-- c812360A -->
<g id="node17" class="node">
<title>c812360A</title>
<path fill="antiquewhite" stroke="black" d="M535.88,-723.5C535.88,-723.5 922.88,-723.5 922.88,-723.5 928.88,-723.5 934.88,-729.5 934.88,-735.5 934.88,-735.5 934.88,-760.5 934.88,-760.5 934.88,-766.5 928.88,-772.5 922.88,-772.5 922.88,-772.5 535.88,-772.5 535.88,-772.5 529.88,-772.5 523.88,-766.5 523.88,-760.5 523.88,-760.5 523.88,-735.5 523.88,-735.5 523.88,-729.5 529.88,-723.5 535.88,-723.5"/>
<text text-anchor="middle" x="557" y="-742.95" font-family="Times,serif" font-size="14.00">812360A</text>
<polyline fill="none" stroke="black" points="590.12,-723.5 590.12,-772.5"/>
<text text-anchor="middle" x="751.12" y="-742.95" font-family="Times,serif" font-size="14.00">Tietojärjestelmien mallintaminen, suunnittelu ja kehitys</text>
<polyline fill="none" stroke="black" points="912.12,-723.5 912.12,-772.5"/>
<text text-anchor="middle" x="923.5" y="-755.2" font-family="Times,serif" font-size="14.00">1</text>
<polyline fill="none" stroke="black" points="912.12,-748 934.88,-748"/>
<text text-anchor="middle" x="923.5" y="-730.7" font-family="Times,serif" font-size="14.00">4</text>
</g>
<!-- c811166P&#45;&gt;c812360A -->
<g id="edge7" class="edge">
<title>c811166P&#45;&gt;c812360A</title>
<path fill="none" stroke="black" d="M372.49,-748C372.49,-748 512.02,-748 512.02,-748"/>
<polygon fill="black" stroke="black" points="512.02,-751.5 522.02,-748 512.02,-744.5 512.02,-751.5"/>
</g>
<!-- c812363A -->
<g id="node26" class="node">
<title>c812363A</title>
<path fill="antiquewhite" stroke="black" d="M1291.75,-723.5C1291.75,-723.5 1518.25,-723.5 1518.25,-723.5 1524.25,-723.5 1530.25,-729.5 1530.25,-735.5 1530.25,-735.5 1530.25,-760.5 1530.25,-760.5 1530.25,-766.5 1524.25,-772.5 1518.25,-772.5 1518.25,-772.5 1291.75,-772.5 1291.75,-772.5 1285.75,-772.5 1279.75,-766.5 1279.75,-760.5 1279.75,-760.5 1279.75,-735.5 1279.75,-735.5 1279.75,-729.5 1285.75,-723.5 1291.75,-723.5"/>
<text text-anchor="middle" x="1312.88" y="-742.95" font-family="Times,serif" font-size="14.00">812363A</text>
<polyline fill="none" stroke="black" points="1346,-723.5 1346,-772.5"/>
<text text-anchor="middle" x="1426.75" y="-742.95" font-family="Times,serif" font-size="14.00">Ihmislähtöinen suunnittelu</text>
<polyline fill="none" stroke="black" points="1507.5,-723.5 1507.5,-772.5"/>
<text text-anchor="middle" x="1518.88" y="-755.2" font-family="Times,serif" font-size="14.00">2</text>
<polyline fill="none" stroke="black" points="1507.5,-748 1530.25,-748"/>
<text text-anchor="middle" x="1518.88" y="-730.7" font-family="Times,serif" font-size="14.00">1</text>
</g>
<!-- c812360A&#45;&gt;c812363A -->
<g id="edge19" class="edge">
<title>c812360A&#45;&gt;c812363A</title>
<path fill="none" stroke="black" d="M935.3,-748C935.3,-748 1267.88,-748 1267.88,-748"/>
<polygon fill="black" stroke="black" points="1267.88,-751.5 1277.88,-748 1267.88,-744.5 1267.88,-751.5"/>
</g>
<!-- c811319A -->
<g id="node24" class="node">
<title>c811319A</title>
<path fill="#caff70" stroke="black" d="M2101.38,-624.5C2101.38,-624.5 2346.62,-624.5 2346.62,-624.5 2352.62,-624.5 2358.62,-630.5 2358.62,-636.5 2358.62,-636.5 2358.62,-661.5 2358.62,-661.5 2358.62,-667.5 2352.62,-673.5 2346.62,-673.5 2346.62,-673.5 2101.38,-673.5 2101.38,-673.5 2095.38,-673.5 2089.38,-667.5 2089.38,-661.5 2089.38,-661.5 2089.38,-636.5 2089.38,-636.5 2089.38,-630.5 2095.38,-624.5 2101.38,-624.5"/>
<text text-anchor="middle" x="2122.5" y="-643.95" font-family="Times,serif" font-size="14.00">811319A</text>
<polyline fill="none" stroke="black" points="2155.62,-624.5 2155.62,-673.5"/>
<text text-anchor="middle" x="2245.75" y="-643.95" font-family="Times,serif" font-size="14.00">Tietomallinnus ja &#45;suunnittelu</text>
<polyline fill="none" stroke="black" points="2335.88,-624.5 2335.88,-673.5"/>
<text text-anchor="middle" x="2347.25" y="-656.2" font-family="Times,serif" font-size="14.00">2</text>
<polyline fill="none" stroke="black" points="2335.88,-649 2358.62,-649"/>
<text text-anchor="middle" x="2347.25" y="-631.7" font-family="Times,serif" font-size="14.00">3</text>
</g>
<!-- c811325A&#45;&gt;c811319A -->
<g id="edge17" class="edge">
<title>c811325A&#45;&gt;c811319A</title>
<path fill="none" stroke="black" d="M1880.22,-431C1974.01,-431 2112,-431 2112,-431 2112,-431 2112,-612.9 2112,-612.9"/>
<polygon fill="black" stroke="black" points="2108.5,-612.9 2112,-622.9 2115.5,-612.9 2108.5,-612.9"/>
</g>
<!-- c811368A -->
<g id="node21" class="node">
<title>c811368A</title>
<path fill="#ffd700" stroke="black" d="M2145.25,-423.5C2145.25,-423.5 2302.75,-423.5 2302.75,-423.5 2308.75,-423.5 2314.75,-429.5 2314.75,-435.5 2314.75,-435.5 2314.75,-460.5 2314.75,-460.5 2314.75,-466.5 2308.75,-472.5 2302.75,-472.5 2302.75,-472.5 2145.25,-472.5 2145.25,-472.5 2139.25,-472.5 2133.25,-466.5 2133.25,-460.5 2133.25,-460.5 2133.25,-435.5 2133.25,-435.5 2133.25,-429.5 2139.25,-423.5 2145.25,-423.5"/>
<text text-anchor="middle" x="2166.38" y="-442.95" font-family="Times,serif" font-size="14.00">811368A</text>
<polyline fill="none" stroke="black" points="2199.5,-423.5 2199.5,-472.5"/>
<text text-anchor="middle" x="2245.75" y="-442.95" font-family="Times,serif" font-size="14.00">Ohjelmointi 4</text>
<polyline fill="none" stroke="black" points="2292,-423.5 2292,-472.5"/>
<text text-anchor="middle" x="2303.38" y="-455.2" font-family="Times,serif" font-size="14.00">2</text>
<polyline fill="none" stroke="black" points="2292,-448 2314.75,-448"/>
<text text-anchor="middle" x="2303.38" y="-430.7" font-family="Times,serif" font-size="14.00">4</text>
</g>
<!-- c811367A&#45;&gt;c811368A -->
<g id="edge10" class="edge">
<title>c811367A&#45;&gt;c811368A</title>
<path fill="none" stroke="black" d="M1886.54,-465C1886.54,-465 2121.46,-465 2121.46,-465"/>
<polygon fill="black" stroke="black" points="2121.46,-468.5 2131.46,-465 2121.46,-461.5 2121.46,-468.5"/>
</g>
<!-- c811398A -->
<g id="node32" class="node">
<title>c811398A</title>
<path fill="azure" stroke="black" d="M2834.88,-165.5C2834.88,-165.5 3032.12,-165.5 3032.12,-165.5 3038.12,-165.5 3044.12,-171.5 3044.12,-177.5 3044.12,-177.5 3044.12,-202.5 3044.12,-202.5 3044.12,-208.5 3038.12,-214.5 3032.12,-214.5 3032.12,-214.5 2834.88,-214.5 2834.88,-214.5 2828.88,-214.5 2822.88,-208.5 2822.88,-202.5 2822.88,-202.5 2822.88,-177.5 2822.88,-177.5 2822.88,-171.5 2828.88,-165.5 2834.88,-165.5"/>
<text text-anchor="middle" x="2856" y="-184.95" font-family="Times,serif" font-size="14.00">811398A</text>
<polyline fill="none" stroke="black" points="2889.12,-165.5 2889.12,-214.5"/>
<text text-anchor="middle" x="2949.62" y="-184.95" font-family="Times,serif" font-size="14.00">Kandidaattiprojekti</text>
<polyline fill="none" stroke="black" points="3010.12,-165.5 3010.12,-214.5"/>
<text text-anchor="middle" x="3027.12" y="-197.2" font-family="Times,serif" font-size="14.00">3</text>
<polyline fill="none" stroke="black" points="3010.12,-190 3044.12,-190"/>
<text text-anchor="middle" x="3027.12" y="-172.7" font-family="Times,serif" font-size="14.00">3&#45;4</text>
</g>
<!-- c811368A&#45;&gt;c811398A -->
<g id="edge31" class="edge">
<title>c811368A&#45;&gt;c811398A</title>
<path fill="none" stroke="black" d="M2224,-423.01C2224,-361.18 2224,-206 2224,-206 2224,-206 2811.13,-206 2811.13,-206"/>
<polygon fill="black" stroke="black" points="2811.13,-209.5 2821.13,-206 2811.13,-202.5 2811.13,-209.5"/>
</g>
<!-- c811306A -->
<g id="node23" class="node">
<title>c811306A</title>
<path fill="#caff70" stroke="black" d="M1674.25,-624.5C1674.25,-624.5 1916.5,-624.5 1916.5,-624.5 1922.5,-624.5 1928.5,-630.5 1928.5,-636.5 1928.5,-636.5 1928.5,-661.5 1928.5,-661.5 1928.5,-667.5 1922.5,-673.5 1916.5,-673.5 1916.5,-673.5 1674.25,-673.5 1674.25,-673.5 1668.25,-673.5 1662.25,-667.5 1662.25,-661.5 1662.25,-661.5 1662.25,-636.5 1662.25,-636.5 1662.25,-630.5 1668.25,-624.5 1674.25,-624.5"/>
<text text-anchor="middle" x="1695.38" y="-643.95" font-family="Times,serif" font-size="14.00">811306A</text>
<polyline fill="none" stroke="black" points="1728.5,-624.5 1728.5,-673.5"/>
<text text-anchor="middle" x="1817.12" y="-643.95" font-family="Times,serif" font-size="14.00">Ohjelmistojen laatu ja testaus</text>
<polyline fill="none" stroke="black" points="1905.75,-624.5 1905.75,-673.5"/>
<text text-anchor="middle" x="1917.12" y="-656.2" font-family="Times,serif" font-size="14.00">2</text>
<polyline fill="none" stroke="black" points="1905.75,-649 1928.5,-649"/>
<text text-anchor="middle" x="1917.12" y="-631.7" font-family="Times,serif" font-size="14.00">2</text>
</g>
<!-- c811301A&#45;&gt;c811306A -->
<g id="edge15" class="edge">
<title>c811301A&#45;&gt;c811306A</title>
<path fill="none" stroke="black" d="M1565.75,-649C1565.75,-649 1650.31,-649 1650.31,-649"/>
<polygon fill="black" stroke="black" points="1650.31,-652.5 1660.31,-649 1650.31,-645.5 1650.31,-652.5"/>
</g>
<!-- c811306A&#45;&gt;c811319A -->
<g id="edge16" class="edge">
<title>c811306A&#45;&gt;c811319A</title>
<path fill="none" stroke="black" d="M1928.94,-649C1928.94,-649 2077.63,-649 2077.63,-649"/>
<polygon fill="black" stroke="black" points="2077.63,-652.5 2087.63,-649 2077.63,-645.5 2077.63,-652.5"/>
</g>
<!-- c815345A -->
<g id="node25" class="node">
<title>c815345A</title>
<path fill="#caff70" stroke="black" d="M2510.12,-624.5C2510.12,-624.5 2725.38,-624.5 2725.38,-624.5 2731.38,-624.5 2737.38,-630.5 2737.38,-636.5 2737.38,-636.5 2737.38,-661.5 2737.38,-661.5 2737.38,-667.5 2731.38,-673.5 2725.38,-673.5 2725.38,-673.5 2510.12,-673.5 2510.12,-673.5 2504.12,-673.5 2498.12,-667.5 2498.12,-661.5 2498.12,-661.5 2498.12,-636.5 2498.12,-636.5 2498.12,-630.5 2504.12,-624.5 2510.12,-624.5"/>
<text text-anchor="middle" x="2531.25" y="-643.95" font-family="Times,serif" font-size="14.00">815345A</text>
<polyline fill="none" stroke="black" points="2564.38,-624.5 2564.38,-673.5"/>
<text text-anchor="middle" x="2639.5" y="-643.95" font-family="Times,serif" font-size="14.00">Ohjelmistoarkkitehtuurit</text>
<polyline fill="none" stroke="black" points="2714.62,-624.5 2714.62,-673.5"/>
<text text-anchor="middle" x="2726" y="-656.2" font-family="Times,serif" font-size="14.00">2</text>
<polyline fill="none" stroke="black" points="2714.62,-649 2737.38,-649"/>
<text text-anchor="middle" x="2726" y="-631.7" font-family="Times,serif" font-size="14.00">4</text>
</g>
<!-- c811319A&#45;&gt;c815345A -->
<g id="edge18" class="edge">
<title>c811319A&#45;&gt;c815345A</title>
<path fill="none" stroke="black" d="M2358.96,-649C2358.96,-649 2486.29,-649 2486.29,-649"/>
<polygon fill="black" stroke="black" points="2486.29,-652.5 2496.29,-649 2486.29,-645.5 2486.29,-652.5"/>
</g>
<!-- c815345A&#45;&gt;c811398A -->
<g id="edge30" class="edge">
<title>c815345A&#45;&gt;c811398A</title>
<path fill="none" stroke="black" d="M2737.45,-649C2769.29,-649 2795,-649 2795,-649 2795,-649 2795,-212 2795,-212 2795,-212 2811.18,-212 2811.18,-212"/>
<polygon fill="black" stroke="black" points="2811.18,-215.5 2821.18,-212 2811.18,-208.5 2811.18,-215.5"/>
</g>
<!-- c812361A -->
<g id="node27" class="node">
<title>c812361A</title>
<path fill="antiquewhite" stroke="black" d="M1613.5,-723.5C1613.5,-723.5 1977.25,-723.5 1977.25,-723.5 1983.25,-723.5 1989.25,-729.5 1989.25,-735.5 1989.25,-735.5 1989.25,-760.5 1989.25,-760.5 1989.25,-766.5 1983.25,-772.5 1977.25,-772.5 1977.25,-772.5 1613.5,-772.5 1613.5,-772.5 1607.5,-772.5 1601.5,-766.5 1601.5,-760.5 1601.5,-760.5 1601.5,-735.5 1601.5,-735.5 1601.5,-729.5 1607.5,-723.5 1613.5,-723.5"/>
<text text-anchor="middle" x="1634.62" y="-742.95" font-family="Times,serif" font-size="14.00">812361A</text>
<polyline fill="none" stroke="black" points="1667.75,-723.5 1667.75,-772.5"/>
<text text-anchor="middle" x="1817.12" y="-742.95" font-family="Times,serif" font-size="14.00">Tietojärjestelmien hankinta, käyttöönotto ja hallinta</text>
<polyline fill="none" stroke="black" points="1966.5,-723.5 1966.5,-772.5"/>
<text text-anchor="middle" x="1977.88" y="-755.2" font-family="Times,serif" font-size="14.00">2</text>
<polyline fill="none" stroke="black" points="1966.5,-748 1989.25,-748"/>
<text text-anchor="middle" x="1977.88" y="-730.7" font-family="Times,serif" font-size="14.00">2</text>
</g>
<!-- c812363A&#45;&gt;c812361A -->
<g id="edge20" class="edge">
<title>c812363A&#45;&gt;c812361A</title>
<path fill="none" stroke="black" d="M1530.67,-748C1530.67,-748 1589.51,-748 1589.51,-748"/>
<polygon fill="black" stroke="black" points="1589.51,-751.5 1599.51,-748 1589.51,-744.5 1589.51,-751.5"/>
</g>
<!-- c812362A -->
<g id="node28" class="node">
<title>c812362A</title>
<path fill="antiquewhite" stroke="black" d="M2037.25,-723.5C2037.25,-723.5 2410.75,-723.5 2410.75,-723.5 2416.75,-723.5 2422.75,-729.5 2422.75,-735.5 2422.75,-735.5 2422.75,-760.5 2422.75,-760.5 2422.75,-766.5 2416.75,-772.5 2410.75,-772.5 2410.75,-772.5 2037.25,-772.5 2037.25,-772.5 2031.25,-772.5 2025.25,-766.5 2025.25,-760.5 2025.25,-760.5 2025.25,-735.5 2025.25,-735.5 2025.25,-729.5 2031.25,-723.5 2037.25,-723.5"/>
<text text-anchor="middle" x="2058.38" y="-742.95" font-family="Times,serif" font-size="14.00">812362A</text>
<polyline fill="none" stroke="black" points="2091.5,-723.5 2091.5,-772.5"/>
<text text-anchor="middle" x="2245.75" y="-742.95" font-family="Times,serif" font-size="14.00">Liiketoimintaprosessien johtaminen ja mallintaminen</text>
<polyline fill="none" stroke="black" points="2400,-723.5 2400,-772.5"/>
<text text-anchor="middle" x="2411.38" y="-755.2" font-family="Times,serif" font-size="14.00">2</text>
<polyline fill="none" stroke="black" points="2400,-748 2422.75,-748"/>
<text text-anchor="middle" x="2411.38" y="-730.7" font-family="Times,serif" font-size="14.00">3</text>
</g>
<!-- c812361A&#45;&gt;c812362A -->
<g id="edge21" class="edge">
<title>c812361A&#45;&gt;c812362A</title>
<path fill="none" stroke="black" d="M1989.62,-748C1989.62,-748 2013.43,-748 2013.43,-748"/>
<polygon fill="black" stroke="black" points="2013.43,-751.5 2023.43,-748 2013.43,-744.5 2013.43,-751.5"/>
</g>
<!-- c812364A -->
<g id="node31" class="node">
<title>c812364A</title>
<path fill="antiquewhite" stroke="black" d="M2470.75,-249.5C2470.75,-249.5 2764.75,-249.5 2764.75,-249.5 2770.75,-249.5 2776.75,-255.5 2776.75,-261.5 2776.75,-261.5 2776.75,-286.5 2776.75,-286.5 2776.75,-292.5 2770.75,-298.5 2764.75,-298.5 2764.75,-298.5 2470.75,-298.5 2470.75,-298.5 2464.75,-298.5 2458.75,-292.5 2458.75,-286.5 2458.75,-286.5 2458.75,-261.5 2458.75,-261.5 2458.75,-255.5 2464.75,-249.5 2470.75,-249.5"/>
<text text-anchor="middle" x="2491.88" y="-268.95" font-family="Times,serif" font-size="14.00">812364A</text>
<polyline fill="none" stroke="black" points="2525,-249.5 2525,-298.5"/>
<text text-anchor="middle" x="2639.5" y="-268.95" font-family="Times,serif" font-size="14.00">Data&#45;analytiikka liiketoiminnan tukena</text>
<polyline fill="none" stroke="black" points="2754,-249.5 2754,-298.5"/>
<text text-anchor="middle" x="2765.38" y="-281.2" font-family="Times,serif" font-size="14.00">3</text>
<polyline fill="none" stroke="black" points="2754,-274 2776.75,-274"/>
<text text-anchor="middle" x="2765.38" y="-256.7" font-family="Times,serif" font-size="14.00">4</text>
</g>
<!-- c812362A&#45;&gt;c812364A -->
<g id="edge22" class="edge">
<title>c812362A&#45;&gt;c812364A</title>
<path fill="none" stroke="black" d="M2423.04,-748C2455.63,-748 2479,-748 2479,-748 2479,-748 2479,-310.33 2479,-310.33"/>
<polygon fill="black" stroke="black" points="2482.5,-310.33 2479,-300.33 2475.5,-310.33 2482.5,-310.33"/>
</g>
<!-- c812362A&#45;&gt;c811398A -->
<g id="edge32" class="edge">
<title>c812362A&#45;&gt;c811398A</title>
<path fill="none" stroke="black" d="M2391,-723.08C2391,-617.08 2391,-209 2391,-209 2391,-209 2810.89,-209 2810.89,-209"/>
<polygon fill="black" stroke="black" points="2810.89,-212.5 2820.89,-209 2810.89,-205.5 2810.89,-212.5"/>
</g>
<!-- c811397A -->
<g id="node29" class="node">
<title>c811397A</title>
<path fill="azure" stroke="black" d="M1289.12,-822.5C1289.12,-822.5 1520.88,-822.5 1520.88,-822.5 1526.88,-822.5 1532.88,-828.5 1532.88,-834.5 1532.88,-834.5 1532.88,-859.5 1532.88,-859.5 1532.88,-865.5 1526.88,-871.5 1520.88,-871.5 1520.88,-871.5 1289.12,-871.5 1289.12,-871.5 1283.12,-871.5 1277.12,-865.5 1277.12,-859.5 1277.12,-859.5 1277.12,-834.5 1277.12,-834.5 1277.12,-828.5 1283.12,-822.5 1289.12,-822.5"/>
<text text-anchor="middle" x="1310.25" y="-841.95" font-family="Times,serif" font-size="14.00">811397A</text>
<polyline fill="none" stroke="black" points="1343.38,-822.5 1343.38,-871.5"/>
<text text-anchor="middle" x="1426.75" y="-841.95" font-family="Times,serif" font-size="14.00">Projektitoiminnan perusteet</text>
<polyline fill="none" stroke="black" points="1510.12,-822.5 1510.12,-871.5"/>
<text text-anchor="middle" x="1521.5" y="-854.2" font-family="Times,serif" font-size="14.00">2</text>
<polyline fill="none" stroke="black" points="1510.12,-847 1532.88,-847"/>
<text text-anchor="middle" x="1521.5" y="-829.7" font-family="Times,serif" font-size="14.00">4</text>
</g>
<!-- c811397A&#45;&gt;c811398A -->
<g id="edge29" class="edge">
<title>c811397A&#45;&gt;c811398A</title>
<path fill="none" stroke="black" d="M1533.18,-847C1561.88,-847 1584,-847 1584,-847 1584,-847 1584,-203 1584,-203 1584,-203 2810.98,-203 2810.98,-203"/>
<polygon fill="black" stroke="black" points="2810.98,-206.5 2820.98,-203 2810.98,-199.5 2810.98,-206.5"/>
</g>
<!-- c900105Y -->
<g id="node30" class="node">
<title>c900105Y</title>
<path fill="gainsboro" stroke="black" d="M2486.5,-150.5C2486.5,-150.5 2749,-150.5 2749,-150.5 2755,-150.5 2761,-156.5 2761,-162.5 2761,-162.5 2761,-187.5 2761,-187.5 2761,-193.5 2755,-199.5 2749,-199.5 2749,-199.5 2486.5,-199.5 2486.5,-199.5 2480.5,-199.5 2474.5,-193.5 2474.5,-187.5 2474.5,-187.5 2474.5,-162.5 2474.5,-162.5 2474.5,-156.5 2480.5,-150.5 2486.5,-150.5"/>
<text text-anchor="middle" x="2507.62" y="-169.95" font-family="Times,serif" font-size="14.00">900105Y</text>
<polyline fill="none" stroke="black" points="2540.75,-150.5 2540.75,-199.5"/>
<text text-anchor="middle" x="2639.5" y="-169.95" font-family="Times,serif" font-size="14.00">Suuntaa uralle viestinnän keinoin</text>
<polyline fill="none" stroke="black" points="2738.25,-150.5 2738.25,-199.5"/>
<text text-anchor="middle" x="2749.62" y="-182.2" font-family="Times,serif" font-size="14.00">3</text>
<polyline fill="none" stroke="black" points="2738.25,-175 2761,-175"/>
<text text-anchor="middle" x="2749.62" y="-157.7" font-family="Times,serif" font-size="14.00">3</text>
</g>
<!-- c900105Y&#45;&gt;c811393A -->
<g id="edge28" class="edge">
<title>c900105Y&#45;&gt;c811393A</title>
<path fill="none" stroke="black" d="M2761.42,-182.5C2793.39,-182.5 2818,-182.5 2818,-182.5 2818,-182.5 2818,-221.76 2818,-221.76"/>
<polygon fill="black" stroke="black" points="2814.5,-221.76 2818,-231.76 2821.5,-221.76 2814.5,-221.76"/>
</g>
<!-- c811393A&#45;&gt;c811383A -->
<g id="edge25" class="edge">
<title>c811393A&#45;&gt;c811383A</title>
<path fill="none" stroke="black" d="M3050,-233.07C3050,-213.66 3050,-190 3050,-190 3050,-190 3078.28,-190 3078.28,-190"/>
<polygon fill="black" stroke="black" points="3078.28,-193.5 3088.28,-190 3078.28,-186.5 3078.28,-193.5"/>
</g>
<!-- c813307A -->
<g id="node35" class="node">
<title>c813307A</title>
<path fill="azure" stroke="black" d="M3335.5,-165.5C3335.5,-165.5 3493,-165.5 3493,-165.5 3499,-165.5 3505,-171.5 3505,-177.5 3505,-177.5 3505,-202.5 3505,-202.5 3505,-208.5 3499,-214.5 3493,-214.5 3493,-214.5 3335.5,-214.5 3335.5,-214.5 3329.5,-214.5 3323.5,-208.5 3323.5,-202.5 3323.5,-202.5 3323.5,-177.5 3323.5,-177.5 3323.5,-171.5 3329.5,-165.5 3335.5,-165.5"/>
<text text-anchor="middle" x="3356.62" y="-184.95" font-family="Times,serif" font-size="14.00">813307A</text>
<polyline fill="none" stroke="black" points="3389.75,-165.5 3389.75,-214.5"/>
<text text-anchor="middle" x="3436" y="-184.95" font-family="Times,serif" font-size="14.00">Kypsyysnäyte</text>
<polyline fill="none" stroke="black" points="3482.25,-165.5 3482.25,-214.5"/>
<text text-anchor="middle" x="3493.62" y="-197.2" font-family="Times,serif" font-size="14.00">3</text>
<polyline fill="none" stroke="black" points="3482.25,-190 3505,-190"/>
<text text-anchor="middle" x="3493.62" y="-172.7" font-family="Times,serif" font-size="14.00">4</text>
</g>
<!-- c811383A&#45;&gt;c813307A -->
<g id="edge27" class="edge">
<title>c811383A&#45;&gt;c813307A</title>
<path fill="none" stroke="black" d="M3287.73,-190C3287.73,-190 3311.78,-190 3311.78,-190"/>
<polygon fill="black" stroke="black" points="3311.78,-193.5 3321.78,-190 3311.78,-186.5 3311.78,-193.5"/>
</g>
</g>
</svg>
