<?xml version="1.0" encoding="UTF-8" standalone="no"?>
<!DOCTYPE svg PUBLIC "-//W3C//DTD SVG 1.1//EN"
 "http://www.w3.org/Graphics/SVG/1.1/DTD/svg11.dtd">
<!-- Generated by graphviz version 5.0.1 (20220820.1526)
 -->
<!-- Title: TOLLuK Pages: 1 -->
<svg width="3554pt" height="1049pt"
 viewBox="0.00 0.00 3554.00 1049.00" xmlns="http://www.w3.org/2000/svg" xmlns:xlink="http://www.w3.org/1999/xlink">
<g id="graph0" class="graph" transform="scale(1 1) rotate(0) translate(4 1045)">
<title>TOLLuK</title>
<polygon fill="white" stroke="none" points="-4,4 -4,-1045 3550,-1045 3550,4 -4,4"/>
<g id="clust1" class="cluster">
<title>cluster_Legend</title>
<g id="a_clust1"><a xlink:href="https://opas.peppi.oulu.fi/fi/ohjelma/12350" xlink:title="Selite">
<polygon fill="none" stroke="black" stroke-dasharray="1,5" points="112,-42 112,-129 379,-129 379,-42 112,-42"/>
<text text-anchor="middle" x="245.5" y="-113.8" font-family="Times,serif" font-size="14.00">Selite</text>
</a>
</g>
</g>
<g id="clust2" class="cluster">
<title>cluster_year_1</title>
<polygon fill="none" stroke="black" stroke-dasharray="1,5" points="8,-172 8,-1033 1225,-1033 1225,-172 8,-172"/>
<text text-anchor="middle" x="616.5" y="-1017.8" font-family="Times,serif" font-size="14.00">1. vuosi</text>
</g>
<g id="clust3" class="cluster">
<title>cluster_lang</title>
</g>
<g id="clust4" class="cluster">
<title>cluster_general</title>
</g>
<g id="clust5" class="cluster">
<title>cluster_intro</title>
</g>
<g id="clust6" class="cluster">
<title>cluster_programming</title>
</g>
<g id="clust7" class="cluster">
<title>cluster_sweng</title>
</g>
<g id="clust8" class="cluster">
<title>cluster_humanorg</title>
</g>
<g id="clust9" class="cluster">
<title>cluster_year_2</title>
<polygon fill="none" stroke="black" stroke-dasharray="1,5" points="1233,-237 1233,-778 2764.5,-778 2764.5,-237 1233,-237"/>
<text text-anchor="middle" x="1998.75" y="-762.8" font-family="Times,serif" font-size="14.00">2. vuosi</text>
</g>
<g id="clust10" class="cluster">
<title>cluster_programming</title>
</g>
<g id="clust11" class="cluster">
<title>cluster_sweng</title>
</g>
<g id="clust12" class="cluster">
<title>cluster_humanorg</title>
</g>
<g id="clust13" class="cluster">
<title>cluster_capstone</title>
</g>
<g id="clust14" class="cluster">
<title>cluster_year_3</title>
<polygon fill="none" stroke="black" stroke-dasharray="1,5" points="2452,-8 2452,-229 3538,-229 3538,-8 2452,-8"/>
<text text-anchor="middle" x="2995" y="-213.8" font-family="Times,serif" font-size="14.00">3.. vuosi</text>
</g>
<g id="clust15" class="cluster">
<title>cluster_general</title>
</g>
<g id="clust16" class="cluster">
<title>cluster_humanorg</title>
</g>
<g id="clust17" class="cluster">
<title>cluster_capstone</title>
</g>
<!-- legend -->
<g id="node1" class="node">
<title>legend</title>
<path fill="pink" stroke="black" d="M132,-51C132,-51 359,-51 359,-51 365,-51 371,-57 371,-63 371,-63 371,-85 371,-85 371,-91 365,-97 359,-97 359,-97 132,-97 132,-97 126,-97 120,-91 120,-85 120,-85 120,-63 120,-63 120,-57 126,-51 132,-51"/>
<text text-anchor="middle" x="161.5" y="-70.3" font-family="Times,serif" font-size="14.00">Kurssikoodi</text>
<polyline fill="none" stroke="black" points="203,-51 203,-97"/>
<text text-anchor="middle" x="247" y="-70.3" font-family="Times,serif" font-size="14.00">Kurssin nimi</text>
<polyline fill="none" stroke="black" points="291,-51 291,-97"/>
<text text-anchor="middle" x="331" y="-81.8" font-family="Times,serif" font-size="14.00">opintovuosi</text>
<polyline fill="none" stroke="black" points="291,-74 371,-74"/>
<text text-anchor="middle" x="331" y="-58.8" font-family="Times,serif" font-size="14.00">periodi</text>
</g>
<!-- c902164Y -->
<g id="node2" class="node">
<title>c902164Y</title>
<path fill="lightgrey" stroke="black" d="M36,-924C36,-924 455,-924 455,-924 461,-924 467,-930 467,-936 467,-936 467,-958 467,-958 467,-964 461,-970 455,-970 455,-970 36,-970 36,-970 30,-970 24,-964 24,-958 24,-958 24,-936 24,-936 24,-930 30,-924 36,-924"/>
<text text-anchor="middle" x="57.5" y="-943.3" font-family="Times,serif" font-size="14.00">902164Y</text>
<polyline fill="none" stroke="black" points="91,-924 91,-970"/>
<text text-anchor="middle" x="267.5" y="-943.3" font-family="Times,serif" font-size="14.00">English Communication for Information Processing, Reading</text>
<polyline fill="none" stroke="black" points="444,-924 444,-970"/>
<text text-anchor="middle" x="455.5" y="-954.8" font-family="Times,serif" font-size="14.00">1</text>
<polyline fill="none" stroke="black" points="444,-947 467,-947"/>
<text text-anchor="middle" x="455.5" y="-931.8" font-family="Times,serif" font-size="14.00">3</text>
</g>
<!-- c902165Y -->
<g id="node3" class="node">
<title>c902165Y</title>
<path fill="lightgrey" stroke="black" d="M515,-924C515,-924 948,-924 948,-924 954,-924 960,-930 960,-936 960,-936 960,-958 960,-958 960,-964 954,-970 948,-970 948,-970 515,-970 515,-970 509,-970 503,-964 503,-958 503,-958 503,-936 503,-936 503,-930 509,-924 515,-924"/>
<text text-anchor="middle" x="536.5" y="-943.3" font-family="Times,serif" font-size="14.00">902165Y</text>
<polyline fill="none" stroke="black" points="570,-924 570,-970"/>
<text text-anchor="middle" x="753.5" y="-943.3" font-family="Times,serif" font-size="14.00">English Communication for Information Processing, Oral Skills</text>
<polyline fill="none" stroke="black" points="937,-924 937,-970"/>
<text text-anchor="middle" x="948.5" y="-954.8" font-family="Times,serif" font-size="14.00">1</text>
<polyline fill="none" stroke="black" points="937,-947 960,-947"/>
<text text-anchor="middle" x="948.5" y="-931.8" font-family="Times,serif" font-size="14.00">4</text>
</g>
<!-- c902164Y&#45;&gt;c902165Y -->
<g id="edge1" class="edge">
<title>c902164Y&#45;&gt;c902165Y</title>
<path fill="none" stroke="black" d="M467.17,-947C467.17,-947 492.93,-947 492.93,-947"/>
<polygon fill="black" stroke="black" points="492.93,-950.5 502.93,-947 492.93,-943.5 492.93,-950.5"/>
</g>
<!-- c901048Y -->
<g id="node4" class="node">
<title>c901048Y</title>
<path fill="lightgrey" stroke="black" d="M59.5,-859C59.5,-859 431.5,-859 431.5,-859 437.5,-859 443.5,-865 443.5,-871 443.5,-871 443.5,-893 443.5,-893 443.5,-899 437.5,-905 431.5,-905 431.5,-905 59.5,-905 59.5,-905 53.5,-905 47.5,-899 47.5,-893 47.5,-893 47.5,-871 47.5,-871 47.5,-865 53.5,-859 59.5,-859"/>
<text text-anchor="middle" x="81" y="-878.3" font-family="Times,serif" font-size="14.00">901048Y</text>
<polyline fill="none" stroke="black" points="114.5,-859 114.5,-905"/>
<text text-anchor="middle" x="267.5" y="-878.3" font-family="Times,serif" font-size="14.00">Toinen kotimainen kieli (ruotsi), kirjallinen kielitaito</text>
<polyline fill="none" stroke="black" points="420.5,-859 420.5,-905"/>
<text text-anchor="middle" x="432" y="-889.8" font-family="Times,serif" font-size="14.00">1</text>
<polyline fill="none" stroke="black" points="420.5,-882 443.5,-882"/>
<text text-anchor="middle" x="432" y="-866.8" font-family="Times,serif" font-size="14.00">1</text>
</g>
<!-- c901049Y -->
<g id="node5" class="node">
<title>c901049Y</title>
<path fill="lightgrey" stroke="black" d="M62.5,-794C62.5,-794 428.5,-794 428.5,-794 434.5,-794 440.5,-800 440.5,-806 440.5,-806 440.5,-828 440.5,-828 440.5,-834 434.5,-840 428.5,-840 428.5,-840 62.5,-840 62.5,-840 56.5,-840 50.5,-834 50.5,-828 50.5,-828 50.5,-806 50.5,-806 50.5,-800 56.5,-794 62.5,-794"/>
<text text-anchor="middle" x="84" y="-813.3" font-family="Times,serif" font-size="14.00">901049Y</text>
<polyline fill="none" stroke="black" points="117.5,-794 117.5,-840"/>
<text text-anchor="middle" x="267.5" y="-813.3" font-family="Times,serif" font-size="14.00">Toinen kotimainen kieli (ruotsi), suullinen kielitaito</text>
<polyline fill="none" stroke="black" points="417.5,-794 417.5,-840"/>
<text text-anchor="middle" x="429" y="-824.8" font-family="Times,serif" font-size="14.00">1</text>
<polyline fill="none" stroke="black" points="417.5,-817 440.5,-817"/>
<text text-anchor="middle" x="429" y="-801.8" font-family="Times,serif" font-size="14.00">2</text>
</g>
<!-- c810020Y -->
<g id="node6" class="node">
<title>c810020Y</title>
<path fill="gainsboro" stroke="black" d="M145,-254C145,-254 346,-254 346,-254 352,-254 358,-260 358,-266 358,-266 358,-288 358,-288 358,-294 352,-300 346,-300 346,-300 145,-300 145,-300 139,-300 133,-294 133,-288 133,-288 133,-266 133,-266 133,-260 139,-254 145,-254"/>
<text text-anchor="middle" x="166.5" y="-273.3" font-family="Times,serif" font-size="14.00">810020Y</text>
<polyline fill="none" stroke="black" points="200,-254 200,-300"/>
<text text-anchor="middle" x="261.5" y="-273.3" font-family="Times,serif" font-size="14.00">Orientoivat opinnot</text>
<polyline fill="none" stroke="black" points="323,-254 323,-300"/>
<text text-anchor="middle" x="340.5" y="-284.8" font-family="Times,serif" font-size="14.00">1</text>
<polyline fill="none" stroke="black" points="323,-277 358,-277"/>
<text text-anchor="middle" x="340.5" y="-261.8" font-family="Times,serif" font-size="14.00">1&#45;2</text>
</g>
<!-- c030005P -->
<g id="node7" class="node">
<title>c030005P</title>
<path fill="gainsboro" stroke="black" d="M140.5,-189C140.5,-189 350.5,-189 350.5,-189 356.5,-189 362.5,-195 362.5,-201 362.5,-201 362.5,-223 362.5,-223 362.5,-229 356.5,-235 350.5,-235 350.5,-235 140.5,-235 140.5,-235 134.5,-235 128.5,-229 128.5,-223 128.5,-223 128.5,-201 128.5,-201 128.5,-195 134.5,-189 140.5,-189"/>
<text text-anchor="middle" x="161" y="-208.3" font-family="Times,serif" font-size="14.00">030005P</text>
<polyline fill="none" stroke="black" points="193.5,-189 193.5,-235"/>
<text text-anchor="middle" x="260.5" y="-208.3" font-family="Times,serif" font-size="14.00">Tiedonhankintakurssi</text>
<polyline fill="none" stroke="black" points="327.5,-189 327.5,-235"/>
<text text-anchor="middle" x="345" y="-219.8" font-family="Times,serif" font-size="14.00">1</text>
<polyline fill="none" stroke="black" points="327.5,-212 362.5,-212"/>
<text text-anchor="middle" x="345" y="-196.8" font-family="Times,serif" font-size="14.00">1&#45;2</text>
</g>
<!-- c811393A -->
<g id="node33" class="node">
<title>c811393A</title>
<path fill="azure" stroke="black" d="M2836,-25C2836,-25 3055,-25 3055,-25 3061,-25 3067,-31 3067,-37 3067,-37 3067,-59 3067,-59 3067,-65 3061,-71 3055,-71 3055,-71 2836,-71 2836,-71 2830,-71 2824,-65 2824,-59 2824,-59 2824,-37 2824,-37 2824,-31 2830,-25 2836,-25"/>
<text text-anchor="middle" x="2857.5" y="-44.3" font-family="Times,serif" font-size="14.00">811393A</text>
<polyline fill="none" stroke="black" points="2891,-25 2891,-71"/>
<text text-anchor="middle" x="2967.5" y="-44.3" font-family="Times,serif" font-size="14.00">Johdatus tutkimustyöhön</text>
<polyline fill="none" stroke="black" points="3044,-25 3044,-71"/>
<text text-anchor="middle" x="3055.5" y="-55.8" font-family="Times,serif" font-size="14.00">3</text>
<polyline fill="none" stroke="black" points="3044,-48 3067,-48"/>
<text text-anchor="middle" x="3055.5" y="-32.8" font-family="Times,serif" font-size="14.00">3</text>
</g>
<!-- c030005P&#45;&gt;c811393A -->
<g id="edge23" class="edge">
<title>c030005P&#45;&gt;c811393A</title>
<path fill="none" stroke="black" d="M362.89,-204.17C868.01,-204.17 2831,-204.17 2831,-204.17 2831,-204.17 2831,-81.04 2831,-81.04"/>
<polygon fill="black" stroke="black" points="2834.5,-81.04 2831,-71.04 2827.5,-81.04 2834.5,-81.04"/>
</g>
<!-- c811383A -->
<g id="node34" class="node">
<title>c811383A</title>
<path fill="azure" stroke="black" d="M3115,-25C3115,-25 3291,-25 3291,-25 3297,-25 3303,-31 3303,-37 3303,-37 3303,-59 3303,-59 3303,-65 3297,-71 3291,-71 3291,-71 3115,-71 3115,-71 3109,-71 3103,-65 3103,-59 3103,-59 3103,-37 3103,-37 3103,-31 3109,-25 3115,-25"/>
<text text-anchor="middle" x="3136.5" y="-44.3" font-family="Times,serif" font-size="14.00">811383A</text>
<polyline fill="none" stroke="black" points="3170,-25 3170,-71"/>
<text text-anchor="middle" x="3219" y="-44.3" font-family="Times,serif" font-size="14.00">LuK&#45;tutkielma</text>
<polyline fill="none" stroke="black" points="3268,-25 3268,-71"/>
<text text-anchor="middle" x="3285.5" y="-55.8" font-family="Times,serif" font-size="14.00">3</text>
<polyline fill="none" stroke="black" points="3268,-48 3303,-48"/>
<text text-anchor="middle" x="3285.5" y="-32.8" font-family="Times,serif" font-size="14.00">3&#45;4</text>
</g>
<!-- c030005P&#45;&gt;c811383A -->
<g id="edge24" class="edge">
<title>c030005P&#45;&gt;c811383A</title>
<path fill="none" stroke="black" d="M362.86,-219.83C908.38,-219.83 3170,-219.83 3170,-219.83 3170,-219.83 3170,-81.17 3170,-81.17"/>
<polygon fill="black" stroke="black" points="3173.5,-81.17 3170,-71.17 3166.5,-81.17 3173.5,-81.17"/>
</g>
<!-- c810136P -->
<g id="node8" class="node">
<title>c810136P</title>
<path fill="yellow" stroke="black" d="M113.5,-634C113.5,-634 377.5,-634 377.5,-634 383.5,-634 389.5,-640 389.5,-646 389.5,-646 389.5,-668 389.5,-668 389.5,-674 383.5,-680 377.5,-680 377.5,-680 113.5,-680 113.5,-680 107.5,-680 101.5,-674 101.5,-668 101.5,-668 101.5,-646 101.5,-646 101.5,-640 107.5,-634 113.5,-634"/>
<text text-anchor="middle" x="134" y="-653.3" font-family="Times,serif" font-size="14.00">810136P</text>
<polyline fill="none" stroke="black" points="166.5,-634 166.5,-680"/>
<text text-anchor="middle" x="266.5" y="-653.3" font-family="Times,serif" font-size="14.00">Johdatus tietojenkäsittelytieteisiin</text>
<polyline fill="none" stroke="black" points="366.5,-634 366.5,-680"/>
<text text-anchor="middle" x="378" y="-664.8" font-family="Times,serif" font-size="14.00">1</text>
<polyline fill="none" stroke="black" points="366.5,-657 389.5,-657"/>
<text text-anchor="middle" x="378" y="-641.8" font-family="Times,serif" font-size="14.00">1</text>
</g>
<!-- c811168P -->
<g id="node9" class="node">
<title>c811168P</title>
<path fill="yellow" stroke="black" d="M663,-699C663,-699 800,-699 800,-699 806,-699 812,-705 812,-711 812,-711 812,-733 812,-733 812,-739 806,-745 800,-745 800,-745 663,-745 663,-745 657,-745 651,-739 651,-733 651,-733 651,-711 651,-711 651,-705 657,-699 663,-699"/>
<text text-anchor="middle" x="683.5" y="-718.3" font-family="Times,serif" font-size="14.00">811168P</text>
<polyline fill="none" stroke="black" points="716,-699 716,-745"/>
<text text-anchor="middle" x="752.5" y="-718.3" font-family="Times,serif" font-size="14.00">Tietoturva</text>
<polyline fill="none" stroke="black" points="789,-699 789,-745"/>
<text text-anchor="middle" x="800.5" y="-729.8" font-family="Times,serif" font-size="14.00">1</text>
<polyline fill="none" stroke="black" points="789,-722 812,-722"/>
<text text-anchor="middle" x="800.5" y="-706.8" font-family="Times,serif" font-size="14.00">3</text>
</g>
<!-- c810136P&#45;&gt;c811168P -->
<g id="edge3" class="edge">
<title>c810136P&#45;&gt;c811168P</title>
<path fill="none" stroke="black" d="M373,-680.25C373,-696.08 373,-714.17 373,-714.17 373,-714.17 640.6,-714.17 640.6,-714.17"/>
<polygon fill="black" stroke="black" points="640.6,-717.67 650.6,-714.17 640.6,-710.67 640.6,-717.67"/>
</g>
<!-- c811174P -->
<g id="node10" class="node">
<title>c811174P</title>
<path fill="yellow" stroke="black" d="M595,-634C595,-634 868,-634 868,-634 874,-634 880,-640 880,-646 880,-646 880,-668 880,-668 880,-674 874,-680 868,-680 868,-680 595,-680 595,-680 589,-680 583,-674 583,-668 583,-668 583,-646 583,-646 583,-640 589,-634 595,-634"/>
<text text-anchor="middle" x="615.5" y="-653.3" font-family="Times,serif" font-size="14.00">811174P</text>
<polyline fill="none" stroke="black" points="648,-634 648,-680"/>
<text text-anchor="middle" x="752.5" y="-653.3" font-family="Times,serif" font-size="14.00">Ohjelmistoliiketoiminnan perusteet</text>
<polyline fill="none" stroke="black" points="857,-634 857,-680"/>
<text text-anchor="middle" x="868.5" y="-664.8" font-family="Times,serif" font-size="14.00">1</text>
<polyline fill="none" stroke="black" points="857,-657 880,-657"/>
<text text-anchor="middle" x="868.5" y="-641.8" font-family="Times,serif" font-size="14.00">3</text>
</g>
<!-- c810136P&#45;&gt;c811174P -->
<g id="edge5" class="edge">
<title>c810136P&#45;&gt;c811174P</title>
<path fill="none" stroke="black" d="M389.67,-657C389.67,-657 572.74,-657 572.74,-657"/>
<polygon fill="black" stroke="black" points="572.74,-660.5 582.74,-657 572.74,-653.5 572.74,-660.5"/>
</g>
<!-- c811103P -->
<g id="node14" class="node">
<title>c811103P</title>
<path fill="#caff70" stroke="black" d="M608,-444C608,-444 855,-444 855,-444 861,-444 867,-450 867,-456 867,-456 867,-478 867,-478 867,-484 861,-490 855,-490 855,-490 608,-490 608,-490 602,-490 596,-484 596,-478 596,-478 596,-456 596,-456 596,-450 602,-444 608,-444"/>
<text text-anchor="middle" x="628.5" y="-463.3" font-family="Times,serif" font-size="14.00">811103P</text>
<polyline fill="none" stroke="black" points="661,-444 661,-490"/>
<text text-anchor="middle" x="752.5" y="-463.3" font-family="Times,serif" font-size="14.00">Johdatus ohjelmistotuotantoon</text>
<polyline fill="none" stroke="black" points="844,-444 844,-490"/>
<text text-anchor="middle" x="855.5" y="-474.8" font-family="Times,serif" font-size="14.00">1</text>
<polyline fill="none" stroke="black" points="844,-467 867,-467"/>
<text text-anchor="middle" x="855.5" y="-451.8" font-family="Times,serif" font-size="14.00">2</text>
</g>
<!-- c810136P&#45;&gt;c811103P -->
<g id="edge2" class="edge">
<title>c810136P&#45;&gt;c811103P</title>
<path fill="none" stroke="black" d="M379,-633.7C379,-582.97 379,-467 379,-467 379,-467 585.97,-467 585.97,-467"/>
<polygon fill="black" stroke="black" points="585.97,-470.5 595.97,-467 585.97,-463.5 585.97,-470.5"/>
</g>
<!-- c810136P&#45;&gt;c811383A -->
<g id="edge26" class="edge">
<title>c810136P&#45;&gt;c811383A</title>
<path fill="none" stroke="black" d="M385,-633.73C385,-615.96 385,-594.5 385,-594.5 385,-594.5 3237,-594.5 3237,-594.5 3237,-594.5 3237,-81.13 3237,-81.13"/>
<polygon fill="black" stroke="black" points="3240.5,-81.13 3237,-71.13 3233.5,-81.13 3240.5,-81.13"/>
</g>
<!-- c811102P -->
<g id="node11" class="node">
<title>c811102P</title>
<path fill="yellow" stroke="black" d="M146.5,-699C146.5,-699 344.5,-699 344.5,-699 350.5,-699 356.5,-705 356.5,-711 356.5,-711 356.5,-733 356.5,-733 356.5,-739 350.5,-745 344.5,-745 344.5,-745 146.5,-745 146.5,-745 140.5,-745 134.5,-739 134.5,-733 134.5,-733 134.5,-711 134.5,-711 134.5,-705 140.5,-699 146.5,-699"/>
<text text-anchor="middle" x="167" y="-718.3" font-family="Times,serif" font-size="14.00">811102P</text>
<polyline fill="none" stroke="black" points="199.5,-699 199.5,-745"/>
<text text-anchor="middle" x="266.5" y="-718.3" font-family="Times,serif" font-size="14.00">Laitteet ja tietoverkot</text>
<polyline fill="none" stroke="black" points="333.5,-699 333.5,-745"/>
<text text-anchor="middle" x="345" y="-729.8" font-family="Times,serif" font-size="14.00">1</text>
<polyline fill="none" stroke="black" points="333.5,-722 356.5,-722"/>
<text text-anchor="middle" x="345" y="-706.8" font-family="Times,serif" font-size="14.00">1</text>
</g>
<!-- c811102P&#45;&gt;c811168P -->
<g id="edge4" class="edge">
<title>c811102P&#45;&gt;c811168P</title>
<path fill="none" stroke="black" d="M356.69,-729.83C356.69,-729.83 640.74,-729.83 640.74,-729.83"/>
<polygon fill="black" stroke="black" points="640.74,-733.33 650.74,-729.83 640.74,-726.33 640.74,-733.33"/>
</g>
<!-- c811104P -->
<g id="node12" class="node">
<title>c811104P</title>
<path fill="#ffd700" stroke="black" d="M161,-539C161,-539 330,-539 330,-539 336,-539 342,-545 342,-551 342,-551 342,-573 342,-573 342,-579 336,-585 330,-585 330,-585 161,-585 161,-585 155,-585 149,-579 149,-573 149,-573 149,-551 149,-551 149,-545 155,-539 161,-539"/>
<text text-anchor="middle" x="181.5" y="-558.3" font-family="Times,serif" font-size="14.00">811104P</text>
<polyline fill="none" stroke="black" points="214,-539 214,-585"/>
<text text-anchor="middle" x="260.5" y="-558.3" font-family="Times,serif" font-size="14.00">Ohjelmointi 1</text>
<polyline fill="none" stroke="black" points="307,-539 307,-585"/>
<text text-anchor="middle" x="324.5" y="-569.8" font-family="Times,serif" font-size="14.00">1</text>
<polyline fill="none" stroke="black" points="307,-562 342,-562"/>
<text text-anchor="middle" x="324.5" y="-546.8" font-family="Times,serif" font-size="14.00">1&#45;2</text>
</g>
<!-- c811322A -->
<g id="node13" class="node">
<title>c811322A</title>
<path fill="#ffd700" stroke="black" d="M646,-539C646,-539 817,-539 817,-539 823,-539 829,-545 829,-551 829,-551 829,-573 829,-573 829,-579 823,-585 817,-585 817,-585 646,-585 646,-585 640,-585 634,-579 634,-573 634,-573 634,-551 634,-551 634,-545 640,-539 646,-539"/>
<text text-anchor="middle" x="667.5" y="-558.3" font-family="Times,serif" font-size="14.00">811322A</text>
<polyline fill="none" stroke="black" points="701,-539 701,-585"/>
<text text-anchor="middle" x="747.5" y="-558.3" font-family="Times,serif" font-size="14.00">Ohjelmointi 2</text>
<polyline fill="none" stroke="black" points="794,-539 794,-585"/>
<text text-anchor="middle" x="811.5" y="-569.8" font-family="Times,serif" font-size="14.00">1</text>
<polyline fill="none" stroke="black" points="794,-562 829,-562"/>
<text text-anchor="middle" x="811.5" y="-546.8" font-family="Times,serif" font-size="14.00">3&#45;4</text>
</g>
<!-- c811104P&#45;&gt;c811322A -->
<g id="edge8" class="edge">
<title>c811104P&#45;&gt;c811322A</title>
<path fill="none" stroke="black" d="M342.1,-562C342.1,-562 623.84,-562 623.84,-562"/>
<polygon fill="black" stroke="black" points="623.84,-565.5 633.84,-562 623.84,-558.5 623.84,-565.5"/>
</g>
<!-- c811325A -->
<g id="node18" class="node">
<title>c811325A</title>
<path fill="#ffd700" stroke="black" d="M1729,-669C1729,-669 1876,-669 1876,-669 1882,-669 1888,-675 1888,-681 1888,-681 1888,-703 1888,-703 1888,-709 1882,-715 1876,-715 1876,-715 1729,-715 1729,-715 1723,-715 1717,-709 1717,-703 1717,-703 1717,-681 1717,-681 1717,-675 1723,-669 1729,-669"/>
<text text-anchor="middle" x="1750.5" y="-688.3" font-family="Times,serif" font-size="14.00">811325A</text>
<polyline fill="none" stroke="black" points="1784,-669 1784,-715"/>
<text text-anchor="middle" x="1824.5" y="-688.3" font-family="Times,serif" font-size="14.00">Tietokannat</text>
<polyline fill="none" stroke="black" points="1865,-669 1865,-715"/>
<text text-anchor="middle" x="1876.5" y="-699.8" font-family="Times,serif" font-size="14.00">2</text>
<polyline fill="none" stroke="black" points="1865,-692 1888,-692"/>
<text text-anchor="middle" x="1876.5" y="-676.8" font-family="Times,serif" font-size="14.00">1</text>
</g>
<!-- c811322A&#45;&gt;c811325A -->
<g id="edge12" class="edge">
<title>c811322A&#45;&gt;c811325A</title>
<path fill="none" stroke="black" d="M829.08,-576.1C870.32,-576.1 909,-576.1 909,-576.1 909,-576.1 909,-674.5 909,-674.5 909,-674.5 1706.83,-674.5 1706.83,-674.5"/>
<polygon fill="black" stroke="black" points="1706.83,-678 1716.83,-674.5 1706.83,-671 1706.83,-678"/>
</g>
<!-- c811312A -->
<g id="node19" class="node">
<title>c811312A</title>
<path fill="#ffd700" stroke="black" d="M1686.5,-604C1686.5,-604 1918.5,-604 1918.5,-604 1924.5,-604 1930.5,-610 1930.5,-616 1930.5,-616 1930.5,-638 1930.5,-638 1930.5,-644 1924.5,-650 1918.5,-650 1918.5,-650 1686.5,-650 1686.5,-650 1680.5,-650 1674.5,-644 1674.5,-638 1674.5,-638 1674.5,-616 1674.5,-616 1674.5,-610 1680.5,-604 1686.5,-604"/>
<text text-anchor="middle" x="1708" y="-623.3" font-family="Times,serif" font-size="14.00">811312A</text>
<polyline fill="none" stroke="black" points="1741.5,-604 1741.5,-650"/>
<text text-anchor="middle" x="1824.5" y="-623.3" font-family="Times,serif" font-size="14.00">Tietorakenteet ja algoritmit</text>
<polyline fill="none" stroke="black" points="1907.5,-604 1907.5,-650"/>
<text text-anchor="middle" x="1919" y="-634.8" font-family="Times,serif" font-size="14.00">2</text>
<polyline fill="none" stroke="black" points="1907.5,-627 1930.5,-627"/>
<text text-anchor="middle" x="1919" y="-611.8" font-family="Times,serif" font-size="14.00">2</text>
</g>
<!-- c811322A&#45;&gt;c811312A -->
<g id="edge11" class="edge">
<title>c811322A&#45;&gt;c811312A</title>
<path fill="none" stroke="black" d="M829.43,-566.7C1074.18,-566.7 1693,-566.7 1693,-566.7 1693,-566.7 1693,-593.86 1693,-593.86"/>
<polygon fill="black" stroke="black" points="1689.5,-593.86 1693,-603.86 1696.5,-593.86 1689.5,-593.86"/>
</g>
<!-- c811367A -->
<g id="node20" class="node">
<title>c811367A</title>
<path fill="#ffd700" stroke="black" d="M1723,-539C1723,-539 1882,-539 1882,-539 1888,-539 1894,-545 1894,-551 1894,-551 1894,-573 1894,-573 1894,-579 1888,-585 1882,-585 1882,-585 1723,-585 1723,-585 1717,-585 1711,-579 1711,-573 1711,-573 1711,-551 1711,-551 1711,-545 1717,-539 1723,-539"/>
<text text-anchor="middle" x="1744.5" y="-558.3" font-family="Times,serif" font-size="14.00">811367A</text>
<polyline fill="none" stroke="black" points="1778,-539 1778,-585"/>
<text text-anchor="middle" x="1824.5" y="-558.3" font-family="Times,serif" font-size="14.00">Ohjelmointi 3</text>
<polyline fill="none" stroke="black" points="1871,-539 1871,-585"/>
<text text-anchor="middle" x="1882.5" y="-569.8" font-family="Times,serif" font-size="14.00">2</text>
<polyline fill="none" stroke="black" points="1871,-562 1894,-562"/>
<text text-anchor="middle" x="1882.5" y="-546.8" font-family="Times,serif" font-size="14.00">3</text>
</g>
<!-- c811322A&#45;&gt;c811367A -->
<g id="edge9" class="edge">
<title>c811322A&#45;&gt;c811367A</title>
<path fill="none" stroke="black" d="M829.38,-557.3C829.38,-557.3 1700.95,-557.3 1700.95,-557.3"/>
<polygon fill="black" stroke="black" points="1700.95,-560.8 1710.95,-557.3 1700.95,-553.8 1700.95,-560.8"/>
</g>
<!-- c811301A -->
<g id="node22" class="node">
<title>c811301A</title>
<path fill="#caff70" stroke="black" d="M1261,-444C1261,-444 1560,-444 1560,-444 1566,-444 1572,-450 1572,-456 1572,-456 1572,-478 1572,-478 1572,-484 1566,-490 1560,-490 1560,-490 1261,-490 1261,-490 1255,-490 1249,-484 1249,-478 1249,-478 1249,-456 1249,-456 1249,-450 1255,-444 1261,-444"/>
<text text-anchor="middle" x="1282.5" y="-463.3" font-family="Times,serif" font-size="14.00">811301A</text>
<polyline fill="none" stroke="black" points="1316,-444 1316,-490"/>
<text text-anchor="middle" x="1432.5" y="-463.3" font-family="Times,serif" font-size="14.00"> Ohjelmistojen mallinnus ja suunnittelu</text>
<polyline fill="none" stroke="black" points="1549,-444 1549,-490"/>
<text text-anchor="middle" x="1560.5" y="-474.8" font-family="Times,serif" font-size="14.00">2</text>
<polyline fill="none" stroke="black" points="1549,-467 1572,-467"/>
<text text-anchor="middle" x="1560.5" y="-451.8" font-family="Times,serif" font-size="14.00">1</text>
</g>
<!-- c811322A&#45;&gt;c811301A -->
<g id="edge14" class="edge">
<title>c811322A&#45;&gt;c811301A</title>
<path fill="none" stroke="black" d="M829.22,-547.9C1017.25,-547.9 1411,-547.9 1411,-547.9 1411,-547.9 1411,-500.4 1411,-500.4"/>
<polygon fill="black" stroke="black" points="1414.5,-500.4 1411,-490.4 1407.5,-500.4 1414.5,-500.4"/>
</g>
<!-- c811391A -->
<g id="node15" class="node">
<title>c811391A</title>
<path fill="#caff70" stroke="black" d="M1008,-444C1008,-444 1197,-444 1197,-444 1203,-444 1209,-450 1209,-456 1209,-456 1209,-478 1209,-478 1209,-484 1203,-490 1197,-490 1197,-490 1008,-490 1008,-490 1002,-490 996,-484 996,-478 996,-478 996,-456 996,-456 996,-450 1002,-444 1008,-444"/>
<text text-anchor="middle" x="1029.5" y="-463.3" font-family="Times,serif" font-size="14.00">811391A</text>
<polyline fill="none" stroke="black" points="1063,-444 1063,-490"/>
<text text-anchor="middle" x="1124.5" y="-463.3" font-family="Times,serif" font-size="14.00">Vaatimusmäärittely</text>
<polyline fill="none" stroke="black" points="1186,-444 1186,-490"/>
<text text-anchor="middle" x="1197.5" y="-474.8" font-family="Times,serif" font-size="14.00">1</text>
<polyline fill="none" stroke="black" points="1186,-467 1209,-467"/>
<text text-anchor="middle" x="1197.5" y="-451.8" font-family="Times,serif" font-size="14.00">4</text>
</g>
<!-- c811103P&#45;&gt;c811391A -->
<g id="edge6" class="edge">
<title>c811103P&#45;&gt;c811391A</title>
<path fill="none" stroke="black" d="M867.01,-467C867.01,-467 985.81,-467 985.81,-467"/>
<polygon fill="black" stroke="black" points="985.81,-470.5 995.81,-467 985.81,-463.5 985.81,-470.5"/>
</g>
<!-- c811391A&#45;&gt;c811301A -->
<g id="edge13" class="edge">
<title>c811391A&#45;&gt;c811301A</title>
<path fill="none" stroke="black" d="M1209.36,-467C1209.36,-467 1238.98,-467 1238.98,-467"/>
<polygon fill="black" stroke="black" points="1238.98,-470.5 1248.98,-467 1238.98,-463.5 1238.98,-470.5"/>
</g>
<!-- c811166P -->
<g id="node16" class="node">
<title>c811166P</title>
<path fill="antiquewhite" stroke="black" d="M129.5,-349C129.5,-349 361.5,-349 361.5,-349 367.5,-349 373.5,-355 373.5,-361 373.5,-361 373.5,-383 373.5,-383 373.5,-389 367.5,-395 361.5,-395 361.5,-395 129.5,-395 129.5,-395 123.5,-395 117.5,-389 117.5,-383 117.5,-383 117.5,-361 117.5,-361 117.5,-355 123.5,-349 129.5,-349"/>
<text text-anchor="middle" x="150" y="-368.3" font-family="Times,serif" font-size="14.00">811166P</text>
<polyline fill="none" stroke="black" points="182.5,-349 182.5,-395"/>
<text text-anchor="middle" x="266.5" y="-368.3" font-family="Times,serif" font-size="14.00">Tietojärjestelmien perusteet</text>
<polyline fill="none" stroke="black" points="350.5,-349 350.5,-395"/>
<text text-anchor="middle" x="362" y="-379.8" font-family="Times,serif" font-size="14.00">1</text>
<polyline fill="none" stroke="black" points="350.5,-372 373.5,-372"/>
<text text-anchor="middle" x="362" y="-356.8" font-family="Times,serif" font-size="14.00">2</text>
</g>
<!-- c812360A -->
<g id="node17" class="node">
<title>c812360A</title>
<path fill="antiquewhite" stroke="black" d="M537,-349C537,-349 926,-349 926,-349 932,-349 938,-355 938,-361 938,-361 938,-383 938,-383 938,-389 932,-395 926,-395 926,-395 537,-395 537,-395 531,-395 525,-389 525,-383 525,-383 525,-361 525,-361 525,-355 531,-349 537,-349"/>
<text text-anchor="middle" x="558.5" y="-368.3" font-family="Times,serif" font-size="14.00">812360A</text>
<polyline fill="none" stroke="black" points="592,-349 592,-395"/>
<text text-anchor="middle" x="753.5" y="-368.3" font-family="Times,serif" font-size="14.00">Tietojärjestelmien mallintaminen, suunnittelu ja kehitys</text>
<polyline fill="none" stroke="black" points="915,-349 915,-395"/>
<text text-anchor="middle" x="926.5" y="-379.8" font-family="Times,serif" font-size="14.00">1</text>
<polyline fill="none" stroke="black" points="915,-372 938,-372"/>
<text text-anchor="middle" x="926.5" y="-356.8" font-family="Times,serif" font-size="14.00">4</text>
</g>
<!-- c811166P&#45;&gt;c812360A -->
<g id="edge7" class="edge">
<title>c811166P&#45;&gt;c812360A</title>
<path fill="none" stroke="black" d="M373.51,-372C373.51,-372 514.56,-372 514.56,-372"/>
<polygon fill="black" stroke="black" points="514.56,-375.5 524.56,-372 514.56,-368.5 514.56,-375.5"/>
</g>
<!-- c812363A -->
<g id="node26" class="node">
<title>c812363A</title>
<path fill="antiquewhite" stroke="black" d="M1296.5,-349C1296.5,-349 1524.5,-349 1524.5,-349 1530.5,-349 1536.5,-355 1536.5,-361 1536.5,-361 1536.5,-383 1536.5,-383 1536.5,-389 1530.5,-395 1524.5,-395 1524.5,-395 1296.5,-395 1296.5,-395 1290.5,-395 1284.5,-389 1284.5,-383 1284.5,-383 1284.5,-361 1284.5,-361 1284.5,-355 1290.5,-349 1296.5,-349"/>
<text text-anchor="middle" x="1318" y="-368.3" font-family="Times,serif" font-size="14.00">812363A</text>
<polyline fill="none" stroke="black" points="1351.5,-349 1351.5,-395"/>
<text text-anchor="middle" x="1432.5" y="-368.3" font-family="Times,serif" font-size="14.00">Ihmislähtöinen suunnittelu</text>
<polyline fill="none" stroke="black" points="1513.5,-349 1513.5,-395"/>
<text text-anchor="middle" x="1525" y="-379.8" font-family="Times,serif" font-size="14.00">2</text>
<polyline fill="none" stroke="black" points="1513.5,-372 1536.5,-372"/>
<text text-anchor="middle" x="1525" y="-356.8" font-family="Times,serif" font-size="14.00">1</text>
</g>
<!-- c812360A&#45;&gt;c812363A -->
<g id="edge19" class="edge">
<title>c812360A&#45;&gt;c812363A</title>
<path fill="none" stroke="black" d="M938.45,-372C938.45,-372 1274.27,-372 1274.27,-372"/>
<polygon fill="black" stroke="black" points="1274.27,-375.5 1284.27,-372 1274.27,-368.5 1274.27,-375.5"/>
</g>
<!-- c811319A -->
<g id="node24" class="node">
<title>c811319A</title>
<path fill="#caff70" stroke="black" d="M2109,-444C2109,-444 2356,-444 2356,-444 2362,-444 2368,-450 2368,-456 2368,-456 2368,-478 2368,-478 2368,-484 2362,-490 2356,-490 2356,-490 2109,-490 2109,-490 2103,-490 2097,-484 2097,-478 2097,-478 2097,-456 2097,-456 2097,-450 2103,-444 2109,-444"/>
<text text-anchor="middle" x="2130.5" y="-463.3" font-family="Times,serif" font-size="14.00">811319A</text>
<polyline fill="none" stroke="black" points="2164,-444 2164,-490"/>
<text text-anchor="middle" x="2254.5" y="-463.3" font-family="Times,serif" font-size="14.00">Tietomallinnus ja &#45;suunnittelu</text>
<polyline fill="none" stroke="black" points="2345,-444 2345,-490"/>
<text text-anchor="middle" x="2356.5" y="-474.8" font-family="Times,serif" font-size="14.00">2</text>
<polyline fill="none" stroke="black" points="2345,-467 2368,-467"/>
<text text-anchor="middle" x="2356.5" y="-451.8" font-family="Times,serif" font-size="14.00">3</text>
</g>
<!-- c811325A&#45;&gt;c811319A -->
<g id="edge17" class="edge">
<title>c811325A&#45;&gt;c811319A</title>
<path fill="none" stroke="black" d="M1888.15,-692C1981.88,-692 2119,-692 2119,-692 2119,-692 2119,-500.23 2119,-500.23"/>
<polygon fill="black" stroke="black" points="2122.5,-500.23 2119,-490.23 2115.5,-500.23 2122.5,-500.23"/>
</g>
<!-- c811368A -->
<g id="node21" class="node">
<title>c811368A</title>
<path fill="#ffd700" stroke="black" d="M2153,-539C2153,-539 2312,-539 2312,-539 2318,-539 2324,-545 2324,-551 2324,-551 2324,-573 2324,-573 2324,-579 2318,-585 2312,-585 2312,-585 2153,-585 2153,-585 2147,-585 2141,-579 2141,-573 2141,-573 2141,-551 2141,-551 2141,-545 2147,-539 2153,-539"/>
<text text-anchor="middle" x="2174.5" y="-558.3" font-family="Times,serif" font-size="14.00">811368A</text>
<polyline fill="none" stroke="black" points="2208,-539 2208,-585"/>
<text text-anchor="middle" x="2254.5" y="-558.3" font-family="Times,serif" font-size="14.00">Ohjelmointi 4</text>
<polyline fill="none" stroke="black" points="2301,-539 2301,-585"/>
<text text-anchor="middle" x="2312.5" y="-569.8" font-family="Times,serif" font-size="14.00">2</text>
<polyline fill="none" stroke="black" points="2301,-562 2324,-562"/>
<text text-anchor="middle" x="2312.5" y="-546.8" font-family="Times,serif" font-size="14.00">4</text>
</g>
<!-- c811367A&#45;&gt;c811368A -->
<g id="edge10" class="edge">
<title>c811367A&#45;&gt;c811368A</title>
<path fill="none" stroke="black" d="M1894.22,-562C1894.22,-562 2130.92,-562 2130.92,-562"/>
<polygon fill="black" stroke="black" points="2130.92,-565.5 2140.92,-562 2130.92,-558.5 2130.92,-565.5"/>
</g>
<!-- c811398A -->
<g id="node32" class="node">
<title>c811398A</title>
<path fill="azure" stroke="black" d="M2845.5,-90C2845.5,-90 3045.5,-90 3045.5,-90 3051.5,-90 3057.5,-96 3057.5,-102 3057.5,-102 3057.5,-124 3057.5,-124 3057.5,-130 3051.5,-136 3045.5,-136 3045.5,-136 2845.5,-136 2845.5,-136 2839.5,-136 2833.5,-130 2833.5,-124 2833.5,-124 2833.5,-102 2833.5,-102 2833.5,-96 2839.5,-90 2845.5,-90"/>
<text text-anchor="middle" x="2867" y="-109.3" font-family="Times,serif" font-size="14.00">811398A</text>
<polyline fill="none" stroke="black" points="2900.5,-90 2900.5,-136"/>
<text text-anchor="middle" x="2961.5" y="-109.3" font-family="Times,serif" font-size="14.00">Kandidaattiprojekti</text>
<polyline fill="none" stroke="black" points="3022.5,-90 3022.5,-136"/>
<text text-anchor="middle" x="3040" y="-120.8" font-family="Times,serif" font-size="14.00">3</text>
<polyline fill="none" stroke="black" points="3022.5,-113 3057.5,-113"/>
<text text-anchor="middle" x="3040" y="-97.8" font-family="Times,serif" font-size="14.00">3&#45;4</text>
</g>
<!-- c811368A&#45;&gt;c811398A -->
<g id="edge31" class="edge">
<title>c811368A&#45;&gt;c811398A</title>
<path fill="none" stroke="black" d="M2324.33,-562C2530.65,-562 3013,-562 3013,-562 3013,-562 3013,-146.19 3013,-146.19"/>
<polygon fill="black" stroke="black" points="3016.5,-146.19 3013,-136.19 3009.5,-146.19 3016.5,-146.19"/>
</g>
<!-- c811306A -->
<g id="node23" class="node">
<title>c811306A</title>
<path fill="#caff70" stroke="black" d="M1680.5,-444C1680.5,-444 1924.5,-444 1924.5,-444 1930.5,-444 1936.5,-450 1936.5,-456 1936.5,-456 1936.5,-478 1936.5,-478 1936.5,-484 1930.5,-490 1924.5,-490 1924.5,-490 1680.5,-490 1680.5,-490 1674.5,-490 1668.5,-484 1668.5,-478 1668.5,-478 1668.5,-456 1668.5,-456 1668.5,-450 1674.5,-444 1680.5,-444"/>
<text text-anchor="middle" x="1702" y="-463.3" font-family="Times,serif" font-size="14.00">811306A</text>
<polyline fill="none" stroke="black" points="1735.5,-444 1735.5,-490"/>
<text text-anchor="middle" x="1824.5" y="-463.3" font-family="Times,serif" font-size="14.00">Ohjelmistojen laatu ja testaus</text>
<polyline fill="none" stroke="black" points="1913.5,-444 1913.5,-490"/>
<text text-anchor="middle" x="1925" y="-474.8" font-family="Times,serif" font-size="14.00">2</text>
<polyline fill="none" stroke="black" points="1913.5,-467 1936.5,-467"/>
<text text-anchor="middle" x="1925" y="-451.8" font-family="Times,serif" font-size="14.00">2</text>
</g>
<!-- c811301A&#45;&gt;c811306A -->
<g id="edge15" class="edge">
<title>c811301A&#45;&gt;c811306A</title>
<path fill="none" stroke="black" d="M1572.2,-467C1572.2,-467 1658.28,-467 1658.28,-467"/>
<polygon fill="black" stroke="black" points="1658.28,-470.5 1668.28,-467 1658.28,-463.5 1658.28,-470.5"/>
</g>
<!-- c811306A&#45;&gt;c811319A -->
<g id="edge16" class="edge">
<title>c811306A&#45;&gt;c811319A</title>
<path fill="none" stroke="black" d="M1936.79,-467C1936.79,-467 2086.64,-467 2086.64,-467"/>
<polygon fill="black" stroke="black" points="2086.64,-470.5 2096.64,-467 2086.64,-463.5 2086.64,-470.5"/>
</g>
<!-- c815345A -->
<g id="node25" class="node">
<title>c815345A</title>
<path fill="#caff70" stroke="black" d="M2519.5,-444C2519.5,-444 2736.5,-444 2736.5,-444 2742.5,-444 2748.5,-450 2748.5,-456 2748.5,-456 2748.5,-478 2748.5,-478 2748.5,-484 2742.5,-490 2736.5,-490 2736.5,-490 2519.5,-490 2519.5,-490 2513.5,-490 2507.5,-484 2507.5,-478 2507.5,-478 2507.5,-456 2507.5,-456 2507.5,-450 2513.5,-444 2519.5,-444"/>
<text text-anchor="middle" x="2541" y="-463.3" font-family="Times,serif" font-size="14.00">815345A</text>
<polyline fill="none" stroke="black" points="2574.5,-444 2574.5,-490"/>
<text text-anchor="middle" x="2650" y="-463.3" font-family="Times,serif" font-size="14.00">Ohjelmistoarkkitehtuurit</text>
<polyline fill="none" stroke="black" points="2725.5,-444 2725.5,-490"/>
<text text-anchor="middle" x="2737" y="-474.8" font-family="Times,serif" font-size="14.00">2</text>
<polyline fill="none" stroke="black" points="2725.5,-467 2748.5,-467"/>
<text text-anchor="middle" x="2737" y="-451.8" font-family="Times,serif" font-size="14.00">4</text>
</g>
<!-- c811319A&#45;&gt;c815345A -->
<g id="edge18" class="edge">
<title>c811319A&#45;&gt;c815345A</title>
<path fill="none" stroke="black" d="M2368.06,-467C2368.06,-467 2497.19,-467 2497.19,-467"/>
<polygon fill="black" stroke="black" points="2497.19,-470.5 2507.19,-467 2497.19,-463.5 2497.19,-470.5"/>
</g>
<!-- c815345A&#45;&gt;c811398A -->
<g id="edge30" class="edge">
<title>c815345A&#45;&gt;c811398A</title>
<path fill="none" stroke="black" d="M2748.83,-467C2846.55,-467 2968,-467 2968,-467 2968,-467 2968,-146.23 2968,-146.23"/>
<polygon fill="black" stroke="black" points="2971.5,-146.23 2968,-136.23 2964.5,-146.23 2971.5,-146.23"/>
</g>
<!-- c812361A -->
<g id="node27" class="node">
<title>c812361A</title>
<path fill="antiquewhite" stroke="black" d="M1620,-349C1620,-349 1985,-349 1985,-349 1991,-349 1997,-355 1997,-361 1997,-361 1997,-383 1997,-383 1997,-389 1991,-395 1985,-395 1985,-395 1620,-395 1620,-395 1614,-395 1608,-389 1608,-383 1608,-383 1608,-361 1608,-361 1608,-355 1614,-349 1620,-349"/>
<text text-anchor="middle" x="1641.5" y="-368.3" font-family="Times,serif" font-size="14.00">812361A</text>
<polyline fill="none" stroke="black" points="1675,-349 1675,-395"/>
<text text-anchor="middle" x="1824.5" y="-368.3" font-family="Times,serif" font-size="14.00">Tietojärjestelmien hankinta, käyttöönotto ja hallinta</text>
<polyline fill="none" stroke="black" points="1974,-349 1974,-395"/>
<text text-anchor="middle" x="1985.5" y="-379.8" font-family="Times,serif" font-size="14.00">2</text>
<polyline fill="none" stroke="black" points="1974,-372 1997,-372"/>
<text text-anchor="middle" x="1985.5" y="-356.8" font-family="Times,serif" font-size="14.00">2</text>
</g>
<!-- c812363A&#45;&gt;c812361A -->
<g id="edge20" class="edge">
<title>c812363A&#45;&gt;c812361A</title>
<path fill="none" stroke="black" d="M1536.69,-372C1536.69,-372 1597.7,-372 1597.7,-372"/>
<polygon fill="black" stroke="black" points="1597.7,-375.5 1607.7,-372 1597.7,-368.5 1597.7,-375.5"/>
</g>
<!-- c812362A -->
<g id="node28" class="node">
<title>c812362A</title>
<path fill="antiquewhite" stroke="black" d="M2045,-349C2045,-349 2420,-349 2420,-349 2426,-349 2432,-355 2432,-361 2432,-361 2432,-383 2432,-383 2432,-389 2426,-395 2420,-395 2420,-395 2045,-395 2045,-395 2039,-395 2033,-389 2033,-383 2033,-383 2033,-361 2033,-361 2033,-355 2039,-349 2045,-349"/>
<text text-anchor="middle" x="2066.5" y="-368.3" font-family="Times,serif" font-size="14.00">812362A</text>
<polyline fill="none" stroke="black" points="2100,-349 2100,-395"/>
<text text-anchor="middle" x="2254.5" y="-368.3" font-family="Times,serif" font-size="14.00">Liiketoimintaprosessien johtaminen ja mallintaminen</text>
<polyline fill="none" stroke="black" points="2409,-349 2409,-395"/>
<text text-anchor="middle" x="2420.5" y="-379.8" font-family="Times,serif" font-size="14.00">2</text>
<polyline fill="none" stroke="black" points="2409,-372 2432,-372"/>
<text text-anchor="middle" x="2420.5" y="-356.8" font-family="Times,serif" font-size="14.00">3</text>
</g>
<!-- c812361A&#45;&gt;c812362A -->
<g id="edge21" class="edge">
<title>c812361A&#45;&gt;c812362A</title>
<path fill="none" stroke="black" d="M1997.06,-372C1997.06,-372 2022.85,-372 2022.85,-372"/>
<polygon fill="black" stroke="black" points="2022.86,-375.5 2032.85,-372 2022.85,-368.5 2022.86,-375.5"/>
</g>
<!-- c812364A -->
<g id="node31" class="node">
<title>c812364A</title>
<path fill="antiquewhite" stroke="black" d="M2480,-25C2480,-25 2776,-25 2776,-25 2782,-25 2788,-31 2788,-37 2788,-37 2788,-59 2788,-59 2788,-65 2782,-71 2776,-71 2776,-71 2480,-71 2480,-71 2474,-71 2468,-65 2468,-59 2468,-59 2468,-37 2468,-37 2468,-31 2474,-25 2480,-25"/>
<text text-anchor="middle" x="2501.5" y="-44.3" font-family="Times,serif" font-size="14.00">812364A</text>
<polyline fill="none" stroke="black" points="2535,-25 2535,-71"/>
<text text-anchor="middle" x="2650" y="-44.3" font-family="Times,serif" font-size="14.00">Data&#45;analytiikka liiketoiminnan tukena</text>
<polyline fill="none" stroke="black" points="2765,-25 2765,-71"/>
<text text-anchor="middle" x="2776.5" y="-55.8" font-family="Times,serif" font-size="14.00">3</text>
<polyline fill="none" stroke="black" points="2765,-48 2788,-48"/>
<text text-anchor="middle" x="2776.5" y="-32.8" font-family="Times,serif" font-size="14.00">4</text>
</g>
<!-- c812362A&#45;&gt;c812364A -->
<g id="edge22" class="edge">
<title>c812362A&#45;&gt;c812364A</title>
<path fill="none" stroke="black" d="M2432.19,-364.17C2458.18,-364.17 2476,-364.17 2476,-364.17 2476,-364.17 2476,-81.25 2476,-81.25"/>
<polygon fill="black" stroke="black" points="2479.5,-81.25 2476,-71.25 2472.5,-81.25 2479.5,-81.25"/>
</g>
<!-- c812362A&#45;&gt;c811398A -->
<g id="edge32" class="edge">
<title>c812362A&#45;&gt;c811398A</title>
<path fill="none" stroke="black" d="M2432.05,-379.83C2636.3,-379.83 2924,-379.83 2924,-379.83 2924,-379.83 2924,-146.21 2924,-146.21"/>
<polygon fill="black" stroke="black" points="2927.5,-146.21 2924,-136.21 2920.5,-146.21 2927.5,-146.21"/>
</g>
<!-- c811397A -->
<g id="node29" class="node">
<title>c811397A</title>
<path fill="azure" stroke="black" d="M1294,-254C1294,-254 1527,-254 1527,-254 1533,-254 1539,-260 1539,-266 1539,-266 1539,-288 1539,-288 1539,-294 1533,-300 1527,-300 1527,-300 1294,-300 1294,-300 1288,-300 1282,-294 1282,-288 1282,-288 1282,-266 1282,-266 1282,-260 1288,-254 1294,-254"/>
<text text-anchor="middle" x="1315.5" y="-273.3" font-family="Times,serif" font-size="14.00">811397A</text>
<polyline fill="none" stroke="black" points="1349,-254 1349,-300"/>
<text text-anchor="middle" x="1432.5" y="-273.3" font-family="Times,serif" font-size="14.00">Projektitoiminnan perusteet</text>
<polyline fill="none" stroke="black" points="1516,-254 1516,-300"/>
<text text-anchor="middle" x="1527.5" y="-284.8" font-family="Times,serif" font-size="14.00">2</text>
<polyline fill="none" stroke="black" points="1516,-277 1539,-277"/>
<text text-anchor="middle" x="1527.5" y="-261.8" font-family="Times,serif" font-size="14.00">4</text>
</g>
<!-- c811397A&#45;&gt;c811398A -->
<g id="edge29" class="edge">
<title>c811397A&#45;&gt;c811398A</title>
<path fill="none" stroke="black" d="M1539.21,-277C1897.29,-277 2879,-277 2879,-277 2879,-277 2879,-146.15 2879,-146.15"/>
<polygon fill="black" stroke="black" points="2882.5,-146.15 2879,-136.15 2875.5,-146.15 2882.5,-146.15"/>
</g>
<!-- c900105Y -->
<g id="node30" class="node">
<title>c900105Y</title>
<path fill="gainsboro" stroke="black" d="M2496,-120C2496,-120 2760,-120 2760,-120 2766,-120 2772,-126 2772,-132 2772,-132 2772,-154 2772,-154 2772,-160 2766,-166 2760,-166 2760,-166 2496,-166 2496,-166 2490,-166 2484,-160 2484,-154 2484,-154 2484,-132 2484,-132 2484,-126 2490,-120 2496,-120"/>
<text text-anchor="middle" x="2517.5" y="-139.3" font-family="Times,serif" font-size="14.00">900105Y</text>
<polyline fill="none" stroke="black" points="2551,-120 2551,-166"/>
<text text-anchor="middle" x="2650" y="-139.3" font-family="Times,serif" font-size="14.00">Suuntaa uralle viestinnän keinoin</text>
<polyline fill="none" stroke="black" points="2749,-120 2749,-166"/>
<text text-anchor="middle" x="2760.5" y="-150.8" font-family="Times,serif" font-size="14.00">3</text>
<polyline fill="none" stroke="black" points="2749,-143 2772,-143"/>
<text text-anchor="middle" x="2760.5" y="-127.8" font-family="Times,serif" font-size="14.00">3</text>
</g>
<!-- c900105Y&#45;&gt;c811393A -->
<g id="edge28" class="edge">
<title>c900105Y&#45;&gt;c811393A</title>
<path fill="none" stroke="black" d="M2772.02,-128C2803.69,-128 2828,-128 2828,-128 2828,-128 2828,-81.14 2828,-81.14"/>
<polygon fill="black" stroke="black" points="2831.5,-81.14 2828,-71.14 2824.5,-81.14 2831.5,-81.14"/>
</g>
<!-- c811393A&#45;&gt;c811383A -->
<g id="edge25" class="edge">
<title>c811393A&#45;&gt;c811383A</title>
<path fill="none" stroke="black" d="M3067.09,-48C3067.09,-48 3092.86,-48 3092.86,-48"/>
<polygon fill="black" stroke="black" points="3092.86,-51.5 3102.86,-48 3092.86,-44.5 3092.86,-51.5"/>
</g>
<!-- c813307A -->
<g id="node35" class="node">
<title>c813307A</title>
<path fill="azure" stroke="black" d="M3351,-25C3351,-25 3510,-25 3510,-25 3516,-25 3522,-31 3522,-37 3522,-37 3522,-59 3522,-59 3522,-65 3516,-71 3510,-71 3510,-71 3351,-71 3351,-71 3345,-71 3339,-65 3339,-59 3339,-59 3339,-37 3339,-37 3339,-31 3345,-25 3351,-25"/>
<text text-anchor="middle" x="3372.5" y="-44.3" font-family="Times,serif" font-size="14.00">813307A</text>
<polyline fill="none" stroke="black" points="3406,-25 3406,-71"/>
<text text-anchor="middle" x="3452.5" y="-44.3" font-family="Times,serif" font-size="14.00">Kypsyysnäyte</text>
<polyline fill="none" stroke="black" points="3499,-25 3499,-71"/>
<text text-anchor="middle" x="3510.5" y="-55.8" font-family="Times,serif" font-size="14.00">3</text>
<polyline fill="none" stroke="black" points="3499,-48 3522,-48"/>
<text text-anchor="middle" x="3510.5" y="-32.8" font-family="Times,serif" font-size="14.00">4</text>
</g>
<!-- c811383A&#45;&gt;c813307A -->
<g id="edge27" class="edge">
<title>c811383A&#45;&gt;c813307A</title>
<path fill="none" stroke="black" d="M3303.12,-48C3303.12,-48 3328.95,-48 3328.95,-48"/>
<polygon fill="black" stroke="black" points="3328.95,-51.5 3338.95,-48 3328.95,-44.5 3328.95,-51.5"/>
</g>
</g>
</svg>
