<?xml version="1.0" encoding="UTF-8" standalone="no"?>
<!DOCTYPE svg PUBLIC "-//W3C//DTD SVG 1.1//EN"
 "http://www.w3.org/Graphics/SVG/1.1/DTD/svg11.dtd">
<!-- Generated by graphviz version 2.46.0 (20210118.1747)
 -->
<!-- Title: TOLLuK Pages: 1 -->
<svg width="3257pt" height="994pt"
 viewBox="0.00 0.00 3257.00 994.00" xmlns="http://www.w3.org/2000/svg" xmlns:xlink="http://www.w3.org/1999/xlink">
<g id="graph0" class="graph" transform="scale(1 1) rotate(0) translate(4 990)">
<title>TOLLuK</title>
<polygon fill="white" stroke="transparent" points="-4,4 -4,-990 3253,-990 3253,4 -4,4"/>
<g id="clust1" class="cluster">
<title>cluster_Legend</title>
<g id="a_clust1"><a xlink:href="https://github.com/anttijuu/tol-courses-graph" xlink:title="Selite">
<polygon fill="none" stroke="black" stroke-dasharray="1,5" points="26.5,-107 26.5,-194 293.5,-194 293.5,-107 26.5,-107"/>
<text text-anchor="middle" x="160" y="-178.8" font-family="Times,serif" font-size="14.00">Selite</text>
</a>
</g>
</g>
<g id="clust2" class="cluster">
<title>cluster_Yleiset</title>
<polygon fill="none" stroke="black" stroke-dasharray="1,5" points="1710,-631 1710,-978 2662,-978 2662,-631 1710,-631"/>
<text text-anchor="middle" x="2186" y="-962.8" font-family="Times,serif" font-size="14.00">Yleiset ja kieliopinnot</text>
</g>
<g id="clust3" class="cluster">
<title>cluster_Johdanto</title>
<polygon fill="none" stroke="black" stroke-dasharray="1,5" points="8,-302 8,-509 645,-509 645,-302 8,-302"/>
<text text-anchor="middle" x="326.5" y="-493.8" font-family="Times,serif" font-size="14.00">Johdanto</text>
</g>
<g id="clust4" class="cluster">
<title>cluster_Ohjelmointi</title>
<polygon fill="none" stroke="black" stroke-dasharray="1,5" points="384,-103 384,-190 2525,-190 2525,-103 384,-103"/>
<text text-anchor="middle" x="1454.5" y="-174.8" font-family="Times,serif" font-size="14.00">Ohjelmointi</text>
</g>
<g id="clust5" class="cluster">
<title>cluster_Ohjelmistokehitys</title>
<polygon fill="none" stroke="black" stroke-dasharray="1,5" points="345,-207 345,-294 2554,-294 2554,-207 345,-207"/>
<text text-anchor="middle" x="1449.5" y="-278.8" font-family="Times,serif" font-size="14.00">Ohjelmistokehitys</text>
</g>
<g id="clust6" class="cluster">
<title>cluster_IhminenOrganisaatio</title>
<polygon fill="none" stroke="black" stroke-dasharray="1,5" points="665,-8 665,-95 3018,-95 3018,-8 665,-8"/>
<text text-anchor="middle" x="1841.5" y="-79.8" font-family="Times,serif" font-size="14.00">Ihminen ja organisaatio</text>
</g>
<g id="clust7" class="cluster">
<title>cluster_Huipennus</title>
<polygon fill="none" stroke="black" stroke-dasharray="1,5" points="2289,-471 2289,-623 3241,-623 3241,-471 2289,-471"/>
<text text-anchor="middle" x="2765" y="-607.8" font-family="Times,serif" font-size="14.00">Huipennus</text>
</g>
<!-- legend -->
<g id="node1" class="node">
<title>legend</title>
<path fill="pink" stroke="black" d="M46.5,-116C46.5,-116 273.5,-116 273.5,-116 279.5,-116 285.5,-122 285.5,-128 285.5,-128 285.5,-150 285.5,-150 285.5,-156 279.5,-162 273.5,-162 273.5,-162 46.5,-162 46.5,-162 40.5,-162 34.5,-156 34.5,-150 34.5,-150 34.5,-128 34.5,-128 34.5,-122 40.5,-116 46.5,-116"/>
<text text-anchor="middle" x="76" y="-135.3" font-family="Times,serif" font-size="14.00">Kurssikoodi</text>
<polyline fill="none" stroke="black" points="117.5,-116 117.5,-162 "/>
<text text-anchor="middle" x="161.5" y="-135.3" font-family="Times,serif" font-size="14.00">Kurssin nimi</text>
<polyline fill="none" stroke="black" points="205.5,-116 205.5,-162 "/>
<text text-anchor="middle" x="245.5" y="-146.8" font-family="Times,serif" font-size="14.00">opintovuosi</text>
<polyline fill="none" stroke="black" points="205.5,-139 285.5,-139 "/>
<text text-anchor="middle" x="245.5" y="-123.8" font-family="Times,serif" font-size="14.00">periodi</text>
</g>
<!-- c902164Y -->
<g id="node2" class="node">
<title>c902164Y</title>
<path fill="gainsboro" stroke="black" d="M1730,-900C1730,-900 2149,-900 2149,-900 2155,-900 2161,-906 2161,-912 2161,-912 2161,-934 2161,-934 2161,-940 2155,-946 2149,-946 2149,-946 1730,-946 1730,-946 1724,-946 1718,-940 1718,-934 1718,-934 1718,-912 1718,-912 1718,-906 1724,-900 1730,-900"/>
<text text-anchor="middle" x="1751.5" y="-919.3" font-family="Times,serif" font-size="14.00">902164Y</text>
<polyline fill="none" stroke="black" points="1785,-900 1785,-946 "/>
<text text-anchor="middle" x="1961.5" y="-919.3" font-family="Times,serif" font-size="14.00">English Communication for Information Processing, Reading</text>
<polyline fill="none" stroke="black" points="2138,-900 2138,-946 "/>
<text text-anchor="middle" x="2149.5" y="-930.8" font-family="Times,serif" font-size="14.00">1</text>
<polyline fill="none" stroke="black" points="2138,-923 2161,-923 "/>
<text text-anchor="middle" x="2149.5" y="-907.8" font-family="Times,serif" font-size="14.00">3</text>
</g>
<!-- c902165Y -->
<g id="node3" class="node">
<title>c902165Y</title>
<path fill="gainsboro" stroke="black" d="M2209,-653C2209,-653 2642,-653 2642,-653 2648,-653 2654,-659 2654,-665 2654,-665 2654,-687 2654,-687 2654,-693 2648,-699 2642,-699 2642,-699 2209,-699 2209,-699 2203,-699 2197,-693 2197,-687 2197,-687 2197,-665 2197,-665 2197,-659 2203,-653 2209,-653"/>
<text text-anchor="middle" x="2230.5" y="-672.3" font-family="Times,serif" font-size="14.00">902165Y</text>
<polyline fill="none" stroke="black" points="2264,-653 2264,-699 "/>
<text text-anchor="middle" x="2447.5" y="-672.3" font-family="Times,serif" font-size="14.00">English Communication for Information Processing, Oral Skills</text>
<polyline fill="none" stroke="black" points="2631,-653 2631,-699 "/>
<text text-anchor="middle" x="2642.5" y="-683.8" font-family="Times,serif" font-size="14.00">1</text>
<polyline fill="none" stroke="black" points="2631,-676 2654,-676 "/>
<text text-anchor="middle" x="2642.5" y="-660.8" font-family="Times,serif" font-size="14.00">4</text>
</g>
<!-- c902164Y&#45;&gt;c902165Y -->
<g id="edge1" class="edge">
<title>c902164Y&#45;&gt;c902165Y</title>
<path fill="none" stroke="black" d="M2137.71,-899.97C2145.68,-897.29 2153.48,-894.31 2161,-891 2260.58,-847.21 2353.31,-755.09 2397.47,-706.89"/>
<polygon fill="black" stroke="black" points="2400.26,-709.02 2404.39,-699.26 2395.08,-704.32 2400.26,-709.02"/>
</g>
<!-- c901048Y -->
<g id="node4" class="node">
<title>c901048Y</title>
<path fill="gainsboro" stroke="black" d="M1753.5,-835C1753.5,-835 2125.5,-835 2125.5,-835 2131.5,-835 2137.5,-841 2137.5,-847 2137.5,-847 2137.5,-869 2137.5,-869 2137.5,-875 2131.5,-881 2125.5,-881 2125.5,-881 1753.5,-881 1753.5,-881 1747.5,-881 1741.5,-875 1741.5,-869 1741.5,-869 1741.5,-847 1741.5,-847 1741.5,-841 1747.5,-835 1753.5,-835"/>
<text text-anchor="middle" x="1775" y="-854.3" font-family="Times,serif" font-size="14.00">901048Y</text>
<polyline fill="none" stroke="black" points="1808.5,-835 1808.5,-881 "/>
<text text-anchor="middle" x="1961.5" y="-854.3" font-family="Times,serif" font-size="14.00">Toinen kotimainen kieli (ruotsi), kirjallinen kielitaito</text>
<polyline fill="none" stroke="black" points="2114.5,-835 2114.5,-881 "/>
<text text-anchor="middle" x="2126" y="-865.8" font-family="Times,serif" font-size="14.00">1</text>
<polyline fill="none" stroke="black" points="2114.5,-858 2137.5,-858 "/>
<text text-anchor="middle" x="2126" y="-842.8" font-family="Times,serif" font-size="14.00">1</text>
</g>
<!-- c901049Y -->
<g id="node5" class="node">
<title>c901049Y</title>
<path fill="gainsboro" stroke="black" d="M1756.5,-770C1756.5,-770 2122.5,-770 2122.5,-770 2128.5,-770 2134.5,-776 2134.5,-782 2134.5,-782 2134.5,-804 2134.5,-804 2134.5,-810 2128.5,-816 2122.5,-816 2122.5,-816 1756.5,-816 1756.5,-816 1750.5,-816 1744.5,-810 1744.5,-804 1744.5,-804 1744.5,-782 1744.5,-782 1744.5,-776 1750.5,-770 1756.5,-770"/>
<text text-anchor="middle" x="1778" y="-789.3" font-family="Times,serif" font-size="14.00">901049Y</text>
<polyline fill="none" stroke="black" points="1811.5,-770 1811.5,-816 "/>
<text text-anchor="middle" x="1961.5" y="-789.3" font-family="Times,serif" font-size="14.00">Toinen kotimainen kieli (ruotsi), suullinen kielitaito</text>
<polyline fill="none" stroke="black" points="2111.5,-770 2111.5,-816 "/>
<text text-anchor="middle" x="2123" y="-800.8" font-family="Times,serif" font-size="14.00">1</text>
<polyline fill="none" stroke="black" points="2111.5,-793 2134.5,-793 "/>
<text text-anchor="middle" x="2123" y="-777.8" font-family="Times,serif" font-size="14.00">2</text>
</g>
<!-- c030005P -->
<g id="node6" class="node">
<title>c030005P</title>
<path fill="gainsboro" stroke="black" d="M1834.5,-705C1834.5,-705 2044.5,-705 2044.5,-705 2050.5,-705 2056.5,-711 2056.5,-717 2056.5,-717 2056.5,-739 2056.5,-739 2056.5,-745 2050.5,-751 2044.5,-751 2044.5,-751 1834.5,-751 1834.5,-751 1828.5,-751 1822.5,-745 1822.5,-739 1822.5,-739 1822.5,-717 1822.5,-717 1822.5,-711 1828.5,-705 1834.5,-705"/>
<text text-anchor="middle" x="1855" y="-724.3" font-family="Times,serif" font-size="14.00">030005P</text>
<polyline fill="none" stroke="black" points="1887.5,-705 1887.5,-751 "/>
<text text-anchor="middle" x="1954.5" y="-724.3" font-family="Times,serif" font-size="14.00">Tiedonhankintakurssi</text>
<polyline fill="none" stroke="black" points="2021.5,-705 2021.5,-751 "/>
<text text-anchor="middle" x="2039" y="-735.8" font-family="Times,serif" font-size="14.00">1</text>
<polyline fill="none" stroke="black" points="2021.5,-728 2056.5,-728 "/>
<text text-anchor="middle" x="2039" y="-712.8" font-family="Times,serif" font-size="14.00">1&#45;2</text>
</g>
<!-- c811393A -->
<g id="node33" class="node">
<title>c811393A</title>
<path fill="azure" stroke="black" d="M2316,-545C2316,-545 2535,-545 2535,-545 2541,-545 2547,-551 2547,-557 2547,-557 2547,-579 2547,-579 2547,-585 2541,-591 2535,-591 2535,-591 2316,-591 2316,-591 2310,-591 2304,-585 2304,-579 2304,-579 2304,-557 2304,-557 2304,-551 2310,-545 2316,-545"/>
<text text-anchor="middle" x="2337.5" y="-564.3" font-family="Times,serif" font-size="14.00">811393A</text>
<polyline fill="none" stroke="black" points="2371,-545 2371,-591 "/>
<text text-anchor="middle" x="2447.5" y="-564.3" font-family="Times,serif" font-size="14.00">Johdatus tutkimustyöhön</text>
<polyline fill="none" stroke="black" points="2524,-545 2524,-591 "/>
<text text-anchor="middle" x="2535.5" y="-575.8" font-family="Times,serif" font-size="14.00">3</text>
<polyline fill="none" stroke="black" points="2524,-568 2547,-568 "/>
<text text-anchor="middle" x="2535.5" y="-552.8" font-family="Times,serif" font-size="14.00">3</text>
</g>
<!-- c030005P&#45;&gt;c811393A -->
<g id="edge23" class="edge">
<title>c030005P&#45;&gt;c811393A</title>
<path fill="none" stroke="black" d="M2056.59,-731.21C2092.73,-727.2 2130.95,-717.32 2161,-696 2189.21,-675.99 2169.93,-648.53 2197,-627 2224.61,-605.04 2259.53,-591.18 2293.66,-582.46"/>
<polygon fill="black" stroke="black" points="2294.84,-585.78 2303.73,-580.03 2293.19,-578.97 2294.84,-585.78"/>
</g>
<!-- c811383A -->
<g id="node34" class="node">
<title>c811383A</title>
<path fill="azure" stroke="black" d="M2760.5,-545C2760.5,-545 2939.5,-545 2939.5,-545 2945.5,-545 2951.5,-551 2951.5,-557 2951.5,-557 2951.5,-579 2951.5,-579 2951.5,-585 2945.5,-591 2939.5,-591 2939.5,-591 2760.5,-591 2760.5,-591 2754.5,-591 2748.5,-585 2748.5,-579 2748.5,-579 2748.5,-557 2748.5,-557 2748.5,-551 2754.5,-545 2760.5,-545"/>
<text text-anchor="middle" x="2782" y="-564.3" font-family="Times,serif" font-size="14.00">811383A</text>
<polyline fill="none" stroke="black" points="2815.5,-545 2815.5,-591 "/>
<text text-anchor="middle" x="2866" y="-564.3" font-family="Times,serif" font-size="14.00"> LuK&#45;tutkielma</text>
<polyline fill="none" stroke="black" points="2916.5,-545 2916.5,-591 "/>
<text text-anchor="middle" x="2934" y="-575.8" font-family="Times,serif" font-size="14.00">3</text>
<polyline fill="none" stroke="black" points="2916.5,-568 2951.5,-568 "/>
<text text-anchor="middle" x="2934" y="-552.8" font-family="Times,serif" font-size="14.00">3&#45;4</text>
</g>
<!-- c030005P&#45;&gt;c811383A -->
<g id="edge26" class="edge">
<title>c030005P&#45;&gt;c811383A</title>
<path fill="none" stroke="black" d="M2056.53,-746.13C2202.41,-764.21 2458.4,-780.15 2662,-709 2726.41,-686.49 2786.73,-632.91 2820.64,-598.66"/>
<polygon fill="black" stroke="black" points="2823.4,-600.84 2827.88,-591.24 2818.39,-595.96 2823.4,-600.84"/>
</g>
<!-- c900105Y -->
<g id="node7" class="node">
<title>c900105Y</title>
<path fill="gainsboro" stroke="black" d="M1807.5,-640C1807.5,-640 2071.5,-640 2071.5,-640 2077.5,-640 2083.5,-646 2083.5,-652 2083.5,-652 2083.5,-674 2083.5,-674 2083.5,-680 2077.5,-686 2071.5,-686 2071.5,-686 1807.5,-686 1807.5,-686 1801.5,-686 1795.5,-680 1795.5,-674 1795.5,-674 1795.5,-652 1795.5,-652 1795.5,-646 1801.5,-640 1807.5,-640"/>
<text text-anchor="middle" x="1829" y="-659.3" font-family="Times,serif" font-size="14.00">900105Y</text>
<polyline fill="none" stroke="black" points="1862.5,-640 1862.5,-686 "/>
<text text-anchor="middle" x="1961.5" y="-659.3" font-family="Times,serif" font-size="14.00">Suuntaa uralle viestinnän keinoin</text>
<polyline fill="none" stroke="black" points="2060.5,-640 2060.5,-686 "/>
<text text-anchor="middle" x="2072" y="-670.8" font-family="Times,serif" font-size="14.00">3</text>
<polyline fill="none" stroke="black" points="2060.5,-663 2083.5,-663 "/>
<text text-anchor="middle" x="2072" y="-647.8" font-family="Times,serif" font-size="14.00">3</text>
</g>
<!-- c900105Y&#45;&gt;c811393A -->
<g id="edge24" class="edge">
<title>c900105Y&#45;&gt;c811393A</title>
<path fill="none" stroke="black" d="M2057.97,-639.94C2130.4,-625.73 2223.29,-607.49 2297.43,-592.94"/>
<polygon fill="black" stroke="black" points="2298.17,-596.36 2307.3,-591 2296.82,-589.49 2298.17,-596.36"/>
</g>
<!-- c810020Y -->
<g id="node8" class="node">
<title>c810020Y</title>
<path fill="yellow" stroke="black" d="M50.5,-441C50.5,-441 269.5,-441 269.5,-441 275.5,-441 281.5,-447 281.5,-453 281.5,-453 281.5,-465 281.5,-465 281.5,-471 275.5,-477 269.5,-477 269.5,-477 50.5,-477 50.5,-477 44.5,-477 38.5,-471 38.5,-465 38.5,-465 38.5,-453 38.5,-453 38.5,-447 44.5,-441 50.5,-441"/>
<text text-anchor="middle" x="72" y="-455.3" font-family="Times,serif" font-size="14.00">810020Y</text>
<polyline fill="none" stroke="black" points="105.5,-441 105.5,-477 "/>
<text text-anchor="middle" x="167" y="-455.3" font-family="Times,serif" font-size="14.00">Orientoivat opinnot</text>
<polyline fill="none" stroke="black" points="228.5,-441 228.5,-477 "/>
<text text-anchor="middle" x="255" y="-455.3" font-family="Times,serif" font-size="14.00">1 / 1&#45;2</text>
</g>
<!-- c810136P -->
<g id="node9" class="node">
<title>c810136P</title>
<path fill="yellow" stroke="black" d="M28,-376C28,-376 292,-376 292,-376 298,-376 304,-382 304,-388 304,-388 304,-410 304,-410 304,-416 298,-422 292,-422 292,-422 28,-422 28,-422 22,-422 16,-416 16,-410 16,-410 16,-388 16,-388 16,-382 22,-376 28,-376"/>
<text text-anchor="middle" x="48.5" y="-395.3" font-family="Times,serif" font-size="14.00">810136P</text>
<polyline fill="none" stroke="black" points="81,-376 81,-422 "/>
<text text-anchor="middle" x="181" y="-395.3" font-family="Times,serif" font-size="14.00">Johdatus tietojenkäsittelytieteisiin</text>
<polyline fill="none" stroke="black" points="281,-376 281,-422 "/>
<text text-anchor="middle" x="292.5" y="-406.8" font-family="Times,serif" font-size="14.00">1</text>
<polyline fill="none" stroke="black" points="281,-399 304,-399 "/>
<text text-anchor="middle" x="292.5" y="-383.8" font-family="Times,serif" font-size="14.00">1</text>
</g>
<!-- c811168P -->
<g id="node10" class="node">
<title>c811168P</title>
<path fill="yellow" stroke="black" d="M420,-311C420,-311 557,-311 557,-311 563,-311 569,-317 569,-323 569,-323 569,-345 569,-345 569,-351 563,-357 557,-357 557,-357 420,-357 420,-357 414,-357 408,-351 408,-345 408,-345 408,-323 408,-323 408,-317 414,-311 420,-311"/>
<text text-anchor="middle" x="440.5" y="-330.3" font-family="Times,serif" font-size="14.00">811168P</text>
<polyline fill="none" stroke="black" points="473,-311 473,-357 "/>
<text text-anchor="middle" x="509.5" y="-330.3" font-family="Times,serif" font-size="14.00">Tietoturva</text>
<polyline fill="none" stroke="black" points="546,-311 546,-357 "/>
<text text-anchor="middle" x="557.5" y="-341.8" font-family="Times,serif" font-size="14.00">1</text>
<polyline fill="none" stroke="black" points="546,-334 569,-334 "/>
<text text-anchor="middle" x="557.5" y="-318.8" font-family="Times,serif" font-size="14.00">3</text>
</g>
<!-- c810136P&#45;&gt;c811168P -->
<g id="edge2" class="edge">
<title>c810136P&#45;&gt;c811168P</title>
<path fill="none" stroke="black" d="M276.57,-375.99C316.48,-368.05 360.56,-359.27 398.06,-351.81"/>
<polygon fill="black" stroke="black" points="398.82,-355.22 407.94,-349.84 397.45,-348.36 398.82,-355.22"/>
</g>
<!-- c811174P -->
<g id="node11" class="node">
<title>c811174P</title>
<path fill="yellow" stroke="black" d="M352,-376C352,-376 625,-376 625,-376 631,-376 637,-382 637,-388 637,-388 637,-410 637,-410 637,-416 631,-422 625,-422 625,-422 352,-422 352,-422 346,-422 340,-416 340,-410 340,-410 340,-388 340,-388 340,-382 346,-376 352,-376"/>
<text text-anchor="middle" x="372.5" y="-395.3" font-family="Times,serif" font-size="14.00">811174P</text>
<polyline fill="none" stroke="black" points="405,-376 405,-422 "/>
<text text-anchor="middle" x="509.5" y="-395.3" font-family="Times,serif" font-size="14.00">Ohjelmistoliiketoiminnan perusteet</text>
<polyline fill="none" stroke="black" points="614,-376 614,-422 "/>
<text text-anchor="middle" x="625.5" y="-406.8" font-family="Times,serif" font-size="14.00">1</text>
<polyline fill="none" stroke="black" points="614,-399 637,-399 "/>
<text text-anchor="middle" x="625.5" y="-383.8" font-family="Times,serif" font-size="14.00">3</text>
</g>
<!-- c810136P&#45;&gt;c811174P -->
<g id="edge4" class="edge">
<title>c810136P&#45;&gt;c811174P</title>
<path fill="none" stroke="black" d="M304.21,-399C312.71,-399 321.28,-399 329.83,-399"/>
<polygon fill="black" stroke="black" points="329.85,-402.5 339.85,-399 329.85,-395.5 329.85,-402.5"/>
</g>
<!-- c811103P -->
<g id="node19" class="node">
<title>c811103P</title>
<path fill="#caff70" stroke="black" d="M365,-216C365,-216 612,-216 612,-216 618,-216 624,-222 624,-228 624,-228 624,-250 624,-250 624,-256 618,-262 612,-262 612,-262 365,-262 365,-262 359,-262 353,-256 353,-250 353,-250 353,-228 353,-228 353,-222 359,-216 365,-216"/>
<text text-anchor="middle" x="385.5" y="-235.3" font-family="Times,serif" font-size="14.00">811103P</text>
<polyline fill="none" stroke="black" points="418,-216 418,-262 "/>
<text text-anchor="middle" x="509.5" y="-235.3" font-family="Times,serif" font-size="14.00">Johdatus ohjelmistotuotantoon</text>
<polyline fill="none" stroke="black" points="601,-216 601,-262 "/>
<text text-anchor="middle" x="612.5" y="-246.8" font-family="Times,serif" font-size="14.00">1</text>
<polyline fill="none" stroke="black" points="601,-239 624,-239 "/>
<text text-anchor="middle" x="612.5" y="-223.8" font-family="Times,serif" font-size="14.00">2</text>
</g>
<!-- c810136P&#45;&gt;c811103P -->
<g id="edge10" class="edge">
<title>c810136P&#45;&gt;c811103P</title>
<path fill="none" stroke="black" d="M290.56,-375.84C295.26,-373.19 299.76,-370.25 304,-367 331.43,-345.93 314.35,-321.2 340,-298 354.7,-284.71 372.77,-274.23 391.16,-266.03"/>
<polygon fill="black" stroke="black" points="392.65,-269.2 400.49,-262.07 389.92,-262.75 392.65,-269.2"/>
</g>
<!-- c810136P&#45;&gt;c811383A -->
<g id="edge27" class="edge">
<title>c810136P&#45;&gt;c811383A</title>
<path fill="none" stroke="black" d="M272.36,-422.04C294.67,-425.95 318.02,-429.53 340,-432 543.34,-454.83 595.38,-451 800,-451 800,-451 800,-451 1940.5,-451 2261.29,-451 2396.5,-290.96 2662,-471 2688.03,-488.65 2665.57,-516.19 2690,-536 2704.02,-547.37 2721,-555.05 2738.57,-560.18"/>
<polygon fill="black" stroke="black" points="2737.81,-563.6 2748.37,-562.78 2739.6,-556.84 2737.81,-563.6"/>
</g>
<!-- c811102P -->
<g id="node12" class="node">
<title>c811102P</title>
<path fill="yellow" stroke="black" d="M61,-311C61,-311 259,-311 259,-311 265,-311 271,-317 271,-323 271,-323 271,-345 271,-345 271,-351 265,-357 259,-357 259,-357 61,-357 61,-357 55,-357 49,-351 49,-345 49,-345 49,-323 49,-323 49,-317 55,-311 61,-311"/>
<text text-anchor="middle" x="81.5" y="-330.3" font-family="Times,serif" font-size="14.00">811102P</text>
<polyline fill="none" stroke="black" points="114,-311 114,-357 "/>
<text text-anchor="middle" x="181" y="-330.3" font-family="Times,serif" font-size="14.00">Laitteet ja tietoverkot</text>
<polyline fill="none" stroke="black" points="248,-311 248,-357 "/>
<text text-anchor="middle" x="259.5" y="-341.8" font-family="Times,serif" font-size="14.00">1</text>
<polyline fill="none" stroke="black" points="248,-334 271,-334 "/>
<text text-anchor="middle" x="259.5" y="-318.8" font-family="Times,serif" font-size="14.00">1</text>
</g>
<!-- c811102P&#45;&gt;c811168P -->
<g id="edge3" class="edge">
<title>c811102P&#45;&gt;c811168P</title>
<path fill="none" stroke="black" d="M271.08,-334C312.21,-334 358.39,-334 397.49,-334"/>
<polygon fill="black" stroke="black" points="397.8,-337.5 407.8,-334 397.8,-330.5 397.8,-337.5"/>
</g>
<!-- c811104P -->
<g id="node13" class="node">
<title>c811104P</title>
<path fill="#ffd700" stroke="black" d="M404,-112C404,-112 573,-112 573,-112 579,-112 585,-118 585,-124 585,-124 585,-146 585,-146 585,-152 579,-158 573,-158 573,-158 404,-158 404,-158 398,-158 392,-152 392,-146 392,-146 392,-124 392,-124 392,-118 398,-112 404,-112"/>
<text text-anchor="middle" x="424.5" y="-131.3" font-family="Times,serif" font-size="14.00">811104P</text>
<polyline fill="none" stroke="black" points="457,-112 457,-158 "/>
<text text-anchor="middle" x="503.5" y="-131.3" font-family="Times,serif" font-size="14.00">Ohjelmointi 1</text>
<polyline fill="none" stroke="black" points="550,-112 550,-158 "/>
<text text-anchor="middle" x="567.5" y="-142.8" font-family="Times,serif" font-size="14.00">1</text>
<polyline fill="none" stroke="black" points="550,-135 585,-135 "/>
<text text-anchor="middle" x="567.5" y="-119.8" font-family="Times,serif" font-size="14.00">1&#45;2</text>
</g>
<!-- c811322A -->
<g id="node14" class="node">
<title>c811322A</title>
<path fill="#ffd700" stroke="black" d="M715.5,-112C715.5,-112 886.5,-112 886.5,-112 892.5,-112 898.5,-118 898.5,-124 898.5,-124 898.5,-146 898.5,-146 898.5,-152 892.5,-158 886.5,-158 886.5,-158 715.5,-158 715.5,-158 709.5,-158 703.5,-152 703.5,-146 703.5,-146 703.5,-124 703.5,-124 703.5,-118 709.5,-112 715.5,-112"/>
<text text-anchor="middle" x="737" y="-131.3" font-family="Times,serif" font-size="14.00">811322A</text>
<polyline fill="none" stroke="black" points="770.5,-112 770.5,-158 "/>
<text text-anchor="middle" x="817" y="-131.3" font-family="Times,serif" font-size="14.00">Ohjelmointi 2</text>
<polyline fill="none" stroke="black" points="863.5,-112 863.5,-158 "/>
<text text-anchor="middle" x="881" y="-142.8" font-family="Times,serif" font-size="14.00">1</text>
<polyline fill="none" stroke="black" points="863.5,-135 898.5,-135 "/>
<text text-anchor="middle" x="881" y="-119.8" font-family="Times,serif" font-size="14.00">3&#45;4</text>
</g>
<!-- c811104P&#45;&gt;c811322A -->
<g id="edge5" class="edge">
<title>c811104P&#45;&gt;c811322A</title>
<path fill="none" stroke="black" d="M585.19,-135C619.33,-135 658,-135 693.03,-135"/>
<polygon fill="black" stroke="black" points="693.28,-138.5 703.28,-135 693.28,-131.5 693.28,-138.5"/>
</g>
<!-- c811325A -->
<g id="node15" class="node">
<title>c811325A</title>
<path fill="#ffd700" stroke="black" d="M1098,-112C1098,-112 1245,-112 1245,-112 1251,-112 1257,-118 1257,-124 1257,-124 1257,-146 1257,-146 1257,-152 1251,-158 1245,-158 1245,-158 1098,-158 1098,-158 1092,-158 1086,-152 1086,-146 1086,-146 1086,-124 1086,-124 1086,-118 1092,-112 1098,-112"/>
<text text-anchor="middle" x="1119.5" y="-131.3" font-family="Times,serif" font-size="14.00">811325A</text>
<polyline fill="none" stroke="black" points="1153,-112 1153,-158 "/>
<text text-anchor="middle" x="1193.5" y="-131.3" font-family="Times,serif" font-size="14.00">Tietokannat</text>
<polyline fill="none" stroke="black" points="1234,-112 1234,-158 "/>
<text text-anchor="middle" x="1245.5" y="-142.8" font-family="Times,serif" font-size="14.00">2</text>
<polyline fill="none" stroke="black" points="1234,-135 1257,-135 "/>
<text text-anchor="middle" x="1245.5" y="-119.8" font-family="Times,serif" font-size="14.00">1</text>
</g>
<!-- c811322A&#45;&gt;c811325A -->
<g id="edge9" class="edge">
<title>c811322A&#45;&gt;c811325A</title>
<path fill="none" stroke="black" d="M898.82,-135C953.41,-135 1021.33,-135 1075.6,-135"/>
<polygon fill="black" stroke="black" points="1075.92,-138.5 1085.92,-135 1075.92,-131.5 1075.92,-138.5"/>
</g>
<!-- c811301A -->
<g id="node21" class="node">
<title>c811301A</title>
<path fill="#caff70" stroke="black" d="M1022,-216C1022,-216 1321,-216 1321,-216 1327,-216 1333,-222 1333,-228 1333,-228 1333,-250 1333,-250 1333,-256 1327,-262 1321,-262 1321,-262 1022,-262 1022,-262 1016,-262 1010,-256 1010,-250 1010,-250 1010,-228 1010,-228 1010,-222 1016,-216 1022,-216"/>
<text text-anchor="middle" x="1043.5" y="-235.3" font-family="Times,serif" font-size="14.00">811301A</text>
<polyline fill="none" stroke="black" points="1077,-216 1077,-262 "/>
<text text-anchor="middle" x="1193.5" y="-235.3" font-family="Times,serif" font-size="14.00"> Ohjelmistojen mallinnus ja suunnittelu</text>
<polyline fill="none" stroke="black" points="1310,-216 1310,-262 "/>
<text text-anchor="middle" x="1321.5" y="-246.8" font-family="Times,serif" font-size="14.00">2</text>
<polyline fill="none" stroke="black" points="1310,-239 1333,-239 "/>
<text text-anchor="middle" x="1321.5" y="-223.8" font-family="Times,serif" font-size="14.00">1</text>
</g>
<!-- c811322A&#45;&gt;c811301A -->
<g id="edge13" class="edge">
<title>c811322A&#45;&gt;c811301A</title>
<path fill="none" stroke="black" d="M859.86,-158.05C890.74,-169.81 929.58,-183.76 965,-194 989.89,-201.2 1016.76,-207.86 1042.61,-213.73"/>
<polygon fill="black" stroke="black" points="1041.94,-217.17 1052.46,-215.94 1043.47,-210.34 1041.94,-217.17"/>
</g>
<!-- c811312A -->
<g id="node16" class="node">
<title>c811312A</title>
<path fill="#ffd700" stroke="black" d="M1432,-112C1432,-112 1664,-112 1664,-112 1670,-112 1676,-118 1676,-124 1676,-124 1676,-146 1676,-146 1676,-152 1670,-158 1664,-158 1664,-158 1432,-158 1432,-158 1426,-158 1420,-152 1420,-146 1420,-146 1420,-124 1420,-124 1420,-118 1426,-112 1432,-112"/>
<text text-anchor="middle" x="1453.5" y="-131.3" font-family="Times,serif" font-size="14.00">811312A</text>
<polyline fill="none" stroke="black" points="1487,-112 1487,-158 "/>
<text text-anchor="middle" x="1570" y="-131.3" font-family="Times,serif" font-size="14.00">Tietorakenteet ja algoritmit</text>
<polyline fill="none" stroke="black" points="1653,-112 1653,-158 "/>
<text text-anchor="middle" x="1664.5" y="-142.8" font-family="Times,serif" font-size="14.00">2</text>
<polyline fill="none" stroke="black" points="1653,-135 1676,-135 "/>
<text text-anchor="middle" x="1664.5" y="-119.8" font-family="Times,serif" font-size="14.00">2</text>
</g>
<!-- c811325A&#45;&gt;c811312A -->
<g id="edge8" class="edge">
<title>c811325A&#45;&gt;c811312A</title>
<path fill="none" stroke="black" d="M1257.01,-135C1302.01,-135 1358.48,-135 1409.6,-135"/>
<polygon fill="black" stroke="black" points="1409.75,-138.5 1419.75,-135 1409.75,-131.5 1409.75,-138.5"/>
</g>
<!-- c811319A -->
<g id="node23" class="node">
<title>c811319A</title>
<path fill="#caff70" stroke="black" d="M1816,-216C1816,-216 2063,-216 2063,-216 2069,-216 2075,-222 2075,-228 2075,-228 2075,-250 2075,-250 2075,-256 2069,-262 2063,-262 2063,-262 1816,-262 1816,-262 1810,-262 1804,-256 1804,-250 1804,-250 1804,-228 1804,-228 1804,-222 1810,-216 1816,-216"/>
<text text-anchor="middle" x="1837.5" y="-235.3" font-family="Times,serif" font-size="14.00">811319A</text>
<polyline fill="none" stroke="black" points="1871,-216 1871,-262 "/>
<text text-anchor="middle" x="1961.5" y="-235.3" font-family="Times,serif" font-size="14.00">Tietomallinnus ja &#45;suunnittelu</text>
<polyline fill="none" stroke="black" points="2052,-216 2052,-262 "/>
<text text-anchor="middle" x="2063.5" y="-246.8" font-family="Times,serif" font-size="14.00">2</text>
<polyline fill="none" stroke="black" points="2052,-239 2075,-239 "/>
<text text-anchor="middle" x="2063.5" y="-223.8" font-family="Times,serif" font-size="14.00">3</text>
</g>
<!-- c811325A&#45;&gt;c811319A -->
<g id="edge16" class="edge">
<title>c811325A&#45;&gt;c811319A</title>
<path fill="none" stroke="black" d="M1257.03,-146.48C1386.39,-164.04 1635.07,-197.8 1793.58,-219.32"/>
<polygon fill="black" stroke="black" points="1793.51,-222.85 1803.89,-220.72 1794.45,-215.91 1793.51,-222.85"/>
</g>
<!-- c811367A -->
<g id="node17" class="node">
<title>c811367A</title>
<path fill="#ffd700" stroke="black" d="M1860,-112C1860,-112 2019,-112 2019,-112 2025,-112 2031,-118 2031,-124 2031,-124 2031,-146 2031,-146 2031,-152 2025,-158 2019,-158 2019,-158 1860,-158 1860,-158 1854,-158 1848,-152 1848,-146 1848,-146 1848,-124 1848,-124 1848,-118 1854,-112 1860,-112"/>
<text text-anchor="middle" x="1881.5" y="-131.3" font-family="Times,serif" font-size="14.00">811367A</text>
<polyline fill="none" stroke="black" points="1915,-112 1915,-158 "/>
<text text-anchor="middle" x="1961.5" y="-131.3" font-family="Times,serif" font-size="14.00">Ohjelmointi 3</text>
<polyline fill="none" stroke="black" points="2008,-112 2008,-158 "/>
<text text-anchor="middle" x="2019.5" y="-142.8" font-family="Times,serif" font-size="14.00">2</text>
<polyline fill="none" stroke="black" points="2008,-135 2031,-135 "/>
<text text-anchor="middle" x="2019.5" y="-119.8" font-family="Times,serif" font-size="14.00">3</text>
</g>
<!-- c811312A&#45;&gt;c811367A -->
<g id="edge6" class="edge">
<title>c811312A&#45;&gt;c811367A</title>
<path fill="none" stroke="black" d="M1676.27,-135C1728.69,-135 1788.56,-135 1837.85,-135"/>
<polygon fill="black" stroke="black" points="1837.88,-138.5 1847.88,-135 1837.88,-131.5 1837.88,-138.5"/>
</g>
<!-- c811368A -->
<g id="node18" class="node">
<title>c811368A</title>
<path fill="#ffd700" stroke="black" d="M2346,-112C2346,-112 2505,-112 2505,-112 2511,-112 2517,-118 2517,-124 2517,-124 2517,-146 2517,-146 2517,-152 2511,-158 2505,-158 2505,-158 2346,-158 2346,-158 2340,-158 2334,-152 2334,-146 2334,-146 2334,-124 2334,-124 2334,-118 2340,-112 2346,-112"/>
<text text-anchor="middle" x="2367.5" y="-131.3" font-family="Times,serif" font-size="14.00">811368A</text>
<polyline fill="none" stroke="black" points="2401,-112 2401,-158 "/>
<text text-anchor="middle" x="2447.5" y="-131.3" font-family="Times,serif" font-size="14.00">Ohjelmointi 4</text>
<polyline fill="none" stroke="black" points="2494,-112 2494,-158 "/>
<text text-anchor="middle" x="2505.5" y="-142.8" font-family="Times,serif" font-size="14.00">2</text>
<polyline fill="none" stroke="black" points="2494,-135 2517,-135 "/>
<text text-anchor="middle" x="2505.5" y="-119.8" font-family="Times,serif" font-size="14.00">4</text>
</g>
<!-- c811367A&#45;&gt;c811368A -->
<g id="edge7" class="edge">
<title>c811367A&#45;&gt;c811368A</title>
<path fill="none" stroke="black" d="M2031.25,-135C2114.45,-135 2237.47,-135 2323.7,-135"/>
<polygon fill="black" stroke="black" points="2323.76,-138.5 2333.76,-135 2323.76,-131.5 2323.76,-138.5"/>
</g>
<!-- c811398A -->
<g id="node32" class="node">
<title>c811398A</title>
<path fill="azure" stroke="black" d="M2750,-480C2750,-480 2950,-480 2950,-480 2956,-480 2962,-486 2962,-492 2962,-492 2962,-514 2962,-514 2962,-520 2956,-526 2950,-526 2950,-526 2750,-526 2750,-526 2744,-526 2738,-520 2738,-514 2738,-514 2738,-492 2738,-492 2738,-486 2744,-480 2750,-480"/>
<text text-anchor="middle" x="2771.5" y="-499.3" font-family="Times,serif" font-size="14.00">811398A</text>
<polyline fill="none" stroke="black" points="2805,-480 2805,-526 "/>
<text text-anchor="middle" x="2866" y="-499.3" font-family="Times,serif" font-size="14.00">Kandidaattiprojekti</text>
<polyline fill="none" stroke="black" points="2927,-480 2927,-526 "/>
<text text-anchor="middle" x="2944.5" y="-510.8" font-family="Times,serif" font-size="14.00">3</text>
<polyline fill="none" stroke="black" points="2927,-503 2962,-503 "/>
<text text-anchor="middle" x="2944.5" y="-487.8" font-family="Times,serif" font-size="14.00">3&#45;4</text>
</g>
<!-- c811368A&#45;&gt;c811398A -->
<g id="edge30" class="edge">
<title>c811368A&#45;&gt;c811398A</title>
<path fill="none" stroke="black" d="M2517.05,-145.38C2564.02,-154.44 2620.16,-171.37 2662,-203 2756.38,-274.34 2814.65,-408.34 2837.68,-470.19"/>
<polygon fill="black" stroke="black" points="2834.48,-471.63 2841.2,-479.83 2841.06,-469.23 2834.48,-471.63"/>
</g>
<!-- c811391A -->
<g id="node20" class="node">
<title>c811391A</title>
<path fill="#caff70" stroke="black" d="M706.5,-216C706.5,-216 895.5,-216 895.5,-216 901.5,-216 907.5,-222 907.5,-228 907.5,-228 907.5,-250 907.5,-250 907.5,-256 901.5,-262 895.5,-262 895.5,-262 706.5,-262 706.5,-262 700.5,-262 694.5,-256 694.5,-250 694.5,-250 694.5,-228 694.5,-228 694.5,-222 700.5,-216 706.5,-216"/>
<text text-anchor="middle" x="728" y="-235.3" font-family="Times,serif" font-size="14.00">811391A</text>
<polyline fill="none" stroke="black" points="761.5,-216 761.5,-262 "/>
<text text-anchor="middle" x="823" y="-235.3" font-family="Times,serif" font-size="14.00">Vaatimusmäärittely</text>
<polyline fill="none" stroke="black" points="884.5,-216 884.5,-262 "/>
<text text-anchor="middle" x="896" y="-246.8" font-family="Times,serif" font-size="14.00">1</text>
<polyline fill="none" stroke="black" points="884.5,-239 907.5,-239 "/>
<text text-anchor="middle" x="896" y="-223.8" font-family="Times,serif" font-size="14.00">4</text>
</g>
<!-- c811103P&#45;&gt;c811391A -->
<g id="edge11" class="edge">
<title>c811103P&#45;&gt;c811391A</title>
<path fill="none" stroke="black" d="M624.34,-239C644.26,-239 664.65,-239 684.15,-239"/>
<polygon fill="black" stroke="black" points="684.26,-242.5 694.26,-239 684.26,-235.5 684.26,-242.5"/>
</g>
<!-- c811391A&#45;&gt;c811301A -->
<g id="edge12" class="edge">
<title>c811391A&#45;&gt;c811301A</title>
<path fill="none" stroke="black" d="M907.6,-239C936.38,-239 968.32,-239 999.74,-239"/>
<polygon fill="black" stroke="black" points="999.91,-242.5 1009.91,-239 999.91,-235.5 999.91,-242.5"/>
</g>
<!-- c811306A -->
<g id="node22" class="node">
<title>c811306A</title>
<path fill="#caff70" stroke="black" d="M1426,-216C1426,-216 1670,-216 1670,-216 1676,-216 1682,-222 1682,-228 1682,-228 1682,-250 1682,-250 1682,-256 1676,-262 1670,-262 1670,-262 1426,-262 1426,-262 1420,-262 1414,-256 1414,-250 1414,-250 1414,-228 1414,-228 1414,-222 1420,-216 1426,-216"/>
<text text-anchor="middle" x="1447.5" y="-235.3" font-family="Times,serif" font-size="14.00">811306A</text>
<polyline fill="none" stroke="black" points="1481,-216 1481,-262 "/>
<text text-anchor="middle" x="1570" y="-235.3" font-family="Times,serif" font-size="14.00">Ohjelmistojen laatu ja testaus</text>
<polyline fill="none" stroke="black" points="1659,-216 1659,-262 "/>
<text text-anchor="middle" x="1670.5" y="-246.8" font-family="Times,serif" font-size="14.00">2</text>
<polyline fill="none" stroke="black" points="1659,-239 1682,-239 "/>
<text text-anchor="middle" x="1670.5" y="-223.8" font-family="Times,serif" font-size="14.00">2</text>
</g>
<!-- c811301A&#45;&gt;c811306A -->
<g id="edge14" class="edge">
<title>c811301A&#45;&gt;c811306A</title>
<path fill="none" stroke="black" d="M1333.22,-239C1356.64,-239 1380.62,-239 1403.66,-239"/>
<polygon fill="black" stroke="black" points="1403.82,-242.5 1413.82,-239 1403.82,-235.5 1403.82,-242.5"/>
</g>
<!-- c811306A&#45;&gt;c811319A -->
<g id="edge15" class="edge">
<title>c811306A&#45;&gt;c811319A</title>
<path fill="none" stroke="black" d="M1682.23,-239C1718.07,-239 1757.01,-239 1793.46,-239"/>
<polygon fill="black" stroke="black" points="1793.68,-242.5 1803.68,-239 1793.68,-235.5 1793.68,-242.5"/>
</g>
<!-- c815345A -->
<g id="node24" class="node">
<title>c815345A</title>
<path fill="#caff70" stroke="black" d="M2317,-216C2317,-216 2534,-216 2534,-216 2540,-216 2546,-222 2546,-228 2546,-228 2546,-250 2546,-250 2546,-256 2540,-262 2534,-262 2534,-262 2317,-262 2317,-262 2311,-262 2305,-256 2305,-250 2305,-250 2305,-228 2305,-228 2305,-222 2311,-216 2317,-216"/>
<text text-anchor="middle" x="2338.5" y="-235.3" font-family="Times,serif" font-size="14.00">815345A</text>
<polyline fill="none" stroke="black" points="2372,-216 2372,-262 "/>
<text text-anchor="middle" x="2447.5" y="-235.3" font-family="Times,serif" font-size="14.00">Ohjelmistoarkkitehtuurit</text>
<polyline fill="none" stroke="black" points="2523,-216 2523,-262 "/>
<text text-anchor="middle" x="2534.5" y="-246.8" font-family="Times,serif" font-size="14.00">2</text>
<polyline fill="none" stroke="black" points="2523,-239 2546,-239 "/>
<text text-anchor="middle" x="2534.5" y="-223.8" font-family="Times,serif" font-size="14.00">4</text>
</g>
<!-- c811319A&#45;&gt;c815345A -->
<g id="edge17" class="edge">
<title>c811319A&#45;&gt;c815345A</title>
<path fill="none" stroke="black" d="M2075.32,-239C2143.83,-239 2226.7,-239 2294.51,-239"/>
<polygon fill="black" stroke="black" points="2294.83,-242.5 2304.83,-239 2294.83,-235.5 2294.83,-242.5"/>
</g>
<!-- c815345A&#45;&gt;c811398A -->
<g id="edge29" class="edge">
<title>c815345A&#45;&gt;c811398A</title>
<path fill="none" stroke="black" d="M2463.62,-262.2C2541.03,-310.56 2719.43,-422.04 2803.54,-474.6"/>
<polygon fill="black" stroke="black" points="2801.78,-477.62 2812.11,-479.95 2805.49,-471.68 2801.78,-477.62"/>
</g>
<!-- c811166P -->
<g id="node25" class="node">
<title>c811166P</title>
<path fill="antiquewhite" stroke="black" d="M685,-17C685,-17 917,-17 917,-17 923,-17 929,-23 929,-29 929,-29 929,-51 929,-51 929,-57 923,-63 917,-63 917,-63 685,-63 685,-63 679,-63 673,-57 673,-51 673,-51 673,-29 673,-29 673,-23 679,-17 685,-17"/>
<text text-anchor="middle" x="705.5" y="-36.3" font-family="Times,serif" font-size="14.00">811166P</text>
<polyline fill="none" stroke="black" points="738,-17 738,-63 "/>
<text text-anchor="middle" x="822" y="-36.3" font-family="Times,serif" font-size="14.00">Tietojärjestelmien perusteet</text>
<polyline fill="none" stroke="black" points="906,-17 906,-63 "/>
<text text-anchor="middle" x="917.5" y="-47.8" font-family="Times,serif" font-size="14.00">1</text>
<polyline fill="none" stroke="black" points="906,-40 929,-40 "/>
<text text-anchor="middle" x="917.5" y="-24.8" font-family="Times,serif" font-size="14.00">2</text>
</g>
<!-- c812360A -->
<g id="node26" class="node">
<title>c812360A</title>
<path fill="antiquewhite" stroke="black" d="M977,-17C977,-17 1366,-17 1366,-17 1372,-17 1378,-23 1378,-29 1378,-29 1378,-51 1378,-51 1378,-57 1372,-63 1366,-63 1366,-63 977,-63 977,-63 971,-63 965,-57 965,-51 965,-51 965,-29 965,-29 965,-23 971,-17 977,-17"/>
<text text-anchor="middle" x="998.5" y="-36.3" font-family="Times,serif" font-size="14.00">812360A</text>
<polyline fill="none" stroke="black" points="1032,-17 1032,-63 "/>
<text text-anchor="middle" x="1193.5" y="-36.3" font-family="Times,serif" font-size="14.00">Tietojärjestelmien mallintaminen, suunnittelu ja kehitys</text>
<polyline fill="none" stroke="black" points="1355,-17 1355,-63 "/>
<text text-anchor="middle" x="1366.5" y="-47.8" font-family="Times,serif" font-size="14.00">1</text>
<polyline fill="none" stroke="black" points="1355,-40 1378,-40 "/>
<text text-anchor="middle" x="1366.5" y="-24.8" font-family="Times,serif" font-size="14.00">4</text>
</g>
<!-- c811166P&#45;&gt;c812360A -->
<g id="edge18" class="edge">
<title>c811166P&#45;&gt;c812360A</title>
<path fill="none" stroke="black" d="M929.07,-40C937.45,-40 946,-40 954.65,-40"/>
<polygon fill="black" stroke="black" points="954.84,-43.5 964.84,-40 954.84,-36.5 954.84,-43.5"/>
</g>
<!-- c812363A -->
<g id="node27" class="node">
<title>c812363A</title>
<path fill="antiquewhite" stroke="black" d="M1434,-17C1434,-17 1662,-17 1662,-17 1668,-17 1674,-23 1674,-29 1674,-29 1674,-51 1674,-51 1674,-57 1668,-63 1662,-63 1662,-63 1434,-63 1434,-63 1428,-63 1422,-57 1422,-51 1422,-51 1422,-29 1422,-29 1422,-23 1428,-17 1434,-17"/>
<text text-anchor="middle" x="1455.5" y="-36.3" font-family="Times,serif" font-size="14.00">812363A</text>
<polyline fill="none" stroke="black" points="1489,-17 1489,-63 "/>
<text text-anchor="middle" x="1570" y="-36.3" font-family="Times,serif" font-size="14.00">Ihmislähtöinen suunnittelu</text>
<polyline fill="none" stroke="black" points="1651,-17 1651,-63 "/>
<text text-anchor="middle" x="1662.5" y="-47.8" font-family="Times,serif" font-size="14.00">2</text>
<polyline fill="none" stroke="black" points="1651,-40 1674,-40 "/>
<text text-anchor="middle" x="1662.5" y="-24.8" font-family="Times,serif" font-size="14.00">1</text>
</g>
<!-- c812360A&#45;&gt;c812363A -->
<g id="edge19" class="edge">
<title>c812360A&#45;&gt;c812363A</title>
<path fill="none" stroke="black" d="M1378.1,-40C1389.44,-40 1400.68,-40 1411.67,-40"/>
<polygon fill="black" stroke="black" points="1411.68,-43.5 1421.68,-40 1411.68,-36.5 1411.68,-43.5"/>
</g>
<!-- c812361A -->
<g id="node28" class="node">
<title>c812361A</title>
<path fill="antiquewhite" stroke="black" d="M1757,-17C1757,-17 2122,-17 2122,-17 2128,-17 2134,-23 2134,-29 2134,-29 2134,-51 2134,-51 2134,-57 2128,-63 2122,-63 2122,-63 1757,-63 1757,-63 1751,-63 1745,-57 1745,-51 1745,-51 1745,-29 1745,-29 1745,-23 1751,-17 1757,-17"/>
<text text-anchor="middle" x="1778.5" y="-36.3" font-family="Times,serif" font-size="14.00">812361A</text>
<polyline fill="none" stroke="black" points="1812,-17 1812,-63 "/>
<text text-anchor="middle" x="1961.5" y="-36.3" font-family="Times,serif" font-size="14.00">Tietojärjestelmien hankinta, käyttöönotto ja hallinta</text>
<polyline fill="none" stroke="black" points="2111,-17 2111,-63 "/>
<text text-anchor="middle" x="2122.5" y="-47.8" font-family="Times,serif" font-size="14.00">2</text>
<polyline fill="none" stroke="black" points="2111,-40 2134,-40 "/>
<text text-anchor="middle" x="2122.5" y="-24.8" font-family="Times,serif" font-size="14.00">2</text>
</g>
<!-- c812363A&#45;&gt;c812361A -->
<g id="edge20" class="edge">
<title>c812363A&#45;&gt;c812361A</title>
<path fill="none" stroke="black" d="M1674.12,-40C1693.52,-40 1713.99,-40 1734.59,-40"/>
<polygon fill="black" stroke="black" points="1734.71,-43.5 1744.71,-40 1734.71,-36.5 1734.71,-43.5"/>
</g>
<!-- c812362A -->
<g id="node29" class="node">
<title>c812362A</title>
<path fill="antiquewhite" stroke="black" d="M2238,-17C2238,-17 2613,-17 2613,-17 2619,-17 2625,-23 2625,-29 2625,-29 2625,-51 2625,-51 2625,-57 2619,-63 2613,-63 2613,-63 2238,-63 2238,-63 2232,-63 2226,-57 2226,-51 2226,-51 2226,-29 2226,-29 2226,-23 2232,-17 2238,-17"/>
<text text-anchor="middle" x="2259.5" y="-36.3" font-family="Times,serif" font-size="14.00">812362A</text>
<polyline fill="none" stroke="black" points="2293,-17 2293,-63 "/>
<text text-anchor="middle" x="2447.5" y="-36.3" font-family="Times,serif" font-size="14.00">Liiketoimintaprosessien johtaminen ja mallintaminen</text>
<polyline fill="none" stroke="black" points="2602,-17 2602,-63 "/>
<text text-anchor="middle" x="2613.5" y="-47.8" font-family="Times,serif" font-size="14.00">2</text>
<polyline fill="none" stroke="black" points="2602,-40 2625,-40 "/>
<text text-anchor="middle" x="2613.5" y="-24.8" font-family="Times,serif" font-size="14.00">3</text>
</g>
<!-- c812361A&#45;&gt;c812362A -->
<g id="edge21" class="edge">
<title>c812361A&#45;&gt;c812362A</title>
<path fill="none" stroke="black" d="M2134.22,-40C2160.94,-40 2188.48,-40 2215.46,-40"/>
<polygon fill="black" stroke="black" points="2215.77,-43.5 2225.77,-40 2215.77,-36.5 2215.77,-43.5"/>
</g>
<!-- c812364A -->
<g id="node30" class="node">
<title>c812364A</title>
<path fill="antiquewhite" stroke="black" d="M2702,-17C2702,-17 2998,-17 2998,-17 3004,-17 3010,-23 3010,-29 3010,-29 3010,-51 3010,-51 3010,-57 3004,-63 2998,-63 2998,-63 2702,-63 2702,-63 2696,-63 2690,-57 2690,-51 2690,-51 2690,-29 2690,-29 2690,-23 2696,-17 2702,-17"/>
<text text-anchor="middle" x="2723.5" y="-36.3" font-family="Times,serif" font-size="14.00">812364A</text>
<polyline fill="none" stroke="black" points="2757,-17 2757,-63 "/>
<text text-anchor="middle" x="2872" y="-36.3" font-family="Times,serif" font-size="14.00">Data&#45;analytiikka liiketoiminnan tukena</text>
<polyline fill="none" stroke="black" points="2987,-17 2987,-63 "/>
<text text-anchor="middle" x="2998.5" y="-47.8" font-family="Times,serif" font-size="14.00">3</text>
<polyline fill="none" stroke="black" points="2987,-40 3010,-40 "/>
<text text-anchor="middle" x="2998.5" y="-24.8" font-family="Times,serif" font-size="14.00">4</text>
</g>
<!-- c812362A&#45;&gt;c812364A -->
<g id="edge22" class="edge">
<title>c812362A&#45;&gt;c812364A</title>
<path fill="none" stroke="black" d="M2625.07,-40C2643.33,-40 2661.72,-40 2679.68,-40"/>
<polygon fill="black" stroke="black" points="2679.91,-43.5 2689.91,-40 2679.91,-36.5 2679.91,-43.5"/>
</g>
<!-- c812362A&#45;&gt;c811398A -->
<g id="edge31" class="edge">
<title>c812362A&#45;&gt;c811398A</title>
<path fill="none" stroke="black" d="M2596.81,-63.09C2620.39,-71.66 2643.01,-83.28 2662,-99 2781.99,-198.31 2828.95,-391.61 2843.5,-469.39"/>
<polygon fill="black" stroke="black" points="2840.12,-470.36 2845.34,-479.58 2847.01,-469.11 2840.12,-470.36"/>
</g>
<!-- c811397A -->
<g id="node31" class="node">
<title>c811397A</title>
<path fill="azure" stroke="black" d="M2309,-480C2309,-480 2542,-480 2542,-480 2548,-480 2554,-486 2554,-492 2554,-492 2554,-514 2554,-514 2554,-520 2548,-526 2542,-526 2542,-526 2309,-526 2309,-526 2303,-526 2297,-520 2297,-514 2297,-514 2297,-492 2297,-492 2297,-486 2303,-480 2309,-480"/>
<text text-anchor="middle" x="2330.5" y="-499.3" font-family="Times,serif" font-size="14.00">811397A</text>
<polyline fill="none" stroke="black" points="2364,-480 2364,-526 "/>
<text text-anchor="middle" x="2447.5" y="-499.3" font-family="Times,serif" font-size="14.00">Projektitoiminnan perusteet</text>
<polyline fill="none" stroke="black" points="2531,-480 2531,-526 "/>
<text text-anchor="middle" x="2542.5" y="-510.8" font-family="Times,serif" font-size="14.00">2</text>
<polyline fill="none" stroke="black" points="2531,-503 2554,-503 "/>
<text text-anchor="middle" x="2542.5" y="-487.8" font-family="Times,serif" font-size="14.00">4</text>
</g>
<!-- c811397A&#45;&gt;c811398A -->
<g id="edge28" class="edge">
<title>c811397A&#45;&gt;c811398A</title>
<path fill="none" stroke="black" d="M2554.12,-503C2609.24,-503 2673.41,-503 2727.79,-503"/>
<polygon fill="black" stroke="black" points="2727.82,-506.5 2737.82,-503 2727.82,-499.5 2727.82,-506.5"/>
</g>
<!-- c811393A&#45;&gt;c811383A -->
<g id="edge25" class="edge">
<title>c811393A&#45;&gt;c811383A</title>
<path fill="none" stroke="black" d="M2547.01,-568C2607.18,-568 2679.49,-568 2738.26,-568"/>
<polygon fill="black" stroke="black" points="2738.32,-571.5 2748.32,-568 2738.32,-564.5 2738.32,-571.5"/>
</g>
<!-- c813307A -->
<g id="node35" class="node">
<title>c813307A</title>
<path fill="azure" stroke="black" d="M3058,-545C3058,-545 3221,-545 3221,-545 3227,-545 3233,-551 3233,-557 3233,-557 3233,-579 3233,-579 3233,-585 3227,-591 3221,-591 3221,-591 3058,-591 3058,-591 3052,-591 3046,-585 3046,-579 3046,-579 3046,-557 3046,-557 3046,-551 3052,-545 3058,-545"/>
<text text-anchor="middle" x="3079.5" y="-564.3" font-family="Times,serif" font-size="14.00">813307A</text>
<polyline fill="none" stroke="black" points="3113,-545 3113,-591 "/>
<text text-anchor="middle" x="3161.5" y="-564.3" font-family="Times,serif" font-size="14.00"> Kypsyysnäyte</text>
<polyline fill="none" stroke="black" points="3210,-545 3210,-591 "/>
<text text-anchor="middle" x="3221.5" y="-575.8" font-family="Times,serif" font-size="14.00">3</text>
<polyline fill="none" stroke="black" points="3210,-568 3233,-568 "/>
<text text-anchor="middle" x="3221.5" y="-552.8" font-family="Times,serif" font-size="14.00">4</text>
</g>
<!-- c811383A&#45;&gt;c813307A -->
<g id="edge32" class="edge">
<title>c811383A&#45;&gt;c813307A</title>
<path fill="none" stroke="black" d="M2951.55,-568C2978.69,-568 3008.09,-568 3035.37,-568"/>
<polygon fill="black" stroke="black" points="3035.71,-571.5 3045.71,-568 3035.71,-564.5 3035.71,-571.5"/>
</g>
</g>
</svg>
