<?xml version="1.0" encoding="UTF-8" standalone="no"?>
<!DOCTYPE svg PUBLIC "-//W3C//DTD SVG 1.1//EN"
 "http://www.w3.org/Graphics/SVG/1.1/DTD/svg11.dtd">
<!-- Generated by graphviz version 2.46.0 (20210118.1747)
 -->
<!-- Title: TOLLuK Pages: 1 -->
<svg width="3838pt" height="980pt"
 viewBox="0.00 0.00 3838.00 980.00" xmlns="http://www.w3.org/2000/svg" xmlns:xlink="http://www.w3.org/1999/xlink">
<g id="graph0" class="graph" transform="scale(1 1) rotate(0) translate(4 976)">
<title>TOLLuK</title>
<polygon fill="white" stroke="transparent" points="-4,4 -4,-976 3834,-976 3834,4 -4,4"/>
<g id="clust1" class="cluster">
<title>cluster_Legend</title>
<g id="a_clust1"><a xlink:href="https://opas.peppi.oulu.fi/fi/ohjelma/12350" xlink:title="Selite">
<polygon fill="none" stroke="black" stroke-dasharray="1,5" points="112,-8 112,-95 379,-95 379,-8 112,-8"/>
<text text-anchor="middle" x="245.5" y="-79.8" font-family="Times,serif" font-size="14.00">Selite</text>
</a>
</g>
</g>
<g id="clust2" class="cluster">
<title>cluster_year_1</title>
<polygon fill="none" stroke="black" stroke-dasharray="1,5" points="8,-103 8,-964 1225,-964 1225,-103 8,-103"/>
<text text-anchor="middle" x="616.5" y="-948.8" font-family="Times,serif" font-size="14.00">1. vuosi</text>
</g>
<g id="clust3" class="cluster">
<title>cluster_lang</title>
</g>
<g id="clust4" class="cluster">
<title>cluster_general</title>
</g>
<g id="clust5" class="cluster">
<title>cluster_intro</title>
</g>
<g id="clust6" class="cluster">
<title>cluster_programming</title>
</g>
<g id="clust7" class="cluster">
<title>cluster_sweng</title>
</g>
<g id="clust8" class="cluster">
<title>cluster_humanorg</title>
</g>
<g id="clust9" class="cluster">
<title>cluster_year_2</title>
<polygon fill="none" stroke="black" stroke-dasharray="1,5" points="1233,-460 1233,-871 3012.5,-871 3012.5,-460 1233,-460"/>
<text text-anchor="middle" x="2122.75" y="-855.8" font-family="Times,serif" font-size="14.00">2. vuosi</text>
</g>
<g id="clust10" class="cluster">
<title>cluster_programming</title>
</g>
<g id="clust11" class="cluster">
<title>cluster_sweng</title>
</g>
<g id="clust12" class="cluster">
<title>cluster_humanorg</title>
</g>
<g id="clust13" class="cluster">
<title>cluster_capstone</title>
</g>
<g id="clust14" class="cluster">
<title>cluster_year_3</title>
<polygon fill="none" stroke="black" stroke-dasharray="1,5" points="2729,-231 2729,-452 3822,-452 3822,-231 2729,-231"/>
<text text-anchor="middle" x="3275.5" y="-436.8" font-family="Times,serif" font-size="14.00">3.. vuosi</text>
</g>
<g id="clust15" class="cluster">
<title>cluster_general</title>
</g>
<g id="clust16" class="cluster">
<title>cluster_humanorg</title>
</g>
<g id="clust17" class="cluster">
<title>cluster_capstone</title>
</g>
<!-- legend -->
<g id="node1" class="node">
<title>legend</title>
<path fill="pink" stroke="black" d="M132,-17C132,-17 359,-17 359,-17 365,-17 371,-23 371,-29 371,-29 371,-51 371,-51 371,-57 365,-63 359,-63 359,-63 132,-63 132,-63 126,-63 120,-57 120,-51 120,-51 120,-29 120,-29 120,-23 126,-17 132,-17"/>
<text text-anchor="middle" x="161.5" y="-36.3" font-family="Times,serif" font-size="14.00">Kurssikoodi</text>
<polyline fill="none" stroke="black" points="203,-17 203,-63 "/>
<text text-anchor="middle" x="247" y="-36.3" font-family="Times,serif" font-size="14.00">Kurssin nimi</text>
<polyline fill="none" stroke="black" points="291,-17 291,-63 "/>
<text text-anchor="middle" x="331" y="-47.8" font-family="Times,serif" font-size="14.00">opintovuosi</text>
<polyline fill="none" stroke="black" points="291,-40 371,-40 "/>
<text text-anchor="middle" x="331" y="-24.8" font-family="Times,serif" font-size="14.00">periodi</text>
</g>
<!-- c902164Y -->
<g id="node2" class="node">
<title>c902164Y</title>
<path fill="lightgrey" stroke="black" d="M36,-855C36,-855 455,-855 455,-855 461,-855 467,-861 467,-867 467,-867 467,-889 467,-889 467,-895 461,-901 455,-901 455,-901 36,-901 36,-901 30,-901 24,-895 24,-889 24,-889 24,-867 24,-867 24,-861 30,-855 36,-855"/>
<text text-anchor="middle" x="57.5" y="-874.3" font-family="Times,serif" font-size="14.00">902164Y</text>
<polyline fill="none" stroke="black" points="91,-855 91,-901 "/>
<text text-anchor="middle" x="267.5" y="-874.3" font-family="Times,serif" font-size="14.00">English Communication for Information Processing, Reading</text>
<polyline fill="none" stroke="black" points="444,-855 444,-901 "/>
<text text-anchor="middle" x="455.5" y="-885.8" font-family="Times,serif" font-size="14.00">1</text>
<polyline fill="none" stroke="black" points="444,-878 467,-878 "/>
<text text-anchor="middle" x="455.5" y="-862.8" font-family="Times,serif" font-size="14.00">3</text>
</g>
<!-- c902165Y -->
<g id="node3" class="node">
<title>c902165Y</title>
<path fill="lightgrey" stroke="black" d="M515,-855C515,-855 948,-855 948,-855 954,-855 960,-861 960,-867 960,-867 960,-889 960,-889 960,-895 954,-901 948,-901 948,-901 515,-901 515,-901 509,-901 503,-895 503,-889 503,-889 503,-867 503,-867 503,-861 509,-855 515,-855"/>
<text text-anchor="middle" x="536.5" y="-874.3" font-family="Times,serif" font-size="14.00">902165Y</text>
<polyline fill="none" stroke="black" points="570,-855 570,-901 "/>
<text text-anchor="middle" x="753.5" y="-874.3" font-family="Times,serif" font-size="14.00">English Communication for Information Processing, Oral Skills</text>
<polyline fill="none" stroke="black" points="937,-855 937,-901 "/>
<text text-anchor="middle" x="948.5" y="-885.8" font-family="Times,serif" font-size="14.00">1</text>
<polyline fill="none" stroke="black" points="937,-878 960,-878 "/>
<text text-anchor="middle" x="948.5" y="-862.8" font-family="Times,serif" font-size="14.00">4</text>
</g>
<!-- c902164Y&#45;&gt;c902165Y -->
<g id="edge1" class="edge">
<title>c902164Y&#45;&gt;c902165Y</title>
<path fill="none" stroke="black" d="M467.17,-878C467.17,-878 492.93,-878 492.93,-878"/>
<polygon fill="black" stroke="black" points="492.93,-881.5 502.93,-878 492.93,-874.5 492.93,-881.5"/>
</g>
<!-- c901048Y -->
<g id="node4" class="node">
<title>c901048Y</title>
<path fill="lightgrey" stroke="black" d="M59.5,-790C59.5,-790 431.5,-790 431.5,-790 437.5,-790 443.5,-796 443.5,-802 443.5,-802 443.5,-824 443.5,-824 443.5,-830 437.5,-836 431.5,-836 431.5,-836 59.5,-836 59.5,-836 53.5,-836 47.5,-830 47.5,-824 47.5,-824 47.5,-802 47.5,-802 47.5,-796 53.5,-790 59.5,-790"/>
<text text-anchor="middle" x="81" y="-809.3" font-family="Times,serif" font-size="14.00">901048Y</text>
<polyline fill="none" stroke="black" points="114.5,-790 114.5,-836 "/>
<text text-anchor="middle" x="267.5" y="-809.3" font-family="Times,serif" font-size="14.00">Toinen kotimainen kieli (ruotsi), kirjallinen kielitaito</text>
<polyline fill="none" stroke="black" points="420.5,-790 420.5,-836 "/>
<text text-anchor="middle" x="432" y="-820.8" font-family="Times,serif" font-size="14.00">1</text>
<polyline fill="none" stroke="black" points="420.5,-813 443.5,-813 "/>
<text text-anchor="middle" x="432" y="-797.8" font-family="Times,serif" font-size="14.00">1</text>
</g>
<!-- c901049Y -->
<g id="node5" class="node">
<title>c901049Y</title>
<path fill="lightgrey" stroke="black" d="M62.5,-725C62.5,-725 428.5,-725 428.5,-725 434.5,-725 440.5,-731 440.5,-737 440.5,-737 440.5,-759 440.5,-759 440.5,-765 434.5,-771 428.5,-771 428.5,-771 62.5,-771 62.5,-771 56.5,-771 50.5,-765 50.5,-759 50.5,-759 50.5,-737 50.5,-737 50.5,-731 56.5,-725 62.5,-725"/>
<text text-anchor="middle" x="84" y="-744.3" font-family="Times,serif" font-size="14.00">901049Y</text>
<polyline fill="none" stroke="black" points="117.5,-725 117.5,-771 "/>
<text text-anchor="middle" x="267.5" y="-744.3" font-family="Times,serif" font-size="14.00">Toinen kotimainen kieli (ruotsi), suullinen kielitaito</text>
<polyline fill="none" stroke="black" points="417.5,-725 417.5,-771 "/>
<text text-anchor="middle" x="429" y="-755.8" font-family="Times,serif" font-size="14.00">1</text>
<polyline fill="none" stroke="black" points="417.5,-748 440.5,-748 "/>
<text text-anchor="middle" x="429" y="-732.8" font-family="Times,serif" font-size="14.00">2</text>
</g>
<!-- c810020Y -->
<g id="node6" class="node">
<title>c810020Y</title>
<path fill="gainsboro" stroke="black" d="M145,-185C145,-185 346,-185 346,-185 352,-185 358,-191 358,-197 358,-197 358,-219 358,-219 358,-225 352,-231 346,-231 346,-231 145,-231 145,-231 139,-231 133,-225 133,-219 133,-219 133,-197 133,-197 133,-191 139,-185 145,-185"/>
<text text-anchor="middle" x="166.5" y="-204.3" font-family="Times,serif" font-size="14.00">810020Y</text>
<polyline fill="none" stroke="black" points="200,-185 200,-231 "/>
<text text-anchor="middle" x="261.5" y="-204.3" font-family="Times,serif" font-size="14.00">Orientoivat opinnot</text>
<polyline fill="none" stroke="black" points="323,-185 323,-231 "/>
<text text-anchor="middle" x="340.5" y="-215.8" font-family="Times,serif" font-size="14.00">1</text>
<polyline fill="none" stroke="black" points="323,-208 358,-208 "/>
<text text-anchor="middle" x="340.5" y="-192.8" font-family="Times,serif" font-size="14.00">1&#45;2</text>
</g>
<!-- c030005P -->
<g id="node7" class="node">
<title>c030005P</title>
<path fill="gainsboro" stroke="black" d="M140.5,-120C140.5,-120 350.5,-120 350.5,-120 356.5,-120 362.5,-126 362.5,-132 362.5,-132 362.5,-154 362.5,-154 362.5,-160 356.5,-166 350.5,-166 350.5,-166 140.5,-166 140.5,-166 134.5,-166 128.5,-160 128.5,-154 128.5,-154 128.5,-132 128.5,-132 128.5,-126 134.5,-120 140.5,-120"/>
<text text-anchor="middle" x="161" y="-139.3" font-family="Times,serif" font-size="14.00">030005P</text>
<polyline fill="none" stroke="black" points="193.5,-120 193.5,-166 "/>
<text text-anchor="middle" x="260.5" y="-139.3" font-family="Times,serif" font-size="14.00">Tiedonhankintakurssi</text>
<polyline fill="none" stroke="black" points="327.5,-120 327.5,-166 "/>
<text text-anchor="middle" x="345" y="-150.8" font-family="Times,serif" font-size="14.00">1</text>
<polyline fill="none" stroke="black" points="327.5,-143 362.5,-143 "/>
<text text-anchor="middle" x="345" y="-127.8" font-family="Times,serif" font-size="14.00">1&#45;2</text>
</g>
<!-- c811393A -->
<g id="node33" class="node">
<title>c811393A</title>
<path fill="azure" stroke="black" d="M3113,-263C3113,-263 3332,-263 3332,-263 3338,-263 3344,-269 3344,-275 3344,-275 3344,-297 3344,-297 3344,-303 3338,-309 3332,-309 3332,-309 3113,-309 3113,-309 3107,-309 3101,-303 3101,-297 3101,-297 3101,-275 3101,-275 3101,-269 3107,-263 3113,-263"/>
<text text-anchor="middle" x="3134.5" y="-282.3" font-family="Times,serif" font-size="14.00">811393A</text>
<polyline fill="none" stroke="black" points="3168,-263 3168,-309 "/>
<text text-anchor="middle" x="3244.5" y="-282.3" font-family="Times,serif" font-size="14.00">Johdatus tutkimustyöhön</text>
<polyline fill="none" stroke="black" points="3321,-263 3321,-309 "/>
<text text-anchor="middle" x="3332.5" y="-293.8" font-family="Times,serif" font-size="14.00">3</text>
<polyline fill="none" stroke="black" points="3321,-286 3344,-286 "/>
<text text-anchor="middle" x="3332.5" y="-270.8" font-family="Times,serif" font-size="14.00">3</text>
</g>
<!-- c030005P&#45;&gt;c811393A -->
<g id="edge23" class="edge">
<title>c030005P&#45;&gt;c811393A</title>
<path fill="none" stroke="black" d="M362.68,-150.83C914,-150.83 3223,-150.83 3223,-150.83 3223,-150.83 3223,-252.76 3223,-252.76"/>
<polygon fill="black" stroke="black" points="3219.5,-252.76 3223,-262.76 3226.5,-252.76 3219.5,-252.76"/>
</g>
<!-- c811383A -->
<g id="node34" class="node">
<title>c811383A</title>
<path fill="azure" stroke="black" d="M3392,-263C3392,-263 3571,-263 3571,-263 3577,-263 3583,-269 3583,-275 3583,-275 3583,-297 3583,-297 3583,-303 3577,-309 3571,-309 3571,-309 3392,-309 3392,-309 3386,-309 3380,-303 3380,-297 3380,-297 3380,-275 3380,-275 3380,-269 3386,-263 3392,-263"/>
<text text-anchor="middle" x="3413.5" y="-282.3" font-family="Times,serif" font-size="14.00">811383A</text>
<polyline fill="none" stroke="black" points="3447,-263 3447,-309 "/>
<text text-anchor="middle" x="3497.5" y="-282.3" font-family="Times,serif" font-size="14.00"> LuK&#45;tutkielma</text>
<polyline fill="none" stroke="black" points="3548,-263 3548,-309 "/>
<text text-anchor="middle" x="3565.5" y="-293.8" font-family="Times,serif" font-size="14.00">3</text>
<polyline fill="none" stroke="black" points="3548,-286 3583,-286 "/>
<text text-anchor="middle" x="3565.5" y="-270.8" font-family="Times,serif" font-size="14.00">3&#45;4</text>
</g>
<!-- c030005P&#45;&gt;c811383A -->
<g id="edge24" class="edge">
<title>c030005P&#45;&gt;c811383A</title>
<path fill="none" stroke="black" d="M362.6,-135.17C942.84,-135.17 3482,-135.17 3482,-135.17 3482,-135.17 3482,-252.76 3482,-252.76"/>
<polygon fill="black" stroke="black" points="3478.5,-252.76 3482,-262.76 3485.5,-252.76 3478.5,-252.76"/>
</g>
<!-- c810136P -->
<g id="node8" class="node">
<title>c810136P</title>
<path fill="yellow" stroke="black" d="M113.5,-565C113.5,-565 377.5,-565 377.5,-565 383.5,-565 389.5,-571 389.5,-577 389.5,-577 389.5,-599 389.5,-599 389.5,-605 383.5,-611 377.5,-611 377.5,-611 113.5,-611 113.5,-611 107.5,-611 101.5,-605 101.5,-599 101.5,-599 101.5,-577 101.5,-577 101.5,-571 107.5,-565 113.5,-565"/>
<text text-anchor="middle" x="134" y="-584.3" font-family="Times,serif" font-size="14.00">810136P</text>
<polyline fill="none" stroke="black" points="166.5,-565 166.5,-611 "/>
<text text-anchor="middle" x="266.5" y="-584.3" font-family="Times,serif" font-size="14.00">Johdatus tietojenkäsittelytieteisiin</text>
<polyline fill="none" stroke="black" points="366.5,-565 366.5,-611 "/>
<text text-anchor="middle" x="378" y="-595.8" font-family="Times,serif" font-size="14.00">1</text>
<polyline fill="none" stroke="black" points="366.5,-588 389.5,-588 "/>
<text text-anchor="middle" x="378" y="-572.8" font-family="Times,serif" font-size="14.00">1</text>
</g>
<!-- c811168P -->
<g id="node9" class="node">
<title>c811168P</title>
<path fill="yellow" stroke="black" d="M663,-630C663,-630 800,-630 800,-630 806,-630 812,-636 812,-642 812,-642 812,-664 812,-664 812,-670 806,-676 800,-676 800,-676 663,-676 663,-676 657,-676 651,-670 651,-664 651,-664 651,-642 651,-642 651,-636 657,-630 663,-630"/>
<text text-anchor="middle" x="683.5" y="-649.3" font-family="Times,serif" font-size="14.00">811168P</text>
<polyline fill="none" stroke="black" points="716,-630 716,-676 "/>
<text text-anchor="middle" x="752.5" y="-649.3" font-family="Times,serif" font-size="14.00">Tietoturva</text>
<polyline fill="none" stroke="black" points="789,-630 789,-676 "/>
<text text-anchor="middle" x="800.5" y="-660.8" font-family="Times,serif" font-size="14.00">1</text>
<polyline fill="none" stroke="black" points="789,-653 812,-653 "/>
<text text-anchor="middle" x="800.5" y="-637.8" font-family="Times,serif" font-size="14.00">3</text>
</g>
<!-- c810136P&#45;&gt;c811168P -->
<g id="edge3" class="edge">
<title>c810136P&#45;&gt;c811168P</title>
<path fill="none" stroke="black" d="M373,-611.25C373,-627.08 373,-645.17 373,-645.17 373,-645.17 640.6,-645.17 640.6,-645.17"/>
<polygon fill="black" stroke="black" points="640.6,-648.67 650.6,-645.17 640.6,-641.67 640.6,-648.67"/>
</g>
<!-- c811174P -->
<g id="node10" class="node">
<title>c811174P</title>
<path fill="yellow" stroke="black" d="M595,-565C595,-565 868,-565 868,-565 874,-565 880,-571 880,-577 880,-577 880,-599 880,-599 880,-605 874,-611 868,-611 868,-611 595,-611 595,-611 589,-611 583,-605 583,-599 583,-599 583,-577 583,-577 583,-571 589,-565 595,-565"/>
<text text-anchor="middle" x="615.5" y="-584.3" font-family="Times,serif" font-size="14.00">811174P</text>
<polyline fill="none" stroke="black" points="648,-565 648,-611 "/>
<text text-anchor="middle" x="752.5" y="-584.3" font-family="Times,serif" font-size="14.00">Ohjelmistoliiketoiminnan perusteet</text>
<polyline fill="none" stroke="black" points="857,-565 857,-611 "/>
<text text-anchor="middle" x="868.5" y="-595.8" font-family="Times,serif" font-size="14.00">1</text>
<polyline fill="none" stroke="black" points="857,-588 880,-588 "/>
<text text-anchor="middle" x="868.5" y="-572.8" font-family="Times,serif" font-size="14.00">3</text>
</g>
<!-- c810136P&#45;&gt;c811174P -->
<g id="edge5" class="edge">
<title>c810136P&#45;&gt;c811174P</title>
<path fill="none" stroke="black" d="M389.67,-588C389.67,-588 572.74,-588 572.74,-588"/>
<polygon fill="black" stroke="black" points="572.74,-591.5 582.74,-588 572.74,-584.5 572.74,-591.5"/>
</g>
<!-- c811103P -->
<g id="node14" class="node">
<title>c811103P</title>
<path fill="#caff70" stroke="black" d="M608,-470C608,-470 855,-470 855,-470 861,-470 867,-476 867,-482 867,-482 867,-504 867,-504 867,-510 861,-516 855,-516 855,-516 608,-516 608,-516 602,-516 596,-510 596,-504 596,-504 596,-482 596,-482 596,-476 602,-470 608,-470"/>
<text text-anchor="middle" x="628.5" y="-489.3" font-family="Times,serif" font-size="14.00">811103P</text>
<polyline fill="none" stroke="black" points="661,-470 661,-516 "/>
<text text-anchor="middle" x="752.5" y="-489.3" font-family="Times,serif" font-size="14.00">Johdatus ohjelmistotuotantoon</text>
<polyline fill="none" stroke="black" points="844,-470 844,-516 "/>
<text text-anchor="middle" x="855.5" y="-500.8" font-family="Times,serif" font-size="14.00">1</text>
<polyline fill="none" stroke="black" points="844,-493 867,-493 "/>
<text text-anchor="middle" x="855.5" y="-477.8" font-family="Times,serif" font-size="14.00">2</text>
</g>
<!-- c810136P&#45;&gt;c811103P -->
<g id="edge2" class="edge">
<title>c810136P&#45;&gt;c811103P</title>
<path fill="none" stroke="black" d="M385,-564.52C385,-536.38 385,-493 385,-493 385,-493 585.55,-493 585.55,-493"/>
<polygon fill="black" stroke="black" points="585.55,-496.5 595.55,-493 585.55,-489.5 585.55,-496.5"/>
</g>
<!-- c810136P&#45;&gt;c811383A -->
<g id="edge26" class="edge">
<title>c810136P&#45;&gt;c811383A</title>
<path fill="none" stroke="black" d="M379,-564.97C379,-554.32 379,-544 379,-544 379,-544 3482,-544 3482,-544 3482,-544 3482,-319.35 3482,-319.35"/>
<polygon fill="black" stroke="black" points="3485.5,-319.35 3482,-309.35 3478.5,-319.35 3485.5,-319.35"/>
</g>
<!-- c811102P -->
<g id="node11" class="node">
<title>c811102P</title>
<path fill="yellow" stroke="black" d="M146.5,-630C146.5,-630 344.5,-630 344.5,-630 350.5,-630 356.5,-636 356.5,-642 356.5,-642 356.5,-664 356.5,-664 356.5,-670 350.5,-676 344.5,-676 344.5,-676 146.5,-676 146.5,-676 140.5,-676 134.5,-670 134.5,-664 134.5,-664 134.5,-642 134.5,-642 134.5,-636 140.5,-630 146.5,-630"/>
<text text-anchor="middle" x="167" y="-649.3" font-family="Times,serif" font-size="14.00">811102P</text>
<polyline fill="none" stroke="black" points="199.5,-630 199.5,-676 "/>
<text text-anchor="middle" x="266.5" y="-649.3" font-family="Times,serif" font-size="14.00">Laitteet ja tietoverkot</text>
<polyline fill="none" stroke="black" points="333.5,-630 333.5,-676 "/>
<text text-anchor="middle" x="345" y="-660.8" font-family="Times,serif" font-size="14.00">1</text>
<polyline fill="none" stroke="black" points="333.5,-653 356.5,-653 "/>
<text text-anchor="middle" x="345" y="-637.8" font-family="Times,serif" font-size="14.00">1</text>
</g>
<!-- c811102P&#45;&gt;c811168P -->
<g id="edge4" class="edge">
<title>c811102P&#45;&gt;c811168P</title>
<path fill="none" stroke="black" d="M356.69,-660.83C356.69,-660.83 640.74,-660.83 640.74,-660.83"/>
<polygon fill="black" stroke="black" points="640.74,-664.33 650.74,-660.83 640.74,-657.33 640.74,-664.33"/>
</g>
<!-- c811104P -->
<g id="node12" class="node">
<title>c811104P</title>
<path fill="#ffd700" stroke="black" d="M161,-280C161,-280 330,-280 330,-280 336,-280 342,-286 342,-292 342,-292 342,-314 342,-314 342,-320 336,-326 330,-326 330,-326 161,-326 161,-326 155,-326 149,-320 149,-314 149,-314 149,-292 149,-292 149,-286 155,-280 161,-280"/>
<text text-anchor="middle" x="181.5" y="-299.3" font-family="Times,serif" font-size="14.00">811104P</text>
<polyline fill="none" stroke="black" points="214,-280 214,-326 "/>
<text text-anchor="middle" x="260.5" y="-299.3" font-family="Times,serif" font-size="14.00">Ohjelmointi 1</text>
<polyline fill="none" stroke="black" points="307,-280 307,-326 "/>
<text text-anchor="middle" x="324.5" y="-310.8" font-family="Times,serif" font-size="14.00">1</text>
<polyline fill="none" stroke="black" points="307,-303 342,-303 "/>
<text text-anchor="middle" x="324.5" y="-287.8" font-family="Times,serif" font-size="14.00">1&#45;2</text>
</g>
<!-- c811322A -->
<g id="node13" class="node">
<title>c811322A</title>
<path fill="#ffd700" stroke="black" d="M646,-280C646,-280 817,-280 817,-280 823,-280 829,-286 829,-292 829,-292 829,-314 829,-314 829,-320 823,-326 817,-326 817,-326 646,-326 646,-326 640,-326 634,-320 634,-314 634,-314 634,-292 634,-292 634,-286 640,-280 646,-280"/>
<text text-anchor="middle" x="667.5" y="-299.3" font-family="Times,serif" font-size="14.00">811322A</text>
<polyline fill="none" stroke="black" points="701,-280 701,-326 "/>
<text text-anchor="middle" x="747.5" y="-299.3" font-family="Times,serif" font-size="14.00">Ohjelmointi 2</text>
<polyline fill="none" stroke="black" points="794,-280 794,-326 "/>
<text text-anchor="middle" x="811.5" y="-310.8" font-family="Times,serif" font-size="14.00">1</text>
<polyline fill="none" stroke="black" points="794,-303 829,-303 "/>
<text text-anchor="middle" x="811.5" y="-287.8" font-family="Times,serif" font-size="14.00">3&#45;4</text>
</g>
<!-- c811104P&#45;&gt;c811322A -->
<g id="edge8" class="edge">
<title>c811104P&#45;&gt;c811322A</title>
<path fill="none" stroke="black" d="M342.1,-303C342.1,-303 623.84,-303 623.84,-303"/>
<polygon fill="black" stroke="black" points="623.84,-306.5 633.84,-303 623.84,-299.5 623.84,-306.5"/>
</g>
<!-- c811325A -->
<g id="node18" class="node">
<title>c811325A</title>
<path fill="#ffd700" stroke="black" d="M1729,-572C1729,-572 1876,-572 1876,-572 1882,-572 1888,-578 1888,-584 1888,-584 1888,-606 1888,-606 1888,-612 1882,-618 1876,-618 1876,-618 1729,-618 1729,-618 1723,-618 1717,-612 1717,-606 1717,-606 1717,-584 1717,-584 1717,-578 1723,-572 1729,-572"/>
<text text-anchor="middle" x="1750.5" y="-591.3" font-family="Times,serif" font-size="14.00">811325A</text>
<polyline fill="none" stroke="black" points="1784,-572 1784,-618 "/>
<text text-anchor="middle" x="1824.5" y="-591.3" font-family="Times,serif" font-size="14.00">Tietokannat</text>
<polyline fill="none" stroke="black" points="1865,-572 1865,-618 "/>
<text text-anchor="middle" x="1876.5" y="-602.8" font-family="Times,serif" font-size="14.00">2</text>
<polyline fill="none" stroke="black" points="1865,-595 1888,-595 "/>
<text text-anchor="middle" x="1876.5" y="-579.8" font-family="Times,serif" font-size="14.00">1</text>
</g>
<!-- c811322A&#45;&gt;c811325A -->
<g id="edge12" class="edge">
<title>c811322A&#45;&gt;c811325A</title>
<path fill="none" stroke="black" d="M829.12,-320.83C886.94,-320.83 949,-320.83 949,-320.83 949,-320.83 949,-591.5 949,-591.5 949,-591.5 1706.76,-591.5 1706.76,-591.5"/>
<polygon fill="black" stroke="black" points="1706.76,-595 1716.76,-591.5 1706.76,-588 1706.76,-595"/>
</g>
<!-- c811301A -->
<g id="node22" class="node">
<title>c811301A</title>
<path fill="#caff70" stroke="black" d="M1261,-667C1261,-667 1560,-667 1560,-667 1566,-667 1572,-673 1572,-679 1572,-679 1572,-701 1572,-701 1572,-707 1566,-713 1560,-713 1560,-713 1261,-713 1261,-713 1255,-713 1249,-707 1249,-701 1249,-701 1249,-679 1249,-679 1249,-673 1255,-667 1261,-667"/>
<text text-anchor="middle" x="1282.5" y="-686.3" font-family="Times,serif" font-size="14.00">811301A</text>
<polyline fill="none" stroke="black" points="1316,-667 1316,-713 "/>
<text text-anchor="middle" x="1432.5" y="-686.3" font-family="Times,serif" font-size="14.00"> Ohjelmistojen mallinnus ja suunnittelu</text>
<polyline fill="none" stroke="black" points="1549,-667 1549,-713 "/>
<text text-anchor="middle" x="1560.5" y="-697.8" font-family="Times,serif" font-size="14.00">2</text>
<polyline fill="none" stroke="black" points="1549,-690 1572,-690 "/>
<text text-anchor="middle" x="1560.5" y="-674.8" font-family="Times,serif" font-size="14.00">1</text>
</g>
<!-- c811322A&#45;&gt;c811301A -->
<g id="edge14" class="edge">
<title>c811322A&#45;&gt;c811301A</title>
<path fill="none" stroke="black" d="M829.25,-315.17C985.22,-315.17 1273,-315.17 1273,-315.17 1273,-315.17 1273,-656.84 1273,-656.84"/>
<polygon fill="black" stroke="black" points="1269.5,-656.84 1273,-666.84 1276.5,-656.84 1269.5,-656.84"/>
</g>
<!-- c811391A -->
<g id="node15" class="node">
<title>c811391A</title>
<path fill="#caff70" stroke="black" d="M1008,-470C1008,-470 1197,-470 1197,-470 1203,-470 1209,-476 1209,-482 1209,-482 1209,-504 1209,-504 1209,-510 1203,-516 1197,-516 1197,-516 1008,-516 1008,-516 1002,-516 996,-510 996,-504 996,-504 996,-482 996,-482 996,-476 1002,-470 1008,-470"/>
<text text-anchor="middle" x="1029.5" y="-489.3" font-family="Times,serif" font-size="14.00">811391A</text>
<polyline fill="none" stroke="black" points="1063,-470 1063,-516 "/>
<text text-anchor="middle" x="1124.5" y="-489.3" font-family="Times,serif" font-size="14.00">Vaatimusmäärittely</text>
<polyline fill="none" stroke="black" points="1186,-470 1186,-516 "/>
<text text-anchor="middle" x="1197.5" y="-500.8" font-family="Times,serif" font-size="14.00">1</text>
<polyline fill="none" stroke="black" points="1186,-493 1209,-493 "/>
<text text-anchor="middle" x="1197.5" y="-477.8" font-family="Times,serif" font-size="14.00">4</text>
</g>
<!-- c811103P&#45;&gt;c811391A -->
<g id="edge6" class="edge">
<title>c811103P&#45;&gt;c811391A</title>
<path fill="none" stroke="black" d="M867.01,-493C867.01,-493 985.81,-493 985.81,-493"/>
<polygon fill="black" stroke="black" points="985.81,-496.5 995.81,-493 985.81,-489.5 985.81,-496.5"/>
</g>
<!-- c811391A&#45;&gt;c811301A -->
<g id="edge13" class="edge">
<title>c811391A&#45;&gt;c811301A</title>
<path fill="none" stroke="black" d="M1209.1,-496.5C1237.77,-496.5 1261,-496.5 1261,-496.5 1261,-496.5 1261,-656.66 1261,-656.66"/>
<polygon fill="black" stroke="black" points="1257.5,-656.66 1261,-666.66 1264.5,-656.66 1257.5,-656.66"/>
</g>
<!-- c811166P -->
<g id="node16" class="node">
<title>c811166P</title>
<path fill="antiquewhite" stroke="black" d="M129.5,-375C129.5,-375 361.5,-375 361.5,-375 367.5,-375 373.5,-381 373.5,-387 373.5,-387 373.5,-409 373.5,-409 373.5,-415 367.5,-421 361.5,-421 361.5,-421 129.5,-421 129.5,-421 123.5,-421 117.5,-415 117.5,-409 117.5,-409 117.5,-387 117.5,-387 117.5,-381 123.5,-375 129.5,-375"/>
<text text-anchor="middle" x="150" y="-394.3" font-family="Times,serif" font-size="14.00">811166P</text>
<polyline fill="none" stroke="black" points="182.5,-375 182.5,-421 "/>
<text text-anchor="middle" x="266.5" y="-394.3" font-family="Times,serif" font-size="14.00">Tietojärjestelmien perusteet</text>
<polyline fill="none" stroke="black" points="350.5,-375 350.5,-421 "/>
<text text-anchor="middle" x="362" y="-405.8" font-family="Times,serif" font-size="14.00">1</text>
<polyline fill="none" stroke="black" points="350.5,-398 373.5,-398 "/>
<text text-anchor="middle" x="362" y="-382.8" font-family="Times,serif" font-size="14.00">2</text>
</g>
<!-- c812360A -->
<g id="node17" class="node">
<title>c812360A</title>
<path fill="antiquewhite" stroke="black" d="M537,-375C537,-375 926,-375 926,-375 932,-375 938,-381 938,-387 938,-387 938,-409 938,-409 938,-415 932,-421 926,-421 926,-421 537,-421 537,-421 531,-421 525,-415 525,-409 525,-409 525,-387 525,-387 525,-381 531,-375 537,-375"/>
<text text-anchor="middle" x="558.5" y="-394.3" font-family="Times,serif" font-size="14.00">812360A</text>
<polyline fill="none" stroke="black" points="592,-375 592,-421 "/>
<text text-anchor="middle" x="753.5" y="-394.3" font-family="Times,serif" font-size="14.00">Tietojärjestelmien mallintaminen, suunnittelu ja kehitys</text>
<polyline fill="none" stroke="black" points="915,-375 915,-421 "/>
<text text-anchor="middle" x="926.5" y="-405.8" font-family="Times,serif" font-size="14.00">1</text>
<polyline fill="none" stroke="black" points="915,-398 938,-398 "/>
<text text-anchor="middle" x="926.5" y="-382.8" font-family="Times,serif" font-size="14.00">4</text>
</g>
<!-- c811166P&#45;&gt;c812360A -->
<g id="edge7" class="edge">
<title>c811166P&#45;&gt;c812360A</title>
<path fill="none" stroke="black" d="M373.51,-398C373.51,-398 514.56,-398 514.56,-398"/>
<polygon fill="black" stroke="black" points="514.56,-401.5 524.56,-398 514.56,-394.5 514.56,-401.5"/>
</g>
<!-- c812363A -->
<g id="node26" class="node">
<title>c812363A</title>
<path fill="antiquewhite" stroke="black" d="M1296.5,-477C1296.5,-477 1524.5,-477 1524.5,-477 1530.5,-477 1536.5,-483 1536.5,-489 1536.5,-489 1536.5,-511 1536.5,-511 1536.5,-517 1530.5,-523 1524.5,-523 1524.5,-523 1296.5,-523 1296.5,-523 1290.5,-523 1284.5,-517 1284.5,-511 1284.5,-511 1284.5,-489 1284.5,-489 1284.5,-483 1290.5,-477 1296.5,-477"/>
<text text-anchor="middle" x="1318" y="-496.3" font-family="Times,serif" font-size="14.00">812363A</text>
<polyline fill="none" stroke="black" points="1351.5,-477 1351.5,-523 "/>
<text text-anchor="middle" x="1432.5" y="-496.3" font-family="Times,serif" font-size="14.00">Ihmislähtöinen suunnittelu</text>
<polyline fill="none" stroke="black" points="1513.5,-477 1513.5,-523 "/>
<text text-anchor="middle" x="1525" y="-507.8" font-family="Times,serif" font-size="14.00">2</text>
<polyline fill="none" stroke="black" points="1513.5,-500 1536.5,-500 "/>
<text text-anchor="middle" x="1525" y="-484.8" font-family="Times,serif" font-size="14.00">1</text>
</g>
<!-- c812360A&#45;&gt;c812363A -->
<g id="edge19" class="edge">
<title>c812360A&#45;&gt;c812363A</title>
<path fill="none" stroke="black" d="M909,-421.23C909,-456.63 909,-520 909,-520 909,-520 1274.27,-520 1274.27,-520"/>
<polygon fill="black" stroke="black" points="1274.27,-523.5 1284.27,-520 1274.27,-516.5 1274.27,-523.5"/>
</g>
<!-- c811312A -->
<g id="node19" class="node">
<title>c811312A</title>
<path fill="#ffd700" stroke="black" d="M2116.5,-572C2116.5,-572 2348.5,-572 2348.5,-572 2354.5,-572 2360.5,-578 2360.5,-584 2360.5,-584 2360.5,-606 2360.5,-606 2360.5,-612 2354.5,-618 2348.5,-618 2348.5,-618 2116.5,-618 2116.5,-618 2110.5,-618 2104.5,-612 2104.5,-606 2104.5,-606 2104.5,-584 2104.5,-584 2104.5,-578 2110.5,-572 2116.5,-572"/>
<text text-anchor="middle" x="2138" y="-591.3" font-family="Times,serif" font-size="14.00">811312A</text>
<polyline fill="none" stroke="black" points="2171.5,-572 2171.5,-618 "/>
<text text-anchor="middle" x="2254.5" y="-591.3" font-family="Times,serif" font-size="14.00">Tietorakenteet ja algoritmit</text>
<polyline fill="none" stroke="black" points="2337.5,-572 2337.5,-618 "/>
<text text-anchor="middle" x="2349" y="-602.8" font-family="Times,serif" font-size="14.00">2</text>
<polyline fill="none" stroke="black" points="2337.5,-595 2360.5,-595 "/>
<text text-anchor="middle" x="2349" y="-579.8" font-family="Times,serif" font-size="14.00">2</text>
</g>
<!-- c811325A&#45;&gt;c811312A -->
<g id="edge11" class="edge">
<title>c811325A&#45;&gt;c811312A</title>
<path fill="none" stroke="black" d="M1888.23,-587.17C1888.23,-587.17 2094.09,-587.17 2094.09,-587.17"/>
<polygon fill="black" stroke="black" points="2094.09,-590.67 2104.09,-587.17 2094.09,-583.67 2094.09,-590.67"/>
</g>
<!-- c811319A -->
<g id="node24" class="node">
<title>c811319A</title>
<path fill="#caff70" stroke="black" d="M2109,-667C2109,-667 2356,-667 2356,-667 2362,-667 2368,-673 2368,-679 2368,-679 2368,-701 2368,-701 2368,-707 2362,-713 2356,-713 2356,-713 2109,-713 2109,-713 2103,-713 2097,-707 2097,-701 2097,-701 2097,-679 2097,-679 2097,-673 2103,-667 2109,-667"/>
<text text-anchor="middle" x="2130.5" y="-686.3" font-family="Times,serif" font-size="14.00">811319A</text>
<polyline fill="none" stroke="black" points="2164,-667 2164,-713 "/>
<text text-anchor="middle" x="2254.5" y="-686.3" font-family="Times,serif" font-size="14.00">Tietomallinnus ja &#45;suunnittelu</text>
<polyline fill="none" stroke="black" points="2345,-667 2345,-713 "/>
<text text-anchor="middle" x="2356.5" y="-697.8" font-family="Times,serif" font-size="14.00">2</text>
<polyline fill="none" stroke="black" points="2345,-690 2368,-690 "/>
<text text-anchor="middle" x="2356.5" y="-674.8" font-family="Times,serif" font-size="14.00">3</text>
</g>
<!-- c811325A&#45;&gt;c811319A -->
<g id="edge17" class="edge">
<title>c811325A&#45;&gt;c811319A</title>
<path fill="none" stroke="black" d="M1888.04,-602.83C1976.24,-602.83 2101,-602.83 2101,-602.83 2101,-602.83 2101,-656.64 2101,-656.64"/>
<polygon fill="black" stroke="black" points="2097.5,-656.64 2101,-666.64 2104.5,-656.64 2097.5,-656.64"/>
</g>
<!-- c811367A -->
<g id="node20" class="node">
<title>c811367A</title>
<path fill="#ffd700" stroke="black" d="M2509,-572C2509,-572 2668,-572 2668,-572 2674,-572 2680,-578 2680,-584 2680,-584 2680,-606 2680,-606 2680,-612 2674,-618 2668,-618 2668,-618 2509,-618 2509,-618 2503,-618 2497,-612 2497,-606 2497,-606 2497,-584 2497,-584 2497,-578 2503,-572 2509,-572"/>
<text text-anchor="middle" x="2530.5" y="-591.3" font-family="Times,serif" font-size="14.00">811367A</text>
<polyline fill="none" stroke="black" points="2564,-572 2564,-618 "/>
<text text-anchor="middle" x="2610.5" y="-591.3" font-family="Times,serif" font-size="14.00">Ohjelmointi 3</text>
<polyline fill="none" stroke="black" points="2657,-572 2657,-618 "/>
<text text-anchor="middle" x="2668.5" y="-602.8" font-family="Times,serif" font-size="14.00">2</text>
<polyline fill="none" stroke="black" points="2657,-595 2680,-595 "/>
<text text-anchor="middle" x="2668.5" y="-579.8" font-family="Times,serif" font-size="14.00">3</text>
</g>
<!-- c811312A&#45;&gt;c811367A -->
<g id="edge9" class="edge">
<title>c811312A&#45;&gt;c811367A</title>
<path fill="none" stroke="black" d="M2360.52,-595C2360.52,-595 2486.74,-595 2486.74,-595"/>
<polygon fill="black" stroke="black" points="2486.74,-598.5 2496.74,-595 2486.74,-591.5 2486.74,-598.5"/>
</g>
<!-- c811368A -->
<g id="node21" class="node">
<title>c811368A</title>
<path fill="#ffd700" stroke="black" d="M2825.5,-572C2825.5,-572 2984.5,-572 2984.5,-572 2990.5,-572 2996.5,-578 2996.5,-584 2996.5,-584 2996.5,-606 2996.5,-606 2996.5,-612 2990.5,-618 2984.5,-618 2984.5,-618 2825.5,-618 2825.5,-618 2819.5,-618 2813.5,-612 2813.5,-606 2813.5,-606 2813.5,-584 2813.5,-584 2813.5,-578 2819.5,-572 2825.5,-572"/>
<text text-anchor="middle" x="2847" y="-591.3" font-family="Times,serif" font-size="14.00">811368A</text>
<polyline fill="none" stroke="black" points="2880.5,-572 2880.5,-618 "/>
<text text-anchor="middle" x="2927" y="-591.3" font-family="Times,serif" font-size="14.00">Ohjelmointi 4</text>
<polyline fill="none" stroke="black" points="2973.5,-572 2973.5,-618 "/>
<text text-anchor="middle" x="2985" y="-602.8" font-family="Times,serif" font-size="14.00">2</text>
<polyline fill="none" stroke="black" points="2973.5,-595 2996.5,-595 "/>
<text text-anchor="middle" x="2985" y="-579.8" font-family="Times,serif" font-size="14.00">4</text>
</g>
<!-- c811367A&#45;&gt;c811368A -->
<g id="edge10" class="edge">
<title>c811367A&#45;&gt;c811368A</title>
<path fill="none" stroke="black" d="M2680.04,-595C2680.04,-595 2803.39,-595 2803.39,-595"/>
<polygon fill="black" stroke="black" points="2803.39,-598.5 2813.39,-595 2803.39,-591.5 2803.39,-598.5"/>
</g>
<!-- c811398A -->
<g id="node32" class="node">
<title>c811398A</title>
<path fill="azure" stroke="black" d="M3122.5,-328C3122.5,-328 3322.5,-328 3322.5,-328 3328.5,-328 3334.5,-334 3334.5,-340 3334.5,-340 3334.5,-362 3334.5,-362 3334.5,-368 3328.5,-374 3322.5,-374 3322.5,-374 3122.5,-374 3122.5,-374 3116.5,-374 3110.5,-368 3110.5,-362 3110.5,-362 3110.5,-340 3110.5,-340 3110.5,-334 3116.5,-328 3122.5,-328"/>
<text text-anchor="middle" x="3144" y="-347.3" font-family="Times,serif" font-size="14.00">811398A</text>
<polyline fill="none" stroke="black" points="3177.5,-328 3177.5,-374 "/>
<text text-anchor="middle" x="3238.5" y="-347.3" font-family="Times,serif" font-size="14.00">Kandidaattiprojekti</text>
<polyline fill="none" stroke="black" points="3299.5,-328 3299.5,-374 "/>
<text text-anchor="middle" x="3317" y="-358.8" font-family="Times,serif" font-size="14.00">3</text>
<polyline fill="none" stroke="black" points="3299.5,-351 3334.5,-351 "/>
<text text-anchor="middle" x="3317" y="-335.8" font-family="Times,serif" font-size="14.00">3&#45;4</text>
</g>
<!-- c811368A&#45;&gt;c811398A -->
<g id="edge31" class="edge">
<title>c811368A&#45;&gt;c811398A</title>
<path fill="none" stroke="black" d="M2996.55,-595C3090.5,-595 3223,-595 3223,-595 3223,-595 3223,-384.4 3223,-384.4"/>
<polygon fill="black" stroke="black" points="3226.5,-384.4 3223,-374.4 3219.5,-384.4 3226.5,-384.4"/>
</g>
<!-- c811306A -->
<g id="node23" class="node">
<title>c811306A</title>
<path fill="#caff70" stroke="black" d="M1680.5,-667C1680.5,-667 1924.5,-667 1924.5,-667 1930.5,-667 1936.5,-673 1936.5,-679 1936.5,-679 1936.5,-701 1936.5,-701 1936.5,-707 1930.5,-713 1924.5,-713 1924.5,-713 1680.5,-713 1680.5,-713 1674.5,-713 1668.5,-707 1668.5,-701 1668.5,-701 1668.5,-679 1668.5,-679 1668.5,-673 1674.5,-667 1680.5,-667"/>
<text text-anchor="middle" x="1702" y="-686.3" font-family="Times,serif" font-size="14.00">811306A</text>
<polyline fill="none" stroke="black" points="1735.5,-667 1735.5,-713 "/>
<text text-anchor="middle" x="1824.5" y="-686.3" font-family="Times,serif" font-size="14.00">Ohjelmistojen laatu ja testaus</text>
<polyline fill="none" stroke="black" points="1913.5,-667 1913.5,-713 "/>
<text text-anchor="middle" x="1925" y="-697.8" font-family="Times,serif" font-size="14.00">2</text>
<polyline fill="none" stroke="black" points="1913.5,-690 1936.5,-690 "/>
<text text-anchor="middle" x="1925" y="-674.8" font-family="Times,serif" font-size="14.00">2</text>
</g>
<!-- c811301A&#45;&gt;c811306A -->
<g id="edge15" class="edge">
<title>c811301A&#45;&gt;c811306A</title>
<path fill="none" stroke="black" d="M1572.2,-690C1572.2,-690 1658.28,-690 1658.28,-690"/>
<polygon fill="black" stroke="black" points="1658.28,-693.5 1668.28,-690 1658.28,-686.5 1658.28,-693.5"/>
</g>
<!-- c811306A&#45;&gt;c811319A -->
<g id="edge16" class="edge">
<title>c811306A&#45;&gt;c811319A</title>
<path fill="none" stroke="black" d="M1936.79,-690C1936.79,-690 2086.64,-690 2086.64,-690"/>
<polygon fill="black" stroke="black" points="2086.64,-693.5 2096.64,-690 2086.64,-686.5 2086.64,-693.5"/>
</g>
<!-- c815345A -->
<g id="node25" class="node">
<title>c815345A</title>
<path fill="#caff70" stroke="black" d="M2480,-667C2480,-667 2697,-667 2697,-667 2703,-667 2709,-673 2709,-679 2709,-679 2709,-701 2709,-701 2709,-707 2703,-713 2697,-713 2697,-713 2480,-713 2480,-713 2474,-713 2468,-707 2468,-701 2468,-701 2468,-679 2468,-679 2468,-673 2474,-667 2480,-667"/>
<text text-anchor="middle" x="2501.5" y="-686.3" font-family="Times,serif" font-size="14.00">815345A</text>
<polyline fill="none" stroke="black" points="2535,-667 2535,-713 "/>
<text text-anchor="middle" x="2610.5" y="-686.3" font-family="Times,serif" font-size="14.00">Ohjelmistoarkkitehtuurit</text>
<polyline fill="none" stroke="black" points="2686,-667 2686,-713 "/>
<text text-anchor="middle" x="2697.5" y="-697.8" font-family="Times,serif" font-size="14.00">2</text>
<polyline fill="none" stroke="black" points="2686,-690 2709,-690 "/>
<text text-anchor="middle" x="2697.5" y="-674.8" font-family="Times,serif" font-size="14.00">4</text>
</g>
<!-- c811319A&#45;&gt;c815345A -->
<g id="edge18" class="edge">
<title>c811319A&#45;&gt;c815345A</title>
<path fill="none" stroke="black" d="M2368.1,-690C2368.1,-690 2457.85,-690 2457.85,-690"/>
<polygon fill="black" stroke="black" points="2457.85,-693.5 2467.85,-690 2457.85,-686.5 2457.85,-693.5"/>
</g>
<!-- c815345A&#45;&gt;c811398A -->
<g id="edge30" class="edge">
<title>c815345A&#45;&gt;c811398A</title>
<path fill="none" stroke="black" d="M2695,-666.98C2695,-588.31 2695,-335 2695,-335 2695,-335 3100.31,-335 3100.31,-335"/>
<polygon fill="black" stroke="black" points="3100.31,-338.5 3110.31,-335 3100.31,-331.5 3100.31,-338.5"/>
</g>
<!-- c812361A -->
<g id="node27" class="node">
<title>c812361A</title>
<path fill="antiquewhite" stroke="black" d="M1620,-477C1620,-477 1985,-477 1985,-477 1991,-477 1997,-483 1997,-489 1997,-489 1997,-511 1997,-511 1997,-517 1991,-523 1985,-523 1985,-523 1620,-523 1620,-523 1614,-523 1608,-517 1608,-511 1608,-511 1608,-489 1608,-489 1608,-483 1614,-477 1620,-477"/>
<text text-anchor="middle" x="1641.5" y="-496.3" font-family="Times,serif" font-size="14.00">812361A</text>
<polyline fill="none" stroke="black" points="1675,-477 1675,-523 "/>
<text text-anchor="middle" x="1824.5" y="-496.3" font-family="Times,serif" font-size="14.00">Tietojärjestelmien hankinta, käyttöönotto ja hallinta</text>
<polyline fill="none" stroke="black" points="1974,-477 1974,-523 "/>
<text text-anchor="middle" x="1985.5" y="-507.8" font-family="Times,serif" font-size="14.00">2</text>
<polyline fill="none" stroke="black" points="1974,-500 1997,-500 "/>
<text text-anchor="middle" x="1985.5" y="-484.8" font-family="Times,serif" font-size="14.00">2</text>
</g>
<!-- c812363A&#45;&gt;c812361A -->
<g id="edge20" class="edge">
<title>c812363A&#45;&gt;c812361A</title>
<path fill="none" stroke="black" d="M1536.69,-500C1536.69,-500 1597.7,-500 1597.7,-500"/>
<polygon fill="black" stroke="black" points="1597.7,-503.5 1607.7,-500 1597.7,-496.5 1597.7,-503.5"/>
</g>
<!-- c812362A -->
<g id="node28" class="node">
<title>c812362A</title>
<path fill="antiquewhite" stroke="black" d="M2045,-477C2045,-477 2420,-477 2420,-477 2426,-477 2432,-483 2432,-489 2432,-489 2432,-511 2432,-511 2432,-517 2426,-523 2420,-523 2420,-523 2045,-523 2045,-523 2039,-523 2033,-517 2033,-511 2033,-511 2033,-489 2033,-489 2033,-483 2039,-477 2045,-477"/>
<text text-anchor="middle" x="2066.5" y="-496.3" font-family="Times,serif" font-size="14.00">812362A</text>
<polyline fill="none" stroke="black" points="2100,-477 2100,-523 "/>
<text text-anchor="middle" x="2254.5" y="-496.3" font-family="Times,serif" font-size="14.00">Liiketoimintaprosessien johtaminen ja mallintaminen</text>
<polyline fill="none" stroke="black" points="2409,-477 2409,-523 "/>
<text text-anchor="middle" x="2420.5" y="-507.8" font-family="Times,serif" font-size="14.00">2</text>
<polyline fill="none" stroke="black" points="2409,-500 2432,-500 "/>
<text text-anchor="middle" x="2420.5" y="-484.8" font-family="Times,serif" font-size="14.00">3</text>
</g>
<!-- c812361A&#45;&gt;c812362A -->
<g id="edge21" class="edge">
<title>c812361A&#45;&gt;c812362A</title>
<path fill="none" stroke="black" d="M1997.06,-500C1997.06,-500 2022.85,-500 2022.85,-500"/>
<polygon fill="black" stroke="black" points="2022.86,-503.5 2032.85,-500 2022.85,-496.5 2022.86,-503.5"/>
</g>
<!-- c812364A -->
<g id="node31" class="node">
<title>c812364A</title>
<path fill="antiquewhite" stroke="black" d="M2757,-248C2757,-248 3053,-248 3053,-248 3059,-248 3065,-254 3065,-260 3065,-260 3065,-282 3065,-282 3065,-288 3059,-294 3053,-294 3053,-294 2757,-294 2757,-294 2751,-294 2745,-288 2745,-282 2745,-282 2745,-260 2745,-260 2745,-254 2751,-248 2757,-248"/>
<text text-anchor="middle" x="2778.5" y="-267.3" font-family="Times,serif" font-size="14.00">812364A</text>
<polyline fill="none" stroke="black" points="2812,-248 2812,-294 "/>
<text text-anchor="middle" x="2927" y="-267.3" font-family="Times,serif" font-size="14.00">Data&#45;analytiikka liiketoiminnan tukena</text>
<polyline fill="none" stroke="black" points="3042,-248 3042,-294 "/>
<text text-anchor="middle" x="3053.5" y="-278.8" font-family="Times,serif" font-size="14.00">3</text>
<polyline fill="none" stroke="black" points="3042,-271 3065,-271 "/>
<text text-anchor="middle" x="3053.5" y="-255.8" font-family="Times,serif" font-size="14.00">4</text>
</g>
<!-- c812362A&#45;&gt;c812364A -->
<g id="edge22" class="edge">
<title>c812362A&#45;&gt;c812364A</title>
<path fill="none" stroke="black" d="M2432.25,-492.17C2579.03,-492.17 2753,-492.17 2753,-492.17 2753,-492.17 2753,-304.25 2753,-304.25"/>
<polygon fill="black" stroke="black" points="2756.5,-304.25 2753,-294.25 2749.5,-304.25 2756.5,-304.25"/>
</g>
<!-- c812362A&#45;&gt;c811398A -->
<g id="edge32" class="edge">
<title>c812362A&#45;&gt;c811398A</title>
<path fill="none" stroke="black" d="M2432.11,-507.83C2706.6,-507.83 3167,-507.83 3167,-507.83 3167,-507.83 3167,-384.14 3167,-384.14"/>
<polygon fill="black" stroke="black" points="3170.5,-384.14 3167,-374.14 3163.5,-384.14 3170.5,-384.14"/>
</g>
<!-- c811397A -->
<g id="node29" class="node">
<title>c811397A</title>
<path fill="azure" stroke="black" d="M1294,-762C1294,-762 1527,-762 1527,-762 1533,-762 1539,-768 1539,-774 1539,-774 1539,-796 1539,-796 1539,-802 1533,-808 1527,-808 1527,-808 1294,-808 1294,-808 1288,-808 1282,-802 1282,-796 1282,-796 1282,-774 1282,-774 1282,-768 1288,-762 1294,-762"/>
<text text-anchor="middle" x="1315.5" y="-781.3" font-family="Times,serif" font-size="14.00">811397A</text>
<polyline fill="none" stroke="black" points="1349,-762 1349,-808 "/>
<text text-anchor="middle" x="1432.5" y="-781.3" font-family="Times,serif" font-size="14.00">Projektitoiminnan perusteet</text>
<polyline fill="none" stroke="black" points="1516,-762 1516,-808 "/>
<text text-anchor="middle" x="1527.5" y="-792.8" font-family="Times,serif" font-size="14.00">2</text>
<polyline fill="none" stroke="black" points="1516,-785 1539,-785 "/>
<text text-anchor="middle" x="1527.5" y="-769.8" font-family="Times,serif" font-size="14.00">4</text>
</g>
<!-- c811397A&#45;&gt;c811398A -->
<g id="edge29" class="edge">
<title>c811397A&#45;&gt;c811398A</title>
<path fill="none" stroke="black" d="M1539.3,-785C1961.84,-785 3279,-785 3279,-785 3279,-785 3279,-384.03 3279,-384.03"/>
<polygon fill="black" stroke="black" points="3282.5,-384.03 3279,-374.03 3275.5,-384.03 3282.5,-384.03"/>
</g>
<!-- c900105Y -->
<g id="node30" class="node">
<title>c900105Y</title>
<path fill="gainsboro" stroke="black" d="M2773,-343C2773,-343 3037,-343 3037,-343 3043,-343 3049,-349 3049,-355 3049,-355 3049,-377 3049,-377 3049,-383 3043,-389 3037,-389 3037,-389 2773,-389 2773,-389 2767,-389 2761,-383 2761,-377 2761,-377 2761,-355 2761,-355 2761,-349 2767,-343 2773,-343"/>
<text text-anchor="middle" x="2794.5" y="-362.3" font-family="Times,serif" font-size="14.00">900105Y</text>
<polyline fill="none" stroke="black" points="2828,-343 2828,-389 "/>
<text text-anchor="middle" x="2927" y="-362.3" font-family="Times,serif" font-size="14.00">Suuntaa uralle viestinnän keinoin</text>
<polyline fill="none" stroke="black" points="3026,-343 3026,-389 "/>
<text text-anchor="middle" x="3037.5" y="-373.8" font-family="Times,serif" font-size="14.00">3</text>
<polyline fill="none" stroke="black" points="3026,-366 3049,-366 "/>
<text text-anchor="middle" x="3037.5" y="-350.8" font-family="Times,serif" font-size="14.00">3</text>
</g>
<!-- c900105Y&#45;&gt;c811393A -->
<g id="edge28" class="edge">
<title>c900105Y&#45;&gt;c811393A</title>
<path fill="none" stroke="black" d="M3049.21,-358.5C3081.29,-358.5 3106,-358.5 3106,-358.5 3106,-358.5 3106,-319.34 3106,-319.34"/>
<polygon fill="black" stroke="black" points="3109.5,-319.34 3106,-309.34 3102.5,-319.34 3109.5,-319.34"/>
</g>
<!-- c811393A&#45;&gt;c811383A -->
<g id="edge25" class="edge">
<title>c811393A&#45;&gt;c811383A</title>
<path fill="none" stroke="black" d="M3344.04,-286C3344.04,-286 3369.78,-286 3369.78,-286"/>
<polygon fill="black" stroke="black" points="3369.78,-289.5 3379.78,-286 3369.78,-282.5 3369.78,-289.5"/>
</g>
<!-- c813307A -->
<g id="node35" class="node">
<title>c813307A</title>
<path fill="azure" stroke="black" d="M3631,-263C3631,-263 3794,-263 3794,-263 3800,-263 3806,-269 3806,-275 3806,-275 3806,-297 3806,-297 3806,-303 3800,-309 3794,-309 3794,-309 3631,-309 3631,-309 3625,-309 3619,-303 3619,-297 3619,-297 3619,-275 3619,-275 3619,-269 3625,-263 3631,-263"/>
<text text-anchor="middle" x="3652.5" y="-282.3" font-family="Times,serif" font-size="14.00">813307A</text>
<polyline fill="none" stroke="black" points="3686,-263 3686,-309 "/>
<text text-anchor="middle" x="3734.5" y="-282.3" font-family="Times,serif" font-size="14.00"> Kypsyysnäyte</text>
<polyline fill="none" stroke="black" points="3783,-263 3783,-309 "/>
<text text-anchor="middle" x="3794.5" y="-293.8" font-family="Times,serif" font-size="14.00">3</text>
<polyline fill="none" stroke="black" points="3783,-286 3806,-286 "/>
<text text-anchor="middle" x="3794.5" y="-270.8" font-family="Times,serif" font-size="14.00">4</text>
</g>
<!-- c811383A&#45;&gt;c813307A -->
<g id="edge27" class="edge">
<title>c811383A&#45;&gt;c813307A</title>
<path fill="none" stroke="black" d="M3583.16,-286C3583.16,-286 3608.83,-286 3608.83,-286"/>
<polygon fill="black" stroke="black" points="3608.83,-289.5 3618.83,-286 3608.83,-282.5 3608.83,-289.5"/>
</g>
</g>
</svg>
