<?xml version="1.0" encoding="UTF-8" standalone="no"?>
<!DOCTYPE svg PUBLIC "-//W3C//DTD SVG 1.1//EN"
 "http://www.w3.org/Graphics/SVG/1.1/DTD/svg11.dtd">
<!-- Generated by graphviz version 2.44.0 (20200408.0750)
 -->
<!-- Title: TOLLuK Pages: 1 -->
<svg width="1750pt" height="911pt"
 viewBox="0.00 0.00 1750.31 911.00" xmlns="http://www.w3.org/2000/svg" xmlns:xlink="http://www.w3.org/1999/xlink">
<g id="graph0" class="graph" transform="scale(1 1) rotate(0) translate(4 907)">
<title>TOLLuK</title>
<polygon fill="white" stroke="transparent" points="-4,4 -4,-907 1746.31,-907 1746.31,4 -4,4"/>
<g id="clust1" class="cluster">
<title>cluster_Legend</title>
<g id="a_clust1"><a xlink:href="https://github.com/anttijuu/tol-courses-graph" xlink:title="Legend">
<polygon fill="none" stroke="black" stroke-dasharray="1,5" points="67.31,-786 67.31,-895 253.31,-895 253.31,-786 67.31,-786"/>
<text text-anchor="middle" x="160.31" y="-879.8" font-family="Times,serif" font-size="14.00">Legend</text>
</a>
</g>
</g>
<g id="clust2" class="cluster">
<title>cluster_Yleiset</title>
<polygon fill="none" stroke="black" stroke-dasharray="1,5" points="1001.31,-231 1001.31,-340 1367.31,-340 1367.31,-231 1001.31,-231"/>
<text text-anchor="middle" x="1184.31" y="-324.8" font-family="Times,serif" font-size="14.00">Yleiset</text>
</g>
<g id="clust3" class="cluster">
<title>cluster_Johdanto</title>
<polygon fill="none" stroke="black" stroke-dasharray="1,5" points="293.31,-669 293.31,-895 803.31,-895 803.31,-669 293.31,-669"/>
<text text-anchor="middle" x="548.31" y="-879.8" font-family="Times,serif" font-size="14.00">Johdanto</text>
</g>
<g id="clust4" class="cluster">
<title>cluster_Ohjelmointi</title>
<polygon fill="none" stroke="black" stroke-dasharray="1,5" points="811.31,-114 811.31,-778 993.31,-778 993.31,-114 811.31,-114"/>
<text text-anchor="middle" x="902.31" y="-762.8" font-family="Times,serif" font-size="14.00">Ohjelmointi</text>
</g>
<g id="clust5" class="cluster">
<title>cluster_Ohjelmistokehitys</title>
<polygon fill="none" stroke="black" stroke-dasharray="1,5" points="35.31,-114 35.31,-778 285.31,-778 285.31,-114 35.31,-114"/>
<text text-anchor="middle" x="160.31" y="-762.8" font-family="Times,serif" font-size="14.00">Ohjelmistokehitys</text>
</g>
<g id="clust6" class="cluster">
<title>cluster_IhminenOrganisaatio</title>
<polygon fill="none" stroke="black" stroke-dasharray="1,5" points="1394.31,-8 1394.31,-661 1734.31,-661 1734.31,-8 1394.31,-8"/>
<text text-anchor="middle" x="1564.31" y="-645.8" font-family="Times,serif" font-size="14.00">Ihminen ja organisaatio</text>
</g>
<g id="clust7" class="cluster">
<title>cluster_Huipennus</title>
<polygon fill="none" stroke="black" stroke-dasharray="1,5" points="1031.31,-8 1031.31,-223 1386.31,-223 1386.31,-8 1031.31,-8"/>
<text text-anchor="middle" x="1208.81" y="-207.8" font-family="Times,serif" font-size="14.00">Huipennus</text>
</g>
<!-- legend -->
<g id="node1" class="node">
<title>legend</title>
<path fill="lightgrey" stroke="black" d="M87.81,-794.5C87.81,-794.5 232.81,-794.5 232.81,-794.5 238.81,-794.5 244.81,-800.5 244.81,-806.5 244.81,-806.5 244.81,-851.5 244.81,-851.5 244.81,-857.5 238.81,-863.5 232.81,-863.5 232.81,-863.5 87.81,-863.5 87.81,-863.5 81.81,-863.5 75.81,-857.5 75.81,-851.5 75.81,-851.5 75.81,-806.5 75.81,-806.5 75.81,-800.5 81.81,-794.5 87.81,-794.5"/>
<text text-anchor="middle" x="160.31" y="-848.3" font-family="Times,serif" font-size="14.00">Kurssikoodi</text>
<polyline fill="none" stroke="black" points="75.81,-840.5 244.81,-840.5 "/>
<text text-anchor="middle" x="160.31" y="-825.3" font-family="Times,serif" font-size="14.00">Kurssin nimi</text>
<polyline fill="none" stroke="black" points="75.81,-817.5 244.81,-817.5 "/>
<text text-anchor="middle" x="115.81" y="-802.3" font-family="Times,serif" font-size="14.00">opintovuosi</text>
<polyline fill="none" stroke="black" points="155.81,-794.5 155.81,-817.5 "/>
<text text-anchor="middle" x="200.31" y="-802.3" font-family="Times,serif" font-size="14.00">opintoperiodi</text>
</g>
<!-- c030005P -->
<g id="node2" class="node">
<title>c030005P</title>
<path fill="gainsboro" stroke="black" d="M1021.31,-239.5C1021.31,-239.5 1131.31,-239.5 1131.31,-239.5 1137.31,-239.5 1143.31,-245.5 1143.31,-251.5 1143.31,-251.5 1143.31,-296.5 1143.31,-296.5 1143.31,-302.5 1137.31,-308.5 1131.31,-308.5 1131.31,-308.5 1021.31,-308.5 1021.31,-308.5 1015.31,-308.5 1009.31,-302.5 1009.31,-296.5 1009.31,-296.5 1009.31,-251.5 1009.31,-251.5 1009.31,-245.5 1015.31,-239.5 1021.31,-239.5"/>
<text text-anchor="middle" x="1076.31" y="-293.3" font-family="Times,serif" font-size="14.00">030005P</text>
<polyline fill="none" stroke="black" points="1009.31,-285.5 1143.31,-285.5 "/>
<text text-anchor="middle" x="1076.31" y="-270.3" font-family="Times,serif" font-size="14.00">Tiedonhankintakurssi</text>
<polyline fill="none" stroke="black" points="1009.31,-262.5 1143.31,-262.5 "/>
<text text-anchor="middle" x="1042.81" y="-247.3" font-family="Times,serif" font-size="14.00">?</text>
<polyline fill="none" stroke="black" points="1076.31,-239.5 1076.31,-262.5 "/>
<text text-anchor="middle" x="1109.81" y="-247.3" font-family="Times,serif" font-size="14.00">1</text>
</g>
<!-- c811393A -->
<g id="node29" class="node">
<title>c811393A</title>
<path fill="azure" stroke="black" d="M1051.81,-122.5C1051.81,-122.5 1180.81,-122.5 1180.81,-122.5 1186.81,-122.5 1192.81,-128.5 1192.81,-134.5 1192.81,-134.5 1192.81,-179.5 1192.81,-179.5 1192.81,-185.5 1186.81,-191.5 1180.81,-191.5 1180.81,-191.5 1051.81,-191.5 1051.81,-191.5 1045.81,-191.5 1039.81,-185.5 1039.81,-179.5 1039.81,-179.5 1039.81,-134.5 1039.81,-134.5 1039.81,-128.5 1045.81,-122.5 1051.81,-122.5"/>
<text text-anchor="middle" x="1116.31" y="-176.3" font-family="Times,serif" font-size="14.00">811393A</text>
<polyline fill="none" stroke="black" points="1039.81,-168.5 1192.81,-168.5 "/>
<text text-anchor="middle" x="1116.31" y="-153.3" font-family="Times,serif" font-size="14.00">Johdatus tutkimustyöhön</text>
<polyline fill="none" stroke="black" points="1039.81,-145.5 1192.81,-145.5 "/>
<text text-anchor="middle" x="1077.81" y="-130.3" font-family="Times,serif" font-size="14.00">2</text>
<polyline fill="none" stroke="black" points="1115.81,-122.5 1115.81,-145.5 "/>
<text text-anchor="middle" x="1154.31" y="-130.3" font-family="Times,serif" font-size="14.00">3</text>
</g>
<!-- c030005P&#45;&gt;c811393A -->
<g id="edge22" class="edge">
<title>c030005P&#45;&gt;c811393A</title>
<path fill="none" stroke="black" d="M1087.99,-239.43C1092.1,-227.61 1096.78,-214.14 1101.14,-201.61"/>
<polygon fill="black" stroke="black" points="1104.57,-202.41 1104.55,-191.81 1097.96,-200.11 1104.57,-202.41"/>
</g>
<!-- c811383A -->
<g id="node30" class="node">
<title>c811383A</title>
<path fill="azure" stroke="black" d="M1051.81,-16.5C1051.81,-16.5 1128.81,-16.5 1128.81,-16.5 1134.81,-16.5 1140.81,-22.5 1140.81,-28.5 1140.81,-28.5 1140.81,-73.5 1140.81,-73.5 1140.81,-79.5 1134.81,-85.5 1128.81,-85.5 1128.81,-85.5 1051.81,-85.5 1051.81,-85.5 1045.81,-85.5 1039.81,-79.5 1039.81,-73.5 1039.81,-73.5 1039.81,-28.5 1039.81,-28.5 1039.81,-22.5 1045.81,-16.5 1051.81,-16.5"/>
<text text-anchor="middle" x="1090.31" y="-70.3" font-family="Times,serif" font-size="14.00">811383A</text>
<polyline fill="none" stroke="black" points="1039.81,-62.5 1140.81,-62.5 "/>
<text text-anchor="middle" x="1090.31" y="-47.3" font-family="Times,serif" font-size="14.00"> LuK&#45;tutkielma</text>
<polyline fill="none" stroke="black" points="1039.81,-39.5 1140.81,-39.5 "/>
<text text-anchor="middle" x="1061.81" y="-24.3" font-family="Times,serif" font-size="14.00">3</text>
<polyline fill="none" stroke="black" points="1083.81,-16.5 1083.81,-39.5 "/>
<text text-anchor="middle" x="1112.31" y="-24.3" font-family="Times,serif" font-size="14.00">3&#45;4</text>
</g>
<!-- c030005P&#45;&gt;c811383A -->
<g id="edge25" class="edge">
<title>c030005P&#45;&gt;c811383A</title>
<path fill="none" stroke="black" d="M1040.48,-239.44C1036.75,-234.31 1033.53,-228.78 1031.31,-223 1013.95,-177.77 1013.33,-158.98 1031.31,-114 1034.22,-106.72 1038.43,-99.82 1043.29,-93.43"/>
<polygon fill="black" stroke="black" points="1046.06,-95.57 1049.74,-85.64 1040.67,-91.11 1046.06,-95.57"/>
</g>
<!-- c900105Y -->
<g id="node3" class="node">
<title>c900105Y</title>
<path fill="gainsboro" stroke="black" d="M1173.31,-239.5C1173.31,-239.5 1347.31,-239.5 1347.31,-239.5 1353.31,-239.5 1359.31,-245.5 1359.31,-251.5 1359.31,-251.5 1359.31,-296.5 1359.31,-296.5 1359.31,-302.5 1353.31,-308.5 1347.31,-308.5 1347.31,-308.5 1173.31,-308.5 1173.31,-308.5 1167.31,-308.5 1161.31,-302.5 1161.31,-296.5 1161.31,-296.5 1161.31,-251.5 1161.31,-251.5 1161.31,-245.5 1167.31,-239.5 1173.31,-239.5"/>
<text text-anchor="middle" x="1260.31" y="-293.3" font-family="Times,serif" font-size="14.00">900105Y</text>
<polyline fill="none" stroke="black" points="1161.31,-285.5 1359.31,-285.5 "/>
<text text-anchor="middle" x="1260.31" y="-270.3" font-family="Times,serif" font-size="14.00">Suuntaa uralle viestinnän keinoin</text>
<polyline fill="none" stroke="black" points="1161.31,-262.5 1359.31,-262.5 "/>
<text text-anchor="middle" x="1210.81" y="-247.3" font-family="Times,serif" font-size="14.00">?</text>
<polyline fill="none" stroke="black" points="1260.31,-239.5 1260.31,-262.5 "/>
<text text-anchor="middle" x="1309.81" y="-247.3" font-family="Times,serif" font-size="14.00">?</text>
</g>
<!-- c900105Y&#45;&gt;c811393A -->
<g id="edge23" class="edge">
<title>c900105Y&#45;&gt;c811393A</title>
<path fill="none" stroke="black" d="M1218.27,-239.43C1202.15,-226.55 1183.58,-211.73 1166.75,-198.29"/>
<polygon fill="black" stroke="black" points="1168.65,-195.32 1158.65,-191.81 1164.28,-200.79 1168.65,-195.32"/>
</g>
<!-- c810020Y -->
<g id="node4" class="node">
<title>c810020Y</title>
<path fill="yellow" stroke="black" d="M683.81,-794.5C683.81,-794.5 782.81,-794.5 782.81,-794.5 788.81,-794.5 794.81,-800.5 794.81,-806.5 794.81,-806.5 794.81,-851.5 794.81,-851.5 794.81,-857.5 788.81,-863.5 782.81,-863.5 782.81,-863.5 683.81,-863.5 683.81,-863.5 677.81,-863.5 671.81,-857.5 671.81,-851.5 671.81,-851.5 671.81,-806.5 671.81,-806.5 671.81,-800.5 677.81,-794.5 683.81,-794.5"/>
<text text-anchor="middle" x="733.31" y="-848.3" font-family="Times,serif" font-size="14.00">810020Y</text>
<polyline fill="none" stroke="black" points="671.81,-840.5 794.81,-840.5 "/>
<text text-anchor="middle" x="733.31" y="-825.3" font-family="Times,serif" font-size="14.00">Orientoivat opinnot</text>
<polyline fill="none" stroke="black" points="671.81,-817.5 794.81,-817.5 "/>
<text text-anchor="middle" x="733.31" y="-802.3" font-family="Times,serif" font-size="14.00">1 / 1&#45;2</text>
</g>
<!-- c810136P -->
<g id="node5" class="node">
<title>c810136P</title>
<path fill="yellow" stroke="black" d="M313.31,-794.5C313.31,-794.5 489.31,-794.5 489.31,-794.5 495.31,-794.5 501.31,-800.5 501.31,-806.5 501.31,-806.5 501.31,-851.5 501.31,-851.5 501.31,-857.5 495.31,-863.5 489.31,-863.5 489.31,-863.5 313.31,-863.5 313.31,-863.5 307.31,-863.5 301.31,-857.5 301.31,-851.5 301.31,-851.5 301.31,-806.5 301.31,-806.5 301.31,-800.5 307.31,-794.5 313.31,-794.5"/>
<text text-anchor="middle" x="401.31" y="-848.3" font-family="Times,serif" font-size="14.00">810136P</text>
<polyline fill="none" stroke="black" points="301.31,-840.5 501.31,-840.5 "/>
<text text-anchor="middle" x="401.31" y="-825.3" font-family="Times,serif" font-size="14.00">Johdatus tietojenkäsittelytieteisiin</text>
<polyline fill="none" stroke="black" points="301.31,-817.5 501.31,-817.5 "/>
<text text-anchor="middle" x="351.31" y="-802.3" font-family="Times,serif" font-size="14.00">1</text>
<polyline fill="none" stroke="black" points="401.31,-794.5 401.31,-817.5 "/>
<text text-anchor="middle" x="451.31" y="-802.3" font-family="Times,serif" font-size="14.00">1</text>
</g>
<!-- c811168P -->
<g id="node6" class="node">
<title>c811168P</title>
<path fill="yellow" stroke="black" d="M550.81,-677.5C550.81,-677.5 599.81,-677.5 599.81,-677.5 605.81,-677.5 611.81,-683.5 611.81,-689.5 611.81,-689.5 611.81,-734.5 611.81,-734.5 611.81,-740.5 605.81,-746.5 599.81,-746.5 599.81,-746.5 550.81,-746.5 550.81,-746.5 544.81,-746.5 538.81,-740.5 538.81,-734.5 538.81,-734.5 538.81,-689.5 538.81,-689.5 538.81,-683.5 544.81,-677.5 550.81,-677.5"/>
<text text-anchor="middle" x="575.31" y="-731.3" font-family="Times,serif" font-size="14.00">811168P</text>
<polyline fill="none" stroke="black" points="538.81,-723.5 611.81,-723.5 "/>
<text text-anchor="middle" x="575.31" y="-708.3" font-family="Times,serif" font-size="14.00">Tietoturva</text>
<polyline fill="none" stroke="black" points="538.81,-700.5 611.81,-700.5 "/>
<text text-anchor="middle" x="556.81" y="-685.3" font-family="Times,serif" font-size="14.00">1</text>
<polyline fill="none" stroke="black" points="574.81,-677.5 574.81,-700.5 "/>
<text text-anchor="middle" x="593.31" y="-685.3" font-family="Times,serif" font-size="14.00">3</text>
</g>
<!-- c810136P&#45;&gt;c811168P -->
<g id="edge1" class="edge">
<title>c810136P&#45;&gt;c811168P</title>
<path fill="none" stroke="black" d="M493.69,-794.41C503.03,-789.5 512.09,-784.03 520.31,-778 529.34,-771.37 537.85,-762.97 545.35,-754.42"/>
<polygon fill="black" stroke="black" points="548.18,-756.49 551.93,-746.59 542.82,-751.99 548.18,-756.49"/>
</g>
<!-- c811174P -->
<g id="node7" class="node">
<title>c811174P</title>
<path fill="yellow" stroke="black" d="M313.81,-677.5C313.81,-677.5 498.81,-677.5 498.81,-677.5 504.81,-677.5 510.81,-683.5 510.81,-689.5 510.81,-689.5 510.81,-734.5 510.81,-734.5 510.81,-740.5 504.81,-746.5 498.81,-746.5 498.81,-746.5 313.81,-746.5 313.81,-746.5 307.81,-746.5 301.81,-740.5 301.81,-734.5 301.81,-734.5 301.81,-689.5 301.81,-689.5 301.81,-683.5 307.81,-677.5 313.81,-677.5"/>
<text text-anchor="middle" x="406.31" y="-731.3" font-family="Times,serif" font-size="14.00">811174P</text>
<polyline fill="none" stroke="black" points="301.81,-723.5 510.81,-723.5 "/>
<text text-anchor="middle" x="406.31" y="-708.3" font-family="Times,serif" font-size="14.00">Ohjelmistoliiketoiminnan perusteet</text>
<polyline fill="none" stroke="black" points="301.81,-700.5 510.81,-700.5 "/>
<text text-anchor="middle" x="353.81" y="-685.3" font-family="Times,serif" font-size="14.00">1</text>
<polyline fill="none" stroke="black" points="405.81,-677.5 405.81,-700.5 "/>
<text text-anchor="middle" x="458.31" y="-685.3" font-family="Times,serif" font-size="14.00">3</text>
</g>
<!-- c810136P&#45;&gt;c811174P -->
<g id="edge3" class="edge">
<title>c810136P&#45;&gt;c811174P</title>
<path fill="none" stroke="black" d="M402.77,-794.43C403.28,-782.72 403.86,-769.41 404.4,-756.98"/>
<polygon fill="black" stroke="black" points="407.9,-756.96 404.84,-746.81 400.91,-756.65 407.9,-756.96"/>
</g>
<!-- c811103P -->
<g id="node15" class="node">
<title>c811103P</title>
<path fill="#caff70" stroke="black" d="M98.81,-677.5C98.81,-677.5 257.81,-677.5 257.81,-677.5 263.81,-677.5 269.81,-683.5 269.81,-689.5 269.81,-689.5 269.81,-734.5 269.81,-734.5 269.81,-740.5 263.81,-746.5 257.81,-746.5 257.81,-746.5 98.81,-746.5 98.81,-746.5 92.81,-746.5 86.81,-740.5 86.81,-734.5 86.81,-734.5 86.81,-689.5 86.81,-689.5 86.81,-683.5 92.81,-677.5 98.81,-677.5"/>
<text text-anchor="middle" x="178.31" y="-731.3" font-family="Times,serif" font-size="14.00">811103P</text>
<polyline fill="none" stroke="black" points="86.81,-723.5 269.81,-723.5 "/>
<text text-anchor="middle" x="178.31" y="-708.3" font-family="Times,serif" font-size="14.00">Johdatus ohjelmistotuotantoon</text>
<polyline fill="none" stroke="black" points="86.81,-700.5 269.81,-700.5 "/>
<text text-anchor="middle" x="132.31" y="-685.3" font-family="Times,serif" font-size="14.00">1</text>
<polyline fill="none" stroke="black" points="177.81,-677.5 177.81,-700.5 "/>
<text text-anchor="middle" x="223.81" y="-685.3" font-family="Times,serif" font-size="14.00">2</text>
</g>
<!-- c810136P&#45;&gt;c811103P -->
<g id="edge9" class="edge">
<title>c810136P&#45;&gt;c811103P</title>
<path fill="none" stroke="black" d="M323.06,-794.39C311.64,-789.11 300.1,-783.55 289.31,-778 273.7,-769.98 257.22,-760.76 241.87,-751.83"/>
<polygon fill="black" stroke="black" points="243.37,-748.65 232.97,-746.62 239.83,-754.69 243.37,-748.65"/>
</g>
<!-- c810136P&#45;&gt;c811383A -->
<g id="edge26" class="edge">
<title>c810136P&#45;&gt;c811383A</title>
<path fill="none" stroke="black" d="M300.94,-795.29C286.43,-791.57 271.58,-788.3 257.31,-786 244.9,-784 40.42,-786.65 31.31,-778 -27.59,-722.1 15.31,-677.2 15.31,-596 15.31,-596 15.31,-596 15.31,-273 15.31,-201.98 -19.95,-163.16 31.31,-114 67.54,-79.26 810.27,-58.72 1029.75,-53.39"/>
<polygon fill="black" stroke="black" points="1029.88,-56.89 1039.8,-53.15 1029.72,-49.89 1029.88,-56.89"/>
</g>
<!-- c811102P -->
<g id="node8" class="node">
<title>c811102P</title>
<path fill="yellow" stroke="black" d="M531.31,-794.5C531.31,-794.5 641.31,-794.5 641.31,-794.5 647.31,-794.5 653.31,-800.5 653.31,-806.5 653.31,-806.5 653.31,-851.5 653.31,-851.5 653.31,-857.5 647.31,-863.5 641.31,-863.5 641.31,-863.5 531.31,-863.5 531.31,-863.5 525.31,-863.5 519.31,-857.5 519.31,-851.5 519.31,-851.5 519.31,-806.5 519.31,-806.5 519.31,-800.5 525.31,-794.5 531.31,-794.5"/>
<text text-anchor="middle" x="586.31" y="-848.3" font-family="Times,serif" font-size="14.00">811102P</text>
<polyline fill="none" stroke="black" points="519.31,-840.5 653.31,-840.5 "/>
<text text-anchor="middle" x="586.31" y="-825.3" font-family="Times,serif" font-size="14.00">Laitteet ja tietoverkot</text>
<polyline fill="none" stroke="black" points="519.31,-817.5 653.31,-817.5 "/>
<text text-anchor="middle" x="552.81" y="-802.3" font-family="Times,serif" font-size="14.00">1</text>
<polyline fill="none" stroke="black" points="586.31,-794.5 586.31,-817.5 "/>
<text text-anchor="middle" x="619.81" y="-802.3" font-family="Times,serif" font-size="14.00">1</text>
</g>
<!-- c811102P&#45;&gt;c811168P -->
<g id="edge2" class="edge">
<title>c811102P&#45;&gt;c811168P</title>
<path fill="none" stroke="black" d="M583.1,-794.43C581.98,-782.72 580.7,-769.41 579.52,-756.98"/>
<polygon fill="black" stroke="black" points="582.98,-756.43 578.54,-746.81 576.01,-757.1 582.98,-756.43"/>
</g>
<!-- c811104P -->
<g id="node9" class="node">
<title>c811104P</title>
<path fill="#ffd700" stroke="black" d="M831.81,-677.5C831.81,-677.5 900.81,-677.5 900.81,-677.5 906.81,-677.5 912.81,-683.5 912.81,-689.5 912.81,-689.5 912.81,-734.5 912.81,-734.5 912.81,-740.5 906.81,-746.5 900.81,-746.5 900.81,-746.5 831.81,-746.5 831.81,-746.5 825.81,-746.5 819.81,-740.5 819.81,-734.5 819.81,-734.5 819.81,-689.5 819.81,-689.5 819.81,-683.5 825.81,-677.5 831.81,-677.5"/>
<text text-anchor="middle" x="866.31" y="-731.3" font-family="Times,serif" font-size="14.00">811104P</text>
<polyline fill="none" stroke="black" points="819.81,-723.5 912.81,-723.5 "/>
<text text-anchor="middle" x="866.31" y="-708.3" font-family="Times,serif" font-size="14.00">Ohjelmointi 1</text>
<polyline fill="none" stroke="black" points="819.81,-700.5 912.81,-700.5 "/>
<text text-anchor="middle" x="839.81" y="-685.3" font-family="Times,serif" font-size="14.00">1</text>
<polyline fill="none" stroke="black" points="859.81,-677.5 859.81,-700.5 "/>
<text text-anchor="middle" x="886.31" y="-685.3" font-family="Times,serif" font-size="14.00">1&#45;2</text>
</g>
<!-- c811322A -->
<g id="node10" class="node">
<title>c811322A</title>
<path fill="#ffd700" stroke="black" d="M831.81,-560.5C831.81,-560.5 900.81,-560.5 900.81,-560.5 906.81,-560.5 912.81,-566.5 912.81,-572.5 912.81,-572.5 912.81,-617.5 912.81,-617.5 912.81,-623.5 906.81,-629.5 900.81,-629.5 900.81,-629.5 831.81,-629.5 831.81,-629.5 825.81,-629.5 819.81,-623.5 819.81,-617.5 819.81,-617.5 819.81,-572.5 819.81,-572.5 819.81,-566.5 825.81,-560.5 831.81,-560.5"/>
<text text-anchor="middle" x="866.31" y="-614.3" font-family="Times,serif" font-size="14.00">811322A</text>
<polyline fill="none" stroke="black" points="819.81,-606.5 912.81,-606.5 "/>
<text text-anchor="middle" x="866.31" y="-591.3" font-family="Times,serif" font-size="14.00">Ohjelmointi 2</text>
<polyline fill="none" stroke="black" points="819.81,-583.5 912.81,-583.5 "/>
<text text-anchor="middle" x="839.81" y="-568.3" font-family="Times,serif" font-size="14.00">1</text>
<polyline fill="none" stroke="black" points="859.81,-560.5 859.81,-583.5 "/>
<text text-anchor="middle" x="886.31" y="-568.3" font-family="Times,serif" font-size="14.00">3&#45;4</text>
</g>
<!-- c811104P&#45;&gt;c811322A -->
<g id="edge4" class="edge">
<title>c811104P&#45;&gt;c811322A</title>
<path fill="none" stroke="black" d="M866.31,-677.43C866.31,-665.72 866.31,-652.41 866.31,-639.98"/>
<polygon fill="black" stroke="black" points="869.81,-639.81 866.31,-629.81 862.81,-639.81 869.81,-639.81"/>
</g>
<!-- c811325A -->
<g id="node11" class="node">
<title>c811325A</title>
<path fill="#ffd700" stroke="black" d="M837.81,-454.5C837.81,-454.5 894.81,-454.5 894.81,-454.5 900.81,-454.5 906.81,-460.5 906.81,-466.5 906.81,-466.5 906.81,-511.5 906.81,-511.5 906.81,-517.5 900.81,-523.5 894.81,-523.5 894.81,-523.5 837.81,-523.5 837.81,-523.5 831.81,-523.5 825.81,-517.5 825.81,-511.5 825.81,-511.5 825.81,-466.5 825.81,-466.5 825.81,-460.5 831.81,-454.5 837.81,-454.5"/>
<text text-anchor="middle" x="866.31" y="-508.3" font-family="Times,serif" font-size="14.00">811325A</text>
<polyline fill="none" stroke="black" points="825.81,-500.5 906.81,-500.5 "/>
<text text-anchor="middle" x="866.31" y="-485.3" font-family="Times,serif" font-size="14.00">Tietokannat</text>
<polyline fill="none" stroke="black" points="825.81,-477.5 906.81,-477.5 "/>
<text text-anchor="middle" x="845.81" y="-462.3" font-family="Times,serif" font-size="14.00">2</text>
<polyline fill="none" stroke="black" points="865.81,-454.5 865.81,-477.5 "/>
<text text-anchor="middle" x="886.31" y="-462.3" font-family="Times,serif" font-size="14.00">1</text>
</g>
<!-- c811322A&#45;&gt;c811325A -->
<g id="edge8" class="edge">
<title>c811322A&#45;&gt;c811325A</title>
<path fill="none" stroke="black" d="M866.31,-560.23C866.31,-551.79 866.31,-542.62 866.31,-533.77"/>
<polygon fill="black" stroke="black" points="869.81,-533.6 866.31,-523.6 862.81,-533.6 869.81,-533.6"/>
</g>
<!-- c811301A -->
<g id="node17" class="node">
<title>c811301A</title>
<path fill="#caff70" stroke="black" d="M55.81,-454.5C55.81,-454.5 264.81,-454.5 264.81,-454.5 270.81,-454.5 276.81,-460.5 276.81,-466.5 276.81,-466.5 276.81,-511.5 276.81,-511.5 276.81,-517.5 270.81,-523.5 264.81,-523.5 264.81,-523.5 55.81,-523.5 55.81,-523.5 49.81,-523.5 43.81,-517.5 43.81,-511.5 43.81,-511.5 43.81,-466.5 43.81,-466.5 43.81,-460.5 49.81,-454.5 55.81,-454.5"/>
<text text-anchor="middle" x="160.31" y="-508.3" font-family="Times,serif" font-size="14.00">811301A</text>
<polyline fill="none" stroke="black" points="43.81,-500.5 276.81,-500.5 "/>
<text text-anchor="middle" x="160.31" y="-485.3" font-family="Times,serif" font-size="14.00"> Ohjelmistojen mallinnus ja suunnittelu</text>
<polyline fill="none" stroke="black" points="43.81,-477.5 276.81,-477.5 "/>
<text text-anchor="middle" x="101.81" y="-462.3" font-family="Times,serif" font-size="14.00">2</text>
<polyline fill="none" stroke="black" points="159.81,-454.5 159.81,-477.5 "/>
<text text-anchor="middle" x="218.31" y="-462.3" font-family="Times,serif" font-size="14.00">1</text>
</g>
<!-- c811322A&#45;&gt;c811301A -->
<g id="edge12" class="edge">
<title>c811322A&#45;&gt;c811301A</title>
<path fill="none" stroke="black" d="M819.71,-587.14C712.79,-571.39 446.77,-532.2 287.2,-508.69"/>
<polygon fill="black" stroke="black" points="287.25,-505.16 276.84,-507.17 286.23,-512.09 287.25,-505.16"/>
</g>
<!-- c811312A -->
<g id="node12" class="node">
<title>c811312A</title>
<path fill="#ffd700" stroke="black" d="M831.31,-348.5C831.31,-348.5 973.31,-348.5 973.31,-348.5 979.31,-348.5 985.31,-354.5 985.31,-360.5 985.31,-360.5 985.31,-405.5 985.31,-405.5 985.31,-411.5 979.31,-417.5 973.31,-417.5 973.31,-417.5 831.31,-417.5 831.31,-417.5 825.31,-417.5 819.31,-411.5 819.31,-405.5 819.31,-405.5 819.31,-360.5 819.31,-360.5 819.31,-354.5 825.31,-348.5 831.31,-348.5"/>
<text text-anchor="middle" x="902.31" y="-402.3" font-family="Times,serif" font-size="14.00">811312A</text>
<polyline fill="none" stroke="black" points="819.31,-394.5 985.31,-394.5 "/>
<text text-anchor="middle" x="902.31" y="-379.3" font-family="Times,serif" font-size="14.00">Tietorakenteet ja algoritmit</text>
<polyline fill="none" stroke="black" points="819.31,-371.5 985.31,-371.5 "/>
<text text-anchor="middle" x="860.81" y="-356.3" font-family="Times,serif" font-size="14.00">2</text>
<polyline fill="none" stroke="black" points="902.31,-348.5 902.31,-371.5 "/>
<text text-anchor="middle" x="943.81" y="-356.3" font-family="Times,serif" font-size="14.00">2</text>
</g>
<!-- c811325A&#45;&gt;c811312A -->
<g id="edge7" class="edge">
<title>c811325A&#45;&gt;c811312A</title>
<path fill="none" stroke="black" d="M878,-454.23C880.98,-445.61 884.23,-436.22 887.36,-427.19"/>
<polygon fill="black" stroke="black" points="890.72,-428.19 890.68,-417.6 884.1,-425.9 890.72,-428.19"/>
</g>
<!-- c811319A -->
<g id="node19" class="node">
<title>c811319A</title>
<path fill="#caff70" stroke="black" d="M107.81,-239.5C107.81,-239.5 264.81,-239.5 264.81,-239.5 270.81,-239.5 276.81,-245.5 276.81,-251.5 276.81,-251.5 276.81,-296.5 276.81,-296.5 276.81,-302.5 270.81,-308.5 264.81,-308.5 264.81,-308.5 107.81,-308.5 107.81,-308.5 101.81,-308.5 95.81,-302.5 95.81,-296.5 95.81,-296.5 95.81,-251.5 95.81,-251.5 95.81,-245.5 101.81,-239.5 107.81,-239.5"/>
<text text-anchor="middle" x="186.31" y="-293.3" font-family="Times,serif" font-size="14.00">811319A</text>
<polyline fill="none" stroke="black" points="95.81,-285.5 276.81,-285.5 "/>
<text text-anchor="middle" x="186.31" y="-270.3" font-family="Times,serif" font-size="14.00">Tietomallinnus ja &#45;suunnittelu</text>
<polyline fill="none" stroke="black" points="95.81,-262.5 276.81,-262.5 "/>
<text text-anchor="middle" x="140.81" y="-247.3" font-family="Times,serif" font-size="14.00">2</text>
<polyline fill="none" stroke="black" points="185.81,-239.5 185.81,-262.5 "/>
<text text-anchor="middle" x="231.31" y="-247.3" font-family="Times,serif" font-size="14.00">3</text>
</g>
<!-- c811325A&#45;&gt;c811319A -->
<g id="edge15" class="edge">
<title>c811325A&#45;&gt;c811319A</title>
<path fill="none" stroke="black" d="M825.81,-475.31C721.1,-442.52 439.02,-354.16 286.86,-306.5"/>
<polygon fill="black" stroke="black" points="287.62,-303.07 277.03,-303.42 285.53,-309.75 287.62,-303.07"/>
</g>
<!-- c811367A -->
<g id="node13" class="node">
<title>c811367A</title>
<path fill="#ffd700" stroke="black" d="M875.81,-239.5C875.81,-239.5 944.81,-239.5 944.81,-239.5 950.81,-239.5 956.81,-245.5 956.81,-251.5 956.81,-251.5 956.81,-296.5 956.81,-296.5 956.81,-302.5 950.81,-308.5 944.81,-308.5 944.81,-308.5 875.81,-308.5 875.81,-308.5 869.81,-308.5 863.81,-302.5 863.81,-296.5 863.81,-296.5 863.81,-251.5 863.81,-251.5 863.81,-245.5 869.81,-239.5 875.81,-239.5"/>
<text text-anchor="middle" x="910.31" y="-293.3" font-family="Times,serif" font-size="14.00">811367A</text>
<polyline fill="none" stroke="black" points="863.81,-285.5 956.81,-285.5 "/>
<text text-anchor="middle" x="910.31" y="-270.3" font-family="Times,serif" font-size="14.00">Ohjelmointi 3</text>
<polyline fill="none" stroke="black" points="863.81,-262.5 956.81,-262.5 "/>
<text text-anchor="middle" x="886.81" y="-247.3" font-family="Times,serif" font-size="14.00">2</text>
<polyline fill="none" stroke="black" points="909.81,-239.5 909.81,-262.5 "/>
<text text-anchor="middle" x="933.31" y="-247.3" font-family="Times,serif" font-size="14.00">3</text>
</g>
<!-- c811312A&#45;&gt;c811367A -->
<g id="edge5" class="edge">
<title>c811312A&#45;&gt;c811367A</title>
<path fill="none" stroke="black" d="M904.82,-348.44C905.52,-339.07 906.29,-328.75 907.03,-318.87"/>
<polygon fill="black" stroke="black" points="910.53,-319.04 907.78,-308.81 903.54,-318.52 910.53,-319.04"/>
</g>
<!-- c811368A -->
<g id="node14" class="node">
<title>c811368A</title>
<path fill="#ffd700" stroke="black" d="M892.81,-122.5C892.81,-122.5 961.81,-122.5 961.81,-122.5 967.81,-122.5 973.81,-128.5 973.81,-134.5 973.81,-134.5 973.81,-179.5 973.81,-179.5 973.81,-185.5 967.81,-191.5 961.81,-191.5 961.81,-191.5 892.81,-191.5 892.81,-191.5 886.81,-191.5 880.81,-185.5 880.81,-179.5 880.81,-179.5 880.81,-134.5 880.81,-134.5 880.81,-128.5 886.81,-122.5 892.81,-122.5"/>
<text text-anchor="middle" x="927.31" y="-176.3" font-family="Times,serif" font-size="14.00">811368A</text>
<polyline fill="none" stroke="black" points="880.81,-168.5 973.81,-168.5 "/>
<text text-anchor="middle" x="927.31" y="-153.3" font-family="Times,serif" font-size="14.00">Ohjelmointi 4</text>
<polyline fill="none" stroke="black" points="880.81,-145.5 973.81,-145.5 "/>
<text text-anchor="middle" x="903.81" y="-130.3" font-family="Times,serif" font-size="14.00">2</text>
<polyline fill="none" stroke="black" points="926.81,-122.5 926.81,-145.5 "/>
<text text-anchor="middle" x="950.31" y="-130.3" font-family="Times,serif" font-size="14.00">4</text>
</g>
<!-- c811367A&#45;&gt;c811368A -->
<g id="edge6" class="edge">
<title>c811367A&#45;&gt;c811368A</title>
<path fill="none" stroke="black" d="M915.27,-239.43C917,-227.72 918.97,-214.41 920.81,-201.98"/>
<polygon fill="black" stroke="black" points="924.31,-202.22 922.31,-191.81 917.39,-201.19 924.31,-202.22"/>
</g>
<!-- c0005 -->
<g id="node28" class="node">
<title>c0005</title>
<path fill="azure" stroke="black" d="M1208.31,-16.5C1208.31,-16.5 1306.31,-16.5 1306.31,-16.5 1312.31,-16.5 1318.31,-22.5 1318.31,-28.5 1318.31,-28.5 1318.31,-73.5 1318.31,-73.5 1318.31,-79.5 1312.31,-85.5 1306.31,-85.5 1306.31,-85.5 1208.31,-85.5 1208.31,-85.5 1202.31,-85.5 1196.31,-79.5 1196.31,-73.5 1196.31,-73.5 1196.31,-28.5 1196.31,-28.5 1196.31,-22.5 1202.31,-16.5 1208.31,-16.5"/>
<text text-anchor="middle" x="1257.31" y="-70.3" font-family="Times,serif" font-size="14.00">xxxxx</text>
<polyline fill="none" stroke="black" points="1196.31,-62.5 1318.31,-62.5 "/>
<text text-anchor="middle" x="1257.31" y="-47.3" font-family="Times,serif" font-size="14.00">Kandidaattiprojekti</text>
<polyline fill="none" stroke="black" points="1196.31,-39.5 1318.31,-39.5 "/>
<text text-anchor="middle" x="1223.81" y="-24.3" font-family="Times,serif" font-size="14.00">3</text>
<polyline fill="none" stroke="black" points="1251.31,-16.5 1251.31,-39.5 "/>
<text text-anchor="middle" x="1284.81" y="-24.3" font-family="Times,serif" font-size="14.00">3&#45;4</text>
</g>
<!-- c811368A&#45;&gt;c0005 -->
<g id="edge29" class="edge">
<title>c811368A&#45;&gt;c0005</title>
<path fill="none" stroke="black" d="M973.98,-134.42C990.58,-127.27 1009.56,-119.7 1027.31,-114 1080.69,-96.86 1096.21,-100.72 1150.31,-86 1162.11,-82.79 1174.55,-79.11 1186.61,-75.39"/>
<polygon fill="black" stroke="black" points="1187.68,-78.72 1196.18,-72.4 1185.59,-72.04 1187.68,-78.72"/>
</g>
<!-- c811391A -->
<g id="node16" class="node">
<title>c811391A</title>
<path fill="#caff70" stroke="black" d="M116.81,-560.5C116.81,-560.5 215.81,-560.5 215.81,-560.5 221.81,-560.5 227.81,-566.5 227.81,-572.5 227.81,-572.5 227.81,-617.5 227.81,-617.5 227.81,-623.5 221.81,-629.5 215.81,-629.5 215.81,-629.5 116.81,-629.5 116.81,-629.5 110.81,-629.5 104.81,-623.5 104.81,-617.5 104.81,-617.5 104.81,-572.5 104.81,-572.5 104.81,-566.5 110.81,-560.5 116.81,-560.5"/>
<text text-anchor="middle" x="166.31" y="-614.3" font-family="Times,serif" font-size="14.00">811391A</text>
<polyline fill="none" stroke="black" points="104.81,-606.5 227.81,-606.5 "/>
<text text-anchor="middle" x="166.31" y="-591.3" font-family="Times,serif" font-size="14.00">Vaatimusmäärittely</text>
<polyline fill="none" stroke="black" points="104.81,-583.5 227.81,-583.5 "/>
<text text-anchor="middle" x="135.31" y="-568.3" font-family="Times,serif" font-size="14.00">1</text>
<polyline fill="none" stroke="black" points="165.81,-560.5 165.81,-583.5 "/>
<text text-anchor="middle" x="196.81" y="-568.3" font-family="Times,serif" font-size="14.00">4</text>
</g>
<!-- c811103P&#45;&gt;c811391A -->
<g id="edge10" class="edge">
<title>c811103P&#45;&gt;c811391A</title>
<path fill="none" stroke="black" d="M174.81,-677.43C173.58,-665.72 172.19,-652.41 170.9,-639.98"/>
<polygon fill="black" stroke="black" points="174.36,-639.4 169.84,-629.81 167.39,-640.12 174.36,-639.4"/>
</g>
<!-- c811391A&#45;&gt;c811301A -->
<g id="edge11" class="edge">
<title>c811391A&#45;&gt;c811301A</title>
<path fill="none" stroke="black" d="M164.36,-560.23C163.87,-551.79 163.34,-542.62 162.83,-533.77"/>
<polygon fill="black" stroke="black" points="166.32,-533.38 162.25,-523.6 159.33,-533.78 166.32,-533.38"/>
</g>
<!-- c811306A -->
<g id="node18" class="node">
<title>c811306A</title>
<path fill="#caff70" stroke="black" d="M96.31,-348.5C96.31,-348.5 250.31,-348.5 250.31,-348.5 256.31,-348.5 262.31,-354.5 262.31,-360.5 262.31,-360.5 262.31,-405.5 262.31,-405.5 262.31,-411.5 256.31,-417.5 250.31,-417.5 250.31,-417.5 96.31,-417.5 96.31,-417.5 90.31,-417.5 84.31,-411.5 84.31,-405.5 84.31,-405.5 84.31,-360.5 84.31,-360.5 84.31,-354.5 90.31,-348.5 96.31,-348.5"/>
<text text-anchor="middle" x="173.31" y="-402.3" font-family="Times,serif" font-size="14.00">811306A</text>
<polyline fill="none" stroke="black" points="84.31,-394.5 262.31,-394.5 "/>
<text text-anchor="middle" x="173.31" y="-379.3" font-family="Times,serif" font-size="14.00">Ohjelmistojen laatu ja testaus</text>
<polyline fill="none" stroke="black" points="84.31,-371.5 262.31,-371.5 "/>
<text text-anchor="middle" x="128.81" y="-356.3" font-family="Times,serif" font-size="14.00">2</text>
<polyline fill="none" stroke="black" points="173.31,-348.5 173.31,-371.5 "/>
<text text-anchor="middle" x="217.81" y="-356.3" font-family="Times,serif" font-size="14.00">2</text>
</g>
<!-- c811301A&#45;&gt;c811306A -->
<g id="edge13" class="edge">
<title>c811301A&#45;&gt;c811306A</title>
<path fill="none" stroke="black" d="M164.53,-454.23C165.58,-445.79 166.73,-436.62 167.84,-427.77"/>
<polygon fill="black" stroke="black" points="171.34,-427.95 169.11,-417.6 164.4,-427.09 171.34,-427.95"/>
</g>
<!-- c811306A&#45;&gt;c811319A -->
<g id="edge14" class="edge">
<title>c811306A&#45;&gt;c811319A</title>
<path fill="none" stroke="black" d="M177.39,-348.44C178.52,-339.07 179.78,-328.75 180.98,-318.87"/>
<polygon fill="black" stroke="black" points="184.47,-319.16 182.2,-308.81 177.52,-318.32 184.47,-319.16"/>
</g>
<!-- c815345A -->
<g id="node20" class="node">
<title>c815345A</title>
<path fill="#caff70" stroke="black" d="M129.81,-122.5C129.81,-122.5 256.81,-122.5 256.81,-122.5 262.81,-122.5 268.81,-128.5 268.81,-134.5 268.81,-134.5 268.81,-179.5 268.81,-179.5 268.81,-185.5 262.81,-191.5 256.81,-191.5 256.81,-191.5 129.81,-191.5 129.81,-191.5 123.81,-191.5 117.81,-185.5 117.81,-179.5 117.81,-179.5 117.81,-134.5 117.81,-134.5 117.81,-128.5 123.81,-122.5 129.81,-122.5"/>
<text text-anchor="middle" x="193.31" y="-176.3" font-family="Times,serif" font-size="14.00">815345A</text>
<polyline fill="none" stroke="black" points="117.81,-168.5 268.81,-168.5 "/>
<text text-anchor="middle" x="193.31" y="-153.3" font-family="Times,serif" font-size="14.00">Ohjelmistoarkkitehtuurit</text>
<polyline fill="none" stroke="black" points="117.81,-145.5 268.81,-145.5 "/>
<text text-anchor="middle" x="155.31" y="-130.3" font-family="Times,serif" font-size="14.00">2</text>
<polyline fill="none" stroke="black" points="192.81,-122.5 192.81,-145.5 "/>
<text text-anchor="middle" x="230.81" y="-130.3" font-family="Times,serif" font-size="14.00">4</text>
</g>
<!-- c811319A&#45;&gt;c815345A -->
<g id="edge16" class="edge">
<title>c811319A&#45;&gt;c815345A</title>
<path fill="none" stroke="black" d="M188.35,-239.43C189.06,-227.72 189.87,-214.41 190.63,-201.98"/>
<polygon fill="black" stroke="black" points="194.14,-202.01 191.25,-191.81 187.15,-201.58 194.14,-202.01"/>
</g>
<!-- c815345A&#45;&gt;c0005 -->
<g id="edge28" class="edge">
<title>c815345A&#45;&gt;c0005</title>
<path fill="none" stroke="black" d="M269.18,-150.94C487.96,-136.28 1107.27,-94.29 1150.31,-86 1162.12,-83.72 1174.46,-80.57 1186.38,-77.09"/>
<polygon fill="black" stroke="black" points="1187.71,-80.35 1196.27,-74.11 1185.69,-73.64 1187.71,-80.35"/>
</g>
<!-- c811166P -->
<g id="node21" class="node">
<title>c811166P</title>
<path fill="antiquewhite" stroke="black" d="M1492.31,-560.5C1492.31,-560.5 1636.31,-560.5 1636.31,-560.5 1642.31,-560.5 1648.31,-566.5 1648.31,-572.5 1648.31,-572.5 1648.31,-617.5 1648.31,-617.5 1648.31,-623.5 1642.31,-629.5 1636.31,-629.5 1636.31,-629.5 1492.31,-629.5 1492.31,-629.5 1486.31,-629.5 1480.31,-623.5 1480.31,-617.5 1480.31,-617.5 1480.31,-572.5 1480.31,-572.5 1480.31,-566.5 1486.31,-560.5 1492.31,-560.5"/>
<text text-anchor="middle" x="1564.31" y="-614.3" font-family="Times,serif" font-size="14.00">811166P</text>
<polyline fill="none" stroke="black" points="1480.31,-606.5 1648.31,-606.5 "/>
<text text-anchor="middle" x="1564.31" y="-591.3" font-family="Times,serif" font-size="14.00">Tietojärjestelmien perusteet</text>
<polyline fill="none" stroke="black" points="1480.31,-583.5 1648.31,-583.5 "/>
<text text-anchor="middle" x="1522.31" y="-568.3" font-family="Times,serif" font-size="14.00">1</text>
<polyline fill="none" stroke="black" points="1564.31,-560.5 1564.31,-583.5 "/>
<text text-anchor="middle" x="1606.31" y="-568.3" font-family="Times,serif" font-size="14.00">2</text>
</g>
<!-- c812360A -->
<g id="node22" class="node">
<title>c812360A</title>
<path fill="antiquewhite" stroke="black" d="M1414.81,-454.5C1414.81,-454.5 1713.81,-454.5 1713.81,-454.5 1719.81,-454.5 1725.81,-460.5 1725.81,-466.5 1725.81,-466.5 1725.81,-511.5 1725.81,-511.5 1725.81,-517.5 1719.81,-523.5 1713.81,-523.5 1713.81,-523.5 1414.81,-523.5 1414.81,-523.5 1408.81,-523.5 1402.81,-517.5 1402.81,-511.5 1402.81,-511.5 1402.81,-466.5 1402.81,-466.5 1402.81,-460.5 1408.81,-454.5 1414.81,-454.5"/>
<text text-anchor="middle" x="1564.31" y="-508.3" font-family="Times,serif" font-size="14.00">812360A</text>
<polyline fill="none" stroke="black" points="1402.81,-500.5 1725.81,-500.5 "/>
<text text-anchor="middle" x="1564.31" y="-485.3" font-family="Times,serif" font-size="14.00">Tietojärjestelmien mallintaminen, suunnittelu ja kehitys</text>
<polyline fill="none" stroke="black" points="1402.81,-477.5 1725.81,-477.5 "/>
<text text-anchor="middle" x="1483.31" y="-462.3" font-family="Times,serif" font-size="14.00">1</text>
<polyline fill="none" stroke="black" points="1563.81,-454.5 1563.81,-477.5 "/>
<text text-anchor="middle" x="1644.81" y="-462.3" font-family="Times,serif" font-size="14.00">4</text>
</g>
<!-- c811166P&#45;&gt;c812360A -->
<g id="edge17" class="edge">
<title>c811166P&#45;&gt;c812360A</title>
<path fill="none" stroke="black" d="M1564.31,-560.23C1564.31,-551.79 1564.31,-542.62 1564.31,-533.77"/>
<polygon fill="black" stroke="black" points="1567.81,-533.6 1564.31,-523.6 1560.81,-533.6 1567.81,-533.6"/>
</g>
<!-- c0001 -->
<g id="node23" class="node">
<title>c0001</title>
<path fill="antiquewhite" stroke="black" d="M1494.31,-348.5C1494.31,-348.5 1632.31,-348.5 1632.31,-348.5 1638.31,-348.5 1644.31,-354.5 1644.31,-360.5 1644.31,-360.5 1644.31,-405.5 1644.31,-405.5 1644.31,-411.5 1638.31,-417.5 1632.31,-417.5 1632.31,-417.5 1494.31,-417.5 1494.31,-417.5 1488.31,-417.5 1482.31,-411.5 1482.31,-405.5 1482.31,-405.5 1482.31,-360.5 1482.31,-360.5 1482.31,-354.5 1488.31,-348.5 1494.31,-348.5"/>
<text text-anchor="middle" x="1563.31" y="-402.3" font-family="Times,serif" font-size="14.00">xxxxxx</text>
<polyline fill="none" stroke="black" points="1482.31,-394.5 1644.31,-394.5 "/>
<text text-anchor="middle" x="1563.31" y="-379.3" font-family="Times,serif" font-size="14.00">Ihmislähtöinen suunnittelu</text>
<polyline fill="none" stroke="black" points="1482.31,-371.5 1644.31,-371.5 "/>
<text text-anchor="middle" x="1522.81" y="-356.3" font-family="Times,serif" font-size="14.00">2</text>
<polyline fill="none" stroke="black" points="1563.31,-348.5 1563.31,-371.5 "/>
<text text-anchor="middle" x="1603.81" y="-356.3" font-family="Times,serif" font-size="14.00">1</text>
</g>
<!-- c812360A&#45;&gt;c0001 -->
<g id="edge18" class="edge">
<title>c812360A&#45;&gt;c0001</title>
<path fill="none" stroke="black" d="M1563.98,-454.23C1563.9,-445.79 1563.81,-436.62 1563.73,-427.77"/>
<polygon fill="black" stroke="black" points="1567.23,-427.56 1563.63,-417.6 1560.23,-427.63 1567.23,-427.56"/>
</g>
<!-- c0002 -->
<g id="node24" class="node">
<title>c0002</title>
<path fill="antiquewhite" stroke="black" d="M1424.81,-239.5C1424.81,-239.5 1699.81,-239.5 1699.81,-239.5 1705.81,-239.5 1711.81,-245.5 1711.81,-251.5 1711.81,-251.5 1711.81,-296.5 1711.81,-296.5 1711.81,-302.5 1705.81,-308.5 1699.81,-308.5 1699.81,-308.5 1424.81,-308.5 1424.81,-308.5 1418.81,-308.5 1412.81,-302.5 1412.81,-296.5 1412.81,-296.5 1412.81,-251.5 1412.81,-251.5 1412.81,-245.5 1418.81,-239.5 1424.81,-239.5"/>
<text text-anchor="middle" x="1562.31" y="-293.3" font-family="Times,serif" font-size="14.00">xxxxxx</text>
<polyline fill="none" stroke="black" points="1412.81,-285.5 1711.81,-285.5 "/>
<text text-anchor="middle" x="1562.31" y="-270.3" font-family="Times,serif" font-size="14.00">Tietojärjestelmien hankinta, käyttöönotto ja hallinta</text>
<polyline fill="none" stroke="black" points="1412.81,-262.5 1711.81,-262.5 "/>
<text text-anchor="middle" x="1487.31" y="-247.3" font-family="Times,serif" font-size="14.00">2</text>
<polyline fill="none" stroke="black" points="1561.81,-239.5 1561.81,-262.5 "/>
<text text-anchor="middle" x="1636.81" y="-247.3" font-family="Times,serif" font-size="14.00">2</text>
</g>
<!-- c0001&#45;&gt;c0002 -->
<g id="edge19" class="edge">
<title>c0001&#45;&gt;c0002</title>
<path fill="none" stroke="black" d="M1562.99,-348.44C1562.91,-339.07 1562.81,-328.75 1562.72,-318.87"/>
<polygon fill="black" stroke="black" points="1566.22,-318.78 1562.62,-308.81 1559.22,-318.84 1566.22,-318.78"/>
</g>
<!-- c0003 -->
<g id="node25" class="node">
<title>c0003</title>
<path fill="antiquewhite" stroke="black" d="M1417.81,-122.5C1417.81,-122.5 1702.81,-122.5 1702.81,-122.5 1708.81,-122.5 1714.81,-128.5 1714.81,-134.5 1714.81,-134.5 1714.81,-179.5 1714.81,-179.5 1714.81,-185.5 1708.81,-191.5 1702.81,-191.5 1702.81,-191.5 1417.81,-191.5 1417.81,-191.5 1411.81,-191.5 1405.81,-185.5 1405.81,-179.5 1405.81,-179.5 1405.81,-134.5 1405.81,-134.5 1405.81,-128.5 1411.81,-122.5 1417.81,-122.5"/>
<text text-anchor="middle" x="1560.31" y="-176.3" font-family="Times,serif" font-size="14.00">xxxxxx</text>
<polyline fill="none" stroke="black" points="1405.81,-168.5 1714.81,-168.5 "/>
<text text-anchor="middle" x="1560.31" y="-153.3" font-family="Times,serif" font-size="14.00">Liiketoimintaprosessien johtaminen ja mallintaminen</text>
<polyline fill="none" stroke="black" points="1405.81,-145.5 1714.81,-145.5 "/>
<text text-anchor="middle" x="1482.81" y="-130.3" font-family="Times,serif" font-size="14.00">2</text>
<polyline fill="none" stroke="black" points="1559.81,-122.5 1559.81,-145.5 "/>
<text text-anchor="middle" x="1637.31" y="-130.3" font-family="Times,serif" font-size="14.00">3</text>
</g>
<!-- c0002&#45;&gt;c0003 -->
<g id="edge20" class="edge">
<title>c0002&#45;&gt;c0003</title>
<path fill="none" stroke="black" d="M1561.72,-239.43C1561.52,-227.72 1561.29,-214.41 1561.07,-201.98"/>
<polygon fill="black" stroke="black" points="1564.57,-201.75 1560.9,-191.81 1557.57,-201.87 1564.57,-201.75"/>
</g>
<!-- c0004 -->
<g id="node26" class="node">
<title>c0004</title>
<path fill="antiquewhite" stroke="black" d="M1457.31,-16.5C1457.31,-16.5 1663.31,-16.5 1663.31,-16.5 1669.31,-16.5 1675.31,-22.5 1675.31,-28.5 1675.31,-28.5 1675.31,-73.5 1675.31,-73.5 1675.31,-79.5 1669.31,-85.5 1663.31,-85.5 1663.31,-85.5 1457.31,-85.5 1457.31,-85.5 1451.31,-85.5 1445.31,-79.5 1445.31,-73.5 1445.31,-73.5 1445.31,-28.5 1445.31,-28.5 1445.31,-22.5 1451.31,-16.5 1457.31,-16.5"/>
<text text-anchor="middle" x="1560.31" y="-70.3" font-family="Times,serif" font-size="14.00">xxxxxx</text>
<polyline fill="none" stroke="black" points="1445.31,-62.5 1675.31,-62.5 "/>
<text text-anchor="middle" x="1560.31" y="-47.3" font-family="Times,serif" font-size="14.00">Data&#45;analytiikka liiketoiminnan tukena</text>
<polyline fill="none" stroke="black" points="1445.31,-39.5 1675.31,-39.5 "/>
<text text-anchor="middle" x="1502.81" y="-24.3" font-family="Times,serif" font-size="14.00">3</text>
<polyline fill="none" stroke="black" points="1560.31,-16.5 1560.31,-39.5 "/>
<text text-anchor="middle" x="1617.81" y="-24.3" font-family="Times,serif" font-size="14.00">4</text>
</g>
<!-- c0003&#45;&gt;c0004 -->
<g id="edge21" class="edge">
<title>c0003&#45;&gt;c0004</title>
<path fill="none" stroke="black" d="M1560.31,-122.23C1560.31,-113.79 1560.31,-104.62 1560.31,-95.77"/>
<polygon fill="black" stroke="black" points="1563.81,-95.6 1560.31,-85.6 1556.81,-95.6 1563.81,-95.6"/>
</g>
<!-- c0003&#45;&gt;c0005 -->
<g id="edge30" class="edge">
<title>c0003&#45;&gt;c0005</title>
<path fill="none" stroke="black" d="M1462.35,-122.38C1418.58,-107.36 1367.98,-89.99 1327.99,-76.26"/>
<polygon fill="black" stroke="black" points="1328.92,-72.88 1318.32,-72.94 1326.65,-79.5 1328.92,-72.88"/>
</g>
<!-- c811397A -->
<g id="node27" class="node">
<title>c811397A</title>
<path fill="azure" stroke="black" d="M1222.81,-122.5C1222.81,-122.5 1365.81,-122.5 1365.81,-122.5 1371.81,-122.5 1377.81,-128.5 1377.81,-134.5 1377.81,-134.5 1377.81,-179.5 1377.81,-179.5 1377.81,-185.5 1371.81,-191.5 1365.81,-191.5 1365.81,-191.5 1222.81,-191.5 1222.81,-191.5 1216.81,-191.5 1210.81,-185.5 1210.81,-179.5 1210.81,-179.5 1210.81,-134.5 1210.81,-134.5 1210.81,-128.5 1216.81,-122.5 1222.81,-122.5"/>
<text text-anchor="middle" x="1294.31" y="-176.3" font-family="Times,serif" font-size="14.00">811397A</text>
<polyline fill="none" stroke="black" points="1210.81,-168.5 1377.81,-168.5 "/>
<text text-anchor="middle" x="1294.31" y="-153.3" font-family="Times,serif" font-size="14.00">Projektitoiminnan perusteet</text>
<polyline fill="none" stroke="black" points="1210.81,-145.5 1377.81,-145.5 "/>
<text text-anchor="middle" x="1252.31" y="-130.3" font-family="Times,serif" font-size="14.00">2</text>
<polyline fill="none" stroke="black" points="1293.81,-122.5 1293.81,-145.5 "/>
<text text-anchor="middle" x="1335.81" y="-130.3" font-family="Times,serif" font-size="14.00">4</text>
</g>
<!-- c811397A&#45;&gt;c0005 -->
<g id="edge27" class="edge">
<title>c811397A&#45;&gt;c0005</title>
<path fill="none" stroke="black" d="M1282.3,-122.23C1279.23,-113.61 1275.89,-104.22 1272.68,-95.19"/>
<polygon fill="black" stroke="black" points="1275.91,-93.84 1269.26,-85.6 1269.32,-96.19 1275.91,-93.84"/>
</g>
<!-- c811393A&#45;&gt;c811383A -->
<g id="edge24" class="edge">
<title>c811393A&#45;&gt;c811383A</title>
<path fill="none" stroke="black" d="M1107.87,-122.23C1105.73,-113.7 1103.41,-104.42 1101.18,-95.48"/>
<polygon fill="black" stroke="black" points="1104.53,-94.45 1098.71,-85.6 1097.74,-96.15 1104.53,-94.45"/>
</g>
</g>
</svg>
