<?xml version="1.0" encoding="UTF-8" standalone="no"?>
<!DOCTYPE svg PUBLIC "-//W3C//DTD SVG 1.1//EN"
 "http://www.w3.org/Graphics/SVG/1.1/DTD/svg11.dtd">
<!-- Generated by graphviz version 5.0.1 (20220820.1526)
 -->
<!-- Title: TOLLuK Pages: 1 -->
<svg width="3253pt" height="1071pt"
 viewBox="0.00 0.00 3253.00 1071.00" xmlns="http://www.w3.org/2000/svg" xmlns:xlink="http://www.w3.org/1999/xlink">
<g id="graph0" class="graph" transform="scale(1 1) rotate(0) translate(4 1067)">
<title>TOLLuK</title>
<polygon fill="white" stroke="none" points="-4,4 -4,-1067 3249,-1067 3249,4 -4,4"/>
<g id="clust5" class="cluster">
<title>cluster_Ohjelmistokehitys</title>
<polygon fill="none" stroke="black" stroke-dasharray="1,5" points="8,-358 8,-510 2554,-510 2554,-358 8,-358"/>
<text text-anchor="middle" x="1281" y="-494.8" font-family="Times,serif" font-size="14.00">Ohjelmistokehitys</text>
</g>
<g id="clust6" class="cluster">
<title>cluster_IhminenOrganisaatio</title>
<polygon fill="none" stroke="black" stroke-dasharray="1,5" points="665,-8 665,-95 3018,-95 3018,-8 665,-8"/>
<text text-anchor="middle" x="1841.5" y="-79.8" font-family="Times,serif" font-size="14.00">Ihminen ja organisaatio</text>
</g>
<g id="clust1" class="cluster">
<title>cluster_Legend</title>
<g id="a_clust1"><a xlink:href="https://github.com/anttijuu/tol-courses-graph" xlink:title="Selite">
<polygon fill="none" stroke="black" stroke-dasharray="1,5" points="26.5,-135 26.5,-222 293.5,-222 293.5,-135 26.5,-135"/>
<text text-anchor="middle" x="160" y="-206.8" font-family="Times,serif" font-size="14.00">Selite</text>
</a>
</g>
</g>
<g id="clust2" class="cluster">
<title>cluster_Yleiset</title>
<polygon fill="none" stroke="black" stroke-dasharray="1,5" points="1710,-708 1710,-1055 2662,-1055 2662,-708 1710,-708"/>
<text text-anchor="middle" x="2186" y="-1039.8" font-family="Times,serif" font-size="14.00">Yleiset ja kieliopinnot</text>
</g>
<g id="clust3" class="cluster">
<title>cluster_Johdanto</title>
<polygon fill="none" stroke="black" stroke-dasharray="1,5" points="332,-143 332,-350 889.5,-350 889.5,-143 332,-143"/>
<text text-anchor="middle" x="610.75" y="-334.8" font-family="Times,serif" font-size="14.00">Johdanto</text>
</g>
<g id="clust4" class="cluster">
<title>cluster_Ohjelmointi</title>
<polygon fill="none" stroke="black" stroke-dasharray="1,5" points="1035.5,-133 1035.5,-350 1647.5,-350 1647.5,-133 1035.5,-133"/>
<text text-anchor="middle" x="1341.5" y="-334.8" font-family="Times,serif" font-size="14.00">Ohjelmointi</text>
</g>
<g id="clust7" class="cluster">
<title>cluster_Huipennus</title>
<polygon fill="none" stroke="black" stroke-dasharray="1,5" points="2289,-548 2289,-700 3237,-700 3237,-548 2289,-548"/>
<text text-anchor="middle" x="2763" y="-684.8" font-family="Times,serif" font-size="14.00">Huipennus</text>
</g>
<!-- legend -->
<g id="node1" class="node">
<title>legend</title>
<path fill="pink" stroke="black" d="M46.5,-144C46.5,-144 273.5,-144 273.5,-144 279.5,-144 285.5,-150 285.5,-156 285.5,-156 285.5,-178 285.5,-178 285.5,-184 279.5,-190 273.5,-190 273.5,-190 46.5,-190 46.5,-190 40.5,-190 34.5,-184 34.5,-178 34.5,-178 34.5,-156 34.5,-156 34.5,-150 40.5,-144 46.5,-144"/>
<text text-anchor="middle" x="76" y="-163.3" font-family="Times,serif" font-size="14.00">Kurssikoodi</text>
<polyline fill="none" stroke="black" points="117.5,-144 117.5,-190"/>
<text text-anchor="middle" x="161.5" y="-163.3" font-family="Times,serif" font-size="14.00">Kurssin nimi</text>
<polyline fill="none" stroke="black" points="205.5,-144 205.5,-190"/>
<text text-anchor="middle" x="245.5" y="-174.8" font-family="Times,serif" font-size="14.00">opintovuosi</text>
<polyline fill="none" stroke="black" points="205.5,-167 285.5,-167"/>
<text text-anchor="middle" x="245.5" y="-151.8" font-family="Times,serif" font-size="14.00">periodi</text>
</g>
<!-- c902164Y -->
<g id="node2" class="node">
<title>c902164Y</title>
<path fill="gainsboro" stroke="black" d="M1730,-977C1730,-977 2149,-977 2149,-977 2155,-977 2161,-983 2161,-989 2161,-989 2161,-1011 2161,-1011 2161,-1017 2155,-1023 2149,-1023 2149,-1023 1730,-1023 1730,-1023 1724,-1023 1718,-1017 1718,-1011 1718,-1011 1718,-989 1718,-989 1718,-983 1724,-977 1730,-977"/>
<text text-anchor="middle" x="1751.5" y="-996.3" font-family="Times,serif" font-size="14.00">902164Y</text>
<polyline fill="none" stroke="black" points="1785,-977 1785,-1023"/>
<text text-anchor="middle" x="1961.5" y="-996.3" font-family="Times,serif" font-size="14.00">English Communication for Information Processing, Reading</text>
<polyline fill="none" stroke="black" points="2138,-977 2138,-1023"/>
<text text-anchor="middle" x="2149.5" y="-1007.8" font-family="Times,serif" font-size="14.00">1</text>
<polyline fill="none" stroke="black" points="2138,-1000 2161,-1000"/>
<text text-anchor="middle" x="2149.5" y="-984.8" font-family="Times,serif" font-size="14.00">3</text>
</g>
<!-- c902165Y -->
<g id="node3" class="node">
<title>c902165Y</title>
<path fill="gainsboro" stroke="black" d="M2209,-977C2209,-977 2642,-977 2642,-977 2648,-977 2654,-983 2654,-989 2654,-989 2654,-1011 2654,-1011 2654,-1017 2648,-1023 2642,-1023 2642,-1023 2209,-1023 2209,-1023 2203,-1023 2197,-1017 2197,-1011 2197,-1011 2197,-989 2197,-989 2197,-983 2203,-977 2209,-977"/>
<text text-anchor="middle" x="2230.5" y="-996.3" font-family="Times,serif" font-size="14.00">902165Y</text>
<polyline fill="none" stroke="black" points="2264,-977 2264,-1023"/>
<text text-anchor="middle" x="2447.5" y="-996.3" font-family="Times,serif" font-size="14.00">English Communication for Information Processing, Oral Skills</text>
<polyline fill="none" stroke="black" points="2631,-977 2631,-1023"/>
<text text-anchor="middle" x="2642.5" y="-1007.8" font-family="Times,serif" font-size="14.00">1</text>
<polyline fill="none" stroke="black" points="2631,-1000 2654,-1000"/>
<text text-anchor="middle" x="2642.5" y="-984.8" font-family="Times,serif" font-size="14.00">4</text>
</g>
<!-- c902164Y&#45;&gt;c902165Y -->
<g id="edge1" class="edge">
<title>c902164Y&#45;&gt;c902165Y</title>
<path fill="none" stroke="black" d="M2161.25,-1000C2169.77,-1000 2178.31,-1000 2186.85,-1000"/>
<polygon fill="black" stroke="black" points="2186.87,-1003.5 2196.87,-1000 2186.87,-996.5 2186.87,-1003.5"/>
</g>
<!-- c901048Y -->
<g id="node4" class="node">
<title>c901048Y</title>
<path fill="gainsboro" stroke="black" d="M1753.5,-912C1753.5,-912 2125.5,-912 2125.5,-912 2131.5,-912 2137.5,-918 2137.5,-924 2137.5,-924 2137.5,-946 2137.5,-946 2137.5,-952 2131.5,-958 2125.5,-958 2125.5,-958 1753.5,-958 1753.5,-958 1747.5,-958 1741.5,-952 1741.5,-946 1741.5,-946 1741.5,-924 1741.5,-924 1741.5,-918 1747.5,-912 1753.5,-912"/>
<text text-anchor="middle" x="1775" y="-931.3" font-family="Times,serif" font-size="14.00">901048Y</text>
<polyline fill="none" stroke="black" points="1808.5,-912 1808.5,-958"/>
<text text-anchor="middle" x="1961.5" y="-931.3" font-family="Times,serif" font-size="14.00">Toinen kotimainen kieli (ruotsi), kirjallinen kielitaito</text>
<polyline fill="none" stroke="black" points="2114.5,-912 2114.5,-958"/>
<text text-anchor="middle" x="2126" y="-942.8" font-family="Times,serif" font-size="14.00">1</text>
<polyline fill="none" stroke="black" points="2114.5,-935 2137.5,-935"/>
<text text-anchor="middle" x="2126" y="-919.8" font-family="Times,serif" font-size="14.00">1</text>
</g>
<!-- c901049Y -->
<g id="node5" class="node">
<title>c901049Y</title>
<path fill="gainsboro" stroke="black" d="M1756.5,-847C1756.5,-847 2122.5,-847 2122.5,-847 2128.5,-847 2134.5,-853 2134.5,-859 2134.5,-859 2134.5,-881 2134.5,-881 2134.5,-887 2128.5,-893 2122.5,-893 2122.5,-893 1756.5,-893 1756.5,-893 1750.5,-893 1744.5,-887 1744.5,-881 1744.5,-881 1744.5,-859 1744.5,-859 1744.5,-853 1750.5,-847 1756.5,-847"/>
<text text-anchor="middle" x="1778" y="-866.3" font-family="Times,serif" font-size="14.00">901049Y</text>
<polyline fill="none" stroke="black" points="1811.5,-847 1811.5,-893"/>
<text text-anchor="middle" x="1961.5" y="-866.3" font-family="Times,serif" font-size="14.00">Toinen kotimainen kieli (ruotsi), suullinen kielitaito</text>
<polyline fill="none" stroke="black" points="2111.5,-847 2111.5,-893"/>
<text text-anchor="middle" x="2123" y="-877.8" font-family="Times,serif" font-size="14.00">1</text>
<polyline fill="none" stroke="black" points="2111.5,-870 2134.5,-870"/>
<text text-anchor="middle" x="2123" y="-854.8" font-family="Times,serif" font-size="14.00">2</text>
</g>
<!-- c030005P -->
<g id="node6" class="node">
<title>c030005P</title>
<path fill="gainsboro" stroke="black" d="M1834.5,-717C1834.5,-717 2044.5,-717 2044.5,-717 2050.5,-717 2056.5,-723 2056.5,-729 2056.5,-729 2056.5,-751 2056.5,-751 2056.5,-757 2050.5,-763 2044.5,-763 2044.5,-763 1834.5,-763 1834.5,-763 1828.5,-763 1822.5,-757 1822.5,-751 1822.5,-751 1822.5,-729 1822.5,-729 1822.5,-723 1828.5,-717 1834.5,-717"/>
<text text-anchor="middle" x="1855" y="-736.3" font-family="Times,serif" font-size="14.00">030005P</text>
<polyline fill="none" stroke="black" points="1887.5,-717 1887.5,-763"/>
<text text-anchor="middle" x="1954.5" y="-736.3" font-family="Times,serif" font-size="14.00">Tiedonhankintakurssi</text>
<polyline fill="none" stroke="black" points="2021.5,-717 2021.5,-763"/>
<text text-anchor="middle" x="2039" y="-747.8" font-family="Times,serif" font-size="14.00">1</text>
<polyline fill="none" stroke="black" points="2021.5,-740 2056.5,-740"/>
<text text-anchor="middle" x="2039" y="-724.8" font-family="Times,serif" font-size="14.00">1&#45;2</text>
</g>
<!-- c811393A -->
<g id="node33" class="node">
<title>c811393A</title>
<path fill="azure" stroke="black" d="M2316,-622C2316,-622 2535,-622 2535,-622 2541,-622 2547,-628 2547,-634 2547,-634 2547,-656 2547,-656 2547,-662 2541,-668 2535,-668 2535,-668 2316,-668 2316,-668 2310,-668 2304,-662 2304,-656 2304,-656 2304,-634 2304,-634 2304,-628 2310,-622 2316,-622"/>
<text text-anchor="middle" x="2337.5" y="-641.3" font-family="Times,serif" font-size="14.00">811393A</text>
<polyline fill="none" stroke="black" points="2371,-622 2371,-668"/>
<text text-anchor="middle" x="2447.5" y="-641.3" font-family="Times,serif" font-size="14.00">Johdatus tutkimustyöhön</text>
<polyline fill="none" stroke="black" points="2524,-622 2524,-668"/>
<text text-anchor="middle" x="2535.5" y="-652.8" font-family="Times,serif" font-size="14.00">3</text>
<polyline fill="none" stroke="black" points="2524,-645 2547,-645"/>
<text text-anchor="middle" x="2535.5" y="-629.8" font-family="Times,serif" font-size="14.00">3</text>
</g>
<!-- c030005P&#45;&gt;c811393A -->
<g id="edge23" class="edge">
<title>c030005P&#45;&gt;c811393A</title>
<path fill="none" stroke="black" d="M2056.74,-717.18C2129.28,-702.95 2222.69,-684.61 2297.22,-669.98"/>
<polygon fill="black" stroke="black" points="2298,-673.4 2307.14,-668.04 2296.66,-666.53 2298,-673.4"/>
</g>
<!-- c811383A -->
<g id="node34" class="node">
<title>c811383A</title>
<path fill="azure" stroke="black" d="M2762,-622C2762,-622 2938,-622 2938,-622 2944,-622 2950,-628 2950,-634 2950,-634 2950,-656 2950,-656 2950,-662 2944,-668 2938,-668 2938,-668 2762,-668 2762,-668 2756,-668 2750,-662 2750,-656 2750,-656 2750,-634 2750,-634 2750,-628 2756,-622 2762,-622"/>
<text text-anchor="middle" x="2783.5" y="-641.3" font-family="Times,serif" font-size="14.00">811383A</text>
<polyline fill="none" stroke="black" points="2817,-622 2817,-668"/>
<text text-anchor="middle" x="2866" y="-641.3" font-family="Times,serif" font-size="14.00">LuK&#45;tutkielma</text>
<polyline fill="none" stroke="black" points="2915,-622 2915,-668"/>
<text text-anchor="middle" x="2932.5" y="-652.8" font-family="Times,serif" font-size="14.00">3</text>
<polyline fill="none" stroke="black" points="2915,-645 2950,-645"/>
<text text-anchor="middle" x="2932.5" y="-629.8" font-family="Times,serif" font-size="14.00">3&#45;4</text>
</g>
<!-- c030005P&#45;&gt;c811383A -->
<g id="edge26" class="edge">
<title>c030005P&#45;&gt;c811383A</title>
<path fill="none" stroke="black" d="M1960.95,-717C2001.08,-673.81 2095.14,-581.9 2197,-548 2246.02,-531.68 2618.84,-519.6 2662,-548 2688.28,-565.29 2665.57,-593.19 2690,-613 2704.3,-624.6 2721.67,-632.36 2739.61,-637.48"/>
<polygon fill="black" stroke="black" points="2739.06,-640.96 2749.62,-640.07 2740.81,-634.18 2739.06,-640.96"/>
</g>
<!-- c900105Y -->
<g id="node7" class="node">
<title>c900105Y</title>
<path fill="gainsboro" stroke="black" d="M1807.5,-782C1807.5,-782 2071.5,-782 2071.5,-782 2077.5,-782 2083.5,-788 2083.5,-794 2083.5,-794 2083.5,-816 2083.5,-816 2083.5,-822 2077.5,-828 2071.5,-828 2071.5,-828 1807.5,-828 1807.5,-828 1801.5,-828 1795.5,-822 1795.5,-816 1795.5,-816 1795.5,-794 1795.5,-794 1795.5,-788 1801.5,-782 1807.5,-782"/>
<text text-anchor="middle" x="1829" y="-801.3" font-family="Times,serif" font-size="14.00">900105Y</text>
<polyline fill="none" stroke="black" points="1862.5,-782 1862.5,-828"/>
<text text-anchor="middle" x="1961.5" y="-801.3" font-family="Times,serif" font-size="14.00">Suuntaa uralle viestinnän keinoin</text>
<polyline fill="none" stroke="black" points="2060.5,-782 2060.5,-828"/>
<text text-anchor="middle" x="2072" y="-812.8" font-family="Times,serif" font-size="14.00">3</text>
<polyline fill="none" stroke="black" points="2060.5,-805 2083.5,-805"/>
<text text-anchor="middle" x="2072" y="-789.8" font-family="Times,serif" font-size="14.00">3</text>
</g>
<!-- c900105Y&#45;&gt;c811393A -->
<g id="edge24" class="edge">
<title>c900105Y&#45;&gt;c811393A</title>
<path fill="none" stroke="black" d="M2083.57,-804.09C2111.09,-798.63 2138.36,-789.06 2161,-773 2189.21,-752.99 2169.93,-725.53 2197,-704 2224.61,-682.04 2259.53,-668.18 2293.66,-659.46"/>
<polygon fill="black" stroke="black" points="2294.84,-662.78 2303.73,-657.03 2293.19,-655.97 2294.84,-662.78"/>
</g>
<!-- c810020Y -->
<g id="node8" class="node">
<title>c810020Y</title>
<path fill="yellow" stroke="black" d="M379,-282C379,-282 598,-282 598,-282 604,-282 610,-288 610,-294 610,-294 610,-306 610,-306 610,-312 604,-318 598,-318 598,-318 379,-318 379,-318 373,-318 367,-312 367,-306 367,-306 367,-294 367,-294 367,-288 373,-282 379,-282"/>
<text text-anchor="middle" x="400.5" y="-296.3" font-family="Times,serif" font-size="14.00">810020Y</text>
<polyline fill="none" stroke="black" points="434,-282 434,-318"/>
<text text-anchor="middle" x="495.5" y="-296.3" font-family="Times,serif" font-size="14.00">Orientoivat opinnot</text>
<polyline fill="none" stroke="black" points="557,-282 557,-318"/>
<text text-anchor="middle" x="583.5" y="-296.3" font-family="Times,serif" font-size="14.00">1 / 1&#45;2</text>
</g>
<!-- c810136P -->
<g id="node9" class="node">
<title>c810136P</title>
<path fill="yellow" stroke="black" d="M28,-367C28,-367 292,-367 292,-367 298,-367 304,-373 304,-379 304,-379 304,-401 304,-401 304,-407 298,-413 292,-413 292,-413 28,-413 28,-413 22,-413 16,-407 16,-401 16,-401 16,-379 16,-379 16,-373 22,-367 28,-367"/>
<text text-anchor="middle" x="48.5" y="-386.3" font-family="Times,serif" font-size="14.00">810136P</text>
<polyline fill="none" stroke="black" points="81,-367 81,-413"/>
<text text-anchor="middle" x="181" y="-386.3" font-family="Times,serif" font-size="14.00">Johdatus tietojenkäsittelytieteisiin</text>
<polyline fill="none" stroke="black" points="281,-367 281,-413"/>
<text text-anchor="middle" x="292.5" y="-397.8" font-family="Times,serif" font-size="14.00">1</text>
<polyline fill="none" stroke="black" points="281,-390 304,-390"/>
<text text-anchor="middle" x="292.5" y="-374.8" font-family="Times,serif" font-size="14.00">1</text>
</g>
<!-- c811168P -->
<g id="node10" class="node">
<title>c811168P</title>
<path fill="yellow" stroke="black" d="M732.5,-212C732.5,-212 869.5,-212 869.5,-212 875.5,-212 881.5,-218 881.5,-224 881.5,-224 881.5,-246 881.5,-246 881.5,-252 875.5,-258 869.5,-258 869.5,-258 732.5,-258 732.5,-258 726.5,-258 720.5,-252 720.5,-246 720.5,-246 720.5,-224 720.5,-224 720.5,-218 726.5,-212 732.5,-212"/>
<text text-anchor="middle" x="753" y="-231.3" font-family="Times,serif" font-size="14.00">811168P</text>
<polyline fill="none" stroke="black" points="785.5,-212 785.5,-258"/>
<text text-anchor="middle" x="822" y="-231.3" font-family="Times,serif" font-size="14.00">Tietoturva</text>
<polyline fill="none" stroke="black" points="858.5,-212 858.5,-258"/>
<text text-anchor="middle" x="870" y="-242.8" font-family="Times,serif" font-size="14.00">1</text>
<polyline fill="none" stroke="black" points="858.5,-235 881.5,-235"/>
<text text-anchor="middle" x="870" y="-219.8" font-family="Times,serif" font-size="14.00">3</text>
</g>
<!-- c810136P&#45;&gt;c811168P -->
<g id="edge2" class="edge">
<title>c810136P&#45;&gt;c811168P</title>
<path fill="none" stroke="black" d="M304.04,-385.81C400.29,-379.52 528.87,-364.32 637,-328 681.75,-312.97 728.05,-285.17 759.82,-263.86"/>
<polygon fill="black" stroke="black" points="762.08,-266.56 768.38,-258.04 758.14,-260.77 762.08,-266.56"/>
</g>
<!-- c811174P -->
<g id="node11" class="node">
<title>c811174P</title>
<path fill="yellow" stroke="black" d="M352,-217C352,-217 625,-217 625,-217 631,-217 637,-223 637,-229 637,-229 637,-251 637,-251 637,-257 631,-263 625,-263 625,-263 352,-263 352,-263 346,-263 340,-257 340,-251 340,-251 340,-229 340,-229 340,-223 346,-217 352,-217"/>
<text text-anchor="middle" x="372.5" y="-236.3" font-family="Times,serif" font-size="14.00">811174P</text>
<polyline fill="none" stroke="black" points="405,-217 405,-263"/>
<text text-anchor="middle" x="509.5" y="-236.3" font-family="Times,serif" font-size="14.00">Ohjelmistoliiketoiminnan perusteet</text>
<polyline fill="none" stroke="black" points="614,-217 614,-263"/>
<text text-anchor="middle" x="625.5" y="-247.8" font-family="Times,serif" font-size="14.00">1</text>
<polyline fill="none" stroke="black" points="614,-240 637,-240"/>
<text text-anchor="middle" x="625.5" y="-224.8" font-family="Times,serif" font-size="14.00">3</text>
</g>
<!-- c810136P&#45;&gt;c811174P -->
<g id="edge4" class="edge">
<title>c810136P&#45;&gt;c811174P</title>
<path fill="none" stroke="black" d="M187.46,-366.94C219.49,-340.25 276.12,-296.93 332,-273 337.53,-270.63 343.24,-268.43 349.06,-266.38"/>
<polygon fill="black" stroke="black" points="350.58,-269.56 358.96,-263.08 348.37,-262.92 350.58,-269.56"/>
</g>
<!-- c811103P -->
<g id="node19" class="node">
<title>c811103P</title>
<path fill="#caff70" stroke="black" d="M365,-414C365,-414 612,-414 612,-414 618,-414 624,-420 624,-426 624,-426 624,-448 624,-448 624,-454 618,-460 612,-460 612,-460 365,-460 365,-460 359,-460 353,-454 353,-448 353,-448 353,-426 353,-426 353,-420 359,-414 365,-414"/>
<text text-anchor="middle" x="385.5" y="-433.3" font-family="Times,serif" font-size="14.00">811103P</text>
<polyline fill="none" stroke="black" points="418,-414 418,-460"/>
<text text-anchor="middle" x="509.5" y="-433.3" font-family="Times,serif" font-size="14.00">Johdatus ohjelmistotuotantoon</text>
<polyline fill="none" stroke="black" points="601,-414 601,-460"/>
<text text-anchor="middle" x="612.5" y="-444.8" font-family="Times,serif" font-size="14.00">1</text>
<polyline fill="none" stroke="black" points="601,-437 624,-437"/>
<text text-anchor="middle" x="612.5" y="-421.8" font-family="Times,serif" font-size="14.00">2</text>
</g>
<!-- c810136P&#45;&gt;c811103P -->
<g id="edge10" class="edge">
<title>c810136P&#45;&gt;c811103P</title>
<path fill="none" stroke="black" d="M304.21,-410.61C316.98,-412.45 329.93,-414.32 342.72,-416.16"/>
<polygon fill="black" stroke="black" points="342.54,-419.67 352.93,-417.63 343.53,-412.74 342.54,-419.67"/>
</g>
<!-- c810136P&#45;&gt;c811383A -->
<g id="edge27" class="edge">
<title>c810136P&#45;&gt;c811383A</title>
<path fill="none" stroke="black" d="M186.76,-366.89C218.47,-337.16 272.04,-282.57 304,-226 323.98,-190.63 299.85,-163.82 332,-139 496.9,-11.69 591.68,-113 800,-113 800,-113 800,-113 1940.5,-113 2289.51,-113 2449.22,-146.35 2662,-423 2714.04,-490.66 2631.24,-551.09 2690,-613 2703.37,-627.09 2721.08,-635.91 2739.82,-641.27"/>
<polygon fill="black" stroke="black" points="2739.14,-644.71 2749.69,-643.78 2740.86,-637.93 2739.14,-644.71"/>
</g>
<!-- c811102P -->
<g id="node12" class="node">
<title>c811102P</title>
<path fill="yellow" stroke="black" d="M389.5,-152C389.5,-152 587.5,-152 587.5,-152 593.5,-152 599.5,-158 599.5,-164 599.5,-164 599.5,-186 599.5,-186 599.5,-192 593.5,-198 587.5,-198 587.5,-198 389.5,-198 389.5,-198 383.5,-198 377.5,-192 377.5,-186 377.5,-186 377.5,-164 377.5,-164 377.5,-158 383.5,-152 389.5,-152"/>
<text text-anchor="middle" x="410" y="-171.3" font-family="Times,serif" font-size="14.00">811102P</text>
<polyline fill="none" stroke="black" points="442.5,-152 442.5,-198"/>
<text text-anchor="middle" x="509.5" y="-171.3" font-family="Times,serif" font-size="14.00">Laitteet ja tietoverkot</text>
<polyline fill="none" stroke="black" points="576.5,-152 576.5,-198"/>
<text text-anchor="middle" x="588" y="-182.8" font-family="Times,serif" font-size="14.00">1</text>
<polyline fill="none" stroke="black" points="576.5,-175 599.5,-175"/>
<text text-anchor="middle" x="588" y="-159.8" font-family="Times,serif" font-size="14.00">1</text>
</g>
<!-- c811102P&#45;&gt;c811168P -->
<g id="edge3" class="edge">
<title>c811102P&#45;&gt;c811168P</title>
<path fill="none" stroke="black" d="M599.84,-196.32C636.02,-203.31 675.75,-210.99 710.21,-217.65"/>
<polygon fill="black" stroke="black" points="709.77,-221.13 720.25,-219.59 711.1,-214.26 709.77,-221.13"/>
</g>
<!-- c811104P -->
<g id="node13" class="node">
<title>c811104P</title>
<path fill="#ffd700" stroke="black" d="M1087,-272C1087,-272 1256,-272 1256,-272 1262,-272 1268,-278 1268,-284 1268,-284 1268,-306 1268,-306 1268,-312 1262,-318 1256,-318 1256,-318 1087,-318 1087,-318 1081,-318 1075,-312 1075,-306 1075,-306 1075,-284 1075,-284 1075,-278 1081,-272 1087,-272"/>
<text text-anchor="middle" x="1107.5" y="-291.3" font-family="Times,serif" font-size="14.00">811104P</text>
<polyline fill="none" stroke="black" points="1140,-272 1140,-318"/>
<text text-anchor="middle" x="1186.5" y="-291.3" font-family="Times,serif" font-size="14.00">Ohjelmointi 1</text>
<polyline fill="none" stroke="black" points="1233,-272 1233,-318"/>
<text text-anchor="middle" x="1250.5" y="-302.8" font-family="Times,serif" font-size="14.00">1</text>
<polyline fill="none" stroke="black" points="1233,-295 1268,-295"/>
<text text-anchor="middle" x="1250.5" y="-279.8" font-family="Times,serif" font-size="14.00">1&#45;2</text>
</g>
<!-- c811322A -->
<g id="node14" class="node">
<title>c811322A</title>
<path fill="#ffd700" stroke="black" d="M715.5,-367C715.5,-367 886.5,-367 886.5,-367 892.5,-367 898.5,-373 898.5,-379 898.5,-379 898.5,-401 898.5,-401 898.5,-407 892.5,-413 886.5,-413 886.5,-413 715.5,-413 715.5,-413 709.5,-413 703.5,-407 703.5,-401 703.5,-401 703.5,-379 703.5,-379 703.5,-373 709.5,-367 715.5,-367"/>
<text text-anchor="middle" x="737" y="-386.3" font-family="Times,serif" font-size="14.00">811322A</text>
<polyline fill="none" stroke="black" points="770.5,-367 770.5,-413"/>
<text text-anchor="middle" x="817" y="-386.3" font-family="Times,serif" font-size="14.00">Ohjelmointi 2</text>
<polyline fill="none" stroke="black" points="863.5,-367 863.5,-413"/>
<text text-anchor="middle" x="881" y="-397.8" font-family="Times,serif" font-size="14.00">1</text>
<polyline fill="none" stroke="black" points="863.5,-390 898.5,-390"/>
<text text-anchor="middle" x="881" y="-374.8" font-family="Times,serif" font-size="14.00">3&#45;4</text>
</g>
<!-- c811104P&#45;&gt;c811322A -->
<g id="edge5" class="edge">
<title>c811104P&#45;&gt;c811322A</title>
<path fill="none" stroke="black" d="M1081.06,-318.06C1026.84,-332.03 957.57,-349.89 901.6,-364.32"/>
<polygon fill="black" stroke="black" points="900.48,-361 891.67,-366.88 902.23,-367.77 900.48,-361"/>
</g>
<!-- c811325A -->
<g id="node15" class="node">
<title>c811325A</title>
<path fill="#ffd700" stroke="black" d="M1474.5,-367C1474.5,-367 1621.5,-367 1621.5,-367 1627.5,-367 1633.5,-373 1633.5,-379 1633.5,-379 1633.5,-401 1633.5,-401 1633.5,-407 1627.5,-413 1621.5,-413 1621.5,-413 1474.5,-413 1474.5,-413 1468.5,-413 1462.5,-407 1462.5,-401 1462.5,-401 1462.5,-379 1462.5,-379 1462.5,-373 1468.5,-367 1474.5,-367"/>
<text text-anchor="middle" x="1496" y="-386.3" font-family="Times,serif" font-size="14.00">811325A</text>
<polyline fill="none" stroke="black" points="1529.5,-367 1529.5,-413"/>
<text text-anchor="middle" x="1570" y="-386.3" font-family="Times,serif" font-size="14.00">Tietokannat</text>
<polyline fill="none" stroke="black" points="1610.5,-367 1610.5,-413"/>
<text text-anchor="middle" x="1622" y="-397.8" font-family="Times,serif" font-size="14.00">2</text>
<polyline fill="none" stroke="black" points="1610.5,-390 1633.5,-390"/>
<text text-anchor="middle" x="1622" y="-374.8" font-family="Times,serif" font-size="14.00">1</text>
</g>
<!-- c811104P&#45;&gt;c811325A -->
<g id="edge9" class="edge">
<title>c811104P&#45;&gt;c811325A</title>
<path fill="none" stroke="black" d="M1263.63,-318.12C1320.84,-332.63 1394.46,-351.31 1452.33,-365.98"/>
<polygon fill="black" stroke="black" points="1451.65,-369.42 1462.21,-368.49 1453.37,-362.64 1451.65,-369.42"/>
</g>
<!-- c811367A -->
<g id="node17" class="node">
<title>c811367A</title>
<path fill="#ffd700" stroke="black" d="M1092,-142C1092,-142 1251,-142 1251,-142 1257,-142 1263,-148 1263,-154 1263,-154 1263,-176 1263,-176 1263,-182 1257,-188 1251,-188 1251,-188 1092,-188 1092,-188 1086,-188 1080,-182 1080,-176 1080,-176 1080,-154 1080,-154 1080,-148 1086,-142 1092,-142"/>
<text text-anchor="middle" x="1113.5" y="-161.3" font-family="Times,serif" font-size="14.00">811367A</text>
<polyline fill="none" stroke="black" points="1147,-142 1147,-188"/>
<text text-anchor="middle" x="1193.5" y="-161.3" font-family="Times,serif" font-size="14.00">Ohjelmointi 3</text>
<polyline fill="none" stroke="black" points="1240,-142 1240,-188"/>
<text text-anchor="middle" x="1251.5" y="-172.8" font-family="Times,serif" font-size="14.00">2</text>
<polyline fill="none" stroke="black" points="1240,-165 1263,-165"/>
<text text-anchor="middle" x="1251.5" y="-149.8" font-family="Times,serif" font-size="14.00">3</text>
</g>
<!-- c811322A&#45;&gt;c811367A -->
<g id="edge6" class="edge">
<title>c811322A&#45;&gt;c811367A</title>
<path fill="none" stroke="black" d="M898.81,-374.73C910.08,-369.62 920.55,-362.88 929,-354 978.06,-302.46 913.01,-246.59 965,-198 992.75,-172.06 1032.36,-161.86 1069.41,-158.85"/>
<polygon fill="black" stroke="black" points="1070.02,-162.32 1079.78,-158.18 1069.58,-155.33 1070.02,-162.32"/>
</g>
<!-- c811301A -->
<g id="node21" class="node">
<title>c811301A</title>
<path fill="#caff70" stroke="black" d="M1024,-432C1024,-432 1319,-432 1319,-432 1325,-432 1331,-438 1331,-444 1331,-444 1331,-466 1331,-466 1331,-472 1325,-478 1319,-478 1319,-478 1024,-478 1024,-478 1018,-478 1012,-472 1012,-466 1012,-466 1012,-444 1012,-444 1012,-438 1018,-432 1024,-432"/>
<text text-anchor="middle" x="1045.5" y="-451.3" font-family="Times,serif" font-size="14.00">811301A</text>
<polyline fill="none" stroke="black" points="1079,-432 1079,-478"/>
<text text-anchor="middle" x="1193.5" y="-451.3" font-family="Times,serif" font-size="14.00">Ohjelmistojen mallinnus ja suunnittelu</text>
<polyline fill="none" stroke="black" points="1308,-432 1308,-478"/>
<text text-anchor="middle" x="1319.5" y="-462.8" font-family="Times,serif" font-size="14.00">2</text>
<polyline fill="none" stroke="black" points="1308,-455 1331,-455"/>
<text text-anchor="middle" x="1319.5" y="-439.8" font-family="Times,serif" font-size="14.00">1</text>
</g>
<!-- c811322A&#45;&gt;c811301A -->
<g id="edge13" class="edge">
<title>c811322A&#45;&gt;c811301A</title>
<path fill="none" stroke="black" d="M898.82,-407.08C938.96,-414.16 986.32,-422.51 1030.15,-430.24"/>
<polygon fill="black" stroke="black" points="1029.58,-433.7 1040.03,-431.99 1030.79,-426.8 1029.58,-433.7"/>
</g>
<!-- c811312A -->
<g id="node16" class="node">
<title>c811312A</title>
<path fill="#ffd700" stroke="black" d="M1055.5,-207C1055.5,-207 1287.5,-207 1287.5,-207 1293.5,-207 1299.5,-213 1299.5,-219 1299.5,-219 1299.5,-241 1299.5,-241 1299.5,-247 1293.5,-253 1287.5,-253 1287.5,-253 1055.5,-253 1055.5,-253 1049.5,-253 1043.5,-247 1043.5,-241 1043.5,-241 1043.5,-219 1043.5,-219 1043.5,-213 1049.5,-207 1055.5,-207"/>
<text text-anchor="middle" x="1077" y="-226.3" font-family="Times,serif" font-size="14.00">811312A</text>
<polyline fill="none" stroke="black" points="1110.5,-207 1110.5,-253"/>
<text text-anchor="middle" x="1193.5" y="-226.3" font-family="Times,serif" font-size="14.00">Tietorakenteet ja algoritmit</text>
<polyline fill="none" stroke="black" points="1276.5,-207 1276.5,-253"/>
<text text-anchor="middle" x="1288" y="-237.8" font-family="Times,serif" font-size="14.00">2</text>
<polyline fill="none" stroke="black" points="1276.5,-230 1299.5,-230"/>
<text text-anchor="middle" x="1288" y="-214.8" font-family="Times,serif" font-size="14.00">2</text>
</g>
<!-- c811325A&#45;&gt;c811312A -->
<g id="edge8" class="edge">
<title>c811325A&#45;&gt;c811312A</title>
<path fill="none" stroke="black" d="M1462.31,-379.6C1444.79,-374.21 1427.56,-366.11 1414,-354 1381.57,-325.02 1411.91,-290.24 1378,-263 1358.41,-247.27 1334.31,-237.65 1309.59,-231.98"/>
<polygon fill="black" stroke="black" points="1310.22,-228.54 1299.72,-229.93 1308.8,-235.39 1310.22,-228.54"/>
</g>
<!-- c811319A -->
<g id="node23" class="node">
<title>c811319A</title>
<path fill="#caff70" stroke="black" d="M1816,-432C1816,-432 2063,-432 2063,-432 2069,-432 2075,-438 2075,-444 2075,-444 2075,-466 2075,-466 2075,-472 2069,-478 2063,-478 2063,-478 1816,-478 1816,-478 1810,-478 1804,-472 1804,-466 1804,-466 1804,-444 1804,-444 1804,-438 1810,-432 1816,-432"/>
<text text-anchor="middle" x="1837.5" y="-451.3" font-family="Times,serif" font-size="14.00">811319A</text>
<polyline fill="none" stroke="black" points="1871,-432 1871,-478"/>
<text text-anchor="middle" x="1961.5" y="-451.3" font-family="Times,serif" font-size="14.00">Tietomallinnus ja &#45;suunnittelu</text>
<polyline fill="none" stroke="black" points="2052,-432 2052,-478"/>
<text text-anchor="middle" x="2063.5" y="-462.8" font-family="Times,serif" font-size="14.00">2</text>
<polyline fill="none" stroke="black" points="2052,-455 2075,-455"/>
<text text-anchor="middle" x="2063.5" y="-439.8" font-family="Times,serif" font-size="14.00">3</text>
</g>
<!-- c811325A&#45;&gt;c811319A -->
<g id="edge16" class="edge">
<title>c811325A&#45;&gt;c811319A</title>
<path fill="none" stroke="black" d="M1633.52,-404.1C1680.38,-411.92 1739.95,-421.87 1793.97,-430.88"/>
<polygon fill="black" stroke="black" points="1793.55,-434.36 1803.99,-432.55 1794.71,-427.46 1793.55,-434.36"/>
</g>
<!-- c811368A -->
<g id="node18" class="node">
<title>c811368A</title>
<path fill="#ffd700" stroke="black" d="M1468.5,-207C1468.5,-207 1627.5,-207 1627.5,-207 1633.5,-207 1639.5,-213 1639.5,-219 1639.5,-219 1639.5,-241 1639.5,-241 1639.5,-247 1633.5,-253 1627.5,-253 1627.5,-253 1468.5,-253 1468.5,-253 1462.5,-253 1456.5,-247 1456.5,-241 1456.5,-241 1456.5,-219 1456.5,-219 1456.5,-213 1462.5,-207 1468.5,-207"/>
<text text-anchor="middle" x="1490" y="-226.3" font-family="Times,serif" font-size="14.00">811368A</text>
<polyline fill="none" stroke="black" points="1523.5,-207 1523.5,-253"/>
<text text-anchor="middle" x="1570" y="-226.3" font-family="Times,serif" font-size="14.00">Ohjelmointi 4</text>
<polyline fill="none" stroke="black" points="1616.5,-207 1616.5,-253"/>
<text text-anchor="middle" x="1628" y="-237.8" font-family="Times,serif" font-size="14.00">2</text>
<polyline fill="none" stroke="black" points="1616.5,-230 1639.5,-230"/>
<text text-anchor="middle" x="1628" y="-214.8" font-family="Times,serif" font-size="14.00">4</text>
</g>
<!-- c811367A&#45;&gt;c811368A -->
<g id="edge7" class="edge">
<title>c811367A&#45;&gt;c811368A</title>
<path fill="none" stroke="black" d="M1263.13,-178.99C1298.95,-184.67 1340.45,-191.43 1378,-198 1400.16,-201.88 1423.92,-206.24 1446.41,-210.48"/>
<polygon fill="black" stroke="black" points="1445.83,-213.93 1456.31,-212.35 1447.13,-207.05 1445.83,-213.93"/>
</g>
<!-- c811398A -->
<g id="node32" class="node">
<title>c811398A</title>
<path fill="azure" stroke="black" d="M2750,-557C2750,-557 2950,-557 2950,-557 2956,-557 2962,-563 2962,-569 2962,-569 2962,-591 2962,-591 2962,-597 2956,-603 2950,-603 2950,-603 2750,-603 2750,-603 2744,-603 2738,-597 2738,-591 2738,-591 2738,-569 2738,-569 2738,-563 2744,-557 2750,-557"/>
<text text-anchor="middle" x="2771.5" y="-576.3" font-family="Times,serif" font-size="14.00">811398A</text>
<polyline fill="none" stroke="black" points="2805,-557 2805,-603"/>
<text text-anchor="middle" x="2866" y="-576.3" font-family="Times,serif" font-size="14.00">Kandidaattiprojekti</text>
<polyline fill="none" stroke="black" points="2927,-557 2927,-603"/>
<text text-anchor="middle" x="2944.5" y="-587.8" font-family="Times,serif" font-size="14.00">3</text>
<polyline fill="none" stroke="black" points="2927,-580 2962,-580"/>
<text text-anchor="middle" x="2944.5" y="-564.8" font-family="Times,serif" font-size="14.00">3&#45;4</text>
</g>
<!-- c811368A&#45;&gt;c811398A -->
<g id="edge30" class="edge">
<title>c811368A&#45;&gt;c811398A</title>
<path fill="none" stroke="black" d="M1639.71,-218.32C1838.47,-197.15 2321.8,-170.24 2662,-354 2744.89,-398.77 2805.63,-496.85 2832.95,-547.81"/>
<polygon fill="black" stroke="black" points="2829.9,-549.54 2837.66,-556.76 2836.1,-546.28 2829.9,-549.54"/>
</g>
<!-- c811391A -->
<g id="node20" class="node">
<title>c811391A</title>
<path fill="#caff70" stroke="black" d="M706.5,-432C706.5,-432 895.5,-432 895.5,-432 901.5,-432 907.5,-438 907.5,-444 907.5,-444 907.5,-466 907.5,-466 907.5,-472 901.5,-478 895.5,-478 895.5,-478 706.5,-478 706.5,-478 700.5,-478 694.5,-472 694.5,-466 694.5,-466 694.5,-444 694.5,-444 694.5,-438 700.5,-432 706.5,-432"/>
<text text-anchor="middle" x="728" y="-451.3" font-family="Times,serif" font-size="14.00">811391A</text>
<polyline fill="none" stroke="black" points="761.5,-432 761.5,-478"/>
<text text-anchor="middle" x="823" y="-451.3" font-family="Times,serif" font-size="14.00">Vaatimusmäärittely</text>
<polyline fill="none" stroke="black" points="884.5,-432 884.5,-478"/>
<text text-anchor="middle" x="896" y="-462.8" font-family="Times,serif" font-size="14.00">1</text>
<polyline fill="none" stroke="black" points="884.5,-455 907.5,-455"/>
<text text-anchor="middle" x="896" y="-439.8" font-family="Times,serif" font-size="14.00">4</text>
</g>
<!-- c811103P&#45;&gt;c811391A -->
<g id="edge11" class="edge">
<title>c811103P&#45;&gt;c811391A</title>
<path fill="none" stroke="black" d="M624.34,-444.82C644.26,-445.97 664.65,-447.15 684.15,-448.28"/>
<polygon fill="black" stroke="black" points="684.07,-451.79 694.26,-448.87 684.48,-444.8 684.07,-451.79"/>
</g>
<!-- c811391A&#45;&gt;c811301A -->
<g id="edge12" class="edge">
<title>c811391A&#45;&gt;c811301A</title>
<path fill="none" stroke="black" d="M907.6,-455C936.96,-455 969.6,-455 1001.62,-455"/>
<polygon fill="black" stroke="black" points="1001.99,-458.5 1011.99,-455 1001.99,-451.5 1001.99,-458.5"/>
</g>
<!-- c811306A -->
<g id="node22" class="node">
<title>c811306A</title>
<path fill="#caff70" stroke="black" d="M1426,-432C1426,-432 1670,-432 1670,-432 1676,-432 1682,-438 1682,-444 1682,-444 1682,-466 1682,-466 1682,-472 1676,-478 1670,-478 1670,-478 1426,-478 1426,-478 1420,-478 1414,-472 1414,-466 1414,-466 1414,-444 1414,-444 1414,-438 1420,-432 1426,-432"/>
<text text-anchor="middle" x="1447.5" y="-451.3" font-family="Times,serif" font-size="14.00">811306A</text>
<polyline fill="none" stroke="black" points="1481,-432 1481,-478"/>
<text text-anchor="middle" x="1570" y="-451.3" font-family="Times,serif" font-size="14.00">Ohjelmistojen laatu ja testaus</text>
<polyline fill="none" stroke="black" points="1659,-432 1659,-478"/>
<text text-anchor="middle" x="1670.5" y="-462.8" font-family="Times,serif" font-size="14.00">2</text>
<polyline fill="none" stroke="black" points="1659,-455 1682,-455"/>
<text text-anchor="middle" x="1670.5" y="-439.8" font-family="Times,serif" font-size="14.00">2</text>
</g>
<!-- c811301A&#45;&gt;c811306A -->
<g id="edge14" class="edge">
<title>c811301A&#45;&gt;c811306A</title>
<path fill="none" stroke="black" d="M1331.05,-455C1355.14,-455 1379.88,-455 1403.62,-455"/>
<polygon fill="black" stroke="black" points="1403.73,-458.5 1413.73,-455 1403.73,-451.5 1403.73,-458.5"/>
</g>
<!-- c811306A&#45;&gt;c811319A -->
<g id="edge15" class="edge">
<title>c811306A&#45;&gt;c811319A</title>
<path fill="none" stroke="black" d="M1682.23,-455C1718.07,-455 1757.01,-455 1793.46,-455"/>
<polygon fill="black" stroke="black" points="1793.68,-458.5 1803.68,-455 1793.68,-451.5 1793.68,-458.5"/>
</g>
<!-- c815345A -->
<g id="node24" class="node">
<title>c815345A</title>
<path fill="#caff70" stroke="black" d="M2317,-432C2317,-432 2534,-432 2534,-432 2540,-432 2546,-438 2546,-444 2546,-444 2546,-466 2546,-466 2546,-472 2540,-478 2534,-478 2534,-478 2317,-478 2317,-478 2311,-478 2305,-472 2305,-466 2305,-466 2305,-444 2305,-444 2305,-438 2311,-432 2317,-432"/>
<text text-anchor="middle" x="2338.5" y="-451.3" font-family="Times,serif" font-size="14.00">815345A</text>
<polyline fill="none" stroke="black" points="2372,-432 2372,-478"/>
<text text-anchor="middle" x="2447.5" y="-451.3" font-family="Times,serif" font-size="14.00">Ohjelmistoarkkitehtuurit</text>
<polyline fill="none" stroke="black" points="2523,-432 2523,-478"/>
<text text-anchor="middle" x="2534.5" y="-462.8" font-family="Times,serif" font-size="14.00">2</text>
<polyline fill="none" stroke="black" points="2523,-455 2546,-455"/>
<text text-anchor="middle" x="2534.5" y="-439.8" font-family="Times,serif" font-size="14.00">4</text>
</g>
<!-- c811319A&#45;&gt;c815345A -->
<g id="edge17" class="edge">
<title>c811319A&#45;&gt;c815345A</title>
<path fill="none" stroke="black" d="M2075.32,-455C2143.83,-455 2226.7,-455 2294.51,-455"/>
<polygon fill="black" stroke="black" points="2294.83,-458.5 2304.83,-455 2294.83,-451.5 2294.83,-458.5"/>
</g>
<!-- c815345A&#45;&gt;c811398A -->
<g id="edge29" class="edge">
<title>c815345A&#45;&gt;c811398A</title>
<path fill="none" stroke="black" d="M2527.34,-478.06C2569.24,-488.21 2618.21,-500.82 2662,-514 2701.02,-525.75 2743.94,-540.74 2778.81,-553.47"/>
<polygon fill="black" stroke="black" points="2777.82,-556.84 2788.42,-556.99 2780.23,-550.26 2777.82,-556.84"/>
</g>
<!-- c811166P -->
<g id="node25" class="node">
<title>c811166P</title>
<path fill="antiquewhite" stroke="black" d="M685,-17C685,-17 917,-17 917,-17 923,-17 929,-23 929,-29 929,-29 929,-51 929,-51 929,-57 923,-63 917,-63 917,-63 685,-63 685,-63 679,-63 673,-57 673,-51 673,-51 673,-29 673,-29 673,-23 679,-17 685,-17"/>
<text text-anchor="middle" x="705.5" y="-36.3" font-family="Times,serif" font-size="14.00">811166P</text>
<polyline fill="none" stroke="black" points="738,-17 738,-63"/>
<text text-anchor="middle" x="822" y="-36.3" font-family="Times,serif" font-size="14.00">Tietojärjestelmien perusteet</text>
<polyline fill="none" stroke="black" points="906,-17 906,-63"/>
<text text-anchor="middle" x="917.5" y="-47.8" font-family="Times,serif" font-size="14.00">1</text>
<polyline fill="none" stroke="black" points="906,-40 929,-40"/>
<text text-anchor="middle" x="917.5" y="-24.8" font-family="Times,serif" font-size="14.00">2</text>
</g>
<!-- c812360A -->
<g id="node26" class="node">
<title>c812360A</title>
<path fill="antiquewhite" stroke="black" d="M977,-17C977,-17 1366,-17 1366,-17 1372,-17 1378,-23 1378,-29 1378,-29 1378,-51 1378,-51 1378,-57 1372,-63 1366,-63 1366,-63 977,-63 977,-63 971,-63 965,-57 965,-51 965,-51 965,-29 965,-29 965,-23 971,-17 977,-17"/>
<text text-anchor="middle" x="998.5" y="-36.3" font-family="Times,serif" font-size="14.00">812360A</text>
<polyline fill="none" stroke="black" points="1032,-17 1032,-63"/>
<text text-anchor="middle" x="1193.5" y="-36.3" font-family="Times,serif" font-size="14.00">Tietojärjestelmien mallintaminen, suunnittelu ja kehitys</text>
<polyline fill="none" stroke="black" points="1355,-17 1355,-63"/>
<text text-anchor="middle" x="1366.5" y="-47.8" font-family="Times,serif" font-size="14.00">1</text>
<polyline fill="none" stroke="black" points="1355,-40 1378,-40"/>
<text text-anchor="middle" x="1366.5" y="-24.8" font-family="Times,serif" font-size="14.00">4</text>
</g>
<!-- c811166P&#45;&gt;c812360A -->
<g id="edge18" class="edge">
<title>c811166P&#45;&gt;c812360A</title>
<path fill="none" stroke="black" d="M929.07,-40C937.45,-40 946,-40 954.65,-40"/>
<polygon fill="black" stroke="black" points="954.84,-43.5 964.84,-40 954.84,-36.5 954.84,-43.5"/>
</g>
<!-- c812363A -->
<g id="node27" class="node">
<title>c812363A</title>
<path fill="antiquewhite" stroke="black" d="M1434,-17C1434,-17 1662,-17 1662,-17 1668,-17 1674,-23 1674,-29 1674,-29 1674,-51 1674,-51 1674,-57 1668,-63 1662,-63 1662,-63 1434,-63 1434,-63 1428,-63 1422,-57 1422,-51 1422,-51 1422,-29 1422,-29 1422,-23 1428,-17 1434,-17"/>
<text text-anchor="middle" x="1455.5" y="-36.3" font-family="Times,serif" font-size="14.00">812363A</text>
<polyline fill="none" stroke="black" points="1489,-17 1489,-63"/>
<text text-anchor="middle" x="1570" y="-36.3" font-family="Times,serif" font-size="14.00">Ihmislähtöinen suunnittelu</text>
<polyline fill="none" stroke="black" points="1651,-17 1651,-63"/>
<text text-anchor="middle" x="1662.5" y="-47.8" font-family="Times,serif" font-size="14.00">2</text>
<polyline fill="none" stroke="black" points="1651,-40 1674,-40"/>
<text text-anchor="middle" x="1662.5" y="-24.8" font-family="Times,serif" font-size="14.00">1</text>
</g>
<!-- c812360A&#45;&gt;c812363A -->
<g id="edge19" class="edge">
<title>c812360A&#45;&gt;c812363A</title>
<path fill="none" stroke="black" d="M1378.1,-40C1389.44,-40 1400.68,-40 1411.67,-40"/>
<polygon fill="black" stroke="black" points="1411.68,-43.5 1421.68,-40 1411.68,-36.5 1411.68,-43.5"/>
</g>
<!-- c812361A -->
<g id="node28" class="node">
<title>c812361A</title>
<path fill="antiquewhite" stroke="black" d="M1757,-17C1757,-17 2122,-17 2122,-17 2128,-17 2134,-23 2134,-29 2134,-29 2134,-51 2134,-51 2134,-57 2128,-63 2122,-63 2122,-63 1757,-63 1757,-63 1751,-63 1745,-57 1745,-51 1745,-51 1745,-29 1745,-29 1745,-23 1751,-17 1757,-17"/>
<text text-anchor="middle" x="1778.5" y="-36.3" font-family="Times,serif" font-size="14.00">812361A</text>
<polyline fill="none" stroke="black" points="1812,-17 1812,-63"/>
<text text-anchor="middle" x="1961.5" y="-36.3" font-family="Times,serif" font-size="14.00">Tietojärjestelmien hankinta, käyttöönotto ja hallinta</text>
<polyline fill="none" stroke="black" points="2111,-17 2111,-63"/>
<text text-anchor="middle" x="2122.5" y="-47.8" font-family="Times,serif" font-size="14.00">2</text>
<polyline fill="none" stroke="black" points="2111,-40 2134,-40"/>
<text text-anchor="middle" x="2122.5" y="-24.8" font-family="Times,serif" font-size="14.00">2</text>
</g>
<!-- c812363A&#45;&gt;c812361A -->
<g id="edge20" class="edge">
<title>c812363A&#45;&gt;c812361A</title>
<path fill="none" stroke="black" d="M1674.12,-40C1693.52,-40 1713.99,-40 1734.59,-40"/>
<polygon fill="black" stroke="black" points="1734.71,-43.5 1744.71,-40 1734.71,-36.5 1734.71,-43.5"/>
</g>
<!-- c812362A -->
<g id="node29" class="node">
<title>c812362A</title>
<path fill="antiquewhite" stroke="black" d="M2238,-17C2238,-17 2613,-17 2613,-17 2619,-17 2625,-23 2625,-29 2625,-29 2625,-51 2625,-51 2625,-57 2619,-63 2613,-63 2613,-63 2238,-63 2238,-63 2232,-63 2226,-57 2226,-51 2226,-51 2226,-29 2226,-29 2226,-23 2232,-17 2238,-17"/>
<text text-anchor="middle" x="2259.5" y="-36.3" font-family="Times,serif" font-size="14.00">812362A</text>
<polyline fill="none" stroke="black" points="2293,-17 2293,-63"/>
<text text-anchor="middle" x="2447.5" y="-36.3" font-family="Times,serif" font-size="14.00">Liiketoimintaprosessien johtaminen ja mallintaminen</text>
<polyline fill="none" stroke="black" points="2602,-17 2602,-63"/>
<text text-anchor="middle" x="2613.5" y="-47.8" font-family="Times,serif" font-size="14.00">2</text>
<polyline fill="none" stroke="black" points="2602,-40 2625,-40"/>
<text text-anchor="middle" x="2613.5" y="-24.8" font-family="Times,serif" font-size="14.00">3</text>
</g>
<!-- c812361A&#45;&gt;c812362A -->
<g id="edge21" class="edge">
<title>c812361A&#45;&gt;c812362A</title>
<path fill="none" stroke="black" d="M2134.22,-40C2160.94,-40 2188.48,-40 2215.46,-40"/>
<polygon fill="black" stroke="black" points="2215.77,-43.5 2225.77,-40 2215.77,-36.5 2215.77,-43.5"/>
</g>
<!-- c812364A -->
<g id="node30" class="node">
<title>c812364A</title>
<path fill="antiquewhite" stroke="black" d="M2702,-17C2702,-17 2998,-17 2998,-17 3004,-17 3010,-23 3010,-29 3010,-29 3010,-51 3010,-51 3010,-57 3004,-63 2998,-63 2998,-63 2702,-63 2702,-63 2696,-63 2690,-57 2690,-51 2690,-51 2690,-29 2690,-29 2690,-23 2696,-17 2702,-17"/>
<text text-anchor="middle" x="2723.5" y="-36.3" font-family="Times,serif" font-size="14.00">812364A</text>
<polyline fill="none" stroke="black" points="2757,-17 2757,-63"/>
<text text-anchor="middle" x="2872" y="-36.3" font-family="Times,serif" font-size="14.00">Data&#45;analytiikka liiketoiminnan tukena</text>
<polyline fill="none" stroke="black" points="2987,-17 2987,-63"/>
<text text-anchor="middle" x="2998.5" y="-47.8" font-family="Times,serif" font-size="14.00">3</text>
<polyline fill="none" stroke="black" points="2987,-40 3010,-40"/>
<text text-anchor="middle" x="2998.5" y="-24.8" font-family="Times,serif" font-size="14.00">4</text>
</g>
<!-- c812362A&#45;&gt;c812364A -->
<g id="edge22" class="edge">
<title>c812362A&#45;&gt;c812364A</title>
<path fill="none" stroke="black" d="M2625.07,-40C2643.33,-40 2661.72,-40 2679.68,-40"/>
<polygon fill="black" stroke="black" points="2679.91,-43.5 2689.91,-40 2679.91,-36.5 2679.91,-43.5"/>
</g>
<!-- c812362A&#45;&gt;c811398A -->
<g id="edge31" class="edge">
<title>c812362A&#45;&gt;c811398A</title>
<path fill="none" stroke="black" d="M2600.41,-63.06C2622.88,-71.68 2644.22,-83.32 2662,-99 2800.69,-221.31 2837.3,-459.05 2846.28,-546.59"/>
<polygon fill="black" stroke="black" points="2842.81,-547.13 2847.26,-556.74 2849.78,-546.45 2842.81,-547.13"/>
</g>
<!-- c811397A -->
<g id="node31" class="node">
<title>c811397A</title>
<path fill="azure" stroke="black" d="M2309,-557C2309,-557 2542,-557 2542,-557 2548,-557 2554,-563 2554,-569 2554,-569 2554,-591 2554,-591 2554,-597 2548,-603 2542,-603 2542,-603 2309,-603 2309,-603 2303,-603 2297,-597 2297,-591 2297,-591 2297,-569 2297,-569 2297,-563 2303,-557 2309,-557"/>
<text text-anchor="middle" x="2330.5" y="-576.3" font-family="Times,serif" font-size="14.00">811397A</text>
<polyline fill="none" stroke="black" points="2364,-557 2364,-603"/>
<text text-anchor="middle" x="2447.5" y="-576.3" font-family="Times,serif" font-size="14.00">Projektitoiminnan perusteet</text>
<polyline fill="none" stroke="black" points="2531,-557 2531,-603"/>
<text text-anchor="middle" x="2542.5" y="-587.8" font-family="Times,serif" font-size="14.00">2</text>
<polyline fill="none" stroke="black" points="2531,-580 2554,-580"/>
<text text-anchor="middle" x="2542.5" y="-564.8" font-family="Times,serif" font-size="14.00">4</text>
</g>
<!-- c811397A&#45;&gt;c811398A -->
<g id="edge28" class="edge">
<title>c811397A&#45;&gt;c811398A</title>
<path fill="none" stroke="black" d="M2554.12,-580C2609.24,-580 2673.41,-580 2727.79,-580"/>
<polygon fill="black" stroke="black" points="2727.82,-583.5 2737.82,-580 2727.82,-576.5 2727.82,-583.5"/>
</g>
<!-- c811393A&#45;&gt;c811383A -->
<g id="edge25" class="edge">
<title>c811393A&#45;&gt;c811383A</title>
<path fill="none" stroke="black" d="M2547.01,-645C2607.65,-645 2680.6,-645 2739.61,-645"/>
<polygon fill="black" stroke="black" points="2739.71,-648.5 2749.71,-645 2739.71,-641.5 2739.71,-648.5"/>
</g>
<!-- c813307A -->
<g id="node35" class="node">
<title>c813307A</title>
<path fill="azure" stroke="black" d="M3058,-622C3058,-622 3217,-622 3217,-622 3223,-622 3229,-628 3229,-634 3229,-634 3229,-656 3229,-656 3229,-662 3223,-668 3217,-668 3217,-668 3058,-668 3058,-668 3052,-668 3046,-662 3046,-656 3046,-656 3046,-634 3046,-634 3046,-628 3052,-622 3058,-622"/>
<text text-anchor="middle" x="3079.5" y="-641.3" font-family="Times,serif" font-size="14.00">813307A</text>
<polyline fill="none" stroke="black" points="3113,-622 3113,-668"/>
<text text-anchor="middle" x="3159.5" y="-641.3" font-family="Times,serif" font-size="14.00">Kypsyysnäyte</text>
<polyline fill="none" stroke="black" points="3206,-622 3206,-668"/>
<text text-anchor="middle" x="3217.5" y="-652.8" font-family="Times,serif" font-size="14.00">3</text>
<polyline fill="none" stroke="black" points="3206,-645 3229,-645"/>
<text text-anchor="middle" x="3217.5" y="-629.8" font-family="Times,serif" font-size="14.00">4</text>
</g>
<!-- c811383A&#45;&gt;c813307A -->
<g id="edge32" class="edge">
<title>c811383A&#45;&gt;c813307A</title>
<path fill="none" stroke="black" d="M2950.05,-645C2977.74,-645 3007.85,-645 3035.63,-645"/>
<polygon fill="black" stroke="black" points="3035.76,-648.5 3045.76,-645 3035.76,-641.5 3035.76,-648.5"/>
</g>
</g>
</svg>
