<?xml version="1.0" encoding="UTF-8" standalone="no"?>
<!DOCTYPE svg PUBLIC "-//W3C//DTD SVG 1.1//EN"
 "http://www.w3.org/Graphics/SVG/1.1/DTD/svg11.dtd">
<!-- Generated by graphviz version 5.0.1 (20220820.1526)
 -->
<!-- Title: TOLLuK Pages: 1 -->
<svg width="3221pt" height="825pt"
 viewBox="0.00 0.00 3221.00 825.35" xmlns="http://www.w3.org/2000/svg" xmlns:xlink="http://www.w3.org/1999/xlink">
<g id="graph0" class="graph" transform="scale(1 1) rotate(0) translate(4 821.35)">
<title>TOLLuK</title>
<polygon fill="white" stroke="none" points="-4,4 -4,-821.35 3217,-821.35 3217,4 -4,4"/>
<g id="clust1" class="cluster">
<title>cluster_Legend</title>
<g id="a_clust1"><a xlink:href="https://github.com/anttijuu/tol-courses-graph" xlink:title="Selite">
<polygon fill="none" stroke="black" stroke-dasharray="1,5" points="26.5,-144.35 26.5,-231.35 293.5,-231.35 293.5,-144.35 26.5,-144.35"/>
<text text-anchor="middle" x="160" y="-216.15" font-family="Times,serif" font-size="14.00">Selite</text>
</a>
</g>
</g>
<g id="clust2" class="cluster">
<title>cluster_Yleiset</title>
<polygon fill="none" stroke="black" stroke-dasharray="1,5" points="1774,-132.35 1774,-479.35 2726,-479.35 2726,-132.35 1774,-132.35"/>
<text text-anchor="middle" x="2250" y="-464.15" font-family="Times,serif" font-size="14.00">Yleiset ja kieliopinnot</text>
</g>
<g id="clust3" class="cluster">
<title>cluster_Johdanto</title>
<polygon fill="none" stroke="black" stroke-dasharray="1,5" points="8,-272.35 8,-479.35 645,-479.35 645,-272.35 8,-272.35"/>
<text text-anchor="middle" x="326.5" y="-464.15" font-family="Times,serif" font-size="14.00">Johdanto</text>
</g>
<g id="clust4" class="cluster">
<title>cluster_Ohjelmointi</title>
<polygon fill="none" stroke="black" stroke-dasharray="1,5" points="384,-112.35 384,-264.35 1711.5,-264.35 1711.5,-112.35 384,-112.35"/>
<text text-anchor="middle" x="1047.75" y="-249.15" font-family="Times,serif" font-size="14.00">Ohjelmointi</text>
</g>
<g id="clust7" class="cluster">
<title>cluster_Huipennus</title>
<polygon fill="none" stroke="black" stroke-dasharray="1,5" points="2282,-487.35 2282,-769.35 3205,-769.35 3205,-487.35 2282,-487.35"/>
<text text-anchor="middle" x="2743.5" y="-754.15" font-family="Times,serif" font-size="14.00">Huipennus</text>
</g>
<g id="clust5" class="cluster">
<title>cluster_Ohjelmistokehitys</title>
<polygon fill="none" stroke="black" stroke-dasharray="1,5" points="345,-487.35 345,-574.35 2147,-574.35 2147,-487.35 345,-487.35"/>
<text text-anchor="middle" x="1246" y="-559.15" font-family="Times,serif" font-size="14.00">Ohjelmistokehitys</text>
</g>
<g id="clust6" class="cluster">
<title>cluster_IhminenOrganisaatio</title>
<polygon fill="none" stroke="black" stroke-dasharray="1,5" points="665,-657.35 665,-809.35 2206,-809.35 2206,-657.35 665,-657.35"/>
<text text-anchor="middle" x="1435.5" y="-794.15" font-family="Times,serif" font-size="14.00">Ihminen ja organisaatio</text>
</g>
<!-- legend -->
<g id="node1" class="node">
<title>legend</title>
<path fill="pink" stroke="black" d="M46.5,-153.35C46.5,-153.35 273.5,-153.35 273.5,-153.35 279.5,-153.35 285.5,-159.35 285.5,-165.35 285.5,-165.35 285.5,-187.35 285.5,-187.35 285.5,-193.35 279.5,-199.35 273.5,-199.35 273.5,-199.35 46.5,-199.35 46.5,-199.35 40.5,-199.35 34.5,-193.35 34.5,-187.35 34.5,-187.35 34.5,-165.35 34.5,-165.35 34.5,-159.35 40.5,-153.35 46.5,-153.35"/>
<text text-anchor="middle" x="76" y="-172.65" font-family="Times,serif" font-size="14.00">Kurssikoodi</text>
<polyline fill="none" stroke="black" points="117.5,-153.35 117.5,-199.35"/>
<text text-anchor="middle" x="161.5" y="-172.65" font-family="Times,serif" font-size="14.00">Kurssin nimi</text>
<polyline fill="none" stroke="black" points="205.5,-153.35 205.5,-199.35"/>
<text text-anchor="middle" x="245.5" y="-184.15" font-family="Times,serif" font-size="14.00">opintovuosi</text>
<polyline fill="none" stroke="black" points="205.5,-176.35 285.5,-176.35"/>
<text text-anchor="middle" x="245.5" y="-161.15" font-family="Times,serif" font-size="14.00">periodi</text>
</g>
<!-- c902164Y -->
<g id="node2" class="node">
<title>c902164Y</title>
<path fill="gainsboro" stroke="black" d="M1794,-141.35C1794,-141.35 2213,-141.35 2213,-141.35 2219,-141.35 2225,-147.35 2225,-153.35 2225,-153.35 2225,-175.35 2225,-175.35 2225,-181.35 2219,-187.35 2213,-187.35 2213,-187.35 1794,-187.35 1794,-187.35 1788,-187.35 1782,-181.35 1782,-175.35 1782,-175.35 1782,-153.35 1782,-153.35 1782,-147.35 1788,-141.35 1794,-141.35"/>
<text text-anchor="middle" x="1815.5" y="-160.65" font-family="Times,serif" font-size="14.00">902164Y</text>
<polyline fill="none" stroke="black" points="1849,-141.35 1849,-187.35"/>
<text text-anchor="middle" x="2025.5" y="-160.65" font-family="Times,serif" font-size="14.00">English Communication for Information Processing, Reading</text>
<polyline fill="none" stroke="black" points="2202,-141.35 2202,-187.35"/>
<text text-anchor="middle" x="2213.5" y="-172.15" font-family="Times,serif" font-size="14.00">1</text>
<polyline fill="none" stroke="black" points="2202,-164.35 2225,-164.35"/>
<text text-anchor="middle" x="2213.5" y="-149.15" font-family="Times,serif" font-size="14.00">3</text>
</g>
<!-- c902165Y -->
<g id="node3" class="node">
<title>c902165Y</title>
<path fill="gainsboro" stroke="black" d="M2273,-258.35C2273,-258.35 2706,-258.35 2706,-258.35 2712,-258.35 2718,-264.35 2718,-270.35 2718,-270.35 2718,-292.35 2718,-292.35 2718,-298.35 2712,-304.35 2706,-304.35 2706,-304.35 2273,-304.35 2273,-304.35 2267,-304.35 2261,-298.35 2261,-292.35 2261,-292.35 2261,-270.35 2261,-270.35 2261,-264.35 2267,-258.35 2273,-258.35"/>
<text text-anchor="middle" x="2294.5" y="-277.65" font-family="Times,serif" font-size="14.00">902165Y</text>
<polyline fill="none" stroke="black" points="2328,-258.35 2328,-304.35"/>
<text text-anchor="middle" x="2511.5" y="-277.65" font-family="Times,serif" font-size="14.00">English Communication for Information Processing, Oral Skills</text>
<polyline fill="none" stroke="black" points="2695,-258.35 2695,-304.35"/>
<text text-anchor="middle" x="2706.5" y="-289.15" font-family="Times,serif" font-size="14.00">1</text>
<polyline fill="none" stroke="black" points="2695,-281.35 2718,-281.35"/>
<text text-anchor="middle" x="2706.5" y="-266.15" font-family="Times,serif" font-size="14.00">4</text>
</g>
<!-- c902164Y&#45;&gt;c902165Y -->
<g id="edge1" class="edge">
<title>c902164Y&#45;&gt;c902165Y</title>
<path fill="none" stroke="black" d="M2176.54,-187.37C2192.99,-190.39 2209.35,-193.71 2225,-197.35 2290.82,-212.67 2363.91,-236.53 2416.38,-254.92"/>
<polygon fill="black" stroke="black" points="2415.34,-258.26 2425.93,-258.28 2417.66,-251.66 2415.34,-258.26"/>
</g>
<!-- c901048Y -->
<g id="node4" class="node">
<title>c901048Y</title>
<path fill="gainsboro" stroke="black" d="M1817.5,-336.35C1817.5,-336.35 2189.5,-336.35 2189.5,-336.35 2195.5,-336.35 2201.5,-342.35 2201.5,-348.35 2201.5,-348.35 2201.5,-370.35 2201.5,-370.35 2201.5,-376.35 2195.5,-382.35 2189.5,-382.35 2189.5,-382.35 1817.5,-382.35 1817.5,-382.35 1811.5,-382.35 1805.5,-376.35 1805.5,-370.35 1805.5,-370.35 1805.5,-348.35 1805.5,-348.35 1805.5,-342.35 1811.5,-336.35 1817.5,-336.35"/>
<text text-anchor="middle" x="1839" y="-355.65" font-family="Times,serif" font-size="14.00">901048Y</text>
<polyline fill="none" stroke="black" points="1872.5,-336.35 1872.5,-382.35"/>
<text text-anchor="middle" x="2025.5" y="-355.65" font-family="Times,serif" font-size="14.00">Toinen kotimainen kieli (ruotsi), kirjallinen kielitaito</text>
<polyline fill="none" stroke="black" points="2178.5,-336.35 2178.5,-382.35"/>
<text text-anchor="middle" x="2190" y="-367.15" font-family="Times,serif" font-size="14.00">1</text>
<polyline fill="none" stroke="black" points="2178.5,-359.35 2201.5,-359.35"/>
<text text-anchor="middle" x="2190" y="-344.15" font-family="Times,serif" font-size="14.00">1</text>
</g>
<!-- c901049Y -->
<g id="node5" class="node">
<title>c901049Y</title>
<path fill="gainsboro" stroke="black" d="M1820.5,-271.35C1820.5,-271.35 2186.5,-271.35 2186.5,-271.35 2192.5,-271.35 2198.5,-277.35 2198.5,-283.35 2198.5,-283.35 2198.5,-305.35 2198.5,-305.35 2198.5,-311.35 2192.5,-317.35 2186.5,-317.35 2186.5,-317.35 1820.5,-317.35 1820.5,-317.35 1814.5,-317.35 1808.5,-311.35 1808.5,-305.35 1808.5,-305.35 1808.5,-283.35 1808.5,-283.35 1808.5,-277.35 1814.5,-271.35 1820.5,-271.35"/>
<text text-anchor="middle" x="1842" y="-290.65" font-family="Times,serif" font-size="14.00">901049Y</text>
<polyline fill="none" stroke="black" points="1875.5,-271.35 1875.5,-317.35"/>
<text text-anchor="middle" x="2025.5" y="-290.65" font-family="Times,serif" font-size="14.00">Toinen kotimainen kieli (ruotsi), suullinen kielitaito</text>
<polyline fill="none" stroke="black" points="2175.5,-271.35 2175.5,-317.35"/>
<text text-anchor="middle" x="2187" y="-302.15" font-family="Times,serif" font-size="14.00">1</text>
<polyline fill="none" stroke="black" points="2175.5,-294.35 2198.5,-294.35"/>
<text text-anchor="middle" x="2187" y="-279.15" font-family="Times,serif" font-size="14.00">2</text>
</g>
<!-- c030005P -->
<g id="node6" class="node">
<title>c030005P</title>
<path fill="gainsboro" stroke="black" d="M1898.5,-206.35C1898.5,-206.35 2108.5,-206.35 2108.5,-206.35 2114.5,-206.35 2120.5,-212.35 2120.5,-218.35 2120.5,-218.35 2120.5,-240.35 2120.5,-240.35 2120.5,-246.35 2114.5,-252.35 2108.5,-252.35 2108.5,-252.35 1898.5,-252.35 1898.5,-252.35 1892.5,-252.35 1886.5,-246.35 1886.5,-240.35 1886.5,-240.35 1886.5,-218.35 1886.5,-218.35 1886.5,-212.35 1892.5,-206.35 1898.5,-206.35"/>
<text text-anchor="middle" x="1919" y="-225.65" font-family="Times,serif" font-size="14.00">030005P</text>
<polyline fill="none" stroke="black" points="1951.5,-206.35 1951.5,-252.35"/>
<text text-anchor="middle" x="2018.5" y="-225.65" font-family="Times,serif" font-size="14.00">Tiedonhankintakurssi</text>
<polyline fill="none" stroke="black" points="2085.5,-206.35 2085.5,-252.35"/>
<text text-anchor="middle" x="2103" y="-237.15" font-family="Times,serif" font-size="14.00">1</text>
<polyline fill="none" stroke="black" points="2085.5,-229.35 2120.5,-229.35"/>
<text text-anchor="middle" x="2103" y="-214.15" font-family="Times,serif" font-size="14.00">1&#45;2</text>
</g>
<!-- c811393A -->
<g id="node33" class="node">
<title>c811393A</title>
<path fill="azure" stroke="black" d="M2380,-496.35C2380,-496.35 2599,-496.35 2599,-496.35 2605,-496.35 2611,-502.35 2611,-508.35 2611,-508.35 2611,-530.35 2611,-530.35 2611,-536.35 2605,-542.35 2599,-542.35 2599,-542.35 2380,-542.35 2380,-542.35 2374,-542.35 2368,-536.35 2368,-530.35 2368,-530.35 2368,-508.35 2368,-508.35 2368,-502.35 2374,-496.35 2380,-496.35"/>
<text text-anchor="middle" x="2401.5" y="-515.65" font-family="Times,serif" font-size="14.00">811393A</text>
<polyline fill="none" stroke="black" points="2435,-496.35 2435,-542.35"/>
<text text-anchor="middle" x="2511.5" y="-515.65" font-family="Times,serif" font-size="14.00">Johdatus tutkimustyöhön</text>
<polyline fill="none" stroke="black" points="2588,-496.35 2588,-542.35"/>
<text text-anchor="middle" x="2599.5" y="-527.15" font-family="Times,serif" font-size="14.00">3</text>
<polyline fill="none" stroke="black" points="2588,-519.35 2611,-519.35"/>
<text text-anchor="middle" x="2599.5" y="-504.15" font-family="Times,serif" font-size="14.00">3</text>
</g>
<!-- c030005P&#45;&gt;c811393A -->
<g id="edge23" class="edge">
<title>c030005P&#45;&gt;c811393A</title>
<path fill="none" stroke="black" d="M2120.52,-220.96C2158.38,-224.34 2197.66,-235.37 2225,-262.35 2295.82,-332.27 2190.47,-413.15 2261,-483.35 2286.52,-508.75 2322.22,-520.74 2357.8,-525.61"/>
<polygon fill="black" stroke="black" points="2357.48,-529.09 2367.82,-526.8 2358.3,-522.14 2357.48,-529.09"/>
</g>
<!-- c811383A -->
<g id="node34" class="node">
<title>c811383A</title>
<path fill="azure" stroke="black" d="M2778,-496.35C2778,-496.35 2954,-496.35 2954,-496.35 2960,-496.35 2966,-502.35 2966,-508.35 2966,-508.35 2966,-530.35 2966,-530.35 2966,-536.35 2960,-542.35 2954,-542.35 2954,-542.35 2778,-542.35 2778,-542.35 2772,-542.35 2766,-536.35 2766,-530.35 2766,-530.35 2766,-508.35 2766,-508.35 2766,-502.35 2772,-496.35 2778,-496.35"/>
<text text-anchor="middle" x="2799.5" y="-515.65" font-family="Times,serif" font-size="14.00">811383A</text>
<polyline fill="none" stroke="black" points="2833,-496.35 2833,-542.35"/>
<text text-anchor="middle" x="2882" y="-515.65" font-family="Times,serif" font-size="14.00">LuK&#45;tutkielma</text>
<polyline fill="none" stroke="black" points="2931,-496.35 2931,-542.35"/>
<text text-anchor="middle" x="2948.5" y="-527.15" font-family="Times,serif" font-size="14.00">3</text>
<polyline fill="none" stroke="black" points="2931,-519.35 2966,-519.35"/>
<text text-anchor="middle" x="2948.5" y="-504.15" font-family="Times,serif" font-size="14.00">3&#45;4</text>
</g>
<!-- c030005P&#45;&gt;c811383A -->
<g id="edge26" class="edge">
<title>c030005P&#45;&gt;c811383A</title>
<path fill="none" stroke="black" d="M2120.82,-218.61C2298.83,-204.47 2628.49,-188.01 2726,-249.35 2811.04,-302.85 2846.49,-426.31 2859.07,-485.93"/>
<polygon fill="black" stroke="black" points="2855.68,-486.84 2861.09,-495.95 2862.54,-485.46 2855.68,-486.84"/>
</g>
<!-- c900105Y -->
<g id="node7" class="node">
<title>c900105Y</title>
<path fill="gainsboro" stroke="black" d="M1871.5,-401.35C1871.5,-401.35 2135.5,-401.35 2135.5,-401.35 2141.5,-401.35 2147.5,-407.35 2147.5,-413.35 2147.5,-413.35 2147.5,-435.35 2147.5,-435.35 2147.5,-441.35 2141.5,-447.35 2135.5,-447.35 2135.5,-447.35 1871.5,-447.35 1871.5,-447.35 1865.5,-447.35 1859.5,-441.35 1859.5,-435.35 1859.5,-435.35 1859.5,-413.35 1859.5,-413.35 1859.5,-407.35 1865.5,-401.35 1871.5,-401.35"/>
<text text-anchor="middle" x="1893" y="-420.65" font-family="Times,serif" font-size="14.00">900105Y</text>
<polyline fill="none" stroke="black" points="1926.5,-401.35 1926.5,-447.35"/>
<text text-anchor="middle" x="2025.5" y="-420.65" font-family="Times,serif" font-size="14.00">Suuntaa uralle viestinnän keinoin</text>
<polyline fill="none" stroke="black" points="2124.5,-401.35 2124.5,-447.35"/>
<text text-anchor="middle" x="2136" y="-432.15" font-family="Times,serif" font-size="14.00">3</text>
<polyline fill="none" stroke="black" points="2124.5,-424.35 2147.5,-424.35"/>
<text text-anchor="middle" x="2136" y="-409.15" font-family="Times,serif" font-size="14.00">3</text>
</g>
<!-- c900105Y&#45;&gt;c811393A -->
<g id="edge24" class="edge">
<title>c900105Y&#45;&gt;c811393A</title>
<path fill="none" stroke="black" d="M2097.68,-447.42C2146.2,-459.02 2206.61,-472.81 2261,-483.35 2292.17,-489.4 2325.89,-495.16 2357.59,-500.22"/>
<polygon fill="black" stroke="black" points="2357.37,-503.73 2367.8,-501.85 2358.47,-496.82 2357.37,-503.73"/>
</g>
<!-- c810020Y -->
<g id="node8" class="node">
<title>c810020Y</title>
<path fill="yellow" stroke="black" d="M50.5,-411.35C50.5,-411.35 269.5,-411.35 269.5,-411.35 275.5,-411.35 281.5,-417.35 281.5,-423.35 281.5,-423.35 281.5,-435.35 281.5,-435.35 281.5,-441.35 275.5,-447.35 269.5,-447.35 269.5,-447.35 50.5,-447.35 50.5,-447.35 44.5,-447.35 38.5,-441.35 38.5,-435.35 38.5,-435.35 38.5,-423.35 38.5,-423.35 38.5,-417.35 44.5,-411.35 50.5,-411.35"/>
<text text-anchor="middle" x="72" y="-425.65" font-family="Times,serif" font-size="14.00">810020Y</text>
<polyline fill="none" stroke="black" points="105.5,-411.35 105.5,-447.35"/>
<text text-anchor="middle" x="167" y="-425.65" font-family="Times,serif" font-size="14.00">Orientoivat opinnot</text>
<polyline fill="none" stroke="black" points="228.5,-411.35 228.5,-447.35"/>
<text text-anchor="middle" x="255" y="-425.65" font-family="Times,serif" font-size="14.00">1 / 1&#45;2</text>
</g>
<!-- c810136P -->
<g id="node9" class="node">
<title>c810136P</title>
<path fill="yellow" stroke="black" d="M28,-346.35C28,-346.35 292,-346.35 292,-346.35 298,-346.35 304,-352.35 304,-358.35 304,-358.35 304,-380.35 304,-380.35 304,-386.35 298,-392.35 292,-392.35 292,-392.35 28,-392.35 28,-392.35 22,-392.35 16,-386.35 16,-380.35 16,-380.35 16,-358.35 16,-358.35 16,-352.35 22,-346.35 28,-346.35"/>
<text text-anchor="middle" x="48.5" y="-365.65" font-family="Times,serif" font-size="14.00">810136P</text>
<polyline fill="none" stroke="black" points="81,-346.35 81,-392.35"/>
<text text-anchor="middle" x="181" y="-365.65" font-family="Times,serif" font-size="14.00">Johdatus tietojenkäsittelytieteisiin</text>
<polyline fill="none" stroke="black" points="281,-346.35 281,-392.35"/>
<text text-anchor="middle" x="292.5" y="-377.15" font-family="Times,serif" font-size="14.00">1</text>
<polyline fill="none" stroke="black" points="281,-369.35 304,-369.35"/>
<text text-anchor="middle" x="292.5" y="-354.15" font-family="Times,serif" font-size="14.00">1</text>
</g>
<!-- c811168P -->
<g id="node10" class="node">
<title>c811168P</title>
<path fill="yellow" stroke="black" d="M420,-281.35C420,-281.35 557,-281.35 557,-281.35 563,-281.35 569,-287.35 569,-293.35 569,-293.35 569,-315.35 569,-315.35 569,-321.35 563,-327.35 557,-327.35 557,-327.35 420,-327.35 420,-327.35 414,-327.35 408,-321.35 408,-315.35 408,-315.35 408,-293.35 408,-293.35 408,-287.35 414,-281.35 420,-281.35"/>
<text text-anchor="middle" x="440.5" y="-300.65" font-family="Times,serif" font-size="14.00">811168P</text>
<polyline fill="none" stroke="black" points="473,-281.35 473,-327.35"/>
<text text-anchor="middle" x="509.5" y="-300.65" font-family="Times,serif" font-size="14.00">Tietoturva</text>
<polyline fill="none" stroke="black" points="546,-281.35 546,-327.35"/>
<text text-anchor="middle" x="557.5" y="-312.15" font-family="Times,serif" font-size="14.00">1</text>
<polyline fill="none" stroke="black" points="546,-304.35 569,-304.35"/>
<text text-anchor="middle" x="557.5" y="-289.15" font-family="Times,serif" font-size="14.00">3</text>
</g>
<!-- c810136P&#45;&gt;c811168P -->
<g id="edge2" class="edge">
<title>c810136P&#45;&gt;c811168P</title>
<path fill="none" stroke="black" d="M276.57,-346.35C316.48,-338.4 360.56,-329.63 398.06,-322.16"/>
<polygon fill="black" stroke="black" points="398.82,-325.58 407.94,-320.19 397.45,-318.71 398.82,-325.58"/>
</g>
<!-- c811174P -->
<g id="node11" class="node">
<title>c811174P</title>
<path fill="yellow" stroke="black" d="M352,-346.35C352,-346.35 625,-346.35 625,-346.35 631,-346.35 637,-352.35 637,-358.35 637,-358.35 637,-380.35 637,-380.35 637,-386.35 631,-392.35 625,-392.35 625,-392.35 352,-392.35 352,-392.35 346,-392.35 340,-386.35 340,-380.35 340,-380.35 340,-358.35 340,-358.35 340,-352.35 346,-346.35 352,-346.35"/>
<text text-anchor="middle" x="372.5" y="-365.65" font-family="Times,serif" font-size="14.00">811174P</text>
<polyline fill="none" stroke="black" points="405,-346.35 405,-392.35"/>
<text text-anchor="middle" x="509.5" y="-365.65" font-family="Times,serif" font-size="14.00">Ohjelmistoliiketoiminnan perusteet</text>
<polyline fill="none" stroke="black" points="614,-346.35 614,-392.35"/>
<text text-anchor="middle" x="625.5" y="-377.15" font-family="Times,serif" font-size="14.00">1</text>
<polyline fill="none" stroke="black" points="614,-369.35 637,-369.35"/>
<text text-anchor="middle" x="625.5" y="-354.15" font-family="Times,serif" font-size="14.00">3</text>
</g>
<!-- c810136P&#45;&gt;c811174P -->
<g id="edge4" class="edge">
<title>c810136P&#45;&gt;c811174P</title>
<path fill="none" stroke="black" d="M304.21,-369.35C312.71,-369.35 321.28,-369.35 329.83,-369.35"/>
<polygon fill="black" stroke="black" points="329.85,-372.85 339.85,-369.35 329.85,-365.85 329.85,-372.85"/>
</g>
<!-- c811103P -->
<g id="node19" class="node">
<title>c811103P</title>
<path fill="#caff70" stroke="black" d="M365,-496.35C365,-496.35 612,-496.35 612,-496.35 618,-496.35 624,-502.35 624,-508.35 624,-508.35 624,-530.35 624,-530.35 624,-536.35 618,-542.35 612,-542.35 612,-542.35 365,-542.35 365,-542.35 359,-542.35 353,-536.35 353,-530.35 353,-530.35 353,-508.35 353,-508.35 353,-502.35 359,-496.35 365,-496.35"/>
<text text-anchor="middle" x="385.5" y="-515.65" font-family="Times,serif" font-size="14.00">811103P</text>
<polyline fill="none" stroke="black" points="418,-496.35 418,-542.35"/>
<text text-anchor="middle" x="509.5" y="-515.65" font-family="Times,serif" font-size="14.00">Johdatus ohjelmistotuotantoon</text>
<polyline fill="none" stroke="black" points="601,-496.35 601,-542.35"/>
<text text-anchor="middle" x="612.5" y="-527.15" font-family="Times,serif" font-size="14.00">1</text>
<polyline fill="none" stroke="black" points="601,-519.35 624,-519.35"/>
<text text-anchor="middle" x="612.5" y="-504.15" font-family="Times,serif" font-size="14.00">2</text>
</g>
<!-- c810136P&#45;&gt;c811103P -->
<g id="edge10" class="edge">
<title>c810136P&#45;&gt;c811103P</title>
<path fill="none" stroke="black" d="M289.84,-392.53C294.83,-395.45 299.58,-398.71 304,-402.35 334.39,-427.42 309.77,-458.1 340,-483.35 343.3,-486.11 346.78,-488.66 350.4,-491.02"/>
<polygon fill="black" stroke="black" points="348.7,-494.09 359.09,-496.2 352.28,-488.07 348.7,-494.09"/>
</g>
<!-- c810136P&#45;&gt;c811383A -->
<g id="edge27" class="edge">
<title>c810136P&#45;&gt;c811383A</title>
<path fill="none" stroke="black" d="M294.16,-346.24C297.66,-343.56 300.95,-340.6 304,-337.35 374.48,-262.2 264.05,-177.97 340,-108.35 501.58,39.75 612.81,-74.35 832,-74.35 832,-74.35 832,-74.35 2004.5,-74.35 2325.24,-74.35 2468.64,102.05 2726,-89.35 2791.85,-138.33 2842.89,-394.38 2859.36,-486.39"/>
<polygon fill="black" stroke="black" points="2855.92,-487.04 2861.11,-496.28 2862.81,-485.82 2855.92,-487.04"/>
</g>
<!-- c811102P -->
<g id="node12" class="node">
<title>c811102P</title>
<path fill="yellow" stroke="black" d="M61,-281.35C61,-281.35 259,-281.35 259,-281.35 265,-281.35 271,-287.35 271,-293.35 271,-293.35 271,-315.35 271,-315.35 271,-321.35 265,-327.35 259,-327.35 259,-327.35 61,-327.35 61,-327.35 55,-327.35 49,-321.35 49,-315.35 49,-315.35 49,-293.35 49,-293.35 49,-287.35 55,-281.35 61,-281.35"/>
<text text-anchor="middle" x="81.5" y="-300.65" font-family="Times,serif" font-size="14.00">811102P</text>
<polyline fill="none" stroke="black" points="114,-281.35 114,-327.35"/>
<text text-anchor="middle" x="181" y="-300.65" font-family="Times,serif" font-size="14.00">Laitteet ja tietoverkot</text>
<polyline fill="none" stroke="black" points="248,-281.35 248,-327.35"/>
<text text-anchor="middle" x="259.5" y="-312.15" font-family="Times,serif" font-size="14.00">1</text>
<polyline fill="none" stroke="black" points="248,-304.35 271,-304.35"/>
<text text-anchor="middle" x="259.5" y="-289.15" font-family="Times,serif" font-size="14.00">1</text>
</g>
<!-- c811102P&#45;&gt;c811168P -->
<g id="edge3" class="edge">
<title>c811102P&#45;&gt;c811168P</title>
<path fill="none" stroke="black" d="M271.08,-304.35C312.21,-304.35 358.39,-304.35 397.49,-304.35"/>
<polygon fill="black" stroke="black" points="397.8,-307.85 407.8,-304.35 397.8,-300.85 397.8,-307.85"/>
</g>
<!-- c811104P -->
<g id="node13" class="node">
<title>c811104P</title>
<path fill="#ffd700" stroke="black" d="M404,-153.35C404,-153.35 573,-153.35 573,-153.35 579,-153.35 585,-159.35 585,-165.35 585,-165.35 585,-187.35 585,-187.35 585,-193.35 579,-199.35 573,-199.35 573,-199.35 404,-199.35 404,-199.35 398,-199.35 392,-193.35 392,-187.35 392,-187.35 392,-165.35 392,-165.35 392,-159.35 398,-153.35 404,-153.35"/>
<text text-anchor="middle" x="424.5" y="-172.65" font-family="Times,serif" font-size="14.00">811104P</text>
<polyline fill="none" stroke="black" points="457,-153.35 457,-199.35"/>
<text text-anchor="middle" x="503.5" y="-172.65" font-family="Times,serif" font-size="14.00">Ohjelmointi 1</text>
<polyline fill="none" stroke="black" points="550,-153.35 550,-199.35"/>
<text text-anchor="middle" x="567.5" y="-184.15" font-family="Times,serif" font-size="14.00">1</text>
<polyline fill="none" stroke="black" points="550,-176.35 585,-176.35"/>
<text text-anchor="middle" x="567.5" y="-161.15" font-family="Times,serif" font-size="14.00">1&#45;2</text>
</g>
<!-- c811322A -->
<g id="node14" class="node">
<title>c811322A</title>
<path fill="#ffd700" stroke="black" d="M747.5,-186.35C747.5,-186.35 918.5,-186.35 918.5,-186.35 924.5,-186.35 930.5,-192.35 930.5,-198.35 930.5,-198.35 930.5,-220.35 930.5,-220.35 930.5,-226.35 924.5,-232.35 918.5,-232.35 918.5,-232.35 747.5,-232.35 747.5,-232.35 741.5,-232.35 735.5,-226.35 735.5,-220.35 735.5,-220.35 735.5,-198.35 735.5,-198.35 735.5,-192.35 741.5,-186.35 747.5,-186.35"/>
<text text-anchor="middle" x="769" y="-205.65" font-family="Times,serif" font-size="14.00">811322A</text>
<polyline fill="none" stroke="black" points="802.5,-186.35 802.5,-232.35"/>
<text text-anchor="middle" x="849" y="-205.65" font-family="Times,serif" font-size="14.00">Ohjelmointi 2</text>
<polyline fill="none" stroke="black" points="895.5,-186.35 895.5,-232.35"/>
<text text-anchor="middle" x="913" y="-217.15" font-family="Times,serif" font-size="14.00">1</text>
<polyline fill="none" stroke="black" points="895.5,-209.35 930.5,-209.35"/>
<text text-anchor="middle" x="913" y="-194.15" font-family="Times,serif" font-size="14.00">3&#45;4</text>
</g>
<!-- c811104P&#45;&gt;c811322A -->
<g id="edge5" class="edge">
<title>c811104P&#45;&gt;c811322A</title>
<path fill="none" stroke="black" d="M585.36,-185.59C628.87,-189.78 680.5,-194.76 725.24,-199.07"/>
<polygon fill="black" stroke="black" points="724.98,-202.56 735.27,-200.03 725.65,-195.59 724.98,-202.56"/>
</g>
<!-- c811325A -->
<g id="node15" class="node">
<title>c811325A</title>
<path fill="#ffd700" stroke="black" d="M759.5,-121.35C759.5,-121.35 906.5,-121.35 906.5,-121.35 912.5,-121.35 918.5,-127.35 918.5,-133.35 918.5,-133.35 918.5,-155.35 918.5,-155.35 918.5,-161.35 912.5,-167.35 906.5,-167.35 906.5,-167.35 759.5,-167.35 759.5,-167.35 753.5,-167.35 747.5,-161.35 747.5,-155.35 747.5,-155.35 747.5,-133.35 747.5,-133.35 747.5,-127.35 753.5,-121.35 759.5,-121.35"/>
<text text-anchor="middle" x="781" y="-140.65" font-family="Times,serif" font-size="14.00">811325A</text>
<polyline fill="none" stroke="black" points="814.5,-121.35 814.5,-167.35"/>
<text text-anchor="middle" x="855" y="-140.65" font-family="Times,serif" font-size="14.00">Tietokannat</text>
<polyline fill="none" stroke="black" points="895.5,-121.35 895.5,-167.35"/>
<text text-anchor="middle" x="907" y="-152.15" font-family="Times,serif" font-size="14.00">2</text>
<polyline fill="none" stroke="black" points="895.5,-144.35 918.5,-144.35"/>
<text text-anchor="middle" x="907" y="-129.15" font-family="Times,serif" font-size="14.00">1</text>
</g>
<!-- c811104P&#45;&gt;c811325A -->
<g id="edge9" class="edge">
<title>c811104P&#45;&gt;c811325A</title>
<path fill="none" stroke="black" d="M585.36,-167.4C632.74,-162.97 689.75,-157.65 737.01,-153.23"/>
<polygon fill="black" stroke="black" points="737.62,-156.69 747.25,-152.27 736.97,-149.72 737.62,-156.69"/>
</g>
<!-- c811367A -->
<g id="node17" class="node">
<title>c811367A</title>
<path fill="#ffd700" stroke="black" d="M1156,-186.35C1156,-186.35 1315,-186.35 1315,-186.35 1321,-186.35 1327,-192.35 1327,-198.35 1327,-198.35 1327,-220.35 1327,-220.35 1327,-226.35 1321,-232.35 1315,-232.35 1315,-232.35 1156,-232.35 1156,-232.35 1150,-232.35 1144,-226.35 1144,-220.35 1144,-220.35 1144,-198.35 1144,-198.35 1144,-192.35 1150,-186.35 1156,-186.35"/>
<text text-anchor="middle" x="1177.5" y="-205.65" font-family="Times,serif" font-size="14.00">811367A</text>
<polyline fill="none" stroke="black" points="1211,-186.35 1211,-232.35"/>
<text text-anchor="middle" x="1257.5" y="-205.65" font-family="Times,serif" font-size="14.00">Ohjelmointi 3</text>
<polyline fill="none" stroke="black" points="1304,-186.35 1304,-232.35"/>
<text text-anchor="middle" x="1315.5" y="-217.15" font-family="Times,serif" font-size="14.00">2</text>
<polyline fill="none" stroke="black" points="1304,-209.35 1327,-209.35"/>
<text text-anchor="middle" x="1315.5" y="-194.15" font-family="Times,serif" font-size="14.00">3</text>
</g>
<!-- c811322A&#45;&gt;c811367A -->
<g id="edge6" class="edge">
<title>c811322A&#45;&gt;c811367A</title>
<path fill="none" stroke="black" d="M930.69,-209.35C992.09,-209.35 1071.41,-209.35 1133.6,-209.35"/>
<polygon fill="black" stroke="black" points="1133.82,-212.85 1143.82,-209.35 1133.82,-205.85 1133.82,-212.85"/>
</g>
<!-- c811301A -->
<g id="node21" class="node">
<title>c811301A</title>
<path fill="#caff70" stroke="black" d="M1088,-496.35C1088,-496.35 1383,-496.35 1383,-496.35 1389,-496.35 1395,-502.35 1395,-508.35 1395,-508.35 1395,-530.35 1395,-530.35 1395,-536.35 1389,-542.35 1383,-542.35 1383,-542.35 1088,-542.35 1088,-542.35 1082,-542.35 1076,-536.35 1076,-530.35 1076,-530.35 1076,-508.35 1076,-508.35 1076,-502.35 1082,-496.35 1088,-496.35"/>
<text text-anchor="middle" x="1109.5" y="-515.65" font-family="Times,serif" font-size="14.00">811301A</text>
<polyline fill="none" stroke="black" points="1143,-496.35 1143,-542.35"/>
<text text-anchor="middle" x="1257.5" y="-515.65" font-family="Times,serif" font-size="14.00">Ohjelmistojen mallinnus ja suunnittelu</text>
<polyline fill="none" stroke="black" points="1372,-496.35 1372,-542.35"/>
<text text-anchor="middle" x="1383.5" y="-527.15" font-family="Times,serif" font-size="14.00">2</text>
<polyline fill="none" stroke="black" points="1372,-519.35 1395,-519.35"/>
<text text-anchor="middle" x="1383.5" y="-504.15" font-family="Times,serif" font-size="14.00">1</text>
</g>
<!-- c811322A&#45;&gt;c811301A -->
<g id="edge13" class="edge">
<title>c811322A&#45;&gt;c811301A</title>
<path fill="none" stroke="black" d="M863.78,-232.4C935.31,-287.77 1116.8,-428.25 1196.26,-489.76"/>
<polygon fill="black" stroke="black" points="1194.48,-492.8 1204.53,-496.16 1198.76,-487.27 1194.48,-492.8"/>
</g>
<!-- c811312A -->
<g id="node16" class="node">
<title>c811312A</title>
<path fill="#ffd700" stroke="black" d="M1119.5,-121.35C1119.5,-121.35 1351.5,-121.35 1351.5,-121.35 1357.5,-121.35 1363.5,-127.35 1363.5,-133.35 1363.5,-133.35 1363.5,-155.35 1363.5,-155.35 1363.5,-161.35 1357.5,-167.35 1351.5,-167.35 1351.5,-167.35 1119.5,-167.35 1119.5,-167.35 1113.5,-167.35 1107.5,-161.35 1107.5,-155.35 1107.5,-155.35 1107.5,-133.35 1107.5,-133.35 1107.5,-127.35 1113.5,-121.35 1119.5,-121.35"/>
<text text-anchor="middle" x="1141" y="-140.65" font-family="Times,serif" font-size="14.00">811312A</text>
<polyline fill="none" stroke="black" points="1174.5,-121.35 1174.5,-167.35"/>
<text text-anchor="middle" x="1257.5" y="-140.65" font-family="Times,serif" font-size="14.00">Tietorakenteet ja algoritmit</text>
<polyline fill="none" stroke="black" points="1340.5,-121.35 1340.5,-167.35"/>
<text text-anchor="middle" x="1352" y="-152.15" font-family="Times,serif" font-size="14.00">2</text>
<polyline fill="none" stroke="black" points="1340.5,-144.35 1363.5,-144.35"/>
<text text-anchor="middle" x="1352" y="-129.15" font-family="Times,serif" font-size="14.00">2</text>
</g>
<!-- c811325A&#45;&gt;c811312A -->
<g id="edge8" class="edge">
<title>c811325A&#45;&gt;c811312A</title>
<path fill="none" stroke="black" d="M918.94,-144.35C970.7,-144.35 1038.07,-144.35 1097.26,-144.35"/>
<polygon fill="black" stroke="black" points="1097.44,-147.85 1107.44,-144.35 1097.44,-140.85 1097.44,-147.85"/>
</g>
<!-- c811319A -->
<g id="node23" class="node">
<title>c811319A</title>
<path fill="#caff70" stroke="black" d="M1880,-496.35C1880,-496.35 2127,-496.35 2127,-496.35 2133,-496.35 2139,-502.35 2139,-508.35 2139,-508.35 2139,-530.35 2139,-530.35 2139,-536.35 2133,-542.35 2127,-542.35 2127,-542.35 1880,-542.35 1880,-542.35 1874,-542.35 1868,-536.35 1868,-530.35 1868,-530.35 1868,-508.35 1868,-508.35 1868,-502.35 1874,-496.35 1880,-496.35"/>
<text text-anchor="middle" x="1901.5" y="-515.65" font-family="Times,serif" font-size="14.00">811319A</text>
<polyline fill="none" stroke="black" points="1935,-496.35 1935,-542.35"/>
<text text-anchor="middle" x="2025.5" y="-515.65" font-family="Times,serif" font-size="14.00">Tietomallinnus ja &#45;suunnittelu</text>
<polyline fill="none" stroke="black" points="2116,-496.35 2116,-542.35"/>
<text text-anchor="middle" x="2127.5" y="-527.15" font-family="Times,serif" font-size="14.00">2</text>
<polyline fill="none" stroke="black" points="2116,-519.35 2139,-519.35"/>
<text text-anchor="middle" x="2127.5" y="-504.15" font-family="Times,serif" font-size="14.00">3</text>
</g>
<!-- c811325A&#45;&gt;c811319A -->
<g id="edge16" class="edge">
<title>c811325A&#45;&gt;c811319A</title>
<path fill="none" stroke="black" d="M918.8,-148.39C944.56,-153.01 971.66,-161.64 993,-177.35 1019.59,-196.94 1003.51,-221.36 1029,-242.35 1297.63,-463.59 1435.53,-402.47 1774,-483.35 1800.99,-489.8 1830.06,-495.4 1858.12,-500.12"/>
<polygon fill="black" stroke="black" points="1857.56,-503.58 1868,-501.76 1858.7,-496.67 1857.56,-503.58"/>
</g>
<!-- c811368A -->
<g id="node18" class="node">
<title>c811368A</title>
<path fill="#ffd700" stroke="black" d="M1532.5,-154.35C1532.5,-154.35 1691.5,-154.35 1691.5,-154.35 1697.5,-154.35 1703.5,-160.35 1703.5,-166.35 1703.5,-166.35 1703.5,-188.35 1703.5,-188.35 1703.5,-194.35 1697.5,-200.35 1691.5,-200.35 1691.5,-200.35 1532.5,-200.35 1532.5,-200.35 1526.5,-200.35 1520.5,-194.35 1520.5,-188.35 1520.5,-188.35 1520.5,-166.35 1520.5,-166.35 1520.5,-160.35 1526.5,-154.35 1532.5,-154.35"/>
<text text-anchor="middle" x="1554" y="-173.65" font-family="Times,serif" font-size="14.00">811368A</text>
<polyline fill="none" stroke="black" points="1587.5,-154.35 1587.5,-200.35"/>
<text text-anchor="middle" x="1634" y="-173.65" font-family="Times,serif" font-size="14.00">Ohjelmointi 4</text>
<polyline fill="none" stroke="black" points="1680.5,-154.35 1680.5,-200.35"/>
<text text-anchor="middle" x="1692" y="-185.15" font-family="Times,serif" font-size="14.00">2</text>
<polyline fill="none" stroke="black" points="1680.5,-177.35 1703.5,-177.35"/>
<text text-anchor="middle" x="1692" y="-162.15" font-family="Times,serif" font-size="14.00">4</text>
</g>
<!-- c811367A&#45;&gt;c811368A -->
<g id="edge7" class="edge">
<title>c811367A&#45;&gt;c811368A</title>
<path fill="none" stroke="black" d="M1327.16,-201.61C1382.4,-196.89 1453.08,-190.85 1510.09,-185.98"/>
<polygon fill="black" stroke="black" points="1510.54,-189.45 1520.21,-185.11 1509.94,-182.48 1510.54,-189.45"/>
</g>
<!-- c811398A -->
<g id="node32" class="node">
<title>c811398A</title>
<path fill="azure" stroke="black" d="M2766,-593.35C2766,-593.35 2966,-593.35 2966,-593.35 2972,-593.35 2978,-599.35 2978,-605.35 2978,-605.35 2978,-627.35 2978,-627.35 2978,-633.35 2972,-639.35 2966,-639.35 2966,-639.35 2766,-639.35 2766,-639.35 2760,-639.35 2754,-633.35 2754,-627.35 2754,-627.35 2754,-605.35 2754,-605.35 2754,-599.35 2760,-593.35 2766,-593.35"/>
<text text-anchor="middle" x="2787.5" y="-612.65" font-family="Times,serif" font-size="14.00">811398A</text>
<polyline fill="none" stroke="black" points="2821,-593.35 2821,-639.35"/>
<text text-anchor="middle" x="2882" y="-612.65" font-family="Times,serif" font-size="14.00">Kandidaattiprojekti</text>
<polyline fill="none" stroke="black" points="2943,-593.35 2943,-639.35"/>
<text text-anchor="middle" x="2960.5" y="-624.15" font-family="Times,serif" font-size="14.00">3</text>
<polyline fill="none" stroke="black" points="2943,-616.35 2978,-616.35"/>
<text text-anchor="middle" x="2960.5" y="-601.15" font-family="Times,serif" font-size="14.00">3&#45;4</text>
</g>
<!-- c811368A&#45;&gt;c811398A -->
<g id="edge30" class="edge">
<title>c811368A&#45;&gt;c811398A</title>
<path fill="none" stroke="black" d="M1673.57,-154.28C1703.34,-144.14 1740.04,-133.41 1774,-128.35 1878.63,-112.79 2648.78,-56.06 2726,-128.35 2794.94,-192.89 2704.09,-472.19 2754,-552.35 2763.24,-567.19 2777.26,-578.95 2792.27,-588.12"/>
<polygon fill="black" stroke="black" points="2790.77,-591.3 2801.18,-593.23 2794.24,-585.22 2790.77,-591.3"/>
</g>
<!-- c811391A -->
<g id="node20" class="node">
<title>c811391A</title>
<path fill="#caff70" stroke="black" d="M738.5,-496.35C738.5,-496.35 927.5,-496.35 927.5,-496.35 933.5,-496.35 939.5,-502.35 939.5,-508.35 939.5,-508.35 939.5,-530.35 939.5,-530.35 939.5,-536.35 933.5,-542.35 927.5,-542.35 927.5,-542.35 738.5,-542.35 738.5,-542.35 732.5,-542.35 726.5,-536.35 726.5,-530.35 726.5,-530.35 726.5,-508.35 726.5,-508.35 726.5,-502.35 732.5,-496.35 738.5,-496.35"/>
<text text-anchor="middle" x="760" y="-515.65" font-family="Times,serif" font-size="14.00">811391A</text>
<polyline fill="none" stroke="black" points="793.5,-496.35 793.5,-542.35"/>
<text text-anchor="middle" x="855" y="-515.65" font-family="Times,serif" font-size="14.00">Vaatimusmäärittely</text>
<polyline fill="none" stroke="black" points="916.5,-496.35 916.5,-542.35"/>
<text text-anchor="middle" x="928" y="-527.15" font-family="Times,serif" font-size="14.00">1</text>
<polyline fill="none" stroke="black" points="916.5,-519.35 939.5,-519.35"/>
<text text-anchor="middle" x="928" y="-504.15" font-family="Times,serif" font-size="14.00">4</text>
</g>
<!-- c811103P&#45;&gt;c811391A -->
<g id="edge11" class="edge">
<title>c811103P&#45;&gt;c811391A</title>
<path fill="none" stroke="black" d="M624.37,-519.35C654.68,-519.35 686.59,-519.35 716.04,-519.35"/>
<polygon fill="black" stroke="black" points="716.35,-522.85 726.35,-519.35 716.35,-515.85 716.35,-522.85"/>
</g>
<!-- c811391A&#45;&gt;c811301A -->
<g id="edge12" class="edge">
<title>c811391A&#45;&gt;c811301A</title>
<path fill="none" stroke="black" d="M939.75,-519.35C978.26,-519.35 1022.82,-519.35 1065.45,-519.35"/>
<polygon fill="black" stroke="black" points="1065.66,-522.85 1075.66,-519.35 1065.66,-515.85 1065.66,-522.85"/>
</g>
<!-- c811306A -->
<g id="node22" class="node">
<title>c811306A</title>
<path fill="#caff70" stroke="black" d="M1490,-496.35C1490,-496.35 1734,-496.35 1734,-496.35 1740,-496.35 1746,-502.35 1746,-508.35 1746,-508.35 1746,-530.35 1746,-530.35 1746,-536.35 1740,-542.35 1734,-542.35 1734,-542.35 1490,-542.35 1490,-542.35 1484,-542.35 1478,-536.35 1478,-530.35 1478,-530.35 1478,-508.35 1478,-508.35 1478,-502.35 1484,-496.35 1490,-496.35"/>
<text text-anchor="middle" x="1511.5" y="-515.65" font-family="Times,serif" font-size="14.00">811306A</text>
<polyline fill="none" stroke="black" points="1545,-496.35 1545,-542.35"/>
<text text-anchor="middle" x="1634" y="-515.65" font-family="Times,serif" font-size="14.00">Ohjelmistojen laatu ja testaus</text>
<polyline fill="none" stroke="black" points="1723,-496.35 1723,-542.35"/>
<text text-anchor="middle" x="1734.5" y="-527.15" font-family="Times,serif" font-size="14.00">2</text>
<polyline fill="none" stroke="black" points="1723,-519.35 1746,-519.35"/>
<text text-anchor="middle" x="1734.5" y="-504.15" font-family="Times,serif" font-size="14.00">2</text>
</g>
<!-- c811301A&#45;&gt;c811306A -->
<g id="edge14" class="edge">
<title>c811301A&#45;&gt;c811306A</title>
<path fill="none" stroke="black" d="M1395.05,-519.35C1419.14,-519.35 1443.88,-519.35 1467.62,-519.35"/>
<polygon fill="black" stroke="black" points="1467.73,-522.85 1477.73,-519.35 1467.73,-515.85 1467.73,-522.85"/>
</g>
<!-- c811306A&#45;&gt;c811319A -->
<g id="edge15" class="edge">
<title>c811306A&#45;&gt;c811319A</title>
<path fill="none" stroke="black" d="M1746.23,-519.35C1782.07,-519.35 1821.01,-519.35 1857.46,-519.35"/>
<polygon fill="black" stroke="black" points="1857.68,-522.85 1867.68,-519.35 1857.68,-515.85 1857.68,-522.85"/>
</g>
<!-- c815345A -->
<g id="node24" class="node">
<title>c815345A</title>
<path fill="#caff70" stroke="black" d="M2381,-626.35C2381,-626.35 2598,-626.35 2598,-626.35 2604,-626.35 2610,-632.35 2610,-638.35 2610,-638.35 2610,-660.35 2610,-660.35 2610,-666.35 2604,-672.35 2598,-672.35 2598,-672.35 2381,-672.35 2381,-672.35 2375,-672.35 2369,-666.35 2369,-660.35 2369,-660.35 2369,-638.35 2369,-638.35 2369,-632.35 2375,-626.35 2381,-626.35"/>
<text text-anchor="middle" x="2402.5" y="-645.65" font-family="Times,serif" font-size="14.00">815345A</text>
<polyline fill="none" stroke="black" points="2436,-626.35 2436,-672.35"/>
<text text-anchor="middle" x="2511.5" y="-645.65" font-family="Times,serif" font-size="14.00">Ohjelmistoarkkitehtuurit</text>
<polyline fill="none" stroke="black" points="2587,-626.35 2587,-672.35"/>
<text text-anchor="middle" x="2598.5" y="-657.15" font-family="Times,serif" font-size="14.00">2</text>
<polyline fill="none" stroke="black" points="2587,-649.35 2610,-649.35"/>
<text text-anchor="middle" x="2598.5" y="-634.15" font-family="Times,serif" font-size="14.00">4</text>
</g>
<!-- c811319A&#45;&gt;c815345A -->
<g id="edge17" class="edge">
<title>c811319A&#45;&gt;c815345A</title>
<path fill="none" stroke="black" d="M2054.98,-542.54C2105.92,-565 2187.37,-598.37 2261,-617.35 2292.33,-625.43 2326.64,-631.6 2358.9,-636.27"/>
<polygon fill="black" stroke="black" points="2358.45,-639.74 2368.84,-637.66 2359.43,-632.8 2358.45,-639.74"/>
</g>
<!-- c815345A&#45;&gt;c811398A -->
<g id="edge29" class="edge">
<title>c815345A&#45;&gt;c811398A</title>
<path fill="none" stroke="black" d="M2610.02,-638.82C2652.73,-635.06 2700.87,-630.82 2743.72,-627.04"/>
<polygon fill="black" stroke="black" points="2744.27,-630.51 2753.92,-626.14 2743.65,-623.53 2744.27,-630.51"/>
</g>
<!-- c811166P -->
<g id="node25" class="node">
<title>c811166P</title>
<path fill="antiquewhite" stroke="black" d="M717,-731.35C717,-731.35 949,-731.35 949,-731.35 955,-731.35 961,-737.35 961,-743.35 961,-743.35 961,-765.35 961,-765.35 961,-771.35 955,-777.35 949,-777.35 949,-777.35 717,-777.35 717,-777.35 711,-777.35 705,-771.35 705,-765.35 705,-765.35 705,-743.35 705,-743.35 705,-737.35 711,-731.35 717,-731.35"/>
<text text-anchor="middle" x="737.5" y="-750.65" font-family="Times,serif" font-size="14.00">811166P</text>
<polyline fill="none" stroke="black" points="770,-731.35 770,-777.35"/>
<text text-anchor="middle" x="854" y="-750.65" font-family="Times,serif" font-size="14.00">Tietojärjestelmien perusteet</text>
<polyline fill="none" stroke="black" points="938,-731.35 938,-777.35"/>
<text text-anchor="middle" x="949.5" y="-762.15" font-family="Times,serif" font-size="14.00">1</text>
<polyline fill="none" stroke="black" points="938,-754.35 961,-754.35"/>
<text text-anchor="middle" x="949.5" y="-739.15" font-family="Times,serif" font-size="14.00">2</text>
</g>
<!-- c812360A -->
<g id="node26" class="node">
<title>c812360A</title>
<path fill="antiquewhite" stroke="black" d="M1041,-725.35C1041,-725.35 1430,-725.35 1430,-725.35 1436,-725.35 1442,-731.35 1442,-737.35 1442,-737.35 1442,-759.35 1442,-759.35 1442,-765.35 1436,-771.35 1430,-771.35 1430,-771.35 1041,-771.35 1041,-771.35 1035,-771.35 1029,-765.35 1029,-759.35 1029,-759.35 1029,-737.35 1029,-737.35 1029,-731.35 1035,-725.35 1041,-725.35"/>
<text text-anchor="middle" x="1062.5" y="-744.65" font-family="Times,serif" font-size="14.00">812360A</text>
<polyline fill="none" stroke="black" points="1096,-725.35 1096,-771.35"/>
<text text-anchor="middle" x="1257.5" y="-744.65" font-family="Times,serif" font-size="14.00">Tietojärjestelmien mallintaminen, suunnittelu ja kehitys</text>
<polyline fill="none" stroke="black" points="1419,-725.35 1419,-771.35"/>
<text text-anchor="middle" x="1430.5" y="-756.15" font-family="Times,serif" font-size="14.00">1</text>
<polyline fill="none" stroke="black" points="1419,-748.35 1442,-748.35"/>
<text text-anchor="middle" x="1430.5" y="-733.15" font-family="Times,serif" font-size="14.00">4</text>
</g>
<!-- c811166P&#45;&gt;c812360A -->
<g id="edge18" class="edge">
<title>c811166P&#45;&gt;c812360A</title>
<path fill="none" stroke="black" d="M961.27,-752.45C979.7,-752.17 999.09,-751.88 1018.68,-751.59"/>
<polygon fill="black" stroke="black" points="1018.99,-755.08 1028.94,-751.43 1018.88,-748.08 1018.99,-755.08"/>
</g>
<!-- c812363A -->
<g id="node27" class="node">
<title>c812363A</title>
<path fill="antiquewhite" stroke="black" d="M1498,-723.35C1498,-723.35 1726,-723.35 1726,-723.35 1732,-723.35 1738,-729.35 1738,-735.35 1738,-735.35 1738,-757.35 1738,-757.35 1738,-763.35 1732,-769.35 1726,-769.35 1726,-769.35 1498,-769.35 1498,-769.35 1492,-769.35 1486,-763.35 1486,-757.35 1486,-757.35 1486,-735.35 1486,-735.35 1486,-729.35 1492,-723.35 1498,-723.35"/>
<text text-anchor="middle" x="1519.5" y="-742.65" font-family="Times,serif" font-size="14.00">812363A</text>
<polyline fill="none" stroke="black" points="1553,-723.35 1553,-769.35"/>
<text text-anchor="middle" x="1634" y="-742.65" font-family="Times,serif" font-size="14.00">Ihmislähtöinen suunnittelu</text>
<polyline fill="none" stroke="black" points="1715,-723.35 1715,-769.35"/>
<text text-anchor="middle" x="1726.5" y="-754.15" font-family="Times,serif" font-size="14.00">2</text>
<polyline fill="none" stroke="black" points="1715,-746.35 1738,-746.35"/>
<text text-anchor="middle" x="1726.5" y="-731.15" font-family="Times,serif" font-size="14.00">1</text>
</g>
<!-- c812360A&#45;&gt;c812363A -->
<g id="edge19" class="edge">
<title>c812360A&#45;&gt;c812363A</title>
<path fill="none" stroke="black" d="M1442.1,-747.26C1453.44,-747.2 1464.68,-747.14 1475.67,-747.08"/>
<polygon fill="black" stroke="black" points="1475.69,-750.58 1485.68,-747.02 1475.66,-743.58 1475.69,-750.58"/>
</g>
<!-- c812361A -->
<g id="node28" class="node">
<title>c812361A</title>
<path fill="antiquewhite" stroke="black" d="M1821,-720.35C1821,-720.35 2186,-720.35 2186,-720.35 2192,-720.35 2198,-726.35 2198,-732.35 2198,-732.35 2198,-754.35 2198,-754.35 2198,-760.35 2192,-766.35 2186,-766.35 2186,-766.35 1821,-766.35 1821,-766.35 1815,-766.35 1809,-760.35 1809,-754.35 1809,-754.35 1809,-732.35 1809,-732.35 1809,-726.35 1815,-720.35 1821,-720.35"/>
<text text-anchor="middle" x="1842.5" y="-739.65" font-family="Times,serif" font-size="14.00">812361A</text>
<polyline fill="none" stroke="black" points="1876,-720.35 1876,-766.35"/>
<text text-anchor="middle" x="2025.5" y="-739.65" font-family="Times,serif" font-size="14.00">Tietojärjestelmien hankinta, käyttöönotto ja hallinta</text>
<polyline fill="none" stroke="black" points="2175,-720.35 2175,-766.35"/>
<text text-anchor="middle" x="2186.5" y="-751.15" font-family="Times,serif" font-size="14.00">2</text>
<polyline fill="none" stroke="black" points="2175,-743.35 2198,-743.35"/>
<text text-anchor="middle" x="2186.5" y="-728.15" font-family="Times,serif" font-size="14.00">2</text>
</g>
<!-- c812363A&#45;&gt;c812361A -->
<g id="edge20" class="edge">
<title>c812363A&#45;&gt;c812361A</title>
<path fill="none" stroke="black" d="M1738.12,-745.39C1757.52,-745.24 1777.99,-745.08 1798.59,-744.93"/>
<polygon fill="black" stroke="black" points="1798.74,-748.42 1808.71,-744.85 1798.68,-741.42 1798.74,-748.42"/>
</g>
<!-- c812362A -->
<g id="node29" class="node">
<title>c812362A</title>
<path fill="antiquewhite" stroke="black" d="M2302,-691.35C2302,-691.35 2677,-691.35 2677,-691.35 2683,-691.35 2689,-697.35 2689,-703.35 2689,-703.35 2689,-725.35 2689,-725.35 2689,-731.35 2683,-737.35 2677,-737.35 2677,-737.35 2302,-737.35 2302,-737.35 2296,-737.35 2290,-731.35 2290,-725.35 2290,-725.35 2290,-703.35 2290,-703.35 2290,-697.35 2296,-691.35 2302,-691.35"/>
<text text-anchor="middle" x="2323.5" y="-710.65" font-family="Times,serif" font-size="14.00">812362A</text>
<polyline fill="none" stroke="black" points="2357,-691.35 2357,-737.35"/>
<text text-anchor="middle" x="2511.5" y="-710.65" font-family="Times,serif" font-size="14.00">Liiketoimintaprosessien johtaminen ja mallintaminen</text>
<polyline fill="none" stroke="black" points="2666,-691.35 2666,-737.35"/>
<text text-anchor="middle" x="2677.5" y="-722.15" font-family="Times,serif" font-size="14.00">2</text>
<polyline fill="none" stroke="black" points="2666,-714.35 2689,-714.35"/>
<text text-anchor="middle" x="2677.5" y="-699.15" font-family="Times,serif" font-size="14.00">3</text>
</g>
<!-- c812361A&#45;&gt;c812362A -->
<g id="edge21" class="edge">
<title>c812361A&#45;&gt;c812362A</title>
<path fill="none" stroke="black" d="M2198.22,-731.75C2224.94,-730.15 2252.48,-728.5 2279.46,-726.88"/>
<polygon fill="black" stroke="black" points="2279.99,-730.35 2289.77,-726.26 2279.57,-723.37 2279.99,-730.35"/>
</g>
<!-- c812364A -->
<g id="node30" class="node">
<title>c812364A</title>
<path fill="antiquewhite" stroke="black" d="M685,-666.35C685,-666.35 981,-666.35 981,-666.35 987,-666.35 993,-672.35 993,-678.35 993,-678.35 993,-700.35 993,-700.35 993,-706.35 987,-712.35 981,-712.35 981,-712.35 685,-712.35 685,-712.35 679,-712.35 673,-706.35 673,-700.35 673,-700.35 673,-678.35 673,-678.35 673,-672.35 679,-666.35 685,-666.35"/>
<text text-anchor="middle" x="706.5" y="-685.65" font-family="Times,serif" font-size="14.00">812364A</text>
<polyline fill="none" stroke="black" points="740,-666.35 740,-712.35"/>
<text text-anchor="middle" x="855" y="-685.65" font-family="Times,serif" font-size="14.00">Data&#45;analytiikka liiketoiminnan tukena</text>
<polyline fill="none" stroke="black" points="970,-666.35 970,-712.35"/>
<text text-anchor="middle" x="981.5" y="-697.15" font-family="Times,serif" font-size="14.00">3</text>
<polyline fill="none" stroke="black" points="970,-689.35 993,-689.35"/>
<text text-anchor="middle" x="981.5" y="-674.15" font-family="Times,serif" font-size="14.00">4</text>
</g>
<!-- c812362A&#45;&gt;c812364A -->
<g id="edge22" class="edge">
<title>c812362A&#45;&gt;c812364A</title>
<path fill="none" stroke="black" d="M2289.77,-711.35C1961.41,-706.39 1311.33,-696.57 1003.38,-691.91"/>
<polygon fill="black" stroke="black" points="1003.07,-688.41 993.02,-691.76 1002.96,-695.41 1003.07,-688.41"/>
</g>
<!-- c812362A&#45;&gt;c811398A -->
<g id="edge31" class="edge">
<title>c812362A&#45;&gt;c811398A</title>
<path fill="none" stroke="black" d="M2689,-691.89C2701.61,-689.08 2714.04,-685.91 2726,-682.35 2757.15,-673.09 2790.08,-657.72 2816.07,-644.15"/>
<polygon fill="black" stroke="black" points="2817.77,-647.21 2824.96,-639.44 2814.49,-641.03 2817.77,-647.21"/>
</g>
<!-- c811397A -->
<g id="node31" class="node">
<title>c811397A</title>
<path fill="azure" stroke="black" d="M2373,-561.35C2373,-561.35 2606,-561.35 2606,-561.35 2612,-561.35 2618,-567.35 2618,-573.35 2618,-573.35 2618,-595.35 2618,-595.35 2618,-601.35 2612,-607.35 2606,-607.35 2606,-607.35 2373,-607.35 2373,-607.35 2367,-607.35 2361,-601.35 2361,-595.35 2361,-595.35 2361,-573.35 2361,-573.35 2361,-567.35 2367,-561.35 2373,-561.35"/>
<text text-anchor="middle" x="2394.5" y="-580.65" font-family="Times,serif" font-size="14.00">811397A</text>
<polyline fill="none" stroke="black" points="2428,-561.35 2428,-607.35"/>
<text text-anchor="middle" x="2511.5" y="-580.65" font-family="Times,serif" font-size="14.00">Projektitoiminnan perusteet</text>
<polyline fill="none" stroke="black" points="2595,-561.35 2595,-607.35"/>
<text text-anchor="middle" x="2606.5" y="-592.15" font-family="Times,serif" font-size="14.00">2</text>
<polyline fill="none" stroke="black" points="2595,-584.35 2618,-584.35"/>
<text text-anchor="middle" x="2606.5" y="-569.15" font-family="Times,serif" font-size="14.00">4</text>
</g>
<!-- c811397A&#45;&gt;c811398A -->
<g id="edge28" class="edge">
<title>c811397A&#45;&gt;c811398A</title>
<path fill="none" stroke="black" d="M2618.07,-595.26C2658.72,-598.73 2703.55,-602.56 2743.74,-605.99"/>
<polygon fill="black" stroke="black" points="2743.59,-609.49 2753.85,-606.86 2744.18,-602.52 2743.59,-609.49"/>
</g>
<!-- c811393A&#45;&gt;c811383A -->
<g id="edge25" class="edge">
<title>c811393A&#45;&gt;c811383A</title>
<path fill="none" stroke="black" d="M2611.06,-519.35C2657.57,-519.35 2710.41,-519.35 2755.79,-519.35"/>
<polygon fill="black" stroke="black" points="2755.95,-522.85 2765.95,-519.35 2755.95,-515.85 2755.95,-522.85"/>
</g>
<!-- c813307A -->
<g id="node35" class="node">
<title>c813307A</title>
<path fill="azure" stroke="black" d="M3026,-496.35C3026,-496.35 3185,-496.35 3185,-496.35 3191,-496.35 3197,-502.35 3197,-508.35 3197,-508.35 3197,-530.35 3197,-530.35 3197,-536.35 3191,-542.35 3185,-542.35 3185,-542.35 3026,-542.35 3026,-542.35 3020,-542.35 3014,-536.35 3014,-530.35 3014,-530.35 3014,-508.35 3014,-508.35 3014,-502.35 3020,-496.35 3026,-496.35"/>
<text text-anchor="middle" x="3047.5" y="-515.65" font-family="Times,serif" font-size="14.00">813307A</text>
<polyline fill="none" stroke="black" points="3081,-496.35 3081,-542.35"/>
<text text-anchor="middle" x="3127.5" y="-515.65" font-family="Times,serif" font-size="14.00">Kypsyysnäyte</text>
<polyline fill="none" stroke="black" points="3174,-496.35 3174,-542.35"/>
<text text-anchor="middle" x="3185.5" y="-527.15" font-family="Times,serif" font-size="14.00">3</text>
<polyline fill="none" stroke="black" points="3174,-519.35 3197,-519.35"/>
<text text-anchor="middle" x="3185.5" y="-504.15" font-family="Times,serif" font-size="14.00">4</text>
</g>
<!-- c811383A&#45;&gt;c813307A -->
<g id="edge32" class="edge">
<title>c811383A&#45;&gt;c813307A</title>
<path fill="none" stroke="black" d="M2966,-519.35C2978.33,-519.35 2990.95,-519.35 3003.32,-519.35"/>
<polygon fill="black" stroke="black" points="3003.63,-522.85 3013.63,-519.35 3003.63,-515.85 3003.63,-522.85"/>
</g>
</g>
</svg>
